<?xml version="1.0" encoding="UTF-8" standalone="no"?>
<!DOCTYPE svg PUBLIC "-//W3C//DTD SVG 1.1//EN" "http://www.w3.org/Graphics/SVG/1.1/DTD/svg11.dtd">
<svg width="100%" height="100%" viewBox="0 0 2500 2500" version="1.1" xmlns="http://www.w3.org/2000/svg" xmlns:xlink="http://www.w3.org/1999/xlink" xml:space="preserve" xmlns:serif="http://www.serif.com/" style="fill-rule:evenodd;clip-rule:evenodd;stroke-linejoin:round;stroke-miterlimit:2;">
    <g id="background" transform="matrix(1,0,0,1,952.36,829.055)">
        <g transform="matrix(4.29473,0,0,4.2891,-981.086,-1357.06)">
            <rect x="1.25" y="0" width="594.031" height="841.89" style="fill:rgb(165,107,4);"/>
        </g>
        <g transform="matrix(2.75416,0,0,2.75416,-641.708,-593.314)">
            <ellipse cx="404" cy="712" rx="237" ry="76" style="fill:rgb(142,85,0);"/>
        </g>
        <g transform="matrix(3.43993,0,0,3.99345,-862.802,-1224.21)">
            <rect x="-30" y="-32" width="735" height="463" style="fill:rgb(142,85,0);"/>
        </g>
    </g>
    <g id="dog" transform="matrix(1.24777,0,0,1.24777,833.194,802.684)">
        <g id="fill" transform="matrix(0.801432,0,0,0.801432,-659.868,-1047.17)">
            <path d="M1175.93,1968.41C1181.33,1970.52 1190.81,1975.61 1196.72,1986.76C1207.28,2006.67 1202.82,2002 1205.32,2020.37C1208.14,2041.08 1184.31,2048.15 1178.73,2065.37C1171.62,2087.3 1188.53,2115.58 1169.85,2132.33C1140.02,2159.09 1146.04,2171.83 1146.04,2171.83C1146.04,2171.83 1173.71,2152.4 1183.13,2144.87C1206.57,2126.14 1246.87,2101.72 1274.99,2090.96C1315.52,2075.44 1321.79,2082.45 1363.73,2074.46C1380.76,2071.22 1406.25,2066.39 1406.25,2066.39C1406.25,2066.39 1412.89,2013.58 1413.36,1998.11C1413.74,1985.17 1395.73,1981.66 1387.06,1980.48C1366.46,1977.7 1303.03,1970.46 1300.94,1962.88C1299.12,1956.28 1303.16,1897.07 1304.54,1874.38C1308.53,1809 1315.2,1790.63 1319.98,1744.58C1321.74,1727.62 1326.67,1652.64 1328.14,1635.66C1329.78,1616.66 1332.26,1598.98 1347.39,1588.97C1360.71,1580.15 1434.26,1605.22 1449.25,1590.3C1458.38,1581.21 1455.1,1563.62 1456.24,1551.91C1457.36,1540.42 1463.01,1521.43 1465.95,1520.62C1468.8,1519.83 1508.99,1543.33 1527.7,1550.76C1552.37,1560.57 1556.47,1523.18 1579.61,1525.6C1584.82,1526.14 1599.08,1556.85 1610.03,1560.89C1616.02,1563.1 1677.1,1521.15 1681.27,1523.79C1685.23,1526.3 1673.9,1582.69 1686.02,1601.41C1694.78,1614.94 1714.05,1607.89 1726.21,1611.25C1737.5,1614.38 1770.73,1622.94 1778.4,1632.21C1791.71,1648.28 1784.73,1671.41 1784.79,1689.57C1784.95,1741.19 1786.19,1792.8 1787.14,1844.41C1787.87,1883.8 1793.07,1925.17 1780.02,1963.47C1764.88,2007.91 1697.12,1991.16 1666.47,1989.38C1661.15,1989.07 1648.34,1988.31 1644.19,1993.84C1636.48,2004.11 1638.79,2066.63 1638.79,2066.63C1638.79,2066.63 1691.88,2083.49 1714.85,2090.19C1782.61,2109.97 1848.54,2154.08 1892.25,2209.72C1896.31,2214.89 1900.32,2220.2 1903.31,2226.06C1921.62,2261.93 1888.24,2303.47 1865.77,2328.37C1859.89,2334.89 1842.44,2349.42 1838.74,2357.98C1835.08,2366.41 1836.44,2392.5 1835.71,2412.49C1834.81,2437.33 1826.05,2472.3 1830.74,2479.73C1837.12,2489.82 1856.46,2490.19 1869.2,2497.82C1869.2,2497.82 1863.57,2548.98 1862.71,2555.18C1860.13,2573.93 1848.24,2624.53 1848.24,2624.53C1848.24,2624.53 1804.41,2629.56 1787.84,2630.68C1754.64,2632.91 1686.63,2636.72 1686.63,2636.72C1686.63,2636.72 1657.46,2618.09 1626.13,2609.82C1601.4,2603.29 1530.16,2594.54 1530.16,2594.54C1530.16,2594.54 1526.38,2562.97 1537.46,2549.47C1565.38,2515.48 1587.34,2476.93 1614.64,2442.44C1619.83,2435.88 1638.13,2433.68 1638.13,2433.68C1638.13,2433.68 1646.25,2388.57 1624.21,2392.38C1567.22,2402.23 1510.89,2415.56 1454.26,2427.32C1441.76,2429.91 1408.57,2440.96 1408.57,2440.96L1404.43,2551.76L1436.83,2562.94C1436.83,2562.94 1437.93,2589.35 1436.04,2603.75C1432.22,2632.69 1423.11,2696.67 1423.11,2696.67C1423.11,2696.67 1281.88,2783 1267.75,2786.1C1259.48,2787.91 1198.29,2766.17 1193.8,2758.99C1189.93,2752.8 1187.7,2719.81 1192.6,2713.23C1218.09,2678.98 1267.12,2616.26 1292.77,2582.13C1302.12,2569.68 1316.12,2558.8 1323.25,2544.56C1326.61,2537.86 1327.98,2530.3 1329.42,2522.95C1333.16,2503.88 1330.79,2448.92 1330.79,2448.92C1275.58,2459.51 1225.14,2458.5 1170.1,2449.7L1169.18,2515.98L1206.9,2523.59L1200.84,2606.62C1200.84,2606.62 1166.27,2639.5 1145.32,2652.71C1103.91,2678.83 1034.39,2730.22 1034.39,2730.22L973.087,2691.66C973.087,2691.66 960.328,2650.89 969.514,2643.38C997.872,2620.18 1057.71,2555.06 1082.38,2531.43C1090.94,2523.23 1098.86,2527.78 1102.83,2514.16C1105.88,2503.67 1101.68,2484.82 1100.31,2474.61C1098.73,2462.89 1093.94,2433.27 1093.94,2433.27C1054.83,2419.82 1004.21,2415.32 991.261,2366.25C975.303,2305.76 1027.25,2246.34 1027.25,2246.34C1027.25,2246.34 1004.11,2231.66 997.676,2223.76C989.416,2213.61 992.022,2201.95 992.022,2201.95C992.022,2201.95 918.822,2188.01 899.951,2163.08C879.849,2136.53 846.123,2081.51 833.35,2050.75C817.277,2012.06 782.663,1972.81 781.942,1974.64C771.537,2001.1 764.244,2028.78 752.657,2054.74C747.678,2065.9 718.432,2096.94 705.848,2109.35C664.485,2150.14 559.193,2118.01 538.55,2088.41C524.295,2067.97 529.111,2023.02 541.569,1996.48C562.184,1952.55 601.908,1899.91 657.492,1851.08C697.529,1815.9 778.199,1780.3 813.502,1775.88C828.782,1773.97 887.081,1726.62 890.913,1722.02C878.271,1708.8 788.874,1698.03 781.711,1687.26C775.004,1677.17 772.095,1562.17 762.557,1521.62C758.955,1506.3 766.117,1482.69 750.875,1478.57C746.585,1477.4 690.881,1473.98 674.637,1471.71C653.762,1468.79 633.82,1460.85 612.989,1457.63C562.471,1449.81 511.493,1445.3 460.812,1438.61C428.95,1434.41 423.25,1430.78 391.008,1429.48C377.025,1428.92 370.521,1435 357.566,1425.6C353.69,1422.78 357.471,1413.1 358.109,1410.45C361.693,1395.55 364.016,1380.31 368.713,1365.72C375.43,1344.86 460.174,1308.9 465.951,1305.27C518.104,1272.47 702.178,1174.25 743.324,1157.26C755.327,1152.3 786.86,1142.41 795.605,1129.96C806.972,1113.79 809.836,1076.08 813.683,1058.17C839.854,936.362 1036.83,874.572 1146.63,998.542C1201.69,1060.71 1185.08,1229.38 1185.08,1229.38C1185.08,1229.38 1197.67,1280.42 1196.29,1311.33C1194.9,1342.69 1176.04,1385.32 1176.04,1385.32C1176.04,1385.32 1178.76,1546.12 1176.93,1615.47C1176.04,1649.21 1168.16,1680.15 1166.44,1713.8C1163.72,1767.05 1180.77,1841.18 1190.13,1888.12C1195.56,1915.38 1185.46,1964.31 1175.93,1968.41ZM1723.69,2504.99C1739.64,2498.14 1736.84,2493.76 1751.65,2485.29C1757.4,2482 1764.08,2480.6 1769.95,2477.54C1777.44,2473.63 1776.74,2463.2 1777.21,2456.45C1778.19,2442.32 1778.83,2428.17 1779.98,2414.05C1781.13,2399.96 1782.72,2385.9 1784.12,2371.83C1784.36,2369.39 1785.64,2364.2 1783.35,2361.96C1781.31,2359.96 1776.1,2361.34 1774.01,2361.76C1765.59,2363.46 1757.23,2365.48 1748.77,2367.01C1726.65,2371 1726.46,2369.16 1704.79,2375.14C1697.14,2377.26 1691.56,2379.39 1688.5,2387.52C1686.39,2393.14 1687.02,2407.11 1687.27,2412.82C1687.53,2418.55 1687.47,2424.32 1688.32,2429.99C1689.43,2437.36 1698.8,2437.48 1704.08,2438.19C1711.6,2439.2 1725.78,2437.9 1728.22,2448.53C1732.63,2467.71 1721.85,2485.84 1723.69,2504.99ZM1446,1980C1434.12,1980.46 1426.87,2070.34 1438,2073C1444.8,2074.62 1600.18,2076.56 1604,2073C1609.84,2067.55 1621,1995.64 1613,1985C1607.09,1977.13 1457.73,1979.55 1446,1980ZM1175.93,1968.41C1174.53,1969.02 1173.13,1968.65 1171.81,1967.11C1171.81,1967.11 1173.43,1967.44 1175.93,1968.41Z" style="fill:rgb(165,107,4);"/>
        </g>
        <g id="Hilight" transform="matrix(2.20727,0,0,2.20727,-418.782,-454.367)">
            <path d="M351.818,726.803C344.771,728.272 338.912,724.3 332.592,722.512C329.844,721.735 330.863,720.155 331.883,718.075C336.657,708.345 371.948,661.718 373.978,661.203C379.979,659.685 380.909,657.348 380.226,652.825C379.461,647.746 380.488,642.952 381.731,638.135C381.858,640.158 387.328,647.072 387.328,647.072L387.163,662.521C387.163,662.521 382.336,664.763 379.109,667.928C381.576,670.921 392.646,682.545 392.646,682.545C392.646,682.545 384.207,690.701 381.965,693.197C375.203,700.729 369.576,709.19 362.426,716.41C358.94,719.931 354.637,722.617 351.818,726.803ZM264.179,703.751C257.756,704.6 253.254,700.045 247.932,697.849C246.451,697.237 246.956,695.92 248.215,694.767C255.07,688.485 262.37,682.564 268.408,675.562C272.863,670.397 278.257,666.211 282.379,660.613C285.207,656.773 288.542,652.083 294.218,651.147C296.594,650.754 296.818,649.749 296.877,647.163C297.078,638.287 296.046,631.495 295.124,621.622C299.475,628.44 302.362,631.125 304.604,635.653C305.929,638.332 305.591,650.955 305.591,650.955C302.157,652.285 300.267,652.613 297.142,653.941C298.459,657.097 306.257,669.53 306.257,669.53C306.257,669.53 293.942,681.631 286.911,686.797C279.298,692.392 272.074,698.521 264.179,703.751ZM531.18,637.411C531.18,637.411 543.367,651.3 542.607,651.851C537.236,655.747 528.935,659.28 524.309,663.511C519.78,666.696 506.882,676.211 506.882,676.211C506.882,676.211 489.942,669.963 488.824,669.843C491.578,667.209 494.1,664.263 497.138,662.014C501.315,658.922 506.047,656.585 510.241,653.513C516.377,649.022 531.18,637.411 531.18,637.411ZM495.506,644.622C492.406,651.702 490.921,650.205 486.902,656.681C484.604,660.384 482.928,661.857 481.331,665.966C472.483,664.316 453.005,660.364 453.005,660.364C453.005,660.364 470.847,635.141 476.733,626.309C478.652,623.429 482.224,622.427 485.404,622.258C488.104,629.379 491.805,636.501 495.506,644.622ZM313.885,579.927C317.7,585.505 341.809,607.824 337.776,608.3C317.98,610.635 283.031,607.282 273.204,604.208C251.477,597.41 252.732,570.216 264.651,564.156C270.744,561.057 280.477,565.578 287.339,574.224C293.187,581.593 309.521,581.385 313.885,579.927ZM378.847,496.311C381.137,496.451 394.092,512.739 396.344,518.99C397.856,523.188 400.844,544.875 395.147,562.29C393.722,566.646 386.656,585.945 381.155,586.491C379.482,586.657 372.354,576.718 370.362,573.535C366.316,567.069 344.982,542.39 336.343,541.199C317.569,538.61 298.827,532.324 314.555,519.112C324.985,510.351 350.66,495.867 366.201,492.665C378.4,490.152 369.638,495.749 378.847,496.311ZM272.122,545.336C276.72,547.752 281.59,547.288 286.395,547.125C285.133,550.219 285.33,550.153 283.539,552.214C287.451,553.182 294.549,553.988 299.538,553.776C296.494,557.137 294.571,559.186 292.143,561.374C296.335,561.98 301.399,562.71 305.037,563.507C300.121,569.965 300.088,570.763 295.991,574.071C290.977,572.429 293.37,572.148 288.859,567.953C287.659,566.837 277.266,554.158 272.062,553.267C269.801,552.88 269.871,545.557 272.122,545.336ZM412.666,533.649C413.053,541.364 408.136,548.653 408.136,548.653C410.004,538.809 408.98,526.33 406.319,517.361C414.364,519.922 424.638,531.102 424.237,532.634C423.931,533.802 427.953,521.584 428.759,519.296C429.623,516.845 438.455,533.448 439.43,539.935C440.225,545.221 437.883,548.718 437.264,553.134C435.772,549.125 432.44,538.645 430.823,539.308C429.955,539.665 425.674,550.892 423.687,556.597C422.022,551.675 416.054,537.449 412.666,533.649ZM514.191,539.958C514.191,539.958 516.446,547.653 517.577,552.15C517.995,553.812 500.049,535.148 500.049,535.148L498.034,550.182C498.034,550.182 486.245,539.863 484.662,540.01C482.83,540.18 486.086,547.734 482.476,552.045C476.96,547.463 474.035,543.266 468.915,537.781C469.852,543.038 464.298,553.491 463.811,553.136C462.15,551.925 456.79,542.422 456.37,542.118C454.672,540.88 452.348,555.384 451.886,553.704C449.658,545.609 441.55,528.228 437.05,522.901C442.7,524.546 449.089,531.701 452.547,535.975C452.766,531.363 450.92,527.774 451.549,522.324C456.463,524.631 463.58,532.192 463.216,534.359C462.923,536.103 465.402,524.504 465.91,521.635C469.487,522.914 478.851,535.542 478.851,535.542C480.603,532.17 479.23,527.187 478.833,522.648C480.656,521.123 493.007,534.379 493.419,535.457C494.152,537.375 494.226,526.358 494.482,524.707C495.108,520.681 515.279,536.478 515.312,536.134C515.457,534.606 509.723,523.625 509.723,523.625C509.723,523.625 524.992,530.997 524.731,532.144C524.289,528.721 522.997,522.245 522.744,522.057C525.043,520.445 545.114,534.554 544.207,536.019C544.311,536.465 540.59,524.96 540.59,524.96C541.794,525.365 557.953,537.369 561.059,543.653C557.514,544.158 551.004,536.301 548.676,537.039C546.263,537.802 547.401,544.965 545.79,545.501C544.02,546.088 537.61,536.41 533.032,534.658C532.005,538.305 529.516,546.025 527.991,549.668C521.846,545.982 514.201,539.966 514.191,539.958ZM267.238,531.962C267.976,533.527 275.312,536.019 276.925,536.016C276.254,537.629 274.828,539.527 274.828,539.527C274.828,539.527 268.018,540.728 263.069,538.668C259.351,537.121 256.659,532.055 257.764,531.978C259.581,531.851 265.413,531.955 267.238,531.962ZM286.958,508.163C287.852,523.077 277.573,529.277 258.386,526.711C211.184,520.399 200.104,483.764 204.694,481.151C204.694,481.151 228.229,501.861 238.669,505.248C248.87,508.557 270.923,510.669 272.542,508.019C275.001,503.996 274.321,496.028 271.186,492.563C268.975,490.118 261.018,473.561 258.968,466.517C254.717,451.907 255.805,436.597 263.472,431.905C263.472,431.905 269.121,434.566 272.649,436.109C271.484,437.526 268.315,438.855 267.553,445.164C266.678,452.407 265.733,459.862 269.359,466.933C274.644,477.238 280.411,487.334 283.965,498.45C285.012,501.725 286.78,505.188 286.958,508.163ZM182.288,382.976C142.316,400.824 133.767,414.834 125.382,424.33C110.469,441.218 113.139,455.04 113.139,455.04C118.792,447.254 131.674,437.023 143.416,430.157C136.735,438.931 117.626,462.732 119.612,471.799C120.978,478.037 131.985,490.218 138.12,495.778C128.267,500.771 117.401,500.628 101.68,492.784C92.463,488.185 86.181,480.877 87.653,470.874C89.307,459.641 95.58,448.822 102.656,440.476C104.767,437.986 132.511,404.887 151.24,392.764C159.505,387.414 169.205,384.873 182.288,382.976ZM205.197,472.293C196.318,464.526 192.229,459.253 186.904,443.51C183.944,434.76 186.629,428.017 190.906,424.409C191.276,428.053 219.032,429.449 229.539,425.955C212.776,435.674 207.261,433.95 198.755,434.357C198.755,434.357 200.344,442.051 201.66,442.589C205.016,443.96 212.569,443.235 217.976,443.99C218.778,446.011 204.672,451.078 204.672,451.078C207.375,457.146 206.405,453.934 206.405,453.934C206.405,453.934 218.404,454.512 226.498,454.104C222.108,459.959 214.747,462.139 211.037,463.175C216.118,464.757 219.502,465.707 226.48,466.457L216.813,471.606C216.813,471.606 225.168,479.896 225.684,481.055C227.233,484.536 231.796,484.812 234.803,484.959C222.107,489.276 214.279,480.237 205.197,472.293ZM305.784,474.877C298.044,466.804 290.576,457.992 285.465,450.089C291.148,445.795 297.325,443.952 313.353,448.918C303.458,452.433 303.535,467.631 305.784,474.877ZM259.855,414.163C254.759,416.878 243.682,413.352 242.366,410.011C255.618,404.61 265.383,396.794 268.217,393.676C272.938,397.511 276.871,402.353 276.389,403.015C276.389,403.015 272.569,407.389 259.855,414.163ZM459.25,294.461C466.416,291.247 454.05,313.672 446.253,314.177C443.585,314.35 434.402,303.132 432.052,306.216C429.627,309.399 430.723,320.744 429.406,326.322C429.089,327.665 397.068,322.931 390.256,325.973C381.844,329.73 385.636,361.375 384.812,374.654C384.495,379.777 383.839,389.947 383.42,395.105C383.272,396.919 379.785,391.34 377.392,391.358C377.633,379.745 377.72,330.974 382.342,324.343C388.956,314.856 424.183,323.504 424.097,319.773C423.959,313.781 425.219,296.281 429.122,295.656C433.003,295.035 440.541,304.916 444.542,307.674C447.279,309.562 447.928,308.947 449.362,306.755C451.732,303.131 455.213,296.272 459.25,294.461ZM190.381,381.948C190.259,382.579 196.953,375.764 199.455,373.825C211.832,364.229 228.434,357.219 227.464,358.826C233.177,359.215 239.59,366.967 239.59,366.967C231.024,369.383 227.357,372.485 210.955,380.034C206.387,381.075 197.484,381.348 190.381,381.948ZM273.371,341.663C268.746,339.674 212.157,335.376 211.214,335.639C203.549,334.187 188.807,337.364 181.071,337.426C179.439,337.066 173.362,271.719 175.124,269.713C176.754,267.858 194.213,273.613 195.612,273.795C209.268,275.567 258.639,286.28 259.344,286.476C258.832,287.824 221.99,293.56 222.173,294.219C222.61,295.799 270.239,298.659 281.318,302.55C271.755,305.513 232.728,305.853 222.274,308.768C241.401,313.127 260.172,314.564 278.012,321.113C274.61,321.403 227.88,322.029 227.27,324.038C227.181,324.126 227.095,324.223 227.011,324.33C227.083,324.279 227.156,324.231 227.229,324.182C227.242,324.132 227.256,324.084 227.27,324.038C226.106,323.523 266.519,337.416 273.371,341.663ZM227.229,324.182C227.241,324.174 227.252,324.166 227.264,324.159C227.248,324.186 227.231,324.214 227.208,324.267C227.215,324.238 227.222,324.21 227.229,324.182ZM490.833,297.399C493.258,296.432 483.661,307.102 480.153,309.174C477.451,310.769 475.111,312.497 471.86,312.267C476.205,305.829 484.119,300.081 490.833,297.399ZM266.416,158.183C273.024,158.826 290.383,157.786 300.192,167.985C291.735,167.342 283.108,169.3 275.364,173.531C280.89,180.612 287.061,198.492 279.724,213.821C275.222,223.226 265.059,233.099 254.942,234.503C257.864,241.53 280.676,246.822 283.968,246.313C276.768,246.97 260.345,246.499 253.088,245.924C243.074,245.13 231.803,237.856 225.701,225.508C216.603,207.098 225.537,176.992 232.69,170.923C245.147,160.352 260.846,157.64 266.416,158.183ZM182.321,153.896C166.716,163.929 150.894,173.561 134.65,182.572C120.009,190.693 105.584,199.148 90.421,206.314C86.831,208.01 60.462,222.928 51.836,228.364C49.273,229.979 44.547,234.138 44.48,234.289C44.607,234.315 44.735,234.342 44.848,234.37C43.511,234.765 42.567,238.206 40.896,235.268C39.38,232.604 38.155,229.455 41.566,226.992C44.76,224.684 78.013,206.058 86.288,200.288C107.383,189.939 128.286,179.166 149.674,169.462C157.709,165.818 178.325,152.799 182.321,153.896ZM263.815,151.773C251.966,148.848 220.837,170.934 222.481,173.82L192.345,141.164C192.345,141.164 192.422,128.632 196.482,117.335C200.51,106.125 208.506,96.161 212.424,92.982C218.892,87.733 237.208,79.044 245.183,78.867C254.327,78.664 272.001,78.946 282.329,89.562C269.784,90.335 257.712,93.036 246.199,98.417C250.514,99.123 267.494,99.042 270.705,103.03C257.92,106.976 244.302,107.154 232.135,115.631C246.435,113.91 259.639,113.174 272.469,118.959C256.227,121.41 245.453,125.574 233.336,132.218C242.892,130.869 258.163,134.149 263.168,137.028C249.007,139.706 244.27,143.607 238.441,146.575C238.441,146.575 260.407,149.107 263.815,151.773Z" style="fill:rgb(255,245,153);"/>
        </g>
        <g id="outline" transform="matrix(2.20727,0,0,2.20727,-418.782,-454.367)">
            <path d="M214.255,356.675C209.665,351.876 177.206,347.964 174.605,344.053C172.17,340.391 171.114,298.638 167.651,283.912C166.343,278.351 168.944,269.776 163.409,268.28C161.852,267.859 141.626,266.617 135.728,265.791C128.149,264.73 120.908,261.849 113.345,260.678C95.002,257.839 76.493,256.202 58.091,253.774C46.523,252.247 44.453,250.931 32.746,250.459C27.669,250.254 25.308,252.464 20.604,249.048C19.197,248.026 20.57,244.51 20.801,243.547C22.103,238.138 22.946,232.603 24.651,227.308C27.09,219.735 57.86,206.676 59.957,205.357C78.893,193.45 145.728,157.787 160.668,151.617C165.026,149.817 176.475,146.227 179.65,141.708C183.777,135.834 184.817,122.142 186.214,115.641C195.716,71.413 267.234,48.978 307.101,93.99C327.093,116.562 321.064,177.806 321.064,177.806C321.064,177.806 325.634,196.337 325.135,207.56C324.63,218.945 317.782,234.423 317.782,234.423C317.782,234.423 318.769,292.808 318.103,317.989C317.779,330.24 314.919,341.473 314.295,353.692C313.308,373.023 319.499,399.941 322.896,416.985C325.158,428.338 319.999,450.041 316.245,445.664C316.245,445.664 322.154,446.882 325.29,452.798C329.123,460.027 327.504,458.332 328.412,465.002C329.436,472.523 320.785,475.09 318.758,481.343C316.176,489.306 322.314,499.571 315.533,505.654C304.703,515.37 306.887,519.995 306.887,519.995C306.887,519.995 316.936,512.94 320.356,510.207C328.866,503.407 343.499,494.54 353.707,490.632C368.426,484.997 370.702,487.542 385.929,484.642C392.113,483.465 401.366,481.711 401.366,481.711C401.366,481.711 403.78,462.538 403.947,456.918C404.087,452.221 397.549,450.946 394.399,450.52C386.921,449.509 363.888,446.879 363.13,444.129C362.47,441.733 363.937,420.233 364.439,411.996C365.888,388.257 368.307,381.587 370.044,364.867C370.684,358.709 372.473,331.486 373.006,325.318C373.601,318.422 374.504,312 379.995,308.365C384.832,305.164 411.539,314.267 416.978,308.851C420.295,305.549 419.105,299.161 419.518,294.913C419.923,290.739 421.975,283.843 423.043,283.549C424.079,283.264 438.671,291.795 445.463,294.495C454.421,298.055 455.91,284.481 464.312,285.357C466.204,285.554 471.38,296.704 475.355,298.17C477.531,298.973 499.709,283.742 501.222,284.699C502.663,285.611 498.547,306.087 502.949,312.885C506.128,317.796 513.125,315.236 517.54,316.457C521.64,317.591 533.704,320.702 536.492,324.066C541.324,329.9 538.788,338.3 538.809,344.894C538.869,363.636 539.319,382.375 539.665,401.114C539.93,415.416 541.817,430.436 537.079,444.342C531.581,460.478 506.978,454.396 495.849,453.749C493.918,453.637 489.267,453.36 487.76,455.368C484.959,459.099 485.798,481.8 485.798,481.8C485.798,481.8 505.077,487.921 513.415,490.354C538.019,497.533 561.957,513.55 577.828,533.754C579.303,535.632 580.757,537.559 581.843,539.686C588.493,552.711 576.372,567.792 568.213,576.834C566.079,579.2 559.744,584.475 558.397,587.583C557.07,590.646 557.564,600.118 557.3,607.374C556.97,616.394 553.79,629.093 555.493,631.789C557.809,635.453 564.834,635.588 569.458,638.356C569.458,638.356 567.414,656.934 567.103,659.186C566.166,665.992 561.846,684.365 561.846,684.365C561.846,684.365 545.935,686.192 539.918,686.597C527.864,687.409 503.17,688.789 503.17,688.789C503.17,688.789 492.578,682.026 481.205,679.024C472.222,676.652 446.357,673.476 446.357,673.476C446.357,673.476 444.986,662.014 449.009,657.113C459.144,644.77 467.12,630.773 477.031,618.249C478.916,615.867 485.559,615.07 485.559,615.07C485.559,615.07 488.509,598.69 480.507,600.073C459.814,603.65 439.359,608.489 418.798,612.76C414.26,613.703 402.21,617.714 402.21,617.714L400.708,657.945L412.471,662.002C412.471,662.002 412.871,671.59 412.182,676.821C410.797,687.329 407.49,710.558 407.49,710.558C407.49,710.558 356.21,741.903 351.08,743.029C348.077,743.687 325.859,735.793 324.229,733.186C322.826,730.94 322.016,718.959 323.794,716.571C333.05,704.134 350.85,681.362 360.165,668.969C363.561,664.452 368.641,660.499 371.232,655.329C372.451,652.896 372.95,650.15 373.473,647.481C374.83,640.559 373.968,620.603 373.968,620.603C353.923,624.45 335.608,624.081 315.624,620.888L315.292,644.952L328.987,647.715L326.785,677.861C326.785,677.861 314.233,689.8 306.625,694.598C291.591,704.08 266.351,722.739 266.351,722.739L244.092,708.737C244.092,708.737 239.459,693.935 242.794,691.208C253.091,682.787 274.818,659.143 283.776,650.561C286.882,647.585 289.757,649.238 291.199,644.292C292.309,640.482 290.782,633.638 290.284,629.932C289.713,625.677 287.972,614.922 287.972,614.922C273.773,610.038 255.39,608.405 250.69,590.588C244.896,568.623 263.757,547.05 263.757,547.05C263.757,547.05 255.356,541.718 253.019,538.849C250.021,535.166 250.967,530.931 250.967,530.931C250.967,530.931 224.389,525.869 217.537,516.819C210.238,507.18 197.993,487.2 193.355,476.033C187.519,461.983 179.122,438.802 179.122,438.802C179.122,438.802 174.951,447.734 174.689,448.399C170.911,458.005 168.263,468.057 164.056,477.483C162.248,481.534 151.63,492.805 147.061,497.311C132.042,512.12 93.812,500.456 86.317,489.708C81.141,482.286 82.89,465.965 87.413,456.327C94.898,440.378 109.321,421.266 129.503,403.535C144.04,390.764 173.33,377.837 186.148,376.232C191.696,375.538 212.864,358.347 214.255,356.675ZM351.818,726.803C352.908,728.357 351.351,733.625 352.184,735.33C353.027,737.058 364.339,728.775 367.97,726.864C379.215,720.949 401.245,707.803 401.245,707.803C401.245,707.803 403.364,686.522 404.558,678.819C404.81,677.194 405.055,670.018 402.705,668.879C401.922,668.499 393.597,665.576 393.597,665.576L394.294,618.859L382.697,620.309C382.697,620.309 379.756,634.17 381.733,638.133C379.939,645.079 380.991,652.124 380.109,659.141C379.615,663.074 374.385,662.701 372.269,664.887C369.795,667.441 368.352,670.83 366.173,673.64C360.38,681.111 336.932,710.313 331.883,718.075C329.946,721.054 331.956,722.726 334.422,723.727C336.835,724.707 339.415,725.211 341.933,725.879C345.646,726.864 347.937,727.612 351.818,726.803ZM295.147,615.816C295.147,615.816 296.705,639.157 296.877,647.163C296.898,648.114 297.053,649.272 296.416,649.977C292.773,654.007 291.2,651.385 287.231,654.792C283.219,658.235 279.762,662.28 276.169,666.16C272.577,670.039 269.379,674.28 265.684,678.061C262.141,681.687 245.649,694.284 247.2,695.051C249.638,696.256 262.481,701.204 264.178,703.751C264.376,706.742 263.55,710.613 265.86,713.229C266.91,714.418 269.34,711.863 269.766,711.577C274.709,708.259 279.521,704.718 284.698,701.779C296.36,695.16 320.842,675.796 320.842,675.796L322.448,654.319C322.448,654.319 312.248,651.484 310.012,649.292C307.698,647.024 308.472,630.648 308.392,624.517C308.367,622.592 308.395,618.896 308.395,618.896L295.147,615.816ZM550.764,640.845C546.609,643.578 542.911,643.13 538.68,641.15C535.852,637.01 533.672,635.822 530.18,638.41C524.069,642.939 516.323,648.945 510.241,653.513C499.539,661.551 498.555,660.528 488.826,669.843C486.711,675.952 488.289,675.924 488.289,675.924C488.289,675.924 495.937,681.309 508.815,682.45C520.113,683.451 555.542,677.908 555.542,677.908C556.674,678.903 561.138,658.746 560.312,648.007C560.156,645.975 562.067,643.497 559.643,642.256C557.589,641.205 552.267,639.857 550.764,640.845ZM480.405,622.259C480.405,622.259 479.677,623.983 477.732,626.309C470.484,634.979 465.436,643.107 459.005,652.364C456.845,655.474 453.424,658.793 453.785,663.017C453.382,663.732 451.95,668.845 452.681,669.218C454.927,670.365 461.905,671.265 464.609,671.817C468.351,672.582 478.633,673.774 478.633,673.774C478.633,673.774 480.144,668.912 480.331,667.966C484.701,656.72 494.69,648.622 499.506,637.622C501.664,633.398 509.797,623.791 508.68,623.333C507.36,622.792 494.267,622.723 491.634,622.712C489.552,622.703 480.405,622.259 480.405,622.259ZM516.624,640.962C522.416,638.475 521.4,636.883 526.778,633.809C528.866,632.616 531.289,632.107 533.422,630.995C536.142,629.576 535.886,625.789 536.057,623.338C536.416,618.208 536.645,613.069 537.064,607.943C537.482,602.825 538.057,597.722 538.566,592.612C538.655,591.725 539.119,589.844 538.288,589.028C537.548,588.302 535.656,588.803 534.897,588.956C531.839,589.575 528.803,590.307 525.732,590.861C517.7,592.312 517.631,591.643 509.763,593.817C506.986,594.584 504.959,595.358 503.849,598.31C503.082,600.35 503.312,605.424 503.404,607.497C503.495,609.577 503.474,611.672 503.783,613.73C504.186,616.405 507.588,616.449 509.506,616.707C512.237,617.074 517.384,616.601 518.271,620.462C519.87,627.425 515.957,634.009 516.624,640.962ZM540.383,627.947C541.539,627.999 540.577,632.283 540.622,633.425C540.729,636.1 544.656,637.379 546.426,635.474C547.083,634.767 552.511,607.259 551.59,594.03C551.243,589.047 545.181,590.899 544.842,593.156C543.109,604.719 541.863,616.349 540.383,627.947ZM497.892,615.47C497.53,614.414 498.788,600.956 493.063,602.078C490.603,602.56 491.159,615.568 491.159,615.568C491.836,618.294 498.605,618.741 497.892,615.47ZM345.844,546.004C349.472,549.425 345.623,561.778 341.129,565.413C332.666,572.259 324.63,580.165 313.884,581.927C309.418,584.176 291.021,580.698 285.919,575.687C280.121,569.994 276.531,563.569 267.273,564.026C261.336,564.319 258.259,572.484 257.039,576.778C254.541,585.577 258.273,595.004 266.48,599.267C281.249,606.937 297.589,607.216 313.867,607.903C321.831,608.239 329.806,608.403 337.776,608.299C338.577,608.289 347.581,607.556 351.673,607.564C362.433,607.585 371.079,605.909 380.858,601.336C393.349,595.495 398.55,581.676 409.69,574.181C411.41,581.792 397.794,595.399 399.069,596.985C400.294,598.509 408.44,592.639 410.705,590.455C415.834,585.509 429.152,573.83 429.152,573.83C429.152,573.83 423.401,589.915 424.783,589.094C433.93,583.653 444.498,574.873 445.548,576.175C448.021,579.239 434.538,592.662 434.538,592.662C435.255,595.551 456.932,578.326 462.718,572.085C462.492,579.059 459.411,586.101 452.291,591.405C461.729,587.195 474.159,573.468 481.998,570.38C482.527,576.086 472.955,589.2 472.955,589.2C482.753,586.524 495.117,571.59 501.687,562.769C502.014,574.085 495.971,582.502 497.052,581.85C500.499,579.773 509.138,570.554 515.831,562.47C517.54,566.765 513.126,576.358 513.218,577.312C513.582,581.116 530.365,563.905 534.513,558.29C536.157,567.687 530.621,574.331 524.774,579.386C534.258,576.099 550.995,557.208 550.995,557.208C555.107,556.136 552.495,566.269 547.045,573.117C556.186,569.638 562.886,551.31 562.886,551.31C562.886,551.31 569.572,560.34 562.902,566.824C568.04,562.39 575.587,559.316 575.985,547.757C576.458,534.032 540.344,505.598 531.481,504.667C530.053,504.517 527.175,504.591 527.175,504.591L522.634,507.868C522.634,507.868 510.93,495.711 502.331,495.68C505.671,499.979 506.737,504.966 506.737,504.966C506.737,504.966 492.31,497.281 481.822,494.345C482.883,496.909 486.451,502.34 485.924,506.032C479.479,502.004 471.477,498.212 465.173,494.437C461.667,494.203 457.516,492.572 454.116,492.683C454.116,492.683 458.364,499.547 459.489,505.539C448.855,498.865 445.67,496.596 441.048,493.966C438.86,492.721 430.351,493.424 430.351,493.424C430.351,493.424 435.216,504.278 435.69,506.277C429.028,503.331 418.274,493.501 406.421,494.32C407.66,495.93 409.591,499.524 409.591,499.524C409.591,499.524 394.396,494.536 388.256,493.938C393.193,500.718 400.807,503.816 403.045,511.411C400.691,511.62 397.48,511.318 393.031,512.972C388.446,506.239 380.765,495.994 367.847,494.311C360.126,493.305 355.562,494.813 341.552,503.405C329.694,510.677 307.474,524.302 312.632,531.382C320.66,542.403 335.196,535.962 345.844,546.004ZM275.924,539.016C271.479,547.045 270.331,547.2 271.956,550.879C273.456,554.273 280.729,554.886 280.729,554.886C280.729,554.886 283.332,558.612 284.805,560.88C288.89,567.166 294.733,572.619 302.989,574.073C308.401,575.027 319.616,574.647 323.106,572.397C330.335,567.736 343.801,559.32 337.149,549.274C336.027,547.579 332.831,546.522 332.831,546.522C326.955,550.573 319.695,556.107 312.353,557.043C317.998,552.416 322.239,548.137 322.569,544.831L316.939,542.461C311.721,545.964 295.38,549.382 295.335,546.324C296.788,546.823 311.92,538.085 308.504,537.918L305.023,533.501C306.277,535.685 292.487,540.322 284.368,536.735C288.124,535.014 291.13,533.114 290.313,528.433C284.318,529.992 280.83,532.205 276.238,532.962C272.778,533.533 258.764,532.978 258.764,532.978C259.416,538.401 268.999,540.147 275.924,539.016ZM230.385,516.711C237.31,523.969 266.768,533.481 287.676,519.818C303.267,509.63 314.92,497.689 306.947,484.751C306.947,484.751 293.341,479.171 288.775,477.937C282.765,476.312 278.128,469.901 277.083,458.39C276.488,451.834 287.635,439.048 295.285,441.05C292.416,436.47 289.033,429.425 279.65,427.11C271.753,425.162 266.751,430.912 263.471,432.906C255.446,437.786 255.867,449.987 256.622,455.992C258.049,467.343 263.048,478.316 271.186,492.563C277.561,503.723 275.568,510.838 255.898,512.047C233.914,513.398 221.606,496.913 209.448,488.05C218.808,503.095 219.962,505.786 230.385,516.711ZM268.659,498.819C259.757,496.105 252.383,498.981 245.963,505.447C247.835,506.125 249.757,507.343 251.86,507.027C253.16,506.831 253.695,506.213 255.035,506.167C258.557,506.049 264.945,507.549 266.98,503.134C267.626,501.733 268.245,500.306 268.659,498.819ZM150.854,426.666L156.144,415.225L147.469,413.203L168.68,401.538L164.812,398.512C164.812,398.512 208.986,388.376 228.216,385.115C225.114,380.492 221.751,379.721 210.955,380.033L230.02,370.109C246.986,363.308 278.028,356.13 288.217,362.677C301.579,371.263 260.029,402.814 242.366,410.011C237.344,411.982 232.501,414.596 227.228,415.739C221.956,416.882 216.448,416.268 211.079,416.792C203.885,417.494 196.791,420.777 190.274,425.116C183.414,429.682 188.307,443.436 190.552,447.708C194.146,454.546 202.976,474.497 219.461,481.596C235.192,488.37 250.645,473.977 252.223,469.945C252.741,462.957 248.478,462.621 249.646,446.44C250.727,431.469 268.78,419.177 281.43,421.59C284.452,422.166 294.291,425.59 299.954,434.133C302.484,437.95 301.983,439.275 309.403,440.128C311.105,440.323 314.214,436.763 314.581,425.09C314.851,416.537 310.877,402.969 310.213,395.801C309.548,388.624 308.228,384.521 307.441,377.356C305.088,379.309 302.809,381.5 298.455,383.46C301.268,377.03 305.154,371.443 303.844,363.153C301.666,349.376 259.793,351.606 251.378,352.102C242.877,352.603 199.122,340.288 188.222,336.638C210.193,333.267 243.112,337.56 258.922,339.441C274.727,341.322 306.082,346.924 306.082,346.924L307.963,334.076C307.963,334.076 294.753,332.622 284.132,326.252C290.381,325.704 296.76,326.782 302.942,325.722C304.81,325.402 306.11,323.598 307.445,322.254C308.253,321.44 308.922,318.939 307.78,318.828C304.743,318.533 290.525,314.842 290.525,314.842C290.525,314.842 304.747,308.757 306.638,306.945C307.695,305.932 295.953,302.463 292.448,301.015C296.589,299.213 302.178,298.147 308.202,296.189C300.613,294.291 292.229,293.17 284.518,288.834C294.961,287.256 310.891,284.707 310.891,284.707L286.89,275.512L310.931,269.667L311.035,263.275L294.679,262.582C300.06,259.427 305.018,256.256 306.47,252.954C306.47,252.954 297.588,247.272 295.429,248.059C277.579,254.561 248.989,251.238 248.989,251.238C248.989,251.238 243.282,263.855 253.978,267.117C251.96,268.266 254.703,274.925 250.843,274.795C230.379,274.106 210.898,270.944 190.357,271.833C185.196,272.056 178.124,271.712 178.124,271.712C178.124,271.712 177.372,279.855 177.758,283.176C179.075,294.513 180.248,324.272 180.984,331.988C181.697,339.455 187.439,340.027 189.538,340.721C213.202,348.541 228.317,350.335 237.464,353.825C231.886,356.224 221.822,361.348 219.187,362.693C209.809,367.483 209.656,368.703 200.454,373.824C197.833,375.283 191.816,381.03 191.328,381.759C187.981,382.498 184.634,383.238 181.287,383.976C145.658,395.037 126.232,413.565 115.655,425.476C107.859,434.255 85.158,465.652 89.736,478.768C92.459,486.568 101.371,490.257 108.101,494.227C129.765,507.006 151.234,486.731 156.454,470.874C158.199,465.573 159.936,460.265 161.923,455.05C167.703,439.887 168.959,434.829 180.741,423.629C188.883,415.889 210.041,409.773 210.041,409.773C210.041,409.773 215.874,405.641 218.208,403.333C206.066,402.602 185.479,404.574 177.687,408.566C171.742,411.612 152.568,424.309 150.854,426.666L150.731,426.931C150.73,426.868 150.772,426.779 150.854,426.666ZM476.257,463.031C476.257,460.904 476.953,456.206 476.119,454.091C475.099,451.506 472.747,451.046 470.366,450.963C457.72,450.522 445.063,450.474 432.414,450.147C425.929,449.979 417.166,449.653 414.714,451.703C412.625,453.45 411.124,484.633 414.242,483.196C414.242,483.196 433.036,484.16 442.529,483.978C450.349,483.828 458.172,483.942 465.991,483.791C468.528,483.742 471.981,483.724 473.797,481.36C475.133,479.618 476.62,465.986 476.257,463.031ZM299.784,459.877C300.354,454.265 307.887,449.895 311.353,448.918C299.83,446.373 293.529,443.87 285.729,450.825C283.74,452.599 282.349,459.665 283.31,462.361C286.372,470.951 288.826,472.175 293.804,473.382C296.129,473.946 303.377,478.051 307.747,478.322C302.506,474.464 299.013,467.468 299.784,459.877ZM314.389,466.615C310.457,466.685 313.012,474.521 313.839,474.226C324.891,470.284 322.686,459.46 318.5,454.939C316.251,452.51 314.244,456.03 313.594,456.817C312.953,457.592 314.866,464.789 314.389,466.615ZM491.286,303.864L491.394,303.915C490.481,303.168 491.917,301.061 490.935,300.406C489.716,299.594 487.888,300.09 486.549,300.685C483.013,302.255 474.067,308.997 471.865,312.26C466.69,309.774 465.104,296.846 461.25,296.461C456.552,295.992 450.3,311.309 443.155,308.149C440.874,307.141 434.605,300.243 432.958,298.948C430.193,296.773 428.777,296.853 428.122,300.656C427.091,306.645 426.927,312.753 426.097,318.773C425.954,319.81 425.973,321.07 425.209,321.786C424.59,322.367 423.519,322.016 422.67,321.985C417.317,321.792 411.973,321.39 406.624,321.117C402.412,320.902 394.994,320.237 390.789,321.511C378.408,325.263 382.361,338.633 381.954,348.223C381.073,369.028 378.908,370.478 379.392,391.353C377.305,396.291 375.931,406.132 375.578,411.4C374.861,422.078 376.057,438.042 376.057,438.042C375.281,440.655 436.767,443.343 449.673,441.08C462.941,438.754 474.93,440.568 490.532,441.441C500.053,441.974 518.678,446.463 523.857,442.996C529.54,439.193 527.429,420.029 527.658,410.737C528.113,392.364 528.334,373.982 529.131,355.621C529.42,348.968 529.945,335.049 527.778,331.75C524.85,327.292 507.138,328.161 499.289,326.321C497.03,325.792 492.468,322.612 491.635,320.276C490.038,315.8 490.96,308.604 491.161,304.075L491.286,303.864ZM60.468,215.952C54.74,219.825 47.424,222.592 41.565,226.991C38.33,229.421 38.756,233.476 42.03,236.422C45.507,239.552 123.758,255.886 172.018,259.731C185.121,260.775 217.948,264.223 218.544,264.264C240.718,265.794 237.993,249.765 237.993,249.765C237.993,249.765 227.489,241.792 222.688,233.934C217.907,226.111 214.935,215.586 214.66,206.508C214.286,194.175 218.733,178.591 218.733,178.591C218.733,178.591 206.231,166.119 199.104,157.397C197.539,155.481 194.424,151.031 191.616,150.456C188.977,149.916 157.539,165.554 149.673,169.462C128.633,179.916 107.381,189.94 86.288,200.287C78.362,206.748 68.536,210.498 60.468,215.952ZM274.695,245.057C277.174,245.138 299.535,241.015 303.186,236.502C313.846,223.327 317.294,204.9 312.53,188.689C310.899,183.139 300.048,171.797 299.52,170.351C297.2,163.994 272.09,156.611 262.169,158.746C231.629,165.317 227.658,180.792 223.821,199.232C219.495,220.02 232.55,242.747 254.739,244.62C261.369,245.18 268.045,244.84 274.695,245.057ZM239.769,190.616C240.7,198.764 246.881,213.097 252.683,202.474C256.254,195.934 256.492,178.798 251.409,176.41C261.571,171.742 264.948,181.078 265.759,194.303C266.31,203.295 263.788,211.271 256.719,216.098C242.142,226.051 233.907,200.8 239.769,190.616ZM308.939,166.339C309.299,165.064 311.311,157.773 310.509,156.954C305.175,151.501 298.878,152.101 291.39,146.734C302.614,145.468 312.454,151.188 312,150.455C307.922,143.874 290.421,133.382 283.602,129.939C291.326,129.849 300.859,129.947 308.457,131.982C302.105,121.53 292.613,118.34 283.339,112.496C292.258,112.607 301.277,114.733 308.187,117.412C303.794,109.85 294.812,104.908 287.607,100.968C289.927,99.278 295.44,100.705 297.271,98.958C290.948,92.651 264.964,74.996 240.329,80.561C203.863,88.798 194.823,121.648 194.05,139.166C204.024,149.003 213.555,159.538 222.529,170.948C222.529,170.948 243.232,148.322 271.581,149.999C293.05,151.268 309.171,163.707 308.939,166.339C308.905,166.462 308.885,166.529 308.885,166.529C308.915,166.473 308.933,166.409 308.939,166.339Z" style="fill:rgb(81,56,3);"/>
        </g>
        <g id="Burger" transform="matrix(2.20727,0,0,2.20727,-418.782,-454.367)">
            <g id="Lecker">
                <g transform="matrix(1,0,0,1,-3,0)">
                    <path d="M494.242,425.585C494.738,423.613 492.734,419.65 495.009,418.818C497.991,417.727 501.835,418.608 505.226,419.15C507.594,419.528 508.971,423.001 507.799,424.461C506.783,425.727 504.523,426.065 504.698,427.383C504.955,429.318 507.147,431.209 508.258,432.765C508.895,433.658 505.862,435.097 505.112,434.585C504.034,433.849 503.054,431.968 501.978,431.225C500.253,430.031 500.75,427.898 499.03,430.341C497.881,431.974 498.584,433.084 498.149,434.019C497.687,435.015 496.067,434.814 495.3,434.63C493.943,434.305 494.321,432.697 494.266,431.6C494.176,429.779 494.242,427.951 494.242,425.585ZM501.509,422.506C502.221,421.161 498.874,420.319 497.959,421.751C497.502,422.467 497.705,424.293 498.273,425.078C499.199,426.357 502.053,424.085 501.509,422.506Z" style="fill:rgb(81,56,3);"/>
                </g>
                <path d="M416.03,426.16C415.875,426.716 415.231,429.318 415.34,429.343C417.678,429.88 420.724,429.375 421.573,432.39C422.041,434.052 420.092,433.84 419.086,433.828C415.732,433.787 411.638,434.87 410.458,430.194C409.821,427.672 409.899,424.913 410.006,422.275C410.1,419.977 409.15,416.514 412.486,416.147C415.832,415.779 421.124,416.369 422.382,418.636C423.322,420.33 422.507,423.016 421.503,426.101C420.905,427.936 416.312,425.145 416.03,426.16ZM419.514,423.379C419.816,419.915 416.387,417.262 414.68,420.352C413.165,423.094 415.308,422.962 416.036,423.168C417.131,423.478 419.424,424.417 419.514,423.379Z" style="fill:rgb(81,56,3);"/>
                <g transform="matrix(1,0,0,1,465.574,417.085)">
                    <path d="M0,16.011C-3.238,17.191 -3.454,17.891 -5.162,15.668C-5.932,14.665 -9.673,10.52 -10.441,10.908C-11.397,11.39 -11.397,14.698 -12.55,16.199C-13.26,17.123 -17.086,17.496 -17.144,16.157C-17.215,14.495 -17.267,7.829 -17.229,6.167C-17.19,4.441 -17.792,1.958 -17.104,0.931C-16.353,-0.188 -14.257,0.233 -12.904,0.471C-11.469,0.723 -10.273,4.203 -9.431,4.295C-7.58,4.499 -5.664,2.661 -3.827,1.744C-1.119,0.392 -0.812,5.105 -0.812,5.105C-0.812,5.105 -5.269,6.588 -5.281,7.718C-5.299,9.317 -2.997,10.822 -1.667,12.459C-0.888,13.418 -0.57,13.754 0,15.011" style="fill:rgb(81,56,3);"/>
                </g>
                <g transform="matrix(1,0,0,1,441.518,417.225)">
                    <path d="M0,16.99C-1.135,17.663 -4.029,17.48 -6.07,17.641C-9.563,17.917 -12.233,17.195 -11.396,12.434C-10.828,9.202 -11.166,5.809 -11.115,2.488C-11.082,0.341 -10.134,-1.064 -7.893,-1.128C-5.121,-1.207 0.757,-1.49 0.884,1.862C1.065,6.63 -3.856,2.663 -5.084,4.173C-5.709,4.941 -7.068,11.164 -5.692,12.993C-4.945,13.984 -0.475,10.41 0.513,11.924C1.533,13.486 0.243,16.846 0,16.99Z" style="fill:rgb(81,56,3);"/>
                </g>
                <path d="M471.188,423.851C470.114,420.992 471.032,418.609 473.895,418.091C477.338,417.468 481.426,416.586 483.744,420.424C485.215,422.865 483.855,424.92 481.246,425.807C477.712,427.008 476.046,428.28 480.468,430.736C481.196,431.14 482.277,431.919 481.748,433.107C481.249,434.226 480.078,433.891 479.133,433.952C472.689,434.365 472.429,434.031 471.188,423.851ZM479.271,422.265C480.303,419.994 477.04,419.494 475.912,421.378C475.452,422.147 475.179,423.524 476.177,423.942C477.365,424.441 478.755,423.402 479.271,422.265Z" style="fill:rgb(81,56,3);"/>
                <g transform="matrix(1,0,0,1,398.046,425.932)">
                    <path d="M5.563,0.867C6.531,1.966 5.806,6.235 5.806,6.235C5.806,6.235 -6.532,6.23 -6.618,3.714C-6.705,1.164 -6.063,-8.668 -5.912,-9.984C-5.674,-12.055 -0.694,-11.785 0.291,-10.181C1.276,-8.577 -0.615,-1.633 0,-0.359C1.714,1.234 4.595,-0.232 5.563,0.867Z" style="fill:rgb(81,56,3);"/>
                </g>
            </g>
            <path id="Burger-hilight" d="M479.986,408.521C476.437,407.354 465.226,400.419 460.795,398.977C460.521,397.56 460.034,393.841 462.989,395.556C469.268,399.201 481.169,404.548 482.089,405.977C483.144,407.615 481.109,408.89 479.986,408.521ZM426.355,401.198C424.436,401.625 423.947,403 424.004,404.739C420.07,404.093 415.959,405.703 411.926,403.712C416.2,399.313 421.459,401.249 426.355,401.198ZM415.411,393.243C416.582,392.136 441.719,390.625 441.786,391.081C441.998,392.537 430.081,394.413 428.087,396.086C420.372,398.71 411.991,396.477 415.411,393.243ZM462.152,378.984C461.958,379.778 461.615,380.568 461.594,381.366C461.496,385.134 461.905,388.427 457.611,382.893C455.913,380.704 447.37,382.855 447.518,383.822C448.621,391.014 443.658,387.039 442.006,386.234C437.806,384.189 433.913,383.972 429.828,385.991C428.712,386.543 427.81,387.355 429.393,388.483C424.386,389.422 419.657,387.613 414.839,386.869C412.291,386.475 409.018,383.792 409.705,382.084C411.4,377.868 413.803,379.93 415.421,379.758C430.978,378.099 446.571,378.922 462.152,378.984ZM477.543,379.665C478.653,381.636 478.792,383.541 476.512,384.665C473.442,386.178 470.662,384.436 468.142,383.118C466.197,382.102 468.201,380.32 468.314,378.872C470.926,378.85 477.139,379.351 477.633,379.622L477.543,379.665ZM490.666,378.816C490.254,381.874 486.164,385.154 483.479,384.796C482.234,384.631 484.827,379.515 485.561,379.239C487.31,379.69 488.986,379.233 490.666,378.816ZM422.371,370.186C420.568,372.092 420.717,370.968 420.332,373.747C414.991,375.927 416.319,371.062 415.763,368.987C414.933,365.897 420.775,368.702 422.371,370.186ZM445.17,338.261C445.37,338.517 445.623,338.747 445.763,339.033C446.59,340.727 451.145,339.986 448.974,343.49C447.108,346.501 442.324,345.604 442.457,343.441C442.589,341.304 436.666,340.506 433.824,342.323C429.593,345.028 433.86,349.365 436.005,350.176C437.925,350.903 436.175,354.091 432.758,353.604C430.628,353.3 426.583,352.224 426.224,354.988C425.93,357.247 429.199,359.348 432.196,359.882C432.967,360.019 433.701,360.364 434.453,360.612C426.869,361.244 419.326,360.578 411.772,359.981C409.834,359.827 409.362,358.84 408.949,357.25C408.153,354.182 408.704,351.302 410.842,349.198C418.664,341.5 428.244,337.83 439.149,338.577C441.279,338.724 443.128,336.169 445.17,338.261ZM463.099,354.749C461.722,357.173 451.59,355.355 454.015,352.89C455.196,351.689 458.365,349.485 460.159,350.832C461.538,351.867 462.733,352.975 463.099,354.749ZM446.197,348.021C451.891,347.208 452.51,351.808 447.601,352.411C446.595,352.535 443.914,352.493 443.11,351.23C441.924,349.365 443.331,347.991 446.197,348.021ZM469.325,342.843C466.068,343.924 462.451,340.254 464.235,337.984C466.925,337.528 471.861,336.03 471.325,341.843C471.325,341.843 479.468,341.242 477.81,344.929C476.957,346.825 475.304,346.915 473.238,347.023C468.508,347.271 469.32,342.838 469.325,342.843ZM459.482,347.899C457.393,348.119 455.34,348.018 455.459,345.215C455.615,341.525 459.132,342.79 461.073,342.023C462.644,341.402 464.867,342.774 464.903,344.657C464.972,348.341 461.812,347.634 459.482,347.899ZM492.065,342.813C486.819,342.019 492.016,345.945 490.289,346.742C488.006,346.953 485.778,346.657 483.586,346.019C485.061,344.031 483.093,343.075 482.31,341.764C484.213,336.199 489.171,338.307 492.065,342.813ZM459.29,337.791C458.767,338.261 457.726,339.409 456.311,338.689C455.441,338.247 454.468,338.372 453.523,337.976C453.664,337.105 453.396,335.26 454.161,335.598C455.852,336.347 458.722,334.6 459.29,337.791Z" style="fill:rgb(255,245,153);"/>
            <path id="Burger-outline" d="M472.572,413.875C463.58,413.781 454.619,413.888 445.623,412.483C439.708,411.56 433.554,412.175 427.447,413.325C420.774,414.582 414.002,412.342 407.448,411.155C399.062,409.635 402.781,393.741 409.42,393.667C411.102,393.648 410.395,391.032 408.328,390.215C403.196,388.186 399.883,376.3 409.271,370.842C412.677,368.862 408.928,370.378 407.32,367.96C397.84,353.707 403.119,349.056 413.645,339.968C422.797,332.064 433.608,333.456 444.011,332.071C447.245,331.64 450.662,331.495 450.662,331.495C451.098,327.208 459.142,328.68 458.52,331.827L468.116,332.961C468.72,329.933 475.194,330.09 475.328,333.938C475.328,333.938 479.093,335.937 481.314,335.904C499.152,335.633 506.618,342.321 508.085,349.939C508.776,353.525 516.162,357.062 515.128,360.502C514.053,364.072 510.415,364.833 506.943,364.871C504.197,364.901 504.004,366.094 505.57,367.857C507.279,369.782 508.872,371.418 507.407,374.388C506.702,375.818 508.413,376.94 509.459,378.016C513.461,382.131 512.919,386.596 508.094,389.95C503.466,393.167 503.269,395.428 506.43,400.237C507.366,401.662 510.917,401.785 509.371,403.993C507.708,406.369 506.355,409.203 502.853,410.254C492.934,413.23 482.876,414.378 472.572,413.875ZM477.633,379.623C477.72,378.295 477.061,378.322 476.15,378.806C473.538,378.829 470.926,378.85 468.315,378.873C466.244,378.008 464.186,377.798 462.152,378.984C446.571,378.923 431.053,380.423 415.421,379.759C410.036,379.53 408.913,386.116 414.839,386.869C419.675,387.483 432.621,389.331 441.411,391.076C434.049,392.635 416.127,391.8 415.411,393.243C413.955,396.176 423.365,397.193 428.088,396.086C428.285,397.056 428.246,398.166 428.72,398.974C431.312,403.402 427.56,400.919 426.355,401.198C421.459,401.249 416.199,399.313 411.926,403.712C415.959,405.703 420.069,404.093 424.003,404.74C424.404,405.762 424.41,406.855 426.086,407.033C433.419,407.811 440.709,409.061 448.054,409.639C456.954,410.341 465.635,406.978 474.585,407.778C477.431,406.752 479.577,408.696 481.986,409.52C484.294,409.13 484.023,407.185 484.241,405.626C484.584,403.184 484.808,400.804 485.724,398.402C487.443,393.894 486.178,392.379 481.134,391.821C480.237,391.722 481.98,391.013 482.162,388.977C486.998,388.717 488.876,388.319 493.65,388.122C499.309,387.886 503.127,384.74 501.289,379.327C496.777,378.829 494.576,380.327 490.666,378.816C488.986,379.233 487.31,379.69 485.559,379.24C482.796,377.679 480.16,378.492 477.543,379.666L477.633,379.623ZM501.245,394.233C499.083,393.947 495.569,392.638 490.357,392.598C489.654,392.592 495.712,404.967 497.907,404.012C499.824,403.178 500.258,395.924 501.245,394.233ZM454.462,396.972C456.758,396.345 465.038,403.123 462.733,402.757C453.95,401.362 445.121,402.546 436.342,401.918C434.886,401.813 435.087,398.285 436.653,398.187C442.59,397.813 448.595,398.575 454.462,396.972ZM432.65,367.044C430.246,366.775 414.934,363.897 415.763,366.987C416.319,369.062 412.991,373.928 420.332,373.746L445.274,373.746C445.609,372.053 436.87,367.513 432.65,367.044ZM475.671,365.949C472.097,365.563 469.304,366.461 468.843,369.742C468.524,372.015 471.109,371.671 472.63,371.646C475.612,371.597 479.104,370.698 479.721,367.9C480.339,365.095 476.894,366.349 475.671,365.949ZM471.327,340.021C469.863,336.208 466.925,337.528 464.235,337.985L459.29,337.792C458.722,334.6 455.853,336.347 454.161,335.598C453.397,335.261 453.664,337.106 453.524,337.977C450.739,338.072 447.954,338.167 445.17,338.262C443.128,336.17 441.279,338.724 439.15,338.578C428.244,337.831 418.664,341.501 410.842,349.198C408.704,351.303 408.153,354.182 408.949,357.251C409.362,358.841 409.834,359.828 411.772,359.981C419.326,360.579 426.869,361.245 434.454,360.611C438.267,361.454 441.99,362.161 445.801,360.19C447.317,359.407 452.304,361.721 452.579,361.485C455.369,359.083 459.787,360.191 462.162,356.988C462.202,356.133 466.815,349.51 468.215,354.94C468.702,356.832 469.459,357.569 471.469,357.774C477.729,358.412 479.064,353.108 473.099,351.665C472.594,351.542 472.516,350.587 472.238,350.023C473.592,348.829 475.124,348.863 476.835,349.06C478.085,349.204 479.854,346.794 479.811,345.929C481.069,345.96 482.328,345.99 483.587,346.021C485.778,346.657 488.007,346.953 490.289,346.742C490.779,350.618 487.876,350.244 485.703,350.083C480.315,349.682 479.016,354.148 484.016,355.431C488.401,356.555 493.917,354.78 493.192,350.464C492.271,344.979 495.808,347.912 498.757,349.855C501.967,351.969 504.014,347.623 500.559,345.181C497.084,342.724 494.915,342.133 491.066,342.813C491.477,339.282 483.029,337.803 482.311,341.764C478.666,341.079 475.169,339.465 471.327,340.021Z" style="fill:rgb(81,56,3);"/>
        </g>
    </g>
</svg>
