<?xml version="1.0" encoding="UTF-8" standalone="no"?>
<!DOCTYPE svg PUBLIC "-//W3C//DTD SVG 1.1//EN" "http://www.w3.org/Graphics/SVG/1.1/DTD/svg11.dtd">
<svg width="100%" height="100%" viewBox="0 0 2445 1717" version="1.1" xmlns="http://www.w3.org/2000/svg" xmlns:xlink="http://www.w3.org/1999/xlink" xml:space="preserve" xmlns:serif="http://www.serif.com/" style="fill-rule:evenodd;clip-rule:evenodd;stroke-linejoin:round;stroke-miterlimit:2;">
    <g id="Background">
        <g transform="matrix(1,0,0,1,1,-4)">
            <rect x="-37" y="-21" width="2513" height="1768" style="fill:rgb(133,191,0);"/>
        </g>
        <g transform="matrix(1.16314,0,0,1.16314,-277.091,-351.508)">
            <ellipse cx="1107" cy="1484" rx="708" ry="212" style="fill:rgb(115,172,0);"/>
        </g>
    </g>
    <g id="Layer1">
        <path d="M1057,1246C1047.94,1240.58 1093.17,1042.71 1121,1009C1133.82,993.471 1181,995.864 1181,1016C1181,1051.83 1118.15,1171 1116,1223C1113.85,1275 1152,1304 1152,1304L1145,1347C1108.53,1318.59 1078.61,1285.35 1057,1246ZM1416,1092C1399.93,1146.23 1378.67,1191.05 1347,1217L1452,1291C1476.72,1274.5 1491.55,1258.23 1502,1248C1461.79,1201.79 1430.32,1151.19 1416,1092ZM471,680L483,559C534.958,695.441 574.746,807.588 685,858C769.38,896.581 1052.2,896.617 1130,905L1207,939C1027.98,997.993 872.159,999.057 730,966C711.258,979.842 719.147,1016.69 738,1063L502,1119C418.493,1123.32 412.233,1093.04 459,1039L572,984C507.815,908.336 477.197,804.438 471,680ZM1129,833C1235.13,843.973 1307,871.132 1314,890L1376,821C1409.91,807.351 1440.62,788.311 1464,773C1445.23,775.748 1433.33,777.53 1419,778L1424,765C1433.18,761.654 1457.64,754.34 1482,744C1465.67,736.583 1456.33,735.38 1440,730L1447,715C1467.11,709.404 1485.43,705.136 1505,691C1484.44,688.77 1473.64,687.626 1459,686L1467,666C1489,661.104 1505.14,657.081 1521,645C1502.84,644.439 1489.12,642.71 1476,643L1484,621C1509.68,615.02 1525.47,608.695 1545,596C1522.88,594.054 1514.53,594.11 1492,594L1497,580C1524.71,570.095 1514.34,572.498 1535,561C1517.23,554.739 1522.28,558.624 1501,555C1516.86,535.374 1560.57,522.311 1649,537C1736.23,551.489 2000.89,543.226 2187,423L2208,370L1470,194L1426,231L1330,706C1273.65,777.215 1184.29,811.026 1129,833ZM912,865L984,864L983,796L920,790L912,865ZM941,635L940,675L986,680L990,659L1046,659L1053,639L941,635ZM803,642L851,637C824.862,538.772 835.942,471.674 936,479L890,462C812.222,451.456 772.338,530.847 803,642ZM1037,589L1061,591C1064.91,527.163 1094.18,491.526 1155,491L1091,482C1036.33,502.432 1027.22,541.789 1037,589ZM382,389C308.054,396.891 226.67,454.893 225,524C286.055,493.822 338.395,472.505 360,486C350.885,458.044 355.722,426.375 382,389Z" style="fill:rgb(197,236,0);"/>
        <path id="outline" d="M1594.07,1272C1592.26,1272.22 1590.55,1272.23 1589,1272L1594.07,1272C1617.44,1269.13 1658.69,1230.9 1614,1223C1553.79,1212.35 1542.95,1238.91 1554,1241L1522,1240C1488.06,1208.31 1460.99,1170.01 1443,1123C1448.15,1041.81 1475.61,954.565 1519,863C1910.52,772.645 2121.7,606.065 2238,356C1991.42,306.192 1628.73,215.81 1498,180C1498,180 1454.8,166.288 1434,175C1408.89,185.52 1406.39,235.231 1400,274C1388.1,346.15 1352.22,509.506 1329,601C1293.5,740.877 1276.33,758.833 1160,787C1139.79,791.892 1099,800 1099,800L1095.83,774.956L1040,782C1040,782 1041.37,766.96 1041.37,754.96C1092.37,753.96 1167.35,720.295 1191,615C1220.63,483.082 1146.64,466.671 1112,461C1044.91,450.018 994.031,540.476 996,606C991.023,559.91 996.768,438.906 863,447C786.94,451.602 779.19,535.711 778,585C775.13,703.851 859.976,746.231 945,750L940,783L905,779L896,816C680.779,826.179 616.607,718.082 611,546L687,441L583,483C583,483 510.128,338.014 339,383C177.697,425.403 207.096,497.508 203,534C193.474,618.867 322.072,657.478 430,619C430,619 446.44,775.466 462,824C477.329,871.813 544,985 544,985C560.685,998.301 438.52,1008.33 418,1062C411.31,1079.5 417.619,1131.76 435,1131C489.841,1128.6 611.864,1146.23 600,1160C569.493,1175.47 505.384,1192.73 422,1211L370,1213C370,1213 364.538,1172.37 315,1203C270.201,1230.7 313,1256 313,1256C313,1256 270.583,1278.34 301,1298C345.228,1326.59 377.277,1275.28 372,1271L410,1284C385.912,1285.63 381.565,1339.25 436,1336C482.247,1333.24 474,1292 474,1292C474,1292 503.404,1275.2 532,1287C522.443,1324.25 562.034,1331.42 590,1322C659.299,1298.65 593.626,1258.94 562,1264C536.182,1260.05 663.604,1185.09 763,1168C736.796,1133.2 704,1115 704,1115L744,1092L860,1116L991,1217L975,1232C975,1232 907.335,1230.09 923,1262C951.694,1320.45 987,1256 987,1256L1035,1246C1035,1246 1010.66,1283.11 1030,1296C1050.32,1309.55 1082,1303 1082,1303L1123,1354L1034,1374C1034,1374 954.395,1359.81 960,1396C969.981,1460.45 1038.44,1418.1 1026,1412L1107,1395L1141,1444C1141,1444 1081.46,1459.17 1094,1496C1106.31,1532.16 1204.97,1513.17 1203,1482C1201.03,1450.88 1170,1446 1170,1446L1182,1421L1249,1412L1282,1432C1282,1432 1308.36,1493.82 1348,1456C1387.64,1418.18 1350,1405 1350,1405C1311.44,1411.81 1284.95,1402.69 1268,1381L1261,1363C1286.67,1353.96 1309.65,1351.01 1330,1354C1330,1354 1419.37,1366.24 1392,1326C1364.63,1285.76 1327,1322 1327,1322C1303.87,1327.69 1278.28,1331.94 1249,1334L1206,1243C1206,1243 1247.15,1246.2 1255,1220C1264.85,1187.12 1211.57,1181.34 1202,1185C1208.63,1146.73 1223.92,1111.86 1252,1082L1284,1076C1291.65,1074.5 1321.08,1181.79 1308,1207C1296.92,1228.35 1474,1312 1474,1312C1474,1312 1426.62,1328.57 1435,1350C1451.4,1391.94 1540.19,1374.49 1528,1353C1544.76,1344.81 1560.23,1341.88 1573,1350L1624,1379C1624,1379 1638.19,1435.78 1708,1379C1752.85,1342.52 1641,1346 1641,1346L1623,1316L1679,1300C1679,1300 1752.23,1318.97 1746,1284C1737.39,1235.71 1677.81,1260.04 1675,1272L1594.07,1272ZM1057,869L1059.91,856.25C1120.6,847.663 1338.05,836.61 1365,632C1394.06,411.411 1432.33,274.565 1440,268C1440,268 1446.87,207.895 1528,226C1609.13,244.105 2168,382 2168,382C2168,382 1905.45,558.218 1568,466C1541.59,458.782 1537.59,427.672 1504,446C1479.48,459.377 1457.84,470.374 1457,490C1456.43,503.386 1526.76,468.228 1529,477C1606.94,514.746 1878.59,564.087 2168,415C2066.22,597.595 1745.44,783.437 1490,808C1463.6,899.632 1371.22,975.678 1210,1051C1177.54,1111.77 1158.32,1174.59 1143,1238L1226,1353C1244.59,1353.69 1265.72,1395.48 1208,1397C1138.19,1398.84 1150.49,1362.99 1170,1355C1135.68,1328.29 1076.88,1264.53 1069,1247C1059.9,1226.76 1086.16,1097.08 1113,1022L1072,1075C1047.75,1076.01 1024.59,1064.28 1002,1046L1017,1078C990.659,1075.19 969.192,1062.81 951,1044L967,1080L942,1083C926.216,1074.27 912.463,1060.3 900,1043L911,1077L879,1075C866.221,1068.69 852.78,1054 839,1035L847,1074L821,1069C808.487,1058.56 793.341,1043.36 777,1026L789,1063C759.685,1055.68 738.008,1035.44 720,1009L727,1043C735.139,1044.78 557.63,1097.23 504,1106C468.687,1111.78 429.975,1098.61 454,1070C476.966,1042.65 604.818,993.12 664,952L596,965C593.401,978.6 500.546,841.382 493,791C475.05,671.149 480.147,555.318 450,516C366.867,407.576 240,509 240,509C240,509 280.196,400.902 404,407C477.289,410.61 556.477,511.501 572.113,595.46C587.666,678.973 642.387,784.726 662,803C686.221,825.567 790.952,859.719 898,852L861,868L932,866L937,800L1046,807L1043,870L1057,869ZM1417,986L1346,1038L1380,1050L1343,1065L1342,1081L1376,1083L1347,1103L1343,1125L1373,1132L1346,1149L1351,1194C1435.13,1270.68 1483.87,1302.4 1505,1298C1505,1298 1502.84,1312.34 1508,1314C1530.26,1321.17 1567.09,1319.69 1574,1314C1583.49,1306.2 1588.3,1294.5 1572,1290C1558.05,1286.14 1501,1267 1501,1267C1501,1267 1407.44,1152.41 1404,1133C1400.93,1115.67 1417,986 1417,986ZM601,1194L435,1236L439,1258L495,1258L601,1194ZM885,479C853.781,477.047 812.68,481.895 817,580C822.213,698.373 908.672,713.931 976,716L971,782L1012,785L1019,717C1031.48,718.062 1153.37,718.201 1166,593C1167.44,578.736 1177.84,490.306 1108,491C1034.22,491.734 1039.26,605.222 1043,641L962,635C967.298,588.228 953.043,483.256 885,479ZM319,529C293.354,557.028 310,566.678 337.684,567.072C365.367,567.466 404.087,558.603 422.587,549.603C421.587,512.603 357.999,486.381 319,529ZM1714,389C1714,389 1709.92,363.754 1721,355C1732.08,346.246 1764.35,336.921 1780,339C1795.65,341.079 1812.51,350.219 1823,361C1833.49,371.781 1838,394 1838,394L1831,406L1815,404L1801,375C1756.76,364.211 1742.81,371.978 1739,392L1714,389ZM1521,372L1557,374C1562.08,329.262 1626.46,339.213 1621,379L1655,382C1660.71,358.737 1665.86,344.194 1660.73,336.383C1654.81,327.352 1614.79,305.285 1590,301C1551.96,294.425 1521.3,330.471 1521,372Z" style="fill:rgb(72,108,0);"/>
    </g>
</svg>
