<?xml version="1.0" encoding="UTF-8" standalone="no"?>
<!DOCTYPE svg PUBLIC "-//W3C//DTD SVG 1.1//EN" "http://www.w3.org/Graphics/SVG/1.1/DTD/svg11.dtd">
<svg width="100%" height="100%" viewBox="0 0 4188 3483" version="1.1" xmlns="http://www.w3.org/2000/svg" xmlns:xlink="http://www.w3.org/1999/xlink" xml:space="preserve" xmlns:serif="http://www.serif.com/" style="fill-rule:evenodd;clip-rule:evenodd;stroke-linecap:round;stroke-linejoin:round;stroke-miterlimit:1.5;">
    <g transform="matrix(1,0,0,1,-4814,0)">
        <g id="Artboard2" transform="matrix(1,0,0,1,576,0)">
            <rect x="4238" y="0" width="4188" height="3483" style="fill:rgb(213,209,190);"/>
            <clipPath id="_clip1">
                <rect x="4238" y="0" width="4188" height="3483"/>
            </clipPath>
            <g clip-path="url(#_clip1)">
                <g transform="matrix(1,0,0,1.02011,-576,-70.7443)">
                    <g id="background">
                        <rect x="4725" y="2125" width="4314" height="1392" style="fill:rgb(150,146,117);"/>
                    </g>
                </g>
                <g id="signet" transform="matrix(1,0,0,1,-576,0)">
                    <path d="M7897,2616L7896,2722L7997,2721L7999,2616L7897,2616ZM7985.94,2627.1C7984.66,2628.06 7964.3,2626.59 7954,2626C7941.35,2625.27 7911,2627 7911,2627L7909,2710C7909,2710 7924.33,2709.83 7935,2710C7943.67,2710.14 7965.67,2709.33 7972,2709C7976.05,2708.79 7985,2708 7985,2708C7985,2708 7987.3,2674.44 7986,2661C7985.1,2651.7 7984.85,2629.17 7985.94,2627.1C7985.98,2627.07 7986,2627.03 7986,2627C7985.98,2627.02 7985.96,2627.06 7985.94,2627.1ZM7946.05,2661.98L7946,2662C7946.02,2661.99 7946.03,2661.98 7946.05,2661.98L7977,2648L7973,2636L7965,2636L7935,2655L7935,2635L7920,2635L7921,2701L7938,2701L7937,2673C7937,2673 7948.74,2673.46 7954,2678C7959.26,2682.54 7958,2702 7958,2702L7975,2702C7976.88,2702.15 7974.17,2683.78 7973,2679C7971.33,2672.18 7950.22,2660.18 7946.05,2661.98Z" style="fill:rgb(118,117,99);"/>
                </g>
                <g id="Puddle" transform="matrix(1,0,0,1,-576,0)">
                    <path d="M5899,2673C5847.08,2675.45 5762.9,2686.75 5766,2712C5769.1,2737.25 5824.92,2742.1 5906,2739C5987.08,2735.9 6040.5,2716.24 6020,2692C5999.5,2667.76 5950.92,2670.55 5899,2673Z" style="fill:rgb(215,211,195);"/>
                    <clipPath id="_clip2">
                        <path d="M5899,2673C5847.08,2675.45 5762.9,2686.75 5766,2712C5769.1,2737.25 5824.92,2742.1 5906,2739C5987.08,2735.9 6040.5,2716.24 6020,2692C5999.5,2667.76 5950.92,2670.55 5899,2673Z"/>
                    </clipPath>
                    <g clip-path="url(#_clip2)">
                        <path d="M5944,2680L5920,2765L6068,2762L6056,2674L5944,2680Z" style="fill:rgb(52,167,190);"/>
                    </g>
                    <path d="M6158,2356C6118.33,2356 6066.04,2359.46 6033,2377C6015.15,2386.47 6108.46,2381.46 6113,2394C6114.71,2398.71 5877.82,2409.63 5897,2430C5915.47,2449.61 5967.57,2448.37 6006,2447C6048.82,2445.47 6064.52,2449.84 6070,2463C6084.05,2496.75 6210.36,2475.7 6211,2493C6211.64,2510.3 6147.4,2504.93 6132,2529C6109.39,2564.34 6213.21,2581.77 6266,2580C6346.69,2577.3 6476.89,2547.08 6460,2503C6432.1,2430.18 6271,2450 6271,2450C6246.03,2420.67 6166.27,2423.84 6097,2422C6097,2422 6298.4,2407.48 6271,2377C6249.72,2353.33 6197.67,2356 6158,2356Z" style="fill:rgb(215,211,195);"/>
                    <path d="M6547,2691C6453.71,2691.99 6286.16,2716.75 6280,2745C6273.84,2773.25 6341.84,2757.17 6339,2771C6336.16,2784.83 6310.51,2782.68 6288,2798C6268.64,2811.18 6104.07,2823.52 6105,2850C6105.94,2876.48 6249.22,2863.29 6263,2874C6276.78,2884.71 6225.52,2884.48 6218,2894C6210.48,2903.52 6273.59,2911.67 6368,2908C6436.51,2905.34 6565.28,2888.46 6558,2866C6550.72,2843.54 6440.65,2838.42 6442,2815C6443.35,2791.58 6561.72,2780.19 6621,2774C6680.28,2767.81 6780.28,2754.95 6778,2733C6775.72,2711.05 6646.36,2689.94 6547,2691Z" style="fill:rgb(215,211,195);"/>
                    <clipPath id="_clip3">
                        <path d="M6547,2691C6453.71,2691.99 6286.16,2716.75 6280,2745C6273.84,2773.25 6341.84,2757.17 6339,2771C6336.16,2784.83 6310.51,2782.68 6288,2798C6268.64,2811.18 6104.07,2823.52 6105,2850C6105.94,2876.48 6249.22,2863.29 6263,2874C6276.78,2884.71 6225.52,2884.48 6218,2894C6210.48,2903.52 6273.59,2911.67 6368,2908C6436.51,2905.34 6565.28,2888.46 6558,2866C6550.72,2843.54 6440.65,2838.42 6442,2815C6443.35,2791.58 6561.72,2780.19 6621,2774C6680.28,2767.81 6780.28,2754.95 6778,2733C6775.72,2711.05 6646.36,2689.94 6547,2691Z"/>
                    </clipPath>
                    <g clip-path="url(#_clip3)">
                        <path d="M6476,2660L6555,2812L6722,2806L6666,2656L6476,2660Z" style="fill:rgb(200,79,0);"/>
                    </g>
                    <path d="M6886,2519C6848.36,2519.12 6778.12,2532.33 6778,2544C6777.88,2555.67 6837.43,2560.19 6874,2558C6910.57,2555.81 6983.02,2551.39 6979,2536C6974.98,2520.61 6923.64,2518.88 6886,2519Z" style="fill:rgb(215,211,195);"/>
                    <path d="M7516,2720C7444.11,2722.6 7213.78,2729.22 7213,2779C7212.22,2828.78 7636.8,2824.98 7646,2860C7655.2,2895.02 7395.31,2905.58 7367,2939C7338.69,2972.42 7624.17,2976.67 7680,2976C7735.83,2975.33 7951.38,2963.11 7945,2942C7938.62,2920.89 7798.82,2919.84 7821,2893C7843.18,2866.16 8106.22,2871.55 8079,2835C8061.39,2811.36 7887.23,2806.72 7835,2806C7775.12,2805.18 7722.58,2793.72 7731.81,2779.64C7740.68,2766.13 7796.74,2769.14 7798,2750C7799.74,2723.42 7606.16,2716.74 7516,2720Z" style="fill:rgb(215,211,195);"/>
                    <clipPath id="_clip4">
                        <path d="M7516,2720C7444.11,2722.6 7213.78,2729.22 7213,2779C7212.22,2828.78 7636.8,2824.98 7646,2860C7655.2,2895.02 7395.31,2905.58 7367,2939C7338.69,2972.42 7624.17,2976.67 7680,2976C7735.83,2975.33 7951.38,2963.11 7945,2942C7938.62,2920.89 7798.82,2919.84 7821,2893C7843.18,2866.16 8106.22,2871.55 8079,2835C8061.39,2811.36 7887.23,2806.72 7835,2806C7775.12,2805.18 7722.58,2793.72 7731.81,2779.64C7740.68,2766.13 7796.74,2769.14 7798,2750C7799.74,2723.42 7606.16,2716.74 7516,2720Z"/>
                    </clipPath>
                    <g clip-path="url(#_clip4)">
                        <path d="M7289,2683L7289,3013L7428,3028L7360,2676L7289,2683Z" style="fill:rgb(200,79,0);"/>
                        <g id="mirror" transform="matrix(1,0,0,-1,-4,5550)">
                            <g opacity="0.37">
                                <path d="M7897,2616L7896,2722L7997,2721L7999,2616L7897,2616ZM7985.94,2627.1C7984.66,2628.06 7964.3,2626.59 7954,2626C7941.35,2625.27 7911,2627 7911,2627L7909,2710C7909,2710 7924.33,2709.83 7935,2710C7943.67,2710.14 7965.67,2709.33 7972,2709C7976.05,2708.79 7985,2708 7985,2708C7985,2708 7987.3,2674.44 7986,2661C7985.1,2651.7 7984.85,2629.17 7985.94,2627.1C7985.98,2627.07 7986,2627.03 7986,2627C7985.98,2627.02 7985.96,2627.06 7985.94,2627.1ZM7946.05,2661.98L7946,2662C7946.02,2661.99 7946.03,2661.98 7946.05,2661.98L7977,2648L7973,2636L7965,2636L7935,2655L7935,2635L7920,2635L7921,2701L7938,2701L7937,2673C7937,2673 7948.74,2673.46 7954,2678C7959.26,2682.54 7958,2702 7958,2702L7975,2702C7976.88,2702.15 7974.17,2683.78 7973,2679C7971.33,2672.18 7950.22,2660.18 7946.05,2661.98Z" style="fill:rgb(118,117,99);"/>
                            </g>
                        </g>
                    </g>
                    <path d="M7918,3026C7880.79,3026.57 7833.97,3029.23 7826,3043C7818.03,3056.77 7857.65,3068.29 7904,3070C7950.35,3071.71 8003.06,3061.2 7992,3048C7980.94,3034.8 7955.21,3025.43 7918,3026Z" style="fill:rgb(215,211,195);"/>
                    <path d="M7566,3044C7553.81,3044.97 7522.66,3043.64 7517,3054C7511.34,3064.36 7537.54,3066.88 7557,3066C7576.46,3065.12 7621.22,3063.61 7612,3054C7602.78,3044.39 7578.19,3043.03 7566,3044Z" style="fill:rgb(215,211,195);"/>
                    <path d="M6425,3200C6451.01,3171.07 6545.85,3145.77 6559,3145C6577.4,3143.92 6539.65,3132.03 6568,3110C6596.35,3087.97 6666.92,3068.88 6779,3060C6944.42,3046.89 6947.45,3076.51 7040,3089C7113.75,3098.95 7354.59,3132.24 7401,3185C7460.85,3253.02 7438,3316 7438,3316L6429,3327C6429,3327 6366.38,3265.2 6425,3200Z" style="fill:rgb(215,211,195);"/>
                    <clipPath id="_clip5">
                        <path d="M6425,3200C6451.01,3171.07 6545.85,3145.77 6559,3145C6577.4,3143.92 6539.65,3132.03 6568,3110C6596.35,3087.97 6666.92,3068.88 6779,3060C6944.42,3046.89 6947.45,3076.51 7040,3089C7113.75,3098.95 7354.59,3132.24 7401,3185C7460.85,3253.02 7438,3316 7438,3316L6429,3327C6429,3327 6366.38,3265.2 6425,3200Z"/>
                    </clipPath>
                    <g clip-path="url(#_clip5)">
                        <path d="M6639,3062C6507.19,3156.66 6717,3359 6717,3359L7496,3346C7496,3346 7524.46,3200.61 7416,3142C7173.25,3010.82 6721.49,3002.76 6639,3062Z" style="fill:rgb(200,79,0);"/>
                    </g>
                </g>
                <g id="feudel" transform="matrix(1,0,0,1,-576,0)">
                    <path d="M6359,2389C6359,2389 6327.54,2408.06 6322,2424C6316.46,2439.94 6321.77,2462.54 6327,2467C6332.23,2471.46 6347,2471 6347,2471C6347,2471 6317.1,2476.94 6319,2492C6320.9,2507.06 6350,2507 6350,2507C6350,2507 6332.59,2511.69 6335,2521C6337.41,2530.31 6387,2544 6387,2544L6376,2530L6424,2553L6447,2541L6396,2516L6477,2527L6503,2519L6477,2509L6502,2506L6484,2500L6512,2497C6502.55,2488.98 6487.4,2482.9 6460,2481C6460,2481 6474.79,2458.64 6465,2442C6455.21,2425.37 6397,2390 6397,2390L6359,2389Z" style="fill:rgb(192,177,120);"/>
                    <clipPath id="_clip6">
                        <path d="M6359,2389C6359,2389 6327.54,2408.06 6322,2424C6316.46,2439.94 6321.77,2462.54 6327,2467C6332.23,2471.46 6347,2471 6347,2471C6347,2471 6317.1,2476.94 6319,2492C6320.9,2507.06 6350,2507 6350,2507C6350,2507 6332.59,2511.69 6335,2521C6337.41,2530.31 6387,2544 6387,2544L6376,2530L6424,2553L6447,2541L6396,2516L6477,2527L6503,2519L6477,2509L6502,2506L6484,2500L6512,2497C6502.55,2488.98 6487.4,2482.9 6460,2481C6460,2481 6474.79,2458.64 6465,2442C6455.21,2425.37 6397,2390 6397,2390L6359,2389Z"/>
                    </clipPath>
                    <g clip-path="url(#_clip6)">
                        <path d="M6360.61,2398.91C6360.63,2398.89 6353.69,2406.55 6351.7,2408.43C6345.1,2414.68 6337.17,2421.41 6332.64,2429.45C6330.58,2433.13 6329.84,2437.63 6330.74,2441.78C6331.1,2443.41 6333.13,2445.53 6334.36,2446.63C6334.4,2446.67 6334.5,2446.76 6334.43,2446.53" style="fill:none;stroke:rgb(118,117,99);stroke-width:5.5px;"/>
                        <path d="M6367.45,2404.27C6367.86,2403.32 6365.88,2406.95 6365.69,2407.26C6364.3,2409.48 6362.72,2411.58 6361.15,2413.67C6357.45,2418.59 6346.73,2428.73 6347.96,2436.09" style="fill:none;stroke:rgb(118,117,99);stroke-width:5.5px;"/>
                        <path d="M6375.28,2400.18C6376.05,2398.05 6376.01,2404.82 6376.01,2405.4C6376.02,2409.22 6375.39,2413.03 6374.31,2416.69C6372.66,2422.32 6369.96,2430.83 6366.08,2435.49C6363.53,2438.55 6359.6,2438.65 6357.93,2443.31C6357.09,2445.67 6356.97,2448.33 6357.29,2450.81C6357.83,2454.95 6359.69,2461.01 6363.98,2462.84C6369.49,2465.18 6376.44,2460.3 6376.42,2470.87C6376.41,2477.21 6372.07,2482.07 6367.61,2486.08C6366.25,2487.3 6364.83,2488.46 6363.35,2489.54C6363.16,2489.68 6360.56,2491.5 6360.84,2490.99" style="fill:none;stroke:rgb(118,117,99);stroke-width:5.5px;"/>
                        <path d="M6387.23,2400.55C6389.24,2400.42 6388.24,2406.7 6388.59,2410.35C6389.24,2417.15 6391.36,2425.44 6388.95,2432.09C6387.25,2436.77 6379.99,2437.49 6381.7,2443.18C6384.97,2454.1 6398.65,2451.03 6396.59,2469.11C6395.81,2476.01 6390.87,2479.39 6385.51,2482.92C6384.42,2483.64 6379.04,2485.34 6379.52,2487.07C6380.77,2491.53 6397.11,2487.22 6396.24,2492.7C6395.42,2497.91 6381.9,2502.88 6378.05,2505.51C6376.65,2506.45 6372.97,2508.48 6373.01,2510.56C6373.07,2513.44 6381.59,2515.29 6383.45,2516.01C6395.14,2520.47 6403.19,2523.59 6412.44,2531.96C6416.44,2535.57 6420.79,2538.7 6426.23,2539.58C6427.93,2539.86 6429.65,2539.7 6431.34,2539.95C6432.19,2540.08 6434.43,2541.16 6433.86,2540.52" style="fill:none;stroke:rgb(118,117,99);stroke-width:5.5px;"/>
                        <path d="M6394.44,2395.57C6393.1,2395.87 6398.82,2400.42 6400.14,2402.29C6403.85,2407.55 6407.54,2413.53 6410.06,2419.48C6410.78,2421.2 6408.15,2422.82 6407.23,2423.59C6405.31,2425.21 6397.34,2431.47 6398.67,2434.64C6399.52,2436.66 6402.96,2437.42 6404.75,2438.02C6409.78,2439.73 6421.66,2440.97 6422.91,2447.49C6424.21,2454.28 6418.57,2456.56 6414.15,2459.9C6409.6,2463.35 6404.77,2470.33 6405.28,2476.25C6406.19,2486.72 6421.42,2478.5 6425.14,2486.68C6427.13,2491.04 6417.8,2496.2 6415.14,2498.03C6413.87,2498.9 6411.08,2500.01 6411.97,2501.94C6414.68,2507.9 6422.83,2510.8 6428.51,2512.72C6444.05,2517.96 6461.91,2521.45 6478.43,2522.42C6481.19,2522.58 6485.24,2525.93 6487.74,2525.48" style="fill:none;stroke:rgb(118,117,99);stroke-width:5.5px;"/>
                        <path d="M6408.4,2415.51C6408.41,2415.49 6413.75,2417.33 6414.26,2417.45C6418.74,2418.58 6430.58,2420.59 6428.88,2427.73C6428.08,2431.09 6424.02,2431.63 6421.16,2431.92C6420.62,2431.98 6417.66,2431.85 6417.63,2432.78C6417.56,2435.18 6424.6,2436.72 6426.15,2437.38C6432.38,2440.08 6443.51,2443.83 6444.23,2452.03C6444.7,2457.39 6437.3,2461.77 6433.61,2464.28C6432.61,2464.96 6428.76,2466.7 6428.62,2468.16C6428.46,2469.95 6432.95,2472.32 6434.04,2473.12C6438.74,2476.56 6444.97,2480.39 6447.24,2486.08C6448.91,2490.26 6438.4,2494.05 6438.87,2499.4C6439.13,2502.4 6442.45,2504.66 6444.6,2506.33C6450.39,2510.83 6456.61,2514.54 6463.05,2518.02C6466.69,2520 6470.21,2521.69 6474.21,2522.77C6474.47,2522.84 6477.75,2523.72 6477.75,2523.54" style="fill:none;stroke:rgb(118,117,99);stroke-width:5.5px;"/>
                        <path d="M6441.32,2459.06C6441.68,2458.55 6441.88,2460.03 6442.4,2460.55C6443.46,2461.59 6444.66,2462.43 6445.94,2463.19C6446.94,2463.8 6454.5,2466.93 6454.38,2468.52C6454.15,2471.57 6450.23,2475.13 6448.41,2477.24C6448.26,2477.42 6445.34,2480.78 6445.34,2480.78C6454.78,2487.81 6463.61,2495.25 6475.01,2498.98C6478.28,2500.05 6483.14,2501.57 6486.64,2501.77C6487.37,2501.81 6492.69,2501.47 6492.6,2501.37" style="fill:none;stroke:rgb(118,117,99);stroke-width:5.5px;"/>
                        <path d="M6428.76,2428.07C6431.06,2428.4 6435.96,2433.67 6438.33,2434.87C6441.53,2436.49 6444.81,2437.95 6447.97,2439.65C6450.25,2440.88 6452.45,2442.26 6454.43,2443.94C6460.17,2448.79 6462.91,2455.03 6465.03,2461.93C6465.57,2463.7 6466.91,2467.24 6465.94,2468.86" style="fill:none;stroke:rgb(118,117,99);stroke-width:5.5px;"/>
                        <path d="M6364.05,2476.53C6364.2,2476.65 6361.85,2477.57 6361.68,2477.64C6359.88,2478.36 6358.06,2479.02 6356.26,2479.75C6350.97,2481.9 6345.11,2484.15 6340.61,2487.75C6339.05,2489 6336.94,2491.12 6337.84,2493.33C6340.27,2499.33 6354.52,2500.49 6359.72,2501.73C6360.84,2502 6365.99,2502.5 6366.87,2504.14C6367.09,2504.56 6363.33,2507.99 6363.08,2508.25C6360.41,2511.03 6352.15,2517.58 6356.04,2522.03C6359.73,2526.25 6366.16,2528.94 6371.27,2530.88C6373.07,2531.57 6374.92,2532.24 6376.79,2532.72C6377.71,2532.96 6380.51,2533.42 6379.6,2533.14" style="fill:none;stroke:rgb(118,117,99);stroke-width:5.5px;"/>
                        <path d="M6351.01,2438.7C6351.12,2438.7 6348.96,2441.14 6348.56,2441.8C6347.07,2444.22 6345.79,2447.22 6345.97,2450.12C6346.3,2455.43 6354.3,2456.96 6358.49,2456.96" style="fill:none;stroke:rgb(118,117,99);stroke-width:5.5px;"/>
                    </g>
                    <path d="M6359,2389C6359,2389 6327.54,2408.06 6322,2424C6316.46,2439.94 6321.77,2462.54 6327,2467C6332.23,2471.46 6347,2471 6347,2471C6347,2471 6317.1,2476.94 6319,2492C6320.9,2507.06 6350,2507 6350,2507C6350,2507 6332.59,2511.69 6335,2521C6337.41,2530.31 6387,2544 6387,2544L6376,2530L6424,2553L6447,2541L6396,2516L6477,2527L6503,2519L6477,2509L6502,2506L6484,2500L6512,2497C6502.55,2488.98 6487.4,2482.9 6460,2481C6460,2481 6474.79,2458.64 6465,2442C6455.21,2425.37 6397,2390 6397,2390L6359,2389Z" style="fill:none;stroke:rgb(118,117,99);stroke-width:5.5px;"/>
                    <path d="M6359,2019C6359,2019 6361.99,2129.6 6362,2150C6362.01,2170.4 6365.13,2249.18 6363,2266C6360.87,2282.82 6365,2351 6365,2351L6347,2354L6347,2396C6347,2396 6361.7,2402.65 6375,2401C6388.3,2399.35 6407,2391 6407,2391L6405,2359L6389,2355C6389,2355 6389.02,2281.68 6390,2267C6390.98,2252.32 6383.69,2178.54 6385,2167C6386.31,2155.46 6389,2018 6389,2018L6359,2019Z" style="fill:rgb(191,113,23);"/>
                    <clipPath id="_clip7">
                        <path d="M6359,2019C6359,2019 6361.99,2129.6 6362,2150C6362.01,2170.4 6365.13,2249.18 6363,2266C6360.87,2282.82 6365,2351 6365,2351L6347,2354L6347,2396C6347,2396 6361.7,2402.65 6375,2401C6388.3,2399.35 6407,2391 6407,2391L6405,2359L6389,2355C6389,2355 6389.02,2281.68 6390,2267C6390.98,2252.32 6383.69,2178.54 6385,2167C6386.31,2155.46 6389,2018 6389,2018L6359,2019Z"/>
                    </clipPath>
                    <g clip-path="url(#_clip7)">
                        <path d="M6353,2011L6349,2098L6377,2126C6377,2126 6378.51,2234.33 6381,2251C6383.49,2267.67 6383,2347 6383,2347L6343,2364L6339,2375C6364.31,2378.96 6389.16,2377.53 6413,2364L6395,2352L6392,2008L6353,2011Z" style="fill:rgb(123,59,0);"/>
                        <path d="M6337,2382C6366.21,2388.75 6388.5,2388.12 6414,2376L6413,2399C6389.3,2408.34 6364.03,2410.3 6337,2404L6337,2382Z" style="fill:rgb(52,167,190);"/>
                    </g>
                </g>
                <g id="bucket" transform="matrix(1,0,0,1,-576,0)">
                    <path d="M5908,2529C5908,2529 5929.83,2657.33 5938,2690C5942.34,2707.35 6050.5,2710.06 6057,2682C6061.75,2661.48 6087,2525 6087,2525C6089.77,2489.37 5914.07,2483.62 5908,2529Z" style="fill:url(#_Linear8);stroke:rgb(67,110,113);stroke-width:5.5px;"/>
                    <path d="M5922,2527C5921.48,2545.62 5955.06,2551.95 5998,2551C6034.94,2550.18 6072.2,2538.83 6072,2526C6071.79,2512.19 6038.62,2506.7 6000,2506C5977.61,2505.6 5922.44,2511.31 5922,2527Z" style="fill:rgb(52,167,190);"/>
                    <path d="M5940,2562C5940,2562 5986.01,2656.23 6055,2632C6106.49,2613.92 6084,2545 6084,2545" style="fill:none;stroke:rgb(118,117,99);stroke-width:8px;"/>
                    <path d="M6028,2632C6033.51,2632.19 6040,2632 6040,2632C6042.98,2633.33 6043.98,2635.66 6043,2639L6031,2640C6031,2640 6033.44,2648.25 6041,2646C6049.84,2643.37 6078,2628 6078,2628C6091.4,2621.49 6086.82,2606.67 6071,2612C6071,2612 6045.51,2621.88 6035,2625C6027.8,2627.14 6028,2632 6028,2632Z" style="fill:rgb(191,195,135);"/>
                    <clipPath id="_clip9">
                        <path d="M6028,2632C6033.51,2632.19 6040,2632 6040,2632C6042.98,2633.33 6043.98,2635.66 6043,2639L6031,2640C6031,2640 6033.44,2648.25 6041,2646C6049.84,2643.37 6078,2628 6078,2628C6091.4,2621.49 6086.82,2606.67 6071,2612C6071,2612 6045.51,2621.88 6035,2625C6027.8,2627.14 6028,2632 6028,2632Z"/>
                    </clipPath>
                    <g clip-path="url(#_clip9)">
                        <path d="M6032,2626C6035.91,2623.72 6043.6,2624.88 6046,2634C6048.1,2641.97 6044.77,2645.12 6041,2646C6034.73,2647.46 6031.05,2643.74 6029,2636C6026.95,2628.26 6027.52,2628.61 6032,2626Z" style="fill:rgb(136,128,87);"/>
                    </g>
                </g>
                <g id="machinery" transform="matrix(1,0,0,1,-576,0)">
                    <path d="M6125,1135C6074.36,1142.99 6058.05,1182.26 6073,1250L6129,1291L6324,1724L6457,1732L6469,1424L6317,1387L6298,1300L6473,1237L6577,1225L6608,1399L6645,1404L6660,1464L6656,1510L6675,1532L6699,1534C6681,1562.64 6685.27,1584.6 6708,1601L6727,1606L6716,1634C6717.91,1654.92 6725.92,1664.68 6744,1656C6729.83,1681.47 6736.34,1696.16 6756,1704L6832,1711L6681,1756L6658,1814L6524,1841L6515,1755L6246,1743L6228,1827L6234,1904L6266,2011L6288,2030L6551,1999L6541,1964L6581,2023L6472,2154L6484,2204L6541,2195L6726,2383L6772,2365L6778,2310L6643,2184L6627,2099L6709,1970L7130,1906L7442,1971L7307,2210L7314,2314L7273,2520L7367,2501L7380,2447L7402,2440L7410,2386L7386,2380L7397,2295L7421,2291L7425,2275L7399,2274L7629,1899L7499,1834L7517,1648L7786,1454L7763,1215C7825.03,1186.2 7842.43,1142.95 7833,1091C7852.27,1071.39 7845.32,1059.64 7828,1051C7830.64,1028.01 7814.59,1023.3 7792,1025L7739,959L7061,1217L6718,1225L6597,977L6238,1015L6125,1135ZM7388,2398L7382,2426L7395,2424L7399,2397L7388,2398ZM7814,1107L7760,1161C7760,1161 7784.94,1168.87 7803,1153C7829,1130.15 7821.48,1103.04 7814,1107ZM7794,1056L7758,1135C7758,1135 7789.99,1103.76 7799,1089C7813.16,1065.8 7799.03,1051.13 7794,1056ZM6798,789L6751,979L6816,1086L6957,1096L7086,1039L7080,977L7124,986L7140,971L7084,948L7079,913L7137,935L7142,963L7191,913L7137,912L7064,883L7060,842L7091,798L7084,728L6816,723L6798,789ZM6787,970L6800,1007L6825,968L6787,970ZM6551,826L6558,870L6505,906L6736,933L6740,884L6728,883C6724.31,861.328 6710.35,860.644 6691,871C6679.44,856.723 6674.13,841.325 6674,825L6693,804L6551,826ZM7359,808L7338,892L7474,923L7497,825L7359,808ZM7418,826L7405,897L7444,905L7474,831L7418,826ZM6622,827L6623,877L6669,878L6653,822L6622,827ZM6597,854L6593,877L6607,877L6597,854Z" style="fill:rgb(98,92,92);"/>
                    <clipPath id="_clip10">
                        <path d="M6125,1135C6074.36,1142.99 6058.05,1182.26 6073,1250L6129,1291L6324,1724L6457,1732L6469,1424L6317,1387L6298,1300L6473,1237L6577,1225L6608,1399L6645,1404L6660,1464L6656,1510L6675,1532L6699,1534C6681,1562.64 6685.27,1584.6 6708,1601L6727,1606L6716,1634C6717.91,1654.92 6725.92,1664.68 6744,1656C6729.83,1681.47 6736.34,1696.16 6756,1704L6832,1711L6681,1756L6658,1814L6524,1841L6515,1755L6246,1743L6228,1827L6234,1904L6266,2011L6288,2030L6551,1999L6541,1964L6581,2023L6472,2154L6484,2204L6541,2195L6726,2383L6772,2365L6778,2310L6643,2184L6627,2099L6709,1970L7130,1906L7442,1971L7307,2210L7314,2314L7273,2520L7367,2501L7380,2447L7402,2440L7410,2386L7386,2380L7397,2295L7421,2291L7425,2275L7399,2274L7629,1899L7499,1834L7517,1648L7786,1454L7763,1215C7825.03,1186.2 7842.43,1142.95 7833,1091C7852.27,1071.39 7845.32,1059.64 7828,1051C7830.64,1028.01 7814.59,1023.3 7792,1025L7739,959L7061,1217L6718,1225L6597,977L6238,1015L6125,1135ZM7388,2398L7382,2426L7395,2424L7399,2397L7388,2398ZM7814,1107L7760,1161C7760,1161 7784.94,1168.87 7803,1153C7829,1130.15 7821.48,1103.04 7814,1107ZM7794,1056L7758,1135C7758,1135 7789.99,1103.76 7799,1089C7813.16,1065.8 7799.03,1051.13 7794,1056ZM6798,789L6751,979L6816,1086L6957,1096L7086,1039L7080,977L7124,986L7140,971L7084,948L7079,913L7137,935L7142,963L7191,913L7137,912L7064,883L7060,842L7091,798L7084,728L6816,723L6798,789ZM6787,970L6800,1007L6825,968L6787,970ZM6551,826L6558,870L6505,906L6736,933L6740,884L6728,883C6724.31,861.328 6710.35,860.644 6691,871C6679.44,856.723 6674.13,841.325 6674,825L6693,804L6551,826ZM7359,808L7338,892L7474,923L7497,825L7359,808ZM7418,826L7405,897L7444,905L7474,831L7418,826ZM6622,827L6623,877L6669,878L6653,822L6622,827ZM6597,854L6593,877L6607,877L6597,854Z"/>
                    </clipPath>
                    <g clip-path="url(#_clip10)">
                        <g id="lighter-gears" serif:id="lighter gears">
                            <path d="M6683,1480L6680,1505L6699,1491L6683,1480Z" style="fill:rgb(133,116,103);"/>
                            <path d="M6744,1521L6732,1527C6732,1527 6728.61,1558.94 6739,1565C6749.39,1571.06 6781,1561 6781,1561L6778,1549L6748,1550C6743.8,1544.54 6742.83,1534.34 6744,1521Z" style="fill:rgb(133,116,103);"/>
                            <path d="M6787,1586C6787,1586 6757.98,1582.4 6751,1592C6739.47,1607.87 6753.73,1632.85 6761,1627C6761.56,1611.86 6769.97,1598.15 6787,1586Z" style="fill:rgb(133,116,103);"/>
                            <path d="M6738,1626C6728.73,1629.3 6725.65,1632.71 6725,1640C6723.93,1652.04 6745.39,1655.51 6747,1652L6762,1642C6762,1642 6747.27,1622.7 6738,1626Z" style="fill:rgb(133,116,103);"/>
                            <path d="M6797,1654L6773,1651C6773,1651 6768.44,1658.68 6768,1668C6767.56,1677.32 6769,1683 6769,1683C6775.23,1666.85 6784.08,1656.16 6797,1654Z" style="fill:rgb(133,116,103);"/>
                            <path d="M6720,1426C6720,1426 6727.24,1417.87 6721,1418C6714.76,1418.13 6708.48,1418.1 6705,1425C6701.52,1431.9 6692.12,1448.49 6716,1458C6739.88,1467.51 6746,1469 6746,1469L6748,1462C6748,1462 6712.67,1451.32 6716,1441C6719.33,1430.68 6720,1426 6720,1426Z" style="fill:rgb(133,116,103);"/>
                            <path d="M6665,1386C6651.5,1399.05 6661,1428 6661,1428C6661,1428 6668.98,1407.88 6682,1398C6696.53,1386.97 6725,1392 6725,1392L6730,1383C6730.69,1379.25 6687.32,1364.43 6665,1386Z" style="fill:rgb(133,116,103);"/>
                            <path d="M6852,969L6836,972L6817,1036L6841,1054L6852,969Z" style="fill:rgb(133,116,103);"/>
                            <path d="M6936,989C6936,989 6918,988.131 6909,1006C6900,1023.87 6896,1063 6896,1063L6922,1059C6922,1059 6910.32,1053.25 6922,1030C6933.68,1006.75 6938,1015 6938,1015L6936,989Z" style="fill:rgb(133,116,103);"/>
                            <path d="M6980,964L6988,1047L7005,1044L6980,964Z" style="fill:rgb(133,116,103);"/>
                            <path d="M7018,966L7029,1040L7047,1029L7034,888L7018,966Z" style="fill:rgb(133,116,103);"/>
                            <path d="M6569,827L6571,903L6597,817L6569,827Z" style="fill:rgb(133,116,103);"/>
                            <path d="M7372,819L7354,882L7381,889L7415,822L7372,819Z" style="fill:rgb(133,116,103);"/>
                            <path d="M7223,1383C7223,1383 7210.79,1380.32 7202,1389C7193.21,1397.68 7190,1411 7190,1411L7203,1417L7212,1407L7233,1401L7223,1383Z" style="fill:rgb(133,116,103);"/>
                            <path d="M7200,1459L7198,1475L7245,1452L7248,1431L7200,1459Z" style="fill:rgb(133,116,103);"/>
                            <path d="M7255,1320L7260,1333C7260,1333 7291.78,1327.87 7300,1305C7308.23,1282.13 7296,1284 7296,1284C7294.05,1308.4 7278.19,1318.07 7255,1320Z" style="fill:rgb(133,116,103);"/>
                            <path d="M7357,1233L7357,1244L7385,1236L7381,1213L7357,1233Z" style="fill:rgb(133,116,103);"/>
                            <path d="M7384,1262L7363,1270L7366,1332L7391,1295L7384,1262Z" style="fill:rgb(133,116,103);"/>
                            <path d="M7427,1188L7432,1254L7446,1237L7427,1188Z" style="fill:rgb(133,116,103);"/>
                            <path d="M7450,1167L7466,1216L7483,1194L7463,1151L7450,1167Z" style="fill:none;stroke:rgb(133,116,103);stroke-width:8px;"/>
                            <path d="M7346.4,1618.25C7342.77,1617.54 7355.41,1618.55 7357.21,1618.47C7366.02,1618.09 7375.48,1619.32 7383.1,1624.14C7388.18,1627.36 7391.71,1633.3 7393.64,1638.89C7394.24,1640.63 7394.61,1642.44 7394.78,1644.27C7394.89,1645.48 7395.03,1649.13 7395.03,1647.91" style="fill:none;stroke:rgb(133,116,103);stroke-width:8px;"/>
                            <path d="M7427.95,1643.27C7427.96,1643.23 7426.97,1644.24 7426.83,1644.42C7425.68,1645.91 7424.69,1647.52 7423.74,1649.14C7421.41,1653.12 7419.37,1657.27 7417.63,1661.55C7412.57,1674.01 7407.96,1689.5 7407.03,1703.07" style="fill:none;stroke:rgb(133,116,103);stroke-width:8px;"/>
                            <path d="M7444.08,1650.08C7443.54,1649.22 7436.51,1662.61 7436.28,1663.16C7432.45,1671.95 7429.19,1681.05 7426.48,1690.25C7425.18,1694.69 7423.74,1699.21 7422.86,1703.75C7422.83,1703.91 7422.66,1704.54 7423.01,1704.31" style="fill:none;stroke:rgb(133,116,103);stroke-width:8px;"/>
                            <path d="M7400.12,1591.26C7400.12,1591.07 7399.94,1591.53 7399.92,1591.56C7398.64,1593.89 7397.55,1596.33 7396.47,1598.76C7394.23,1603.8 7391.79,1609.06 7390.44,1614.42" style="fill:none;stroke:rgb(133,116,103);stroke-width:8px;"/>
                            <path d="M7256.35,1797.62C7256.52,1798.48 7256.33,1795.35 7256.33,1795.16C7256.3,1793.03 7256.41,1790.89 7256.61,1788.77C7257.16,1782.88 7258.12,1776.92 7260.68,1771.54C7265.82,1760.73 7286.28,1758.41 7297.12,1759.04" style="fill:none;stroke:rgb(133,116,103);stroke-width:8px;"/>
                            <path d="M7316.35,1784.74C7316.35,1785.09 7315.97,1784.24 7315.96,1784.18C7315.54,1781.93 7316.16,1779.38 7316.65,1777.21C7317.76,1772.31 7319.67,1767.4 7322.51,1763.24C7329.55,1752.91 7349.3,1745.08 7361.56,1743.84" style="fill:none;stroke:rgb(133,116,103);stroke-width:8px;"/>
                            <path d="M6113,1156.76C6115.79,1154.23 6106.18,1166.79 6105.01,1169.45C6100.69,1179.25 6097.94,1189.93 6096.57,1200.53C6096.13,1203.97 6095.86,1207.44 6095.78,1210.9C6095.75,1211.74 6096.12,1216.49 6096.15,1216.42" style="fill:none;stroke:rgb(133,116,103);stroke-width:8px;"/>
                            <path d="M6138.51,1160.4C6138.74,1159.49 6132.56,1170.36 6131.74,1172.25C6129.15,1178.22 6119.5,1195.86 6122.08,1202.51" style="fill:none;stroke:rgb(133,116,103);stroke-width:8px;"/>
                            <path d="M6949.28,977.927C6950.82,972.787 6950.07,993.428 6950.09,995.299C6950.17,1007.75 6950.14,1020.2 6949.88,1032.65C6949.81,1036.24 6949.64,1039.82 6949.66,1043.41C6949.66,1045.05 6949.41,1049.79 6950.14,1048.32" style="fill:none;stroke:rgb(133,116,103);stroke-width:8px;"/>
                            <path d="M7440.73,1850.86C7442.48,1849.99 7443.77,1842.49 7445.84,1840.54C7454.01,1832.83 7470.33,1831.15 7480.57,1835.4" style="fill:none;stroke:rgb(133,116,103);stroke-width:8px;"/>
                            <path d="M7423.94,1882.74C7422.57,1884.12 7425.55,1879.17 7426.67,1877.58C7429.2,1873.99 7432.31,1870.9 7436.03,1868.56C7440.47,1865.76 7445.78,1864.01 7451.3,1863.03C7457.87,1861.88 7464.75,1861.81 7470.85,1862.38" style="fill:none;stroke:rgb(133,116,103);stroke-width:8px;"/>
                            <path d="M6581.71,2112.24C6582,2112.52 6581.31,2112.42 6581.1,2112.43C6577.82,2112.54 6575.01,2114.26 6573.26,2117.08C6570.49,2121.55 6571.18,2128.49 6576.39,2130.85C6587.15,2135.73 6595.43,2120.54 6588.98,2112.29" style="fill:none;stroke:rgb(133,116,103);stroke-width:8px;"/>
                            <path d="M6564.98,2141.06C6565.99,2141.06 6562.96,2141.31 6562.02,2141.68C6559.91,2142.5 6558.26,2143.64 6557.2,2145.7C6554.72,2150.53 6554.74,2158.49 6560.48,2160.94C6570.72,2165.3 6578.07,2148.02 6569.53,2143.02" style="fill:none;stroke:rgb(133,116,103);stroke-width:8px;"/>
                        </g>
                        <g id="darker-gears" serif:id="darker gears">
                            <path d="M6681,1465L6676,1514L6847,1506L6738,1513C6738,1513 6722.39,1534.16 6736,1560C6749.61,1585.84 6758.52,1579.22 6782,1579C6805.48,1578.78 6867,1578 6867,1578L6899,1641C6899,1641 6787.17,1644 6770,1643C6740.34,1641.28 6739.85,1588.88 6754,1581" style="fill:none;stroke:rgb(61,56,56);stroke-width:8px;"/>
                            <path d="M6773,1446C6788.52,1376.25 6715.71,1370.54 6688,1372C6660.29,1373.46 6653.38,1391.88 6650,1409C6642.45,1447.21 6665.28,1450.71 6681,1464C6696.19,1476.84 6745.9,1476.72 6758,1467" style="fill:none;stroke:rgb(61,56,56);stroke-width:8px;"/>
                            <path d="M6657,1286C6657,1286 6642.57,1303.64 6637,1327C6631.58,1349.72 6641.51,1365.3 6661,1371C6692.87,1380.31 6730.74,1355.56 6749,1335" style="fill:none;stroke:rgb(61,56,56);stroke-width:8px;"/>
                            <path d="M6812,1381C6794.76,1384.38 6776.8,1388.25 6782,1407C6787.2,1425.75 6809.33,1428.04 6822,1427" style="fill:none;stroke:rgb(61,56,56);stroke-width:8px;"/>
                            <path d="M6721,1515C6721,1515 6698.9,1532.57 6711,1553C6720.51,1569.07 6732.49,1564.78 6737,1563" style="fill:none;stroke:rgb(61,56,56);stroke-width:8px;"/>
                            <path d="M6787,1452L6781,1469" style="fill:none;stroke:rgb(61,56,56);stroke-width:8px;"/>
                            <path d="M6811,1456L6805,1476" style="fill:none;stroke:rgb(61,56,56);stroke-width:8px;"/>
                            <path d="M7237,1286C7237,1286 7281.77,1404.97 7330,1425" style="fill:none;stroke:rgb(61,56,56);stroke-width:8px;"/>
                            <path d="M7266,1347C7290.32,1341.76 7376.62,1292.76 7322,1246" style="fill:none;stroke:rgb(61,56,56);stroke-width:8px;"/>
                            <path d="M7252,1321C7275.65,1310.71 7312.02,1305.39 7284,1265" style="fill:none;stroke:rgb(61,56,56);stroke-width:8px;"/>
                            <path d="M7293,1394C7255.18,1321.01 7149.6,1406.9 7189,1459C7167.22,1468.42 7153.8,1475.39 7135,1476" style="fill:none;stroke:rgb(61,56,56);stroke-width:8px;"/>
                            <path d="M7143,1506C7143,1506 7261.33,1475.84 7254,1434C7247.12,1394.73 7197.12,1415.29 7218,1445" style="fill:none;stroke:rgb(61,56,56);stroke-width:8px;"/>
                            <path d="M6782,1644C6782,1644 6757.76,1657.06 6764,1675C6770.24,1692.94 6775.24,1705.1 6806,1707" style="fill:none;stroke:rgb(61,56,56);stroke-width:8px;"/>
                            <path d="M6838,1461L6746,1445C6746,1445 6722.2,1445.48 6729,1430C6735.8,1414.52 6731.55,1417.12 6723,1416C6714.45,1414.88 6704.32,1415.39 6701,1428C6697.68,1440.61 6686.06,1460.98 6738,1465C6789.94,1469.02 6847,1492 6847,1492" style="fill:none;stroke:rgb(61,56,56);stroke-width:8px;"/>
                            <path d="M6668,1307C6660.54,1323.56 6648.36,1345.51 6671,1354C6693.64,1362.49 6712,1330 6712,1330" style="fill:none;stroke:rgb(61,56,56);stroke-width:8px;"/>
                            <path d="M7157,1338C7157,1338 7171.44,1380.56 7186,1398" style="fill:none;stroke:rgb(61,56,56);stroke-width:8px;"/>
                            <path d="M7170,1329L7189,1367L7213,1364L7191,1314" style="fill:none;stroke:rgb(61,56,56);stroke-width:8px;"/>
                            <path d="M7349,1219L7366,1361L7401,1320L7383,1185L7415,1164L7432,1290L7480,1224L7452,1145L7477,1127L7504,1180" style="fill:none;stroke:rgb(61,56,56);stroke-width:8px;"/>
                            <path d="M7152,1520L7214,1498L7242,1548" style="fill:none;stroke:rgb(61,56,56);stroke-width:8px;"/>
                            <path d="M7327,1401L7301,1334" style="fill:none;stroke:rgb(61,56,56);stroke-width:8px;"/>
                            <path d="M7329,1308L7353,1389" style="fill:none;stroke:rgb(61,56,56);stroke-width:8px;"/>
                            <path d="M7331,1632C7345.76,1631.27 7381.33,1620.37 7387,1649C7392.67,1677.63 7350,1689 7350,1689" style="fill:none;stroke:rgb(61,56,56);stroke-width:8px;"/>
                            <path d="M7455,1619C7441.26,1636.59 7407.19,1701.75 7411,1732C7414.81,1762.25 7428.68,1774.17 7445,1740C7461.32,1705.83 7471,1647 7471,1647" style="fill:none;stroke:rgb(61,56,56);stroke-width:8px;"/>
                            <path d="M7302,1769C7302,1769 7270.96,1761.77 7269,1782C7267.04,1802.23 7269,1822 7269,1822" style="fill:none;stroke:rgb(61,56,56);stroke-width:8px;"/>
                            <path d="M7364,1754C7352.06,1758.91 7326.03,1757.24 7327,1778C7327.97,1798.76 7330,1818 7330,1818" style="fill:none;stroke:rgb(61,56,56);stroke-width:8px;"/>
                            <path d="M6764,1514L6761,1536L6789,1535L6795,1511" style="fill:none;stroke:rgb(61,56,56);stroke-width:8px;"/>
                            <path d="M6819,1509L6816,1533L6858,1529" style="fill:none;stroke:rgb(61,56,56);stroke-width:8px;"/>
                            <path d="M6808,1580C6787.74,1593.49 6789.57,1636.33 6829,1643" style="fill:none;stroke:rgb(61,56,56);stroke-width:8px;"/>
                            <path d="M6840,1578C6840,1578 6826.22,1593.04 6826,1609C6825.72,1629.7 6842.79,1639.99 6859,1642" style="fill:none;stroke:rgb(61,56,56);stroke-width:8px;"/>
                            <path d="M6822,1645C6822,1645 6797.84,1656.15 6802,1672C6806.16,1687.85 6819.9,1696.09 6830,1698" style="fill:none;stroke:rgb(61,56,56);stroke-width:8px;"/>
                            <path d="M6851,1643C6837.66,1651.59 6832.13,1654.62 6835,1669C6837.87,1683.38 6860,1691 6860,1691" style="fill:none;stroke:rgb(61,56,56);stroke-width:8px;"/>
                            <path d="M7219,1444C7219,1444 7237.01,1433.74 7227,1415" style="fill:none;stroke:rgb(61,56,56);stroke-width:8px;"/>
                            <path d="M7412,1849L7458,1851C7458,1851 7490.84,1845.14 7486,1814" style="fill:none;stroke:rgb(61,56,56);stroke-width:8px;"/>
                            <path d="M7396,1877C7396,1877 7443.11,1883.98 7445,1895C7446.89,1906.02 7449,1925 7449,1925" style="fill:none;stroke:rgb(61,56,56);stroke-width:8px;"/>
                            <path d="M7391,1892C7391,1892 7414.85,1891.22 7422,1900C7429.15,1908.78 7430,1926 7430,1926" style="fill:none;stroke:rgb(61,56,56);stroke-width:8px;"/>
                            <path d="M7358,1723C7358,1723 7373.84,1781.12 7368,1803" style="fill:none;stroke:rgb(61,56,56);stroke-width:8px;"/>
                            <path d="M7298,1732C7298.04,1731.84 7313.78,1790.76 7306,1811" style="fill:none;stroke:rgb(61,56,56);stroke-width:8px;"/>
                            <path d="M7350,1554L7336,1585L7371,1602L7388,1564" style="fill:none;stroke:rgb(61,56,56);stroke-width:8px;"/>
                            <path d="M7456,1644C7455.93,1645.77 7413.61,1721.69 7426,1741C7435.14,1755.26 7462.32,1639.98 7457,1645C7457,1645 7456.32,1635.53 7456,1644Z" style="fill:none;stroke:rgb(61,56,56);stroke-width:8px;"/>
                            <path d="M7072,1844L7067,1809L7090,1804L7094,1838L7072,1844Z" style="fill:none;stroke:rgb(61,56,56);stroke-width:8px;"/>
                            <path d="M6843,1071L6858,941" style="fill:none;stroke:rgb(61,56,56);stroke-width:8px;"/>
                            <path d="M6942,1075L6938,916" style="fill:none;stroke:rgb(61,56,56);stroke-width:8px;"/>
                            <path d="M6986,1065L6975,943" style="fill:none;stroke:rgb(61,56,56);stroke-width:8px;"/>
                            <path d="M7025,1047L7011,939" style="fill:none;stroke:rgb(61,56,56);stroke-width:8px;"/>
                            <path d="M6939,979C6939,979 6911.37,978.14 6900,997C6888.63,1015.86 6883,1082 6883,1082" style="fill:none;stroke:rgb(61,56,56);stroke-width:8px;"/>
                            <path d="M6942,1018C6942,1018 6919.22,1012.36 6920,1040C6920.78,1067.64 6920,1087 6920,1087" style="fill:none;stroke:rgb(61,56,56);stroke-width:8px;"/>
                            <path d="M6939,963C6939,963 6887.62,955.31 6875,980C6862.38,1004.69 6861,1069 6861,1069" style="fill:none;stroke:rgb(61,56,56);stroke-width:8px;"/>
                            <path d="M7027,799L7053,1051" style="fill:none;stroke:rgb(61,56,56);stroke-width:8px;"/>
                            <path d="M6955,927L6962,1072" style="fill:none;stroke:rgb(61,56,56);stroke-width:8px;"/>
                            <path d="M6888,968L6888,939" style="fill:none;stroke:rgb(61,56,56);stroke-width:8px;"/>
                        </g>
                    </g>
                    <path d="M6125,1135L6238,1015L6597,977L6718,1225L7061,1217L7739,959L7792,1025C7814.59,1023.3 7830.64,1028.01 7828,1051C7845.32,1059.64 7852.27,1071.39 7833,1091C7842.43,1142.95 7825.03,1186.2 7763,1215L7786,1454L7517,1648L7499,1834L7629,1899L7399,2274L7425,2275L7421,2291L7397,2295L7386,2380L7410,2386L7402,2440L7380,2447L7367,2501L7273,2520L7314,2314L7307,2210L7442,1971L7130,1906L6709,1970L6627,2099L6643,2184L6778,2310L6772,2365L6726,2383L6541,2195L6484,2204L6472,2154L6581,2023L6541,1964L6551,1999L6288,2030L6266,2011L6234,1904L6228,1827L6246,1743L6515,1755L6524,1841L6658,1814L6681,1756L6832,1711L6756,1704C6736.34,1696.16 6729.83,1681.47 6744,1656C6725.92,1664.68 6717.91,1654.92 6716,1634L6727,1606L6708,1601C6685.27,1584.6 6681,1562.64 6699,1534L6675,1532L6656,1510L6660,1464L6645,1404L6608,1399L6577,1225L6473,1237L6298,1300L6317,1387L6469,1424L6457,1732L6324,1724L6129,1291L6073,1250C6058.05,1182.26 6074.36,1142.99 6125,1135ZM7814,1107L7760,1161C7760,1161 7784.94,1168.87 7803,1153C7829,1130.15 7821.48,1103.04 7814,1107ZM7394.49,2432.68L7383.29,2434.4C7380.53,2434.83 7377.74,2433.87 7375.82,2431.83C7373.9,2429.8 7373.1,2426.95 7373.69,2424.22L7379.69,2396.22C7380.47,2392.58 7383.52,2389.87 7387.23,2389.53L7388.6,2389.41L7383.94,2388.25C7379.75,2387.2 7377.02,2383.19 7377.57,2378.91L7388.57,2293.91C7389.05,2290.19 7391.91,2287.23 7395.6,2286.62L7414.11,2283.53L7414.22,2283.09L7398.67,2282.49C7395.66,2282.38 7392.93,2280.67 7391.51,2278.01C7390.08,2275.35 7390.18,2272.13 7391.75,2269.56C7391.75,2269.56 7616.91,1902.46 7616.91,1902.46L7495.2,1841.6C7492.05,1840.03 7490.2,1836.68 7490.54,1833.18L7508.54,1647.18C7508.78,1644.75 7510.05,1642.54 7512.03,1641.11C7512.03,1641.11 7777.07,1449.96 7777.07,1449.96L7754.54,1215.81C7754.19,1212.23 7756.15,1208.81 7759.42,1207.29C7788.36,1193.86 7807.07,1177.25 7817.26,1157.75C7820.26,1152.02 7822.51,1146.06 7824.07,1139.87C7820.81,1146.33 7815.85,1153.02 7808.61,1159.38C7787.11,1178.28 7757.44,1169.11 7757.44,1169.11C7754.61,1168.21 7752.45,1165.9 7751.74,1163.02C7751.04,1160.13 7751.89,1157.09 7753.99,1154.99L7807.99,1100.99C7808.59,1100.39 7809.27,1099.88 7810.02,1099.49L7812.34,1098.55L7814.93,1098.12L7817.56,1098.3L7819.97,1099.04L7822.39,1100.42L7824.27,1102.09C7825,1102.86 7825.71,1103.8 7826.35,1104.89C7825.97,1100.83 7825.4,1096.7 7824.64,1092.52C7824.14,1089.8 7825,1087.01 7826.94,1085.04C7830.88,1081.03 7833.56,1077.49 7835.03,1074.22C7835.93,1072.2 7836.32,1070.43 7835.94,1068.8C7834.92,1064.37 7830.13,1061.56 7824.21,1058.61C7821.01,1057.01 7819.15,1053.58 7819.56,1050.03C7820.23,1044.19 7819.62,1040.07 7816.99,1037.47C7814.99,1035.49 7812.1,1034.5 7808.71,1033.88C7804.06,1033.03 7798.61,1033.03 7792.64,1033.48C7789.84,1033.69 7787.13,1032.51 7785.37,1030.32L7736.24,969.143L7064.02,1224.94C7063.12,1225.29 7062.16,1225.48 7061.2,1225.5L6718.2,1233.5C6714.88,1233.58 6711.82,1231.71 6710.36,1228.73C6710.36,1228.73 6591.97,986.08 6591.97,986.08L6242.03,1023.12L6131.19,1140.83C6129.9,1142.2 6128.19,1143.1 6126.32,1143.4C6108.66,1146.18 6095.65,1153.06 6087.39,1164.42C6074.64,1181.97 6073.1,1209.06 6080.63,1245.05L6134.02,1284.14C6135.21,1285.01 6136.15,1286.17 6136.75,1287.51L6329.64,1715.82L6448.84,1722.99L6460.24,1430.62L6314.99,1395.26C6311.83,1394.49 6309.39,1391.99 6308.7,1388.81L6289.7,1301.81C6288.78,1297.64 6291.11,1293.45 6295.12,1292L6470.12,1229C6470.74,1228.78 6471.38,1228.63 6472.03,1228.56L6576.03,1216.56C6580.49,1216.04 6584.58,1219.09 6585.37,1223.51C6585.37,1223.51 6615.28,1391.41 6615.28,1391.41L6646.14,1395.58C6649.59,1396.04 6652.4,1398.56 6653.25,1401.94L6668.25,1461.94C6668.48,1462.85 6668.55,1463.8 6668.47,1464.74L6664.78,1507.16C6664.78,1507.16 6679.16,1523.82 6679.16,1523.82L6699.71,1525.53C6702.66,1525.78 6705.28,1527.55 6706.6,1530.2C6707.93,1532.86 6707.78,1536.01 6706.2,1538.52C6698.53,1550.72 6695.22,1561.37 6696.63,1570.84C6697.92,1579.45 6703.23,1586.76 6711.74,1593.19L6729.16,1597.78C6731.51,1598.4 6733.48,1599.99 6734.58,1602.15C6735.68,1604.32 6735.8,1606.85 6734.91,1609.11C6734.91,1609.11 6724.67,1635.19 6724.67,1635.19C6725.17,1639.55 6725.98,1643.27 6727.26,1646.21C6728.09,1648.1 6728.96,1649.63 6730.44,1650.31C6732.93,1651.45 6736.09,1650.37 6740.32,1648.34C6743.66,1646.74 6747.65,1647.48 6750.19,1650.17C6752.73,1652.87 6753.23,1656.9 6751.43,1660.13C6745.82,1670.21 6743.64,1678 6745.47,1684.21C6747.02,1689.48 6751.64,1692.94 6758.05,1695.65L6832.78,1702.54C6836.84,1702.91 6840.06,1706.11 6840.46,1710.16C6840.86,1714.21 6838.33,1717.98 6834.43,1719.15L6687.38,1762.97L6665.9,1817.13C6664.84,1819.81 6662.5,1821.76 6659.68,1822.33L6525.68,1849.33C6523.33,1849.81 6520.9,1849.27 6518.97,1847.85C6517.04,1846.43 6515.8,1844.27 6515.55,1841.88L6507.31,1763.16L6252.81,1751.81L6236.57,1827.57L6242.4,1902.43L6273.43,2006.19L6290.72,2021.12L6540.08,1991.73L6532.83,1966.34C6531.68,1962.32 6533.62,1958.07 6537.4,1956.3C6541.19,1954.53 6545.69,1955.77 6548.04,1959.23L6588.04,2018.23C6590.16,2021.36 6589.96,2025.53 6587.53,2028.44C6587.53,2028.44 6481.26,2156.16 6481.26,2156.16L6490.43,2194.38L6539.67,2186.6C6542.38,2186.18 6545.13,2187.08 6547.06,2189.04L6728.12,2373.04L6764.11,2358.96L6769.09,2313.31L6637.2,2190.21C6635.88,2188.98 6634.98,2187.35 6634.65,2185.57L6618.65,2100.57C6618.25,2098.45 6618.67,2096.26 6619.83,2094.44L6701.83,1965.44C6703.14,1963.37 6705.29,1961.97 6707.72,1961.6L7128.72,1897.6C7129.72,1897.44 7130.74,1897.47 7131.73,1897.68L7443.73,1962.68C7446.39,1963.23 7448.62,1965.02 7449.74,1967.49C7450.86,1969.96 7450.74,1972.82 7449.4,1975.18L7315.65,2211.97L7322.48,2313.43C7322.53,2314.18 7322.48,2314.93 7322.34,2315.66L7283.83,2509.14L7360,2493.74L7371.74,2445.01C7372.43,2442.12 7374.59,2439.8 7377.42,2438.9L7394.37,2433.51L7394.49,2432.68ZM7788.09,1049.89L7791.65,1047.52L7795.71,1046.58L7798.59,1046.77L7801.15,1047.51L7805.38,1050.03C7812.06,1055.53 7819.53,1071.68 7806.26,1093.43C7796.94,1108.7 7763.94,1141.08 7763.94,1141.08C7761.01,1143.94 7756.46,1144.31 7753.11,1141.95C7749.77,1139.6 7748.57,1135.2 7750.27,1131.48L7786.27,1052.47C7786.71,1051.51 7787.32,1050.63 7788.09,1049.89ZM7794,1056L7758,1135C7758,1135 7789.99,1103.76 7799,1089C7813.16,1065.8 7799.03,1051.13 7794,1056ZM7388,2398L7382,2426L7395,2424L7399,2397L7388,2398ZM6798,789L6816,723L7084,728L7091,798L7060,842L7064,883L7137,912L7191,913L7142,963L7137,935L7079,913L7084,948L7140,971L7124,986L7080,977L7086,1039L6957,1096L6816,1086L6751,979L6798,789ZM6806.23,791.139C6806.23,791.139 6760.1,977.609 6760.1,977.609C6760.1,977.609 6820.98,1077.83 6820.98,1077.83L6955.5,1087.37L7076.95,1033.71L7071.54,977.819C7071.28,975.134 7072.31,972.486 7074.31,970.682C7076.32,968.878 7079.06,968.132 7081.7,968.672L7121.4,976.791C7121.4,976.791 7124.54,973.84 7124.54,973.84L7080.77,955.863C7077.98,954.718 7076.01,952.184 7075.59,949.202L7070.59,914.202C7070.16,911.225 7071.34,908.244 7073.69,906.364C7076.04,904.485 7079.2,903.986 7082.02,905.053L7140.02,927.053C7142.81,928.113 7144.84,930.563 7145.37,933.506L7147.47,945.275L7171.13,921.133L7136.84,920.499C7135.82,920.48 7134.81,920.277 7133.86,919.899L7060.86,890.899C7057.9,889.724 7055.85,886.994 7055.54,883.825L7051.54,842.825C7051.34,840.799 7051.88,838.769 7053.05,837.104L7082.23,795.694L7076.29,736.358C7076.29,736.358 6822.46,731.622 6822.46,731.622L6806.23,791.139ZM6786.55,961.512L6824.55,959.512C6827.74,959.344 6830.75,960.972 6832.35,963.727C6833.95,966.483 6833.88,969.904 6832.16,972.587L6807.16,1011.59C6805.4,1014.32 6802.24,1015.82 6799.02,1015.44C6795.79,1015.07 6793.06,1012.88 6791.98,1009.82L6778.98,972.818C6778.09,970.291 6778.45,967.494 6779.94,965.27C6781.43,963.045 6783.88,961.652 6786.55,961.512ZM6787,970L6800,1007L6825,968L6787,970ZM6551,826L6693,804L6674,825C6674.13,841.325 6679.44,856.723 6691,871C6710.35,860.644 6724.31,861.328 6728,883L6740,884L6736,933L6505,906L6558,870L6551,826ZM6622,827L6623,877L6669,878L6653,822L6622,827ZM6660.31,817.666C6660.68,818.28 6660.97,818.949 6661.17,819.665L6666.96,839.92C6666.02,835.05 6665.54,830.098 6665.5,825.068C6665.48,822.937 6666.27,820.877 6667.7,819.297L6670.62,816.069L6660.31,817.666ZM6670.67,852.911L6677.17,875.665C6677.91,878.261 6677.38,881.055 6675.73,883.192C6674.08,885.33 6671.51,886.557 6668.82,886.498L6622.82,885.498C6619.21,885.42 6616.16,883.1 6615,879.875C6614.78,880.496 6614.48,881.096 6614.11,881.661C6612.54,884.057 6609.86,885.5 6607,885.5L6593,885.5C6590.49,885.5 6588.11,884.391 6586.49,882.471C6584.88,880.551 6584.2,878.016 6584.63,875.544L6588.63,852.544C6589.27,848.845 6592.26,846.006 6595.99,845.56C6599.72,845.114 6603.3,847.168 6604.8,850.611L6614.41,872.732L6613.5,827.17C6613.49,826.38 6613.58,825.611 6613.77,824.877L6560.74,833.093L6566.39,868.665C6566.91,871.919 6565.5,875.18 6562.78,877.031C6562.78,877.031 6528.66,900.207 6528.66,900.207L6728.24,923.536L6730.84,891.766L6727.29,891.471C6723.43,891.149 6720.27,888.252 6719.62,884.429C6718.7,879.037 6717.44,875.388 6714.68,873.778C6712.94,872.768 6710.79,872.85 6708.34,873.293C6704.37,874.011 6699.91,875.872 6695.01,878.494C6691.41,880.418 6686.96,879.518 6684.39,876.349C6678.29,868.812 6673.76,860.99 6670.67,852.911ZM6597,854L6593,877L6607,877L6597,854ZM7359,808L7497,825L7474,923L7338,892L7359,808ZM7396.51,896.618C7396.53,896.238 7396.57,895.854 7396.64,895.469L7409.64,824.469C7409.74,823.909 7409.9,823.371 7410.1,822.859L7365.42,817.355L7348.35,885.641L7396.51,896.618ZM7418,826L7405,897L7444,905L7474,831L7418,826ZM7482.47,831.774C7482.39,832.595 7482.19,833.411 7481.88,834.193L7451.88,908.193C7451.74,908.52 7451.59,908.835 7451.43,909.136L7467.65,912.836C7467.65,912.836 7486.56,832.278 7486.56,832.278L7482.47,831.774Z" style="fill:rgb(57,57,57);"/>
                </g>
                <g id="chassis" transform="matrix(1,0,0,1,-576,0)">
                    <path d="M7303,2303L7277,2479L7222,2619C7272.61,2606.26 7323.26,2577.8 7374,2522L7374,2471L7353,2484L7357,2438C7359.65,2409.53 7367.53,2401.35 7380,2411L7392,2299C7361.47,2305.43 7331.92,2306.03 7303,2303ZM6532,2182L6527,2234C6575.32,2262.1 6621.77,2292.65 6657,2338L6548,2416L6621,2420L6785,2413L6798,2344L6760,2344L6756,2358L6723,2357L6732,2342L6692,2340L6720,2330L6709,2308L6725,2298L6721,2283L6704,2293L6694,2282L6701,2265L6714,2269L6771,2329L6801,2312L6640,2152L6605,2170L6615,2186L6591,2197L6578,2182L6532,2182ZM7305,2236L7309,2280L7369,2283L7363,2239L7305,2236ZM5997,1291L6018,1254L6042,1297C6051.8,1313.49 6061.46,1315.41 6071,1306C6091.38,1292.62 6100.66,1276.52 6088,1255L6064,1264C6045.79,1183.24 6054.87,1120.92 6140,1110C6145.48,1050.5 6165.78,1000.76 6221,974L6331,921L6350,902L6390,902L6389,884C6505.17,885.616 6620.35,885.955 6750,905L6806,685L6958,688C7013.78,684.529 7068.1,684.559 7116,700L7130,853L7064,858L7061,827C7049.57,806.446 7038.56,806.117 7028,828L7032,954L6949,953L6951,934L6941,933L6939,952L6931,952L6931,932L6921,930L6921,950L6914,949L6914,930L6907,928L6905,948L6764,955C6782.67,1009.84 6803.96,1062.38 6880,1067L6893,1074C6989.2,1062.17 7075.11,1037.31 7126,968L7230,848C7297.38,854.899 7363.75,863.705 7422,888C7453.13,895.021 7484.34,902.142 7509,901L7530,892C7613.11,892.588 7685.76,903.604 7743,930C7777.87,945.382 7805.03,968.353 7797,1026L7771,1028C7744.03,944.812 7708.56,974.182 7671,1031C7704.49,1033.69 7734.47,1040.4 7748,1066C7775.72,1089.82 7798.38,1119.12 7803,1168L7781,1197L7805,1270L7828,1251C7849.86,1306.96 7864.37,1367.51 7810,1471C7723.74,1551.24 7631.98,1627.13 7525,1691C7521.94,1734.13 7516.52,1777.7 7502,1823L7439,1824L7404,1888C7391.71,1903.72 7428.14,1930.36 7447,1908L7537,1789C7568.37,1799.12 7599.17,1810.3 7619,1842L7603,1868C7612.46,1885.79 7623.83,1885.56 7638,1859L7655,1875C7615.29,1945.22 7573.74,2015.52 7528,2086C7486.75,2148.13 7449.35,2206.54 7415,2262L7394,2255L7383,2250C7401.68,2227.24 7412.14,2205.2 7413,2184L7374,2231C7348.64,2215.95 7321.17,2213.98 7289,2225C7301.85,2181.43 7320.2,2138.27 7350,2096L7419,1981C7308.25,1962.73 7181.57,1952.59 7044,1948L6691,1997L6633,2135C6617.7,2148.18 6600.45,2155.04 6582,2158L6598,2122C6606.29,2104.8 6598.23,2096.39 6579,2094C6562.9,2092.03 6551.27,2102.46 6544,2125L6532,2158C6509.34,2163.22 6487.44,2156.27 6466,2142L6488,2023L6462,2023L6459,2010L6449,2024C6397.77,2030.86 6349.47,2032.64 6302,2033L6259,2046C6242.62,2034.28 6229.95,2017.28 6221,1995L6242,1982L6242,1966L6218,1966L6195,1885L6226,1867L6227,1844L6197,1842C6191.84,1820.61 6191.55,1793.56 6196,1761L6241,1735L6275,1730L6266,1690C6257.49,1717.4 6244.42,1715.28 6227,1685C6137.02,1567.99 6065.34,1431.29 5997,1291ZM6427,2159C6445.34,2190.3 6470.81,2215.76 6510,2230L6512,2208C6496.09,2196.12 6482.86,2179.21 6473,2156L6427,2159ZM6257,1964L6257,1978L6279,1971L6296,1986L6292,1992L6279,1982L6271,1985C6272.33,1999.64 6276.89,2012.07 6288,2020L6296,2016L6294,2007L6313,1995L6306,1941L6291,1936L6289,1960L6257,1964ZM6265,1875C6255.14,1866.16 6247.48,1870.16 6241,1881L6253,1941C6259.9,1948.86 6267.15,1949.8 6275,1939L6273,1916L6288,1912L6286,1895L6272,1899L6265,1875ZM6600,1868C6595.95,1895.36 6600.45,1919.55 6615,1940L6643,1935C6631.44,1914.2 6625.48,1890.85 6625,1865L6600,1868ZM7586,1893L7575,1909L7588,1924L7602,1902L7586,1893ZM6239,1846L6272,1844L6275,1826L6288,1833L6295,1875L6281,1878L6275,1859L6245,1864L6239,1846ZM7055,1799L7060,1835L7129,1823L7127,1783L7055,1799ZM6277,1769L6268,1751C6256.83,1748.77 6250.07,1755.84 6250,1777L6250,1834L6259,1834L6261,1825L6269,1824L6264,1810L6267,1797L6275,1794L6277,1769ZM7245,1761L7246,1804L7374,1787L7401,1794L7394,1831L7468,1772L7479,1711C7421.81,1548.62 7337.94,1535.55 7242,1590L7309,1581C7345.58,1623.06 7374.18,1670.94 7386,1731L7245,1761ZM6362,1325L6388,1398L6562,1436C6565.08,1449.24 6574.03,1457.22 6591,1458L6595,1505L6618,1521C6640.81,1524.65 6658.37,1530.55 6663,1542L6646,1626L6585,1633L6578,1616L6563,1627L6573,1639L6567,1663L6551,1664L6549,1674L6558,1678L6546,1727L6560,1737L6552,1759L6563,1769L6568,1808L6630,1794L6667,1736L6898,1670L6793,1372L6744,1373L6629,1303L6599,1305L6536,1231C6522.96,1180.95 6516.03,1126.67 6514,1069C6503.17,1132.51 6493.65,1196.75 6493,1266L6362,1325ZM6417,1689L6384,1689C6379.71,1702.71 6381.47,1714.25 6391,1723L6413,1719L6417,1711L6396,1715L6393,1698L6417,1697L6417,1689ZM6387,1607C6381.61,1627.87 6379.91,1650.81 6384,1677L6418,1663C6416.15,1656.26 6409.34,1654.07 6398,1656C6391.43,1648.1 6389.07,1638.36 6395,1625L6416,1623C6419.19,1614.32 6409.32,1609.04 6387,1607ZM7580,1081L7146,1369L7152,1493L7192,1595C7306.64,1409.9 7435.91,1238.51 7580,1081ZM6395,1514C6387.17,1539.43 6385.04,1564.78 6392,1590L6415,1584L6416,1567L6396,1570C6391.12,1558.71 6390.9,1546.82 6398,1534L6425,1536C6421.34,1520.46 6411.89,1512.41 6395,1514ZM6420,1435L6395,1432L6393,1493L6418,1491L6420,1480L6402,1481L6404,1445L6421,1443L6420,1435ZM6083,1225C6144.77,1206.24 6209.15,1198.86 6281,1224C6241.28,1179.47 6178,1139.83 6126,1147C6096.59,1151.05 6069.66,1181.81 6083,1225ZM6806,817L6799,850L6841,855L6837,924L6869,924L6884,853L6919,849L6928,814L6806,817ZM7273,809C7444.04,838.029 7629.98,859.511 7806,874L7786,853C7669.76,800.347 7457.27,763.944 7364,766C7330.46,766.739 7286.99,773.857 7273,809ZM6372,853L6382,862L6712,811L6737,773L6625,779L6372,853Z" style="fill:rgb(200,79,0);"/>
                    <clipPath id="_clip11">
                        <path d="M7303,2303L7277,2479L7222,2619C7272.61,2606.26 7323.26,2577.8 7374,2522L7374,2471L7353,2484L7357,2438C7359.65,2409.53 7367.53,2401.35 7380,2411L7392,2299C7361.47,2305.43 7331.92,2306.03 7303,2303ZM6532,2182L6527,2234C6575.32,2262.1 6621.77,2292.65 6657,2338L6548,2416L6621,2420L6785,2413L6798,2344L6760,2344L6756,2358L6723,2357L6732,2342L6692,2340L6720,2330L6709,2308L6725,2298L6721,2283L6704,2293L6694,2282L6701,2265L6714,2269L6771,2329L6801,2312L6640,2152L6605,2170L6615,2186L6591,2197L6578,2182L6532,2182ZM7305,2236L7309,2280L7369,2283L7363,2239L7305,2236ZM5997,1291L6018,1254L6042,1297C6051.8,1313.49 6061.46,1315.41 6071,1306C6091.38,1292.62 6100.66,1276.52 6088,1255L6064,1264C6045.79,1183.24 6054.87,1120.92 6140,1110C6145.48,1050.5 6165.78,1000.76 6221,974L6331,921L6350,902L6390,902L6389,884C6505.17,885.616 6620.35,885.955 6750,905L6806,685L6958,688C7013.78,684.529 7068.1,684.559 7116,700L7130,853L7064,858L7061,827C7049.57,806.446 7038.56,806.117 7028,828L7032,954L6949,953L6951,934L6941,933L6939,952L6931,952L6931,932L6921,930L6921,950L6914,949L6914,930L6907,928L6905,948L6764,955C6782.67,1009.84 6803.96,1062.38 6880,1067L6893,1074C6989.2,1062.17 7075.11,1037.31 7126,968L7230,848C7297.38,854.899 7363.75,863.705 7422,888C7453.13,895.021 7484.34,902.142 7509,901L7530,892C7613.11,892.588 7685.76,903.604 7743,930C7777.87,945.382 7805.03,968.353 7797,1026L7771,1028C7744.03,944.812 7708.56,974.182 7671,1031C7704.49,1033.69 7734.47,1040.4 7748,1066C7775.72,1089.82 7798.38,1119.12 7803,1168L7781,1197L7805,1270L7828,1251C7849.86,1306.96 7864.37,1367.51 7810,1471C7723.74,1551.24 7631.98,1627.13 7525,1691C7521.94,1734.13 7516.52,1777.7 7502,1823L7439,1824L7404,1888C7391.71,1903.72 7428.14,1930.36 7447,1908L7537,1789C7568.37,1799.12 7599.17,1810.3 7619,1842L7603,1868C7612.46,1885.79 7623.83,1885.56 7638,1859L7655,1875C7615.29,1945.22 7573.74,2015.52 7528,2086C7486.75,2148.13 7449.35,2206.54 7415,2262L7394,2255L7383,2250C7401.68,2227.24 7412.14,2205.2 7413,2184L7374,2231C7348.64,2215.95 7321.17,2213.98 7289,2225C7301.85,2181.43 7320.2,2138.27 7350,2096L7419,1981C7308.25,1962.73 7181.57,1952.59 7044,1948L6691,1997L6633,2135C6617.7,2148.18 6600.45,2155.04 6582,2158L6598,2122C6606.29,2104.8 6598.23,2096.39 6579,2094C6562.9,2092.03 6551.27,2102.46 6544,2125L6532,2158C6509.34,2163.22 6487.44,2156.27 6466,2142L6488,2023L6462,2023L6459,2010L6449,2024C6397.77,2030.86 6349.47,2032.64 6302,2033L6259,2046C6242.62,2034.28 6229.95,2017.28 6221,1995L6242,1982L6242,1966L6218,1966L6195,1885L6226,1867L6227,1844L6197,1842C6191.84,1820.61 6191.55,1793.56 6196,1761L6241,1735L6275,1730L6266,1690C6257.49,1717.4 6244.42,1715.28 6227,1685C6137.02,1567.99 6065.34,1431.29 5997,1291ZM6427,2159C6445.34,2190.3 6470.81,2215.76 6510,2230L6512,2208C6496.09,2196.12 6482.86,2179.21 6473,2156L6427,2159ZM6257,1964L6257,1978L6279,1971L6296,1986L6292,1992L6279,1982L6271,1985C6272.33,1999.64 6276.89,2012.07 6288,2020L6296,2016L6294,2007L6313,1995L6306,1941L6291,1936L6289,1960L6257,1964ZM6265,1875C6255.14,1866.16 6247.48,1870.16 6241,1881L6253,1941C6259.9,1948.86 6267.15,1949.8 6275,1939L6273,1916L6288,1912L6286,1895L6272,1899L6265,1875ZM6600,1868C6595.95,1895.36 6600.45,1919.55 6615,1940L6643,1935C6631.44,1914.2 6625.48,1890.85 6625,1865L6600,1868ZM7586,1893L7575,1909L7588,1924L7602,1902L7586,1893ZM6239,1846L6272,1844L6275,1826L6288,1833L6295,1875L6281,1878L6275,1859L6245,1864L6239,1846ZM7055,1799L7060,1835L7129,1823L7127,1783L7055,1799ZM6277,1769L6268,1751C6256.83,1748.77 6250.07,1755.84 6250,1777L6250,1834L6259,1834L6261,1825L6269,1824L6264,1810L6267,1797L6275,1794L6277,1769ZM7245,1761L7246,1804L7374,1787L7401,1794L7394,1831L7468,1772L7479,1711C7421.81,1548.62 7337.94,1535.55 7242,1590L7309,1581C7345.58,1623.06 7374.18,1670.94 7386,1731L7245,1761ZM6362,1325L6388,1398L6562,1436C6565.08,1449.24 6574.03,1457.22 6591,1458L6595,1505L6618,1521C6640.81,1524.65 6658.37,1530.55 6663,1542L6646,1626L6585,1633L6578,1616L6563,1627L6573,1639L6567,1663L6551,1664L6549,1674L6558,1678L6546,1727L6560,1737L6552,1759L6563,1769L6568,1808L6630,1794L6667,1736L6898,1670L6793,1372L6744,1373L6629,1303L6599,1305L6536,1231C6522.96,1180.95 6516.03,1126.67 6514,1069C6503.17,1132.51 6493.65,1196.75 6493,1266L6362,1325ZM6417,1689L6384,1689C6379.71,1702.71 6381.47,1714.25 6391,1723L6413,1719L6417,1711L6396,1715L6393,1698L6417,1697L6417,1689ZM6387,1607C6381.61,1627.87 6379.91,1650.81 6384,1677L6418,1663C6416.15,1656.26 6409.34,1654.07 6398,1656C6391.43,1648.1 6389.07,1638.36 6395,1625L6416,1623C6419.19,1614.32 6409.32,1609.04 6387,1607ZM7580,1081L7146,1369L7152,1493L7192,1595C7306.64,1409.9 7435.91,1238.51 7580,1081ZM6395,1514C6387.17,1539.43 6385.04,1564.78 6392,1590L6415,1584L6416,1567L6396,1570C6391.12,1558.71 6390.9,1546.82 6398,1534L6425,1536C6421.34,1520.46 6411.89,1512.41 6395,1514ZM6420,1435L6395,1432L6393,1493L6418,1491L6420,1480L6402,1481L6404,1445L6421,1443L6420,1435ZM6083,1225C6144.77,1206.24 6209.15,1198.86 6281,1224C6241.28,1179.47 6178,1139.83 6126,1147C6096.59,1151.05 6069.66,1181.81 6083,1225ZM6806,817L6799,850L6841,855L6837,924L6869,924L6884,853L6919,849L6928,814L6806,817ZM7273,809C7444.04,838.029 7629.98,859.511 7806,874L7786,853C7669.76,800.347 7457.27,763.944 7364,766C7330.46,766.739 7286.99,773.857 7273,809ZM6372,853L6382,862L6712,811L6737,773L6625,779L6372,853Z"/>
                    </clipPath>
                    <g clip-path="url(#_clip11)">
                        <path d="M6196,1760L6193,1847L6245,1842C6231.31,1812.36 6227.95,1777.41 6243,1733L6196,1760Z" style="fill:rgb(255,232,218);"/>
                        <path d="M6189,1884L6215,1966L6261,1958L6242,1855L6189,1884Z" style="fill:rgb(255,232,218);"/>
                        <path d="M6221,1995L6252,2049L6291,2036C6265.78,2016.17 6262.31,2000.65 6266,1977L6221,1995Z" style="fill:rgb(255,232,218);"/>
                        <path d="M6752,1716C6784.11,1731.25 6810.05,1748.81 6829,1769L7304,1585L6752,1716Z" style="fill:rgb(255,232,218);"/>
                        <path d="M6570,1810C6570,1810 6546.34,1851.25 6557,1899C6567.66,1946.75 6580,1976 6580,1976L6606,1921L6600,1863L6625,1860C6624.14,1842.66 6625.83,1822.43 6633,1796L6570,1810Z" style="fill:rgb(255,232,218);"/>
                        <path d="M6435,1412L6385,1396L6270,1420C6262.28,1526.57 6258.07,1631.75 6278,1732L6370,1727L6377,1703L6390,1724L6426,1728L6436,1714L6433,1681L6412,1679L6438,1665L6434,1615L6419,1604L6437,1596L6448,1525C6443.57,1513.29 6434.07,1506.42 6422,1502L6435,1490C6442.39,1465.18 6440.36,1438.86 6435,1412Z" style="fill:rgb(255,232,218);"/>
                        <path d="M6244,1711L6263,1692L6262,1624C6228.42,1570.17 6222.86,1524.82 6262,1493L6262,1407C6253.06,1315.92 6222.36,1238.8 6160,1182L6209,1166L6207,1139L6287,1116C6293.22,1051.23 6283.57,1009.03 6252,998L6428,907L6331,897C6331,897 6181.33,965.486 6161,1001C6140.67,1036.51 6121,1098 6121,1098C6121,1098 6068.14,1105.74 6055,1145C6041.86,1184.26 6039,1228 6039,1228L5992,1292C6062.28,1450.75 6140.56,1598.36 6244,1711ZM6116,1412L6127,1371L6149,1407L6142,1452L6116,1412Z" style="fill:rgb(255,232,218);"/>
                        <path d="M6377,855L6729,776L6623,777L6377,855Z" style="fill:rgb(255,232,218);"/>
                        <path d="M6394,885L6749,906L6811,688L6853,690L6822,947L6763,951C6774.5,1011.97 6798.75,1061.71 6870,1070C6962.94,1064.8 7054.17,1048.1 7135,961L7229,849L7308,856L7243,872C7152.03,1002.39 7040.65,1085.65 6899,1099C6890.63,1155.26 6888.19,1216.99 6898,1290L6980,1366L6882,1398L6895,1488L6896,1502L6991,1515L6895,1523L6898,1581L6990,1585L6905,1606L6926,1664L6905,1668L6793,1368L6746,1369L6631,1297L6533,1027C6512.73,963.717 6468.86,923.618 6396,912L6394,885Z" style="fill:rgb(255,232,218);"/>
                        <path d="M6494,2020L6468,2137L6482,2146L6540,2012L6494,2020Z" style="fill:rgb(255,232,218);"/>
                        <path d="M6435,2162L6449,2180L6476,2171L6471,2157L6435,2162Z" style="fill:rgb(255,232,218);"/>
                        <path d="M6538,2193L6533,2232L6661,2335L6558,2409L6609,2414L6693,2342L6538,2193Z" style="fill:rgb(255,232,218);"/>
                        <path d="M7303,2307L7281,2478L7229,2609L7251,2605L7307,2505L7295,2483L7319,2478L7339,2307L7303,2307Z" style="fill:rgb(255,232,218);"/>
                        <path d="M7313,2241L7314,2271L7333,2276L7332,2243L7313,2241Z" style="fill:rgb(255,232,218);"/>
                        <path d="M7056,1945L7353,1969L7358,1896L7056,1945Z" style="fill:rgb(255,232,218);"/>
                        <path d="M7441,1957C7373.17,2050.27 7314.43,2140.47 7299,2216L7350,2218L7441,1957Z" style="fill:rgb(255,232,218);"/>
                        <path d="M7195,1599L7240,1593C7327.39,1543.92 7406.1,1545.36 7465,1662L7493,1667L7472,1620L7633,1327L7496,1472C7517.96,1433.39 7531.28,1392.27 7527,1346L7743,1065C7701.43,1014.01 7648.71,1015.47 7583,1078C7440.63,1242.53 7308.25,1414.06 7195,1599Z" style="fill:rgb(255,232,218);"/>
                    </g>
                    <path d="M7305,2236L7363,2239L7369,2283L7309,2280L7305,2236ZM7313.25,2243.94C7313.25,2243.94 7315.88,2272.84 7315.88,2272.84C7315.88,2272.84 7360.35,2275.06 7360.35,2275.06L7356.41,2246.17L7313.25,2243.94ZM5997,1291L6018,1254L6042,1297C6051.8,1313.49 6061.46,1315.41 6071,1306C6091.38,1292.62 6100.66,1276.52 6088,1255L6064,1264C6045.79,1183.24 6054.87,1120.92 6140,1110C6145.48,1050.5 6165.78,1000.76 6221,974L6331,921L6350,902L6390,902L6389,884C6505.17,885.616 6620.35,885.955 6750,905L6806,685L6958,688C7013.78,684.529 7068.1,684.559 7116,700L7130,853L7064,858L7061,827C7049.57,806.446 7038.56,806.117 7028,828L7032,954L6949,953L6951,934L6941,933L6939,952L6931,952L6931,932L6921,930L6921,950L6914,949L6914,930L6907,928L6905,948L6764,955C6782.67,1009.84 6803.96,1062.38 6880,1067L6893,1074C6989.2,1062.17 7075.11,1037.31 7126,968L7230,848C7297.38,854.899 7363.75,863.705 7422,888C7453.13,895.021 7484.34,902.142 7509,901L7530,892C7613.11,892.588 7685.76,903.604 7743,930C7777.87,945.382 7805.03,968.353 7797,1026L7771,1028C7744.03,944.812 7708.56,974.182 7671,1031C7704.49,1033.69 7734.47,1040.4 7748,1066C7775.72,1089.82 7798.38,1119.12 7803,1168L7781,1197L7805,1270L7828,1251C7849.86,1306.96 7864.37,1367.51 7810,1471C7723.74,1551.24 7631.98,1627.13 7525,1691C7521.94,1734.13 7516.52,1777.7 7502,1823L7439,1824L7404,1888C7391.71,1903.72 7428.14,1930.36 7447,1908L7537,1789C7568.37,1799.12 7599.17,1810.3 7619,1842L7603,1868C7612.46,1885.79 7623.83,1885.56 7638,1859L7655,1875C7615.29,1945.22 7573.74,2015.52 7528,2086C7486.75,2148.13 7449.35,2206.54 7415,2262L7394,2255L7383,2250C7401.68,2227.24 7412.14,2205.2 7413,2184L7374,2231C7348.64,2215.95 7321.17,2213.98 7289,2225C7301.85,2181.43 7320.2,2138.27 7350,2096L7419,1981C7308.25,1962.73 7181.57,1952.59 7044,1948L6691,1997L6633,2135C6617.7,2148.18 6600.45,2155.04 6582,2158L6598,2122C6606.29,2104.8 6598.23,2096.39 6579,2094C6562.9,2092.03 6551.27,2102.46 6544,2125L6532,2158C6509.34,2163.22 6487.44,2156.27 6466,2142L6488,2023L6462,2023L6459,2010L6449,2024C6397.77,2030.86 6349.47,2032.64 6302,2033L6259,2046C6242.62,2034.28 6229.95,2017.28 6221,1995L6242,1982L6242,1966L6218,1966L6195,1885L6226,1867L6227,1844L6197,1842C6191.84,1820.61 6191.55,1793.56 6196,1761L6241,1735L6275,1730L6266,1690C6257.49,1717.4 6244.42,1715.28 6227,1685C6137.02,1567.99 6065.34,1431.29 5997,1291ZM6257,1964L6257,1978L6279,1971L6296,1986L6292,1992L6279,1982L6271,1985C6272.33,1999.64 6276.89,2012.07 6288,2020L6296,2016L6294,2007L6313,1995L6306,1941L6291,1936L6289,1960L6257,1964ZM6265,1875C6255.14,1866.16 6247.48,1870.16 6241,1881L6253,1941C6259.9,1948.86 6267.15,1949.8 6275,1939L6273,1916L6288,1912L6286,1895L6272,1899L6265,1875ZM6917.5,923.366C6919.01,922.569 6920.77,922.305 6922.47,922.646L6932.47,924.646C6934.09,924.97 6935.51,925.804 6936.55,926.96C6938,925.897 6939.82,925.345 6941.75,925.537L6951.75,926.537C6953.73,926.736 6955.56,927.718 6956.82,929.266C6958.08,930.814 6958.67,932.8 6958.46,934.785L6957.32,945.6L7024.26,946.406L7020.5,828.238C7020.47,827.03 7020.72,825.83 7021.24,824.741C7025.03,816.891 7029.03,811.545 7032.91,808.411C7036.58,805.458 7040.34,804.144 7044.06,804.087C7047.75,804.031 7051.53,805.216 7055.28,807.979C7059.28,810.928 7063.47,816 7067.56,823.355C7068.06,824.256 7068.37,825.251 7068.47,826.278C7068.47,826.278 7070.76,849.967 7070.76,849.967L7121.84,846.097C7121.84,846.097 7108.99,705.677 7108.99,705.677C7063.09,691.979 7011.44,692.188 6958.47,695.486C6958.26,695.498 6958.06,695.503 6957.85,695.499L6811.8,692.616L6757.27,906.85C6756.32,910.574 6752.71,912.979 6748.91,912.42C6622.6,893.867 6510.07,893.136 6396.93,891.609L6397.49,901.584C6397.6,903.642 6396.86,905.657 6395.45,907.154C6394.03,908.652 6392.06,909.5 6390,909.5L6353.11,909.5L6336.3,926.303C6335.71,926.899 6335.02,927.391 6334.26,927.757L6224.27,980.752C6171.62,1006.27 6152.7,1053.95 6147.47,1110.69C6147.15,1114.19 6144.44,1116.99 6140.95,1117.44C6109.59,1121.46 6089.24,1132.68 6077.41,1149.91C6060.25,1174.92 6060.79,1211.48 6069.5,1253.93L6085.37,1247.98C6088.78,1246.7 6092.62,1248.06 6094.46,1251.2C6100.62,1261.67 6102.27,1271.14 6100.73,1279.72C6098.56,1291.87 6089.63,1302.61 6075.72,1311.87C6070.34,1316.97 6064.77,1319.24 6059.36,1319.14C6051.74,1319.01 6043.3,1313.85 6035.55,1300.83C6035.52,1300.77 6035.48,1300.71 6035.45,1300.65L6017.94,1269.29L6005.47,1291.27C6073.07,1429.85 6144.02,1564.79 6232.94,1680.43C6233.15,1680.69 6233.33,1680.97 6233.5,1681.26C6238.22,1689.46 6242.5,1695.43 6246.51,1699.03C6247.65,1700.05 6248.73,1700.85 6249.8,1701.35C6250.32,1701.59 6250.8,1701.83 6251.26,1701.67C6252.36,1701.31 6253.15,1700.19 6254.09,1698.78C6255.85,1696.12 6257.39,1692.43 6258.84,1687.78C6259.85,1684.53 6262.91,1682.37 6266.3,1682.51C6269.69,1682.64 6272.57,1685.04 6273.32,1688.35L6282.32,1728.35C6282.78,1730.39 6282.36,1732.53 6281.18,1734.25C6280,1735.97 6278.16,1737.12 6276.09,1737.42L6243.51,1742.21C6243.51,1742.21 6202.95,1765.65 6202.95,1765.65C6199.49,1792.86 6199.47,1815.97 6203.13,1834.89L6227.5,1836.52C6230.26,1836.7 6232.57,1838.36 6233.72,1840.67C6235,1839.4 6236.71,1838.62 6238.55,1838.51L6243.78,1838.2C6242.97,1837 6242.5,1835.56 6242.5,1834L6242.5,1777C6242.5,1776.99 6242.5,1776.98 6242.5,1776.98C6242.55,1761.05 6246.62,1751.79 6252.1,1747.3C6256.65,1743.55 6262.47,1742.25 6269.47,1743.64C6271.74,1744.1 6273.67,1745.58 6274.71,1747.65L6283.71,1765.65C6284.32,1766.87 6284.59,1768.24 6284.48,1769.6L6282.48,1794.6C6282.24,1797.5 6280.36,1800 6277.63,1801.02C6277.63,1801.02 6273.4,1802.61 6273.4,1802.61L6271.8,1809.55L6275,1818.5C6276.22,1818.5 6277.45,1818.8 6278.56,1819.4L6291.56,1826.4C6293.6,1827.5 6295.02,1829.48 6295.4,1831.77L6302.4,1873.77C6303.06,1877.72 6300.49,1881.49 6296.57,1882.33L6282.57,1885.33C6279.64,1885.96 6276.71,1884.78 6275,1882.5L6277.11,1889.74L6283.94,1887.79C6286.05,1887.18 6288.33,1887.54 6290.16,1888.76C6291.99,1889.98 6293.19,1891.94 6293.45,1894.12L6295.45,1911.12C6295.88,1914.83 6293.53,1918.29 6289.93,1919.25L6281.02,1921.62L6282.47,1938.35C6282.63,1940.15 6282.13,1941.95 6281.07,1943.41C6275.29,1951.35 6269.29,1954.3 6263.91,1954.49C6258.34,1954.69 6252.62,1951.94 6247.36,1945.95C6246.49,1944.96 6245.9,1943.76 6245.65,1942.47L6233.65,1882.47C6233.28,1880.65 6233.61,1878.75 6234.56,1877.15C6236.31,1874.24 6238.17,1871.75 6240.13,1869.71C6239.12,1868.85 6238.33,1867.71 6237.89,1866.37L6234.04,1854.83L6233.49,1867.33C6233.38,1869.88 6231.98,1872.2 6229.77,1873.49L6203.81,1888.56L6223.67,1958.5L6242,1958.5C6246.14,1958.5 6249.5,1961.86 6249.5,1966L6249.5,1964C6249.5,1960.22 6252.32,1957.03 6256.07,1956.56C6256.07,1956.56 6282.03,1953.31 6282.03,1953.31L6283.53,1935.38C6283.72,1933.08 6284.95,1931.01 6286.87,1929.74C6288.79,1928.47 6291.19,1928.16 6293.37,1928.88L6308.37,1933.88C6311.1,1934.79 6313.07,1937.18 6313.44,1940.04L6320.44,1994.04C6320.81,1996.93 6319.47,1999.78 6317.01,2001.34C6317.01,2001.34 6302.47,2010.52 6302.47,2010.52L6303.32,2014.37C6304.07,2017.73 6302.43,2021.17 6299.35,2022.71L6291.35,2026.71C6288.87,2027.95 6285.9,2027.72 6283.64,2026.11C6270.74,2016.9 6265.08,2002.66 6263.53,1985.68C6263.47,1985.03 6263.5,1984.39 6263.6,1983.77L6259.27,1985.15C6256.99,1985.87 6254.51,1985.47 6252.57,1984.05C6250.64,1982.64 6249.5,1980.39 6249.5,1978L6249.5,1982C6249.5,1984.6 6248.16,1987.01 6245.95,1988.38C6245.95,1988.38 6230.43,1997.99 6230.43,1997.99C6238,2014.71 6247.97,2027.98 6260.45,2037.73L6299.83,2025.82C6300.52,2025.61 6301.23,2025.51 6301.94,2025.5C6348.12,2025.15 6395.08,2023.46 6444.79,2016.99L6452.9,2005.64C6454.61,2003.24 6457.57,2002.07 6460.47,2002.64C6463.36,2003.22 6465.65,2005.44 6466.31,2008.31L6467.97,2015.5L6488,2015.5C6490.23,2015.5 6492.34,2016.49 6493.77,2018.2C6495.19,2019.91 6495.78,2022.17 6495.38,2024.36C6495.38,2024.36 6474.29,2138.41 6474.29,2138.41C6491.29,2148.89 6508.56,2154.35 6526.4,2151.46C6526.4,2151.46 6536.9,2122.56 6536.9,2122.57C6545.65,2095.57 6560.59,2084.19 6579.91,2086.55L6579.93,2086.56C6595.12,2088.45 6604.33,2094.4 6607.46,2102.78C6609.59,2108.49 6609.23,2115.91 6604.81,2125.15C6604.81,2125.15 6594.92,2147.39 6594.92,2147.39C6606.24,2144 6616.94,2138.6 6626.78,2130.43L6684.09,1994.09C6685.11,1991.65 6687.35,1989.93 6689.97,1989.57L7042.97,1940.57C7043.39,1940.51 7043.82,1940.49 7044.25,1940.5C7182.18,1945.1 7309.18,1955.28 7420.22,1973.6C7422.67,1974 7424.76,1975.6 7425.81,1977.85C7426.85,1980.1 7426.71,1982.73 7425.43,1984.86L7356.43,2099.86C7356.34,2100.02 7356.24,2100.17 7356.13,2100.32C7329.86,2137.59 7312.66,2175.56 7300.28,2213.89C7326.75,2207.5 7350.25,2210.06 7372.2,2221.43L7407.23,2179.21C7409.28,2176.74 7412.69,2175.85 7415.69,2177C7418.69,2178.15 7420.62,2181.09 7420.49,2184.3C7419.68,2204.52 7410.89,2225.54 7394.78,2247.12L7396.74,2248.01C7396.74,2248.01 7411.75,2253.01 7411.75,2253.01C7445.27,2199 7481.69,2142.2 7521.73,2081.89C7566.27,2013.26 7606.82,1944.8 7645.57,1876.43C7645.57,1876.43 7639.7,1870.9 7639.7,1870.9C7635.62,1877.13 7631.7,1881.39 7628.07,1883.96C7623.17,1887.43 7618.42,1888.36 7613.97,1887.54C7607.85,1886.42 7601.57,1881.3 7596.38,1871.52C7595.13,1869.17 7595.22,1866.34 7596.61,1864.07C7596.61,1864.07 7610.11,1842.14 7610.11,1842.14C7592.39,1816.66 7566.43,1806.53 7539.76,1797.78L7452.98,1912.52C7452.9,1912.63 7452.82,1912.73 7452.73,1912.84C7438.24,1930.02 7415.66,1925.2 7403.3,1913.78C7393.92,1905.1 7390.9,1893.19 7397.68,1883.92L7432.42,1820.4C7433.72,1818.03 7436.18,1816.54 7438.88,1816.5L7496.46,1815.59C7509.59,1772.73 7514.61,1731.39 7517.52,1690.47C7517.69,1688.02 7519.05,1685.82 7521.16,1684.56C7627.28,1621.21 7718.35,1545.95 7803.95,1466.38C7852.99,1372.44 7843.6,1315.02 7824.7,1263.45L7809.78,1275.78C7807.87,1277.36 7805.3,1277.89 7802.92,1277.2C7800.54,1276.52 7798.65,1274.7 7797.88,1272.34L7773.88,1199.34C7773.11,1197 7773.53,1194.43 7775.03,1192.47C7775.03,1192.47 7795.24,1165.83 7795.24,1165.82C7790.23,1121.04 7768.94,1093.88 7743.11,1071.69C7742.4,1071.08 7741.81,1070.34 7741.37,1069.5C7728.98,1046.06 7701.07,1040.94 7670.4,1038.48C7667.76,1038.26 7665.42,1036.67 7664.26,1034.29C7663.1,1031.9 7663.28,1029.08 7664.74,1026.86C7678.84,1005.54 7692.77,988.016 7705.99,978.247C7716.46,970.515 7726.75,967.402 7736.48,969.41C7743.08,970.772 7749.59,974.495 7755.78,981.359C7762.92,989.292 7769.85,1001.84 7776.24,1020.08C7776.24,1020.08 7790.29,1018.99 7790.29,1018.99C7792.6,995.714 7788.48,978.96 7779.89,966.377C7770.52,952.644 7756.07,943.964 7739.97,936.862C7739.94,936.845 7739.9,936.828 7739.86,936.811C7683.81,910.966 7612.75,900.217 7531.51,899.512L7511.95,907.894C7511.13,908.248 7510.24,908.45 7509.35,908.492C7484.12,909.66 7452.19,902.497 7420.35,895.316C7419.93,895.221 7419.51,895.089 7419.11,894.922C7362.63,871.364 7298.4,862.623 7233.11,855.86C7217.58,873.778 7136.39,967.469 7131.87,972.677C7079.79,1043.4 6992.22,1069.36 6893.91,1081.44C6892.37,1081.63 6890.81,1081.34 6889.44,1080.6C6889.44,1080.6 6877.88,1074.38 6877.88,1074.38C6799.27,1068.87 6776.4,1014.68 6756.9,957.418C6756.14,955.189 6756.47,952.734 6757.8,950.787C6759.12,948.84 6761.28,947.626 6763.63,947.509C6763.63,947.509 6898.18,940.829 6898.18,940.829L6899.54,927.254C6899.76,925.042 6900.95,923.043 6902.79,921.795C6904.63,920.547 6906.92,920.178 6909.06,920.789L6916.06,922.789C6916.57,922.933 6917.05,923.128 6917.5,923.366ZM6599.11,1860.55L6624.11,1857.55C6626.21,1857.3 6628.33,1857.95 6629.93,1859.34C6631.52,1860.74 6632.46,1862.74 6632.5,1864.86C6632.95,1889.41 6638.57,1911.6 6649.56,1931.36C6650.73,1933.47 6650.81,1936.03 6649.78,1938.22C6648.74,1940.41 6646.7,1941.96 6644.32,1942.38L6616.32,1947.38C6613.46,1947.89 6610.57,1946.71 6608.89,1944.35C6593.23,1922.35 6588.23,1896.35 6592.58,1866.9C6593.07,1863.56 6595.75,1860.96 6599.11,1860.55ZM6600,1868C6595.95,1895.36 6600.45,1919.55 6615,1940L6643,1935C6631.44,1914.2 6625.48,1890.85 6625,1865L6600,1868ZM7053.37,1791.68L7125.37,1775.68C7127.53,1775.2 7129.79,1775.69 7131.55,1777.03C7133.3,1778.37 7134.38,1780.42 7134.49,1782.62L7136.49,1822.62C7136.68,1826.41 7134.02,1829.74 7130.28,1830.39L7061.28,1842.39C7059.28,1842.74 7057.22,1842.26 7055.58,1841.06C7053.94,1839.86 7052.85,1838.05 7052.57,1836.03L7047.57,1800.03C7047.03,1796.16 7049.56,1792.53 7053.37,1791.68ZM7055,1799L7060,1835L7129,1823L7127,1783L7055,1799ZM7589.68,1886.46L7605.68,1895.46C7607.47,1896.47 7608.77,1898.18 7609.28,1900.17C7609.78,1902.17 7609.43,1904.29 7608.33,1906.03L7594.33,1928.03C7593.06,1930.03 7590.91,1931.31 7588.55,1931.48C7586.19,1931.65 7583.88,1930.7 7582.33,1928.91L7569.33,1913.91C7567.1,1911.33 7566.89,1907.57 7568.82,1904.75L7579.82,1888.75C7582.02,1885.55 7586.29,1884.56 7589.68,1886.46ZM7586,1893L7575,1909L7588,1924L7602,1902L7586,1893ZM6075.83,1227.21C6060.79,1178.49 6091.8,1144.14 6124.98,1139.57C6179.08,1132.11 6245.27,1172.67 6286.6,1219.01C6288.87,1221.56 6289.14,1225.33 6287.23,1228.17C6285.33,1231.01 6281.75,1232.21 6278.52,1231.08C6208.36,1206.53 6145.49,1213.86 6085.18,1232.18C6081.23,1233.38 6077.05,1231.16 6075.83,1227.21ZM6083,1225C6144.77,1206.24 6209.15,1198.86 6281,1224C6241.28,1179.47 6178,1139.83 6126,1147C6096.59,1151.05 6069.66,1181.81 6083,1225ZM6394.3,1506.53C6404.99,1505.53 6413.26,1507.86 6419.51,1512.61C6425.68,1517.31 6430.01,1524.56 6432.3,1534.28C6432.85,1536.61 6432.26,1539.05 6430.7,1540.87C6429.15,1542.69 6426.83,1543.66 6424.45,1543.48C6424.45,1543.48 6402.52,1541.86 6402.52,1541.86C6399.68,1548.76 6399.4,1555.33 6401.03,1561.66L6414.89,1559.58C6417.12,1559.25 6419.39,1559.94 6421.06,1561.46C6422.73,1562.99 6423.62,1565.18 6423.49,1567.44L6422.49,1584.44C6422.3,1587.68 6420.04,1590.44 6416.89,1591.26L6393.89,1597.26C6389.93,1598.29 6385.86,1595.95 6384.77,1591.99C6377.43,1565.39 6379.57,1538.63 6387.83,1511.79C6388.72,1508.89 6391.28,1506.82 6394.3,1506.53ZM6395,1514C6387.17,1539.43 6385.04,1564.78 6392,1590L6415,1584L6416,1567L6396,1570C6391.12,1558.71 6390.9,1546.82 6398,1534L6425,1536C6421.34,1520.46 6411.89,1512.41 6395,1514ZM6805.82,809.502L6927.82,806.502C6930.17,806.444 6932.41,807.492 6933.87,809.332C6935.33,811.172 6935.85,813.591 6935.26,815.868L6926.26,850.868C6925.49,853.878 6922.94,856.099 6919.85,856.451L6890.22,859.838L6876.34,925.55C6875.61,929.018 6872.55,931.5 6869,931.5L6837,931.5C6834.94,931.5 6832.96,930.649 6831.55,929.148C6830.13,927.646 6829.39,925.627 6829.51,923.566L6833.1,861.613L6798.11,857.447C6796.02,857.198 6794.13,856.081 6792.9,854.368C6791.68,852.655 6791.23,850.505 6791.66,848.444L6798.66,815.444C6799.38,812.046 6802.34,809.588 6805.82,809.502ZM6806,817L6799,850L6841,855L6837,924L6869,924L6884,853L6919,849L6928,814L6806,817ZM6427.44,1434.07L6428.44,1442.07C6428.69,1444.05 6428.14,1446.05 6426.9,1447.63C6425.67,1449.2 6423.86,1450.21 6421.88,1450.45C6421.88,1450.45 6411.14,1451.71 6411.14,1451.71L6409.95,1473.05L6419.58,1472.51C6421.88,1472.38 6424.1,1473.32 6425.62,1475.04C6427.14,1476.76 6427.79,1479.08 6427.38,1481.34L6425.38,1492.34C6424.77,1495.69 6421.99,1498.2 6418.6,1498.48L6393.6,1500.48C6391.47,1500.65 6389.37,1499.9 6387.82,1498.43C6386.28,1496.95 6385.43,1494.89 6385.5,1492.75L6387.5,1431.75C6387.57,1429.65 6388.52,1427.68 6390.11,1426.31C6391.71,1424.94 6393.81,1424.3 6395.89,1424.55L6420.89,1427.55C6424.31,1427.96 6427.02,1430.65 6427.44,1434.07ZM6420,1435L6395,1432L6393,1493L6418,1491L6420,1480L6402,1481L6404,1445L6421,1443L6420,1435ZM7585.53,1086.06C7441.76,1243.23 7312.77,1414.25 7198.38,1598.95C7196.88,1601.36 7194.15,1602.73 7191.32,1602.47C7188.49,1602.21 7186.05,1600.38 7185.02,1597.74L7145.02,1495.74C7144.72,1494.98 7144.55,1494.18 7144.51,1493.36L7138.51,1369.36C7138.38,1366.72 7139.65,1364.21 7141.85,1362.75L7575.85,1074.75C7579.01,1072.66 7583.23,1073.25 7585.7,1076.12C7588.16,1079 7588.09,1083.27 7585.53,1086.06ZM7580,1081L7146,1369L7152,1493L7192,1595C7306.64,1409.9 7435.91,1238.51 7580,1081ZM7243.44,1753.66L7377.12,1725.22C7365.07,1671.33 7338.99,1627.62 7305.97,1588.97L7243,1597.43C7239.44,1597.91 7236.04,1595.8 7234.89,1592.39C7233.75,1588.99 7235.17,1585.25 7238.3,1583.48C7288.61,1554.92 7335.85,1544.69 7377.92,1562.27C7419.41,1579.61 7456.5,1624.53 7486.07,1708.51C7486.51,1709.74 7486.61,1711.05 7486.38,1712.33L7475.38,1773.33C7475.06,1775.12 7474.1,1776.73 7472.68,1777.86L7398.68,1836.86C7396.22,1838.82 7392.82,1839.04 7390.13,1837.42C7387.44,1835.81 7386.05,1832.69 7386.63,1829.61L7392.33,1799.5L7373.54,1794.63L7246.99,1811.43C7244.88,1811.72 7242.74,1811.08 7241.12,1809.7C7239.51,1808.31 7238.55,1806.31 7238.5,1804.17L7237.5,1761.17C7237.42,1757.57 7239.91,1754.41 7243.44,1753.66ZM7245,1761L7246,1804L7374,1787L7401,1794L7394,1831L7468,1772L7479,1711C7421.81,1548.62 7337.94,1535.55 7242,1590L7309,1581C7345.58,1623.06 7374.18,1670.94 7386,1731L7245,1761ZM6358.92,1318.16C6358.92,1318.16 6485.56,1261.12 6485.56,1261.13C6486.6,1193.29 6495.96,1130.16 6506.61,1067.74C6507.25,1063.95 6510.66,1061.26 6514.5,1061.52C6518.34,1061.77 6521.36,1064.89 6521.49,1068.74C6523.49,1125.19 6530.19,1178.36 6542.83,1227.45C6542.83,1227.45 6602.27,1297.27 6602.27,1297.27L6628.5,1295.52C6630.04,1295.41 6631.58,1295.79 6632.9,1296.59L6746.03,1365.46L6792.85,1364.5C6796.08,1364.44 6799,1366.45 6800.07,1369.51L6905.07,1667.51C6905.76,1669.46 6905.61,1671.61 6904.66,1673.44C6903.71,1675.28 6902.05,1676.64 6900.06,1677.21L6671.79,1742.43L6636.32,1798.03C6635.26,1799.7 6633.58,1800.88 6631.65,1801.32L6569.65,1815.32C6567.59,1815.78 6565.43,1815.36 6563.7,1814.14C6561.97,1812.93 6560.83,1811.05 6560.56,1808.95L6555.91,1772.69L6546.95,1764.55C6544.7,1762.5 6543.91,1759.3 6544.95,1756.44L6551,1739.79L6541.64,1733.1C6539.14,1731.32 6537.99,1728.2 6538.72,1725.22L6549.22,1682.31L6545.95,1680.85C6542.75,1679.43 6540.96,1675.97 6541.65,1672.53L6543.65,1662.53C6544.31,1659.19 6547.14,1656.73 6550.53,1656.52C6550.53,1656.52 6561.06,1655.86 6561.06,1655.86L6564.8,1640.88L6557.24,1631.8C6555.91,1630.21 6555.3,1628.14 6555.56,1626.09C6555.81,1624.04 6556.9,1622.18 6558.57,1620.95L6573.57,1609.95C6575.42,1608.59 6577.81,1608.16 6580.03,1608.78C6582.25,1609.4 6584.06,1611.01 6584.94,1613.14L6589.78,1624.9L6639.73,1619.17C6639.73,1619.17 6655.13,1543.06 6655.13,1543.06C6653.06,1539.85 6649.19,1537.54 6644.35,1535.47C6637.01,1532.31 6627.52,1530.12 6616.82,1528.41C6615.7,1528.23 6614.64,1527.8 6613.72,1527.16L6590.72,1511.16C6588.89,1509.88 6587.72,1507.86 6587.53,1505.64C6587.53,1505.64 6584.05,1464.82 6584.05,1464.82C6576.87,1463.64 6571.14,1461.11 6566.64,1457.56C6561.77,1453.71 6558.26,1448.62 6556.05,1442.38L6386.4,1405.33C6383.87,1404.78 6381.8,1402.96 6380.94,1400.52L6354.94,1327.52C6353.62,1323.84 6355.36,1319.77 6358.92,1318.16ZM6362,1325L6388,1398L6562,1436C6565.08,1449.24 6574.03,1457.22 6591,1458L6595,1505L6618,1521C6640.81,1524.65 6658.37,1530.55 6663,1542L6646,1626L6585,1633L6578,1616L6563,1627L6573,1639L6567,1663L6551,1664L6549,1674L6558,1678L6546,1727L6560,1737L6552,1759L6563,1769L6568,1808L6630,1794L6667,1736L6898,1670L6793,1372L6744,1373L6629,1303L6599,1305L6536,1231C6522.96,1180.95 6516.03,1126.67 6514,1069C6503.17,1132.51 6493.65,1196.75 6493,1266L6362,1325ZM6392.77,1681.5L6417,1681.5C6421.14,1681.5 6424.5,1684.86 6424.5,1689L6424.5,1697C6424.5,1700.18 6422.51,1702.92 6419.69,1704C6420.98,1704.49 6422.12,1705.34 6422.98,1706.48C6424.7,1708.75 6424.98,1711.8 6423.71,1714.35L6419.71,1722.35C6418.65,1724.47 6416.66,1725.96 6414.34,1726.38L6392.34,1730.38C6390.03,1730.8 6387.66,1730.11 6385.93,1728.53C6374.19,1717.75 6371.56,1703.64 6376.84,1686.76C6377.32,1685.22 6378.27,1683.92 6379.5,1683C6377.95,1681.84 6376.89,1680.1 6376.59,1678.16C6372.32,1650.83 6374.11,1626.9 6379.74,1605.12C6380.66,1601.57 6384.02,1599.2 6387.68,1599.53C6403.23,1600.95 6413.42,1604.28 6418.41,1608.45C6423.99,1613.12 6425.52,1618.83 6423.04,1625.59C6422.05,1628.3 6419.58,1630.19 6416.71,1630.47C6416.71,1630.47 6400.35,1632.02 6400.35,1632.03C6398.39,1638.39 6399.04,1643.58 6401.54,1648C6415.14,1646.9 6422.79,1652.13 6425.23,1661.01C6426.24,1664.67 6424.36,1668.49 6420.86,1669.93L6392.77,1681.5ZM6417,1689L6384,1689C6379.71,1702.71 6381.47,1714.25 6391,1723L6413,1719L6417,1711L6396,1715L6393,1698L6417,1697L6417,1689ZM6387,1607C6381.61,1627.87 6379.91,1650.81 6384,1677L6418,1663C6416.15,1656.26 6409.34,1654.07 6398,1656C6391.43,1648.1 6389.07,1638.36 6395,1625L6416,1623C6419.19,1614.32 6409.32,1609.04 6387,1607ZM6409.33,1704.83L6401.88,1705.14C6401.88,1705.14 6402.07,1706.21 6402.07,1706.21L6409.33,1704.83ZM6239,1846L6245,1864L6275,1859L6281,1878L6295,1875L6288,1833L6275,1826L6272,1844L6239,1846ZM6277,1769L6268,1751C6256.83,1748.77 6250.07,1755.84 6250,1777L6250,1834L6259,1834L6261,1825L6269,1824L6264,1810L6267,1797L6275,1794L6277,1769ZM6268.03,1867.77C6268.68,1868.27 6269.34,1868.82 6270.01,1869.41C6270.22,1869.61 6270.43,1869.82 6270.62,1870.03L6269.81,1867.47L6268.03,1867.77ZM6427,2159L6473,2156C6482.86,2179.21 6496.09,2196.12 6512,2208L6510,2230C6470.81,2215.76 6445.34,2190.3 6427,2159ZM6440.04,2165.66C6455.33,2188.33 6475.39,2207.1 6503.44,2219.32C6503.44,2219.32 6504.16,2211.41 6504.16,2211.41C6489.89,2199.89 6477.74,2184.34 6468.27,2163.82L6440.04,2165.66ZM6532,2182L6578,2182L6591,2197L6615,2186L6605,2170L6640,2152L6801,2312L6771,2329L6714,2269L6701,2265L6694,2282L6704,2293L6721,2283L6725,2298L6709,2308L6720,2330L6692,2340L6732,2342L6723,2357L6756,2358L6760,2344L6798,2344L6785,2413L6621,2420L6548,2416L6657,2338C6621.77,2292.65 6575.32,2262.1 6527,2234L6532,2182ZM6538.81,2189.5C6538.81,2189.5 6534.93,2229.94 6534.92,2229.94C6582.57,2257.87 6628.1,2288.57 6662.92,2333.4C6664.17,2335.01 6664.72,2337.06 6664.42,2339.08C6664.13,2341.1 6663.02,2342.91 6661.36,2344.1L6569.72,2409.68L6621.05,2412.49L6778.73,2405.76C6778.73,2405.76 6788.95,2351.5 6788.95,2351.5L6765.66,2351.5L6763.21,2360.06C6762.27,2363.36 6759.2,2365.6 6755.77,2365.5L6722.77,2364.5C6720.11,2364.42 6717.69,2362.93 6716.42,2360.6C6715.14,2358.26 6715.2,2355.42 6716.57,2353.14C6716.57,2353.14 6719.13,2348.87 6719.13,2348.87L6691.62,2347.49C6688.05,2347.31 6685.1,2344.63 6684.58,2341.1C6684.06,2337.56 6686.11,2334.14 6689.48,2332.94L6709.51,2325.78L6702.29,2311.35C6700.56,2307.9 6701.75,2303.69 6705.03,2301.64L6716.32,2294.58L6716.3,2294.47L6707.8,2299.47C6704.74,2301.26 6700.84,2300.67 6698.45,2298.05L6688.45,2287.05C6686.5,2284.9 6685.96,2281.82 6687.07,2279.14L6694.07,2262.14C6695.54,2258.56 6699.5,2256.69 6703.21,2257.83L6716.21,2261.83C6717.44,2262.21 6718.55,2262.9 6719.44,2263.83C6719.44,2263.83 6772.4,2319.59 6772.4,2319.59L6788.7,2310.35L6638.58,2161.16L6615.68,2172.94L6621.36,2182.03C6622.5,2183.85 6622.8,2186.09 6622.18,2188.15C6621.57,2190.22 6620.09,2191.92 6618.12,2192.82L6594.12,2203.82C6591.1,2205.21 6587.51,2204.43 6585.33,2201.91L6574.57,2189.5L6538.81,2189.5ZM7303,2303C7331.92,2306.03 7361.47,2305.43 7392,2299L7380,2411C7367.53,2401.35 7359.65,2409.53 7357,2438L7353,2484L7374,2471L7374,2522C7323.26,2577.8 7272.61,2606.26 7222,2619L7277,2479L7303,2303ZM7309.38,2311.13L7284.42,2480.1C7284.34,2480.66 7284.19,2481.21 7283.98,2481.74C7283.98,2481.74 7234.51,2607.67 7234.51,2607.67C7278.47,2593.85 7322.43,2566.94 7366.5,2519.09C7366.5,2519.09 7366.5,2484.46 7366.5,2484.46L7356.95,2490.38C7354.53,2491.87 7351.49,2491.88 7349.07,2490.39C7346.65,2488.9 7345.28,2486.18 7345.53,2483.35L7349.53,2437.35C7349.53,2437.34 7349.53,2437.32 7349.53,2437.3C7350.78,2423.86 7353.31,2414.5 7356.58,2408.9C7359.96,2403.11 7364.34,2400.38 7369.06,2399.76C7370.5,2399.57 7372.04,2399.59 7373.65,2399.86C7373.65,2399.86 7383.46,2308.26 7383.46,2308.27C7358.19,2312.6 7333.57,2313.16 7309.38,2311.13ZM7273,809C7286.99,773.857 7330.46,766.739 7364,766C7457.27,763.944 7669.76,800.347 7786,853L7806,874C7629.98,859.511 7444.04,838.029 7273,809ZM7284.37,803.311C7446.03,830.375 7620.49,850.743 7786.96,864.881C7786.96,864.881 7781.58,859.234 7781.58,859.233C7665.95,807.309 7456.36,771.466 7364.16,773.498C7348.18,773.851 7329.81,775.654 7313.79,781.626C7301.9,786.058 7291.29,792.812 7284.37,803.311ZM6372,853L6625,779L6737,773L6712,811L6382,862L6372,853ZM6407.22,850.514L6707.56,804.096L6722.57,781.284L6626.27,786.443L6407.22,850.514Z" style="fill:rgb(151,78,0);"/>
                </g>
            </g>
        </g>
    </g>
    <defs>
        <linearGradient id="_Linear8" x1="0" y1="0" x2="1" y2="0" gradientUnits="userSpaceOnUse" gradientTransform="matrix(181,113,-113,181,5903,2552)"><stop offset="0" style="stop-color:rgb(88,228,241);stop-opacity:1"/><stop offset="1" style="stop-color:rgb(0,127,144);stop-opacity:1"/></linearGradient>
    </defs>
</svg>
