<?xml version="1.0" encoding="UTF-8" standalone="no"?>
<!DOCTYPE svg PUBLIC "-//W3C//DTD SVG 1.1//EN" "http://www.w3.org/Graphics/SVG/1.1/DTD/svg11.dtd">
<svg width="100%" height="100%" viewBox="0 0 1685 2164" version="1.1" xmlns="http://www.w3.org/2000/svg" xmlns:xlink="http://www.w3.org/1999/xlink" xml:space="preserve" xmlns:serif="http://www.serif.com/" style="fill-rule:evenodd;clip-rule:evenodd;stroke-linejoin:round;stroke-miterlimit:2;">
    <g id="ruby-motion" serif:id="ruby motion" transform="matrix(0.999899,0.0141814,-0.0141814,0.999899,15.0645,-11.6061)">
        <g id="inner-wave" serif:id="inner wave">
            <path d="M1142,330C1142,330 1101.29,497.619 1135,524C1168.71,550.381 1208,499 1208,499C1208,499 1176.78,642.42 1213,661C1249.22,679.58 1287,589 1287,589C1287,589 1287.71,649.099 1308,649C1328.29,648.901 1367,577 1367,577C1367,577 1426.39,612.527 1442,604C1457.61,595.473 1466,492 1466,492C1466,492 1563.76,547.334 1577,475C1590.24,402.666 1497,337 1497,337C1497,337 1546.89,281.602 1521,250C1495.11,218.398 1453,244 1453,244C1453,244 1429.25,99.82 1408,90C1386.75,80.18 1366,150 1366,150C1366,150 1300.09,52.322 1278,49C1255.91,45.678 1269,130 1269,130C1269,130 1175.55,60.993 1159,67C1142.45,73.007 1154,129 1154,129L1159,175L1057,205L1142,330Z" style="fill:white;"/>
            <path d="M1207,1320L1212,1787L1210,1957L1179,2025L1080,2056L298,2064L214,2033L177,1941L174,1694L163,1363L160,1065L160,806L200,590L295,394L405,272L546,171L706,108L902,94L1169.95,129.724L1181,192C1181,192 1114.87,196.008 1076,214C1125.06,246.067 1158.08,293.432 1174,321C1192.28,352.665 1204,379 1204,379L1154,355L1138,440C1138,440 1024.6,340.617 949,356C873.4,371.383 819.198,349.364 695,446C570.802,542.636 547.622,646.222 544,734C540.378,821.778 576.909,960.503 606,1013C635.091,1065.5 712.48,1140.07 841,1186C969.52,1231.93 1207,1320 1207,1320Z" style="fill:url(#_Linear1);"/>
            <clipPath id="_clip2">
                <path d="M1207,1320L1212,1787L1210,1957L1179,2025L1080,2056L298,2064L214,2033L177,1941L174,1694L163,1363L160,1065L160,806L200,590L295,394L405,272L546,171L706,108L902,94L1169.95,129.724L1181,192C1181,192 1114.87,196.008 1076,214C1125.06,246.067 1158.08,293.432 1174,321C1192.28,352.665 1204,379 1204,379L1154,355L1138,440C1138,440 1024.6,340.617 949,356C873.4,371.383 819.198,349.364 695,446C570.802,542.636 547.622,646.222 544,734C540.378,821.778 576.909,960.503 606,1013C635.091,1065.5 712.48,1140.07 841,1186C969.52,1231.93 1207,1320 1207,1320Z"/>
            </clipPath>
            <g clip-path="url(#_clip2)">
                <g>
                    <path d="M424.835,1130.31C412.462,1105.78 392.499,1045.97 411.58,1041.03C433.311,1035.39 452.832,1078.57 461.814,1066.88C479.1,1044.4 467.273,1019.4 460.374,997.665C450.482,966.499 432.944,931.242 419.391,937.555C413.27,940.407 416.109,990.207 399.461,993.703C378.645,998.075 356.107,908.697 362.017,874.255C364.323,860.814 368.861,825.448 383.856,829.997C399.109,834.624 399.583,911.904 415.852,897.845C446.695,871.19 438.749,749.35 479.454,751.555C491.238,752.194 493.609,840.545 501.618,894.273C509.254,945.494 531.115,996.132 553.024,1043.16C558.14,1054.15 588.824,1104.12 588.824,1104.12C588.824,1104.12 446.778,1164.19 447.094,1165.29C447.094,1165.29 429.256,1139.08 424.835,1130.31Z" style="fill:rgb(185,239,255);fill-opacity:0.5;"/>
                    <path d="M392.459,656.447C388.483,664.111 373.46,690.371 370.903,697.645C363.241,719.442 359.606,736.55 363.266,760.134C364.191,766.092 368.382,780.503 376.643,781.187C388.577,782.176 397.221,765.863 401.821,757.598C413.317,736.94 430.353,688.959 430.603,664.925C430.843,641.861 416.39,610.319 392.459,656.447Z" style="fill:rgb(185,239,255);fill-opacity:0.5;"/>
                    <path d="M444.964,521.557C437.62,534.407 412.851,586.429 440.635,594.086C454.53,597.916 461.543,582.503 466.798,572.638C478.362,550.928 490.487,522.806 492.896,498.163C494.649,480.223 473.097,472.328 444.964,521.557Z" style="fill:rgb(185,239,255);fill-opacity:0.5;"/>
                    <path d="M683.398,354.918C683.398,354.918 652.551,355.405 636.186,369.81C617.522,386.239 612.004,390.596 601.481,413.349C598.728,419.3 591.962,433.747 596.892,440.124C605.668,451.476 617.346,436.028 625.349,429.14C641.506,415.234 686.657,367.27 686.657,367.27C686.657,367.27 701.169,368.455 709.33,368.032C732.193,366.849 791.197,322.203 791.294,304.967C791.429,280.878 691.01,331.047 683.398,354.918Z" style="fill:rgb(185,239,255);fill-opacity:0.5;"/>
                    <path d="M566.174,457.178C562.73,452.163 544.325,465.395 532.369,481.683C519.918,498.644 511.271,526.295 521.748,532.281C526.317,534.892 536.59,525.239 538.138,522.142C550.16,498.104 574.469,469.255 566.174,457.178Z" style="fill:rgb(185,239,255);fill-opacity:0.5;"/>
                </g>
                <path d="M1208,1712C994,1722 746.35,1609.66 631,1510C511.326,1406.6 439.515,1322.04 379,1193C317.047,1060.89 301.749,867.271 306,790C309.96,718.028 334.697,609.174 391,506C443.109,410.51 510.365,353.303 578,308C645.635,262.697 750.412,210.893 905,205C1059.59,199.107 1108,223 1108,223L1206,206L1191,145C1191,145 928.117,66.822 817,92C705.883,117.178 523.248,157.318 410,261C296.752,364.682 266.774,435.473 244,483C221.226,530.527 195.978,607.709 179,670C162.022,732.291 157.566,944.525 156,994C154.434,1043.47 164.973,1250.55 163,1296C161.027,1341.45 173.743,1510.72 173,1563C172.257,1615.28 177.649,1832.62 178,1874C178.351,1915.38 182.82,1998.49 201,2023C219.18,2047.52 298.086,2070.94 408,2070C517.914,2069.06 851.451,2057.52 893,2057C934.549,2056.48 1116.19,2060.71 1138,2051C1159.81,2041.29 1213.68,1996.42 1207,1907C1200.32,1817.58 1208,1776 1208,1712Z" style="fill:url(#_Linear3);"/>
            </g>
            <g>
                <path d="M1197.65,215.454C1181.27,235.288 1197.51,275.401 1225.06,272.187C1236.8,270.817 1233.63,233.682 1231.55,226.438C1225.65,205.855 1211.7,198.445 1197.65,215.454Z" style="fill:rgb(230,230,230);"/>
                <path d="M1293.16,204.22C1288.52,199.589 1270.23,216.153 1266.76,233.117C1262.04,256.239 1264.71,279.633 1272.07,300.588C1272.67,302.281 1281.88,322.584 1280.6,322.492C1259.07,320.946 1250.21,348.407 1252.47,373.508C1254.22,393.029 1260.57,419.788 1284.21,421.662C1312.32,423.893 1310.02,367.392 1310.69,349.658C1310.8,346.807 1309.83,326.803 1310.76,329.12C1312.21,332.7 1337.78,323.833 1337.78,323.833C1337.78,323.833 1356.93,400.936 1372.73,351.474C1374.46,346.05 1374.13,340.206 1375.02,334.577C1376.3,326.42 1377.41,318.557 1375.81,310.337C1373.63,299.211 1367.86,288.178 1354.89,288.178C1351.37,288.178 1339.84,295.581 1340.99,291.62C1350.25,259.827 1324.76,187.219 1293.16,204.22Z" style="fill:rgb(230,230,230);"/>
                <path d="M1357.25,221.756C1350.42,235.107 1354.54,262.299 1372,263.803C1387.37,265.127 1391.1,244.523 1389.45,233.976C1386.09,212.581 1371.28,194.325 1357.25,221.756Z" style="fill:rgb(230,230,230);"/>
                <path d="M1329.92,404.205C1320.47,409.833 1298.84,461.808 1333.45,464.75C1353.48,466.453 1360.54,423.025 1354.35,409.494C1351.78,403.873 1341.76,397.159 1329.92,404.205Z" style="fill:rgb(230,230,230);"/>
                <path d="M1396.33,426.214C1416.17,429.418 1426.89,393.76 1419.87,380.2C1415.84,372.414 1404.75,369.707 1395.69,375.46C1390.73,378.61 1366.86,421.456 1396.33,426.214Z" style="fill:rgb(230,230,230);"/>
            </g>
            <g id="rings">
                <path d="M482.875,219.067C453.796,227.081 433.127,266.833 426.886,294.204C424.204,305.97 417.765,324.229 431.873,330.347C447.252,337.016 472.512,323.443 483.654,314.093C514.14,288.508 547.685,272.681 555.14,230.437C556.286,223.942 559.062,217.456 557.063,210.791C551.593,192.559 524.793,196.332 511.886,201.443C508.155,202.92 497.132,203.922 496.211,208.527L482.875,219.067ZM513.929,229.424C514.58,229.746 511.897,229.525 511.346,229.603C509.072,229.925 506.945,230.667 504.921,231.748C498.313,235.277 491.308,237.888 484.858,241.692C463.935,254.032 450.099,263.237 447.192,288.43C446.781,291.99 445.836,297.454 449.051,300.102C455.171,305.142 466.347,298.484 472.059,296.17C489.199,289.226 518.174,275.965 528.047,258.84C530.075,255.322 537.218,230.08 530.03,230.08L513.929,229.424Z" style="fill:rgb(0,188,207);"/>
                <path d="M684.762,115.293C684.828,115.343 684.873,115.401 684.895,115.468C686.429,120.069 672.299,132.057 669.577,135.233C653.363,154.149 632.725,159.517 609.384,158.155C606.637,157.995 595.366,155.757 586.776,154.398C574.509,161.381 561.842,168.845 560.905,169.232L546.31,178.044C534.248,184.309 597.23,181.018 600.733,181.018C638.87,181.018 674.583,165.664 705.022,143.331C715.045,135.976 733.338,120.497 728.089,104.75C727.877,104.115 724.056,104.799 723.761,104.869C710.599,107.971 697.804,111.6 684.762,115.293Z" style="fill:rgb(0,188,207);"/>
                <path d="M697.031,179.712C697.031,178.889 690.36,179.867 689.942,180.01C683.368,182.25 677.142,185.739 670.721,188.405C650.177,196.937 635.163,208.266 628.608,229.722C627.057,234.8 624.082,246.669 628.608,251.159C634.075,256.583 654.577,246.498 660.326,244.551C668.868,241.66 715.319,222.244 718.719,212.28C721.594,203.855 720.683,192.483 716.013,184.89C713.824,181.332 705.678,173.417 702.796,178.163L697.031,179.712ZM689.401,202.753C690.881,201.403 680.679,206.996 678.891,207.932C670.689,212.227 661.998,217.012 654.501,222.459C654.025,222.804 652.321,223.851 652.756,224.722C654.134,227.479 666.501,224.238 668.198,223.471C690.009,213.621 689.347,209.396 694.627,199.298L689.401,202.753Z" style="fill:rgb(0,188,207);"/>
                <path d="M771.25,133.688L771.159,134.459C769.656,134.459 770.052,134.129 771.25,133.688L771.342,132.91C771.641,132.611 764.638,133.943 763.951,134.22C759.089,136.18 754.736,139.341 750.075,141.722C741.004,146.355 725.065,179.141 738.663,185.426C762.357,196.379 831.173,167.011 854.3,158.275C862.158,155.306 886.459,148.336 887.821,137.437C889.048,127.623 875.188,127.027 868.418,126.302C845.539,123.852 823.473,123.899 800.655,127.672C793.495,128.856 786.264,129.736 779.21,131.484C778.606,131.634 773.506,132.857 771.25,133.688ZM817.897,139.582C818.449,139.03 801.877,140.373 799.873,140.888C793.425,142.547 752.719,152.464 759.504,164.41C763.924,172.192 784.57,164.134 790.082,163.04C805.164,160.048 850.56,152.734 861.87,141.424C862.73,140.563 855.772,140.029 855.563,138.569L817.897,139.582Z" style="fill:rgb(0,188,207);"/>
                <path d="M832.075,94.686C834.47,95.085 827.364,95.863 824.986,96.354C822.319,96.905 805.915,102.68 810.387,107.609C816.684,114.551 863.711,114.165 869.439,102.843C871.837,98.105 866.554,96.676 866.554,93.733" style="fill:rgb(0,188,207);"/>
                <path d="M936.717,157.619C934.992,145.547 891.068,156.886 892.026,171.257C892.935,184.893 948.405,176.761 954.499,168.636C962.352,158.166 934.917,160.062 934.917,158.036" style="fill:rgb(0,188,207);"/>
                <path d="M930.951,101.294C913.01,96.982 910.698,110.793 926.028,120.766C943.811,132.334 967.662,140.048 988.442,144.165C996.646,145.79 1011.55,146.468 1017.76,139.82C1029.79,126.941 1014.18,107.876 1010.67,106.894" style="fill:rgb(0,188,207);"/>
                <path d="M440.103,344.219C442.463,340.608 424.298,348.042 422.018,349.933C413.001,357.418 393.776,381.231 407.245,392.565C419.113,402.553 438.208,383.558 442.324,373.873C444.689,368.307 446.711,361.439 446.711,355.354C446.711,348.983 444.734,349.819 444.847,349.819" style="fill:rgb(0,188,207);"/>
                <path d="M369.458,307.445C355.885,298.088 243.31,478.13 240.824,481.327C240.824,481.327 276.092,477.006 295.595,468.834C311.799,462.044 332.874,449.945 346.75,435.04C385.195,393.744 403.033,330.591 369.458,307.445ZM338.069,332.304C339.221,330.016 315.772,361.564 304.428,375.809C292.377,390.942 262.332,441.257 262.332,441.257C262.332,441.257 300.867,436.051 306.518,432.364C328.3,418.148 339.053,405.343 349.609,378.337C352.84,370.071 354.325,361.218 349.954,353.291C346.873,347.702 340.941,329.432 338.069,332.304Z" style="fill:rgb(0,188,207);"/>
            </g>
        </g>
        <path id="outline" d="M65,1923L145,1801L154,1799C165.188,1800.31 156.297,1413.73 152,1384C147.814,1355.03 152.617,1187.7 149,1162C145.383,1136.3 145.66,1042.51 146,1028C146.34,1013.49 147.387,896.62 146,877C144.613,857.38 136.46,771.531 170,651C203.54,530.469 248.049,429.56 298,368C347.951,306.44 429.89,206.138 563,150C696.11,93.862 764.432,86.982 872,84C979.568,81.018 1132,119 1132,119L1116,65L1163,51C1163,51 1233.3,81.739 1245,91C1242.92,44.874 1242,30 1242,30L1287,33C1287,33 1345.71,87.125 1361,116C1377.83,80.837 1386,59 1386,59C1386,59 1401.28,63.661 1426,81C1439.99,113.119 1458.51,161.254 1458,225C1496.42,215.812 1530.7,229.167 1542,266C1553.3,302.833 1523.99,335.593 1521,344C1551.2,367.212 1606.37,433.013 1585,486C1556.74,556.083 1474.69,509.958 1475,514C1483.08,618.476 1455.91,648.999 1372,594C1323.12,683.277 1289.75,699.659 1277,619C1207.66,739.042 1160.48,674.209 1188,530C1150.95,555.719 1125.9,547.08 1108,518C1107.38,494.713 1108.25,468.855 1112,438C1060.53,383.915 990.147,351.191 875,369C774.1,385.544 681.768,444.587 601,561C566.507,616.522 543.203,687.662 553,805C553,805 563.694,983.045 652,1066C740.493,1149.13 927.393,1214.09 1059,1258C1110.23,1275.09 1220,1312 1220,1312C1220,1312 1219.59,1494.47 1216,1528C1212.41,1561.53 1221.72,1651.71 1221,1673C1220.28,1694.29 1222.31,1800.5 1222,1801C1221.69,1801.5 1259,1778 1259,1778C1259,1778 1289.87,1789.26 1309,1808C1312.72,1850.9 1299.25,1894.6 1349,1863C1362.15,1854.64 1381,1852 1381,1852L1392,1857L1386,1896L1289,1970L1268,1976C1268,1976 1235.59,1942.56 1228,1902C1225.23,1929.12 1225.36,1962.72 1215.15,1992.67C1202.49,2029.87 1173.88,2061.45 1104,2068C1002.64,2077.5 801.246,2066.46 729,2075C665.496,2082.51 394.697,2084.87 353,2081C311.303,2077.13 176.434,2108.13 159,1939C101.642,1957.89 62,1970 62,1970L65,1923ZM201,1968C201,1968 206.619,2008.13 220,2023C239.5,2044.67 281.694,2048.11 312,2050C376.167,2054 525.948,2053.24 610,2047C694.052,2040.76 837.503,2049.18 891,2039C944.497,2028.82 980.108,2039.77 1012,2037C1043.89,2034.23 1103.48,2044.21 1133,2033C1162.52,2021.79 1180.97,2006.87 1185,1968C1189.03,1929.13 1185,1920 1185,1920C1185,1920 1133.13,1982.11 1117,1967C1100.87,1951.89 1094,1901 1094,1901C1094,1901 1076.02,1965.93 1017,1969C961.796,1971.87 940.212,1928.18 938,1898C907.721,1915.98 859.404,1962.94 861,1966L820,1969L813,1902L761,1949C761,1949 750.364,1965.84 707,1964C663.636,1962.16 676.687,1885.16 668,1853C663.448,1854.75 646.955,1856.65 641.955,1857.65C653.955,1869.65 671.451,1925.19 625,1961C592.151,1986.33 508.439,1975.1 506,1921L462,1962C462,1962 438.726,2000.52 415,1955C391.274,1909.48 388,1917 388,1917L371,1949C371,1949 337.262,2014.82 311,1948C284.738,1881.18 285,1899 285,1899L264,1948C236.835,1989.59 217.255,1988.21 201,1968ZM556,1894C555.627,1906.71 555.146,1912.79 572,1913C588.854,1913.21 595.77,1906.83 595,1896C594.23,1885.17 586.695,1875.98 578,1876C569.305,1876.02 556.373,1881.29 556,1894ZM1004,1887C1003.86,1892.39 1005.52,1899.52 1014,1900C1022.48,1900.48 1031.98,1895.34 1032,1889C1032.02,1882.66 1025.51,1875.05 1019,1875C1012.49,1874.95 1004.14,1881.61 1004,1887ZM190,1795L232,1793L244,1847L278,1809L331,1809L352,1863L386,1815L443,1827L457,1882L509,1842C509,1842 557.259,1796.1 621,1834C623.447,1809.62 626,1781 626,1781L664,1784L667,1760L678,1745L726,1748L739,1782L780,1792L783,1840L742,1849L743,1899L810,1819L825,1811L807,1809C807,1809 774.176,1743.5 856,1744C937.824,1744.5 896.378,1770.51 889,1782C881.622,1793.49 853,1806 853,1806L887,1808L890,1871L962,1839C962,1839 1031.34,1798.01 1081,1854C1078.41,1831.66 1081,1826 1081,1826L1163,1790L1169,1852L1190,1837C1190,1837 1199.92,1560.01 1188,1518C1176.08,1475.99 1189,1324 1189,1324C1189,1324 907.589,1226.82 857,1201C806.411,1175.18 631.092,1139.46 571,954C510.908,768.539 527.402,762.56 529,721C530.598,679.44 548.948,542.117 652,455C750.18,372.002 839.899,341.458 972,349C1104.1,356.542 1141,420 1141,420C1141,420 1098.73,602.676 1219,466C1213.05,599.995 1191.75,738.939 1290,552C1309.31,661.736 1313.2,640.48 1356,558C1411.58,579.173 1474.29,634.055 1449,472C1618.94,573.027 1568.56,372.588 1469,340C1469,340 1563.37,214.618 1439,265C1433.9,192.071 1422.39,140.842 1399,106C1374.15,153.989 1362,185 1362,185L1320,107C1320,107 1295.16,71.324 1275,78C1282.03,115.321 1282,163 1282,163C1282,163 1204.88,93.498 1165,86C1168.82,126.993 1174,157 1174,157C1174,157 859.225,51.059 670,129C480.775,206.941 463.665,222.546 355,338C246.335,453.454 196.914,615.654 190,657C183.086,698.346 164.731,889.122 168,1003C171.269,1116.88 176.142,1278.78 174,1339C171.858,1399.22 190.409,1542.78 187,1598C183.591,1653.22 190,1795 190,1795Z" style="fill:rgb(26,69,90);"/>
        <g id="Phone">
            <path id="case" d="M608,1091L453,1138L448,1167C549.669,1245.96 658.74,1323.33 785,1397C805.606,1409.44 823.884,1410.17 839,1395L941,1315L946,1283C821.521,1219.64 706.638,1159.23 608,1091Z" style="fill:rgb(55,55,55);"/>
            <path id="glass" d="M626,1134L524,1180C609.869,1244.89 701.194,1304.24 800,1356L890,1286C785.631,1234.75 705.442,1184.36 626,1134Z" style="fill:rgb(66,91,116);"/>
            <clipPath id="_clip4">
                <path id="glass1" serif:id="glass" d="M626,1134L524,1180C609.869,1244.89 701.194,1304.24 800,1356L890,1286C785.631,1234.75 705.442,1184.36 626,1134Z"/>
            </clipPath>
            <g clip-path="url(#_clip4)">
                <path d="M673,1250L798,1230L751,1336L703,1308L717,1276C696.65,1268.61 683.273,1259.66 673,1250Z" style="fill:rgb(116,88,0);"/>
                <path d="M579,1192L606,1191L597,1236L630,1264L665,1148L579,1192Z" style="fill:rgb(116,88,0);"/>
            </g>
        </g>
        <g id="Guy-Inner">
            <path id="bommel" d="M825,523L805,533L804,559L838,560L889,541L902,517L889,500L867,502L849,491L831,494L823,508L825,523Z" style="fill:rgb(184,179,127);"/>
            <path id="muetze" d="M882,539L840,555L832,656C868.573,658.535 906.92,658.278 951,649C951,649 933.973,599.305 921,580C908.027,560.695 882,539 882,539Z" style="fill:rgb(66,162,0);"/>
            <clipPath id="_clip5">
                <path id="muetze1" serif:id="muetze" d="M882,539L840,555L832,656C868.573,658.535 906.92,658.278 951,649C951,649 933.973,599.305 921,580C908.027,560.695 882,539 882,539Z"/>
            </clipPath>
            <g clip-path="url(#_clip5)">
                <path d="M831,656L831,644C873.601,631.297 911.926,625.979 946,628L951,649C913.257,655.088 873.304,655.895 831,656Z" style="fill:rgb(178,40,0);"/>
                <path d="M835,616C871.194,600.773 904.176,597.404 935,602L942,616C910.094,613.96 874.02,617.92 833,629L835,616Z" style="fill:rgb(178,40,0);"/>
                <path d="M837.213,590.181C863.613,578.173 889.769,572.172 915.658,572.769L927,586C899.523,584.7 869.55,589.962 837,602L837.213,590.181Z" style="fill:rgb(178,40,0);"/>
                <path d="M838.908,568.783C857.515,558.757 875.793,552.316 893.738,549.503L907,561C885.133,563.805 862.367,569.939 838,582L838.908,568.783Z" style="fill:rgb(178,40,0);"/>
            </g>
        </g>
        <g id="Ruby-Guy">
            <g>
                <path d="M570.024,803.317C577.613,804.332 624,801 624,801L641,765L659,774L672,835C709.701,842.186 745.56,854.033 779,872C779,872 666.932,745.038 624,713C581.386,681.199 522.692,679.049 433,712C384.237,688.26 374,690 374,690C372.416,659.378 368.383,637.09 359,633L289,626C295.846,603.703 309.174,585.481 338,577C366.487,577.165 395.445,568.997 423,564C439.577,560.994 504,575 504,575L520,630C554.203,627.078 648.077,623.225 716,672C794.093,728.078 832,854 832,854L842,806C833.908,807.196 831.019,804.622 829,799C824.619,795.638 823.379,791.275 825,786L836,773C819.932,754.274 833.021,734.343 865,739L880,705C890.368,702.006 903.65,707.741 916,715C937.242,694.386 972.869,713.983 962,741L972,749C984.63,739.307 1012.67,743.553 1005,765L1060,808L1065,825L986,812L982,829L1008,845C993.153,887.234 980.443,927.311 980,955C1002.33,963.255 1021.99,973.014 1050,977C1067.55,971.928 1088.3,963.258 1114,949L1131,953C1120.04,965.302 1114.28,976.095 1115,985L1166,997L1173,1011L1130,1019L1159,1045L1154,1050L1114,1049L1139,1068L1132,1084L1043,1042L1035,1031L959,1007L859,1144L794,1137C792.267,1172.32 794.427,1204.78 801,1234L682,1254L671,1246L722,1178L707,1080C693.166,1072.01 679.817,1068.53 667,1070C661.849,1099.31 659.662,1127.21 664,1152L590,1194L569,1192L601,1111L593,981C636.347,993.543 699.746,1012.46 727,1013C726.044,1004.22 738.032,977.205 768,928C735.203,908.838 697.7,888.375 652,882L598,894L589,881L603,858L575,857L570,840L595,831L568,818L570.024,803.317C568.668,803.137 568.551,802.816 570.163,802.313L570.024,803.317ZM797,563C802.778,569.334 815.423,567.516 833,565C822.131,621.929 821.475,646.714 823,661C858.372,668.014 904.148,665.58 960,654C950.801,609.402 928.796,571.767 896,540C916.898,508.912 912.567,491.249 868,495C856.104,481.308 841.915,475.943 821,495C813.977,502.336 812.536,510.364 816,519C796.663,520.902 791.022,536.248 797,563ZM874.019,540.861C884.88,538.274 899.918,520.421 888.718,507.098C884.282,501.82 861.193,509.278 861.193,509.278C861.193,509.278 856.472,493.028 837.638,496.519C825.375,498.791 827.649,500.025 825.637,511.278L836.584,529.62C836.584,529.62 805.675,521.009 807.037,552.454C807.451,562.003 847.061,551.531 847.061,551.531C847.061,551.531 831.816,656.797 839.039,652.824C872.814,653.209 906.785,651.152 941.053,645.368C936.049,607.091 890.563,550.11 874.019,540.861ZM868.476,540.539C868.887,539.822 869.581,539.516 870.518,539.583C871.456,539.649 872.636,540.088 874.019,540.861C871.95,541.354 870.032,541.293 868.476,540.539ZM868.476,540.539C867.967,540.293 867.496,539.972 867.072,539.573C866.657,539.182 868.18,541.078 868.454,540.578L868.476,540.539Z" style="fill:rgb(113,49,0);"/>
            </g>
        </g>
        <g id="Face">
            <path id="cape" d="M349,589C372.288,589.786 386.373,616.964 389,677L433,699C433,699 576.626,644.177 645,715C711.091,783.458 731.779,798.423 759,831C783.583,860.42 796.081,871.437 797,895C764.365,873.292 670.307,842.683 672,848L660,871C704.797,883.862 747.354,896.591 782,919L784,929L740,1014L742,1026L798,1057L844,1073L872,1089L883,1088L947,992L957,991L1037,1019L1052,997L1049,989C1049,989 942.36,952.43 915,942C887.567,931.542 833.465,902.203 837,896C837,896 797.892,806.034 783,775C768.446,744.671 735.562,695.755 679,664C623.672,632.937 530,641 530,641L506,636L489,584L427,575L349,589Z" style="fill:url(#_Linear6);"/>
            <clipPath id="_clip7">
                <path id="cape1" serif:id="cape" d="M349,589C372.288,589.786 386.373,616.964 389,677L433,699C433,699 576.626,644.177 645,715C711.091,783.458 731.779,798.423 759,831C783.583,860.42 796.081,871.437 797,895C764.365,873.292 670.307,842.683 672,848L660,871C704.797,883.862 747.354,896.591 782,919L784,929L740,1014L742,1026L798,1057L844,1073L872,1089L883,1088L947,992L957,991L1037,1019L1052,997L1049,989C1049,989 942.36,952.43 915,942C887.567,931.542 833.465,902.203 837,896C837,896 797.892,806.034 783,775C768.446,744.671 735.562,695.755 679,664C623.672,632.937 530,641 530,641L506,636L489,584L427,575L349,589Z"/>
            </clipPath>
            <g clip-path="url(#_clip7)">
                <path d="M951,1001L923,975L907,979C907,979 906.753,1004.24 897,1018C880.665,1041.05 847,1041 847,1041L822,1070L884,1095L951,1001Z" style="fill:rgb(206,18,18);"/>
                <path d="M371,615L384,680L432,706C432,706 475.751,687.215 506,675C548.787,657.722 638.654,653.912 709,674C644.661,627.827 539.412,635.907 511,632L498,581L371,615Z" style="fill:rgb(165,37,0);"/>
            </g>
            <path id="logo" d="M793,954C781.875,966.747 770.035,997.166 803,1021C824.237,1036.36 866.323,1039.19 886,1014C909.271,984.212 891.922,958.067 869,944C831.531,921.006 808.114,936.682 793,954ZM836,939L828,941L795,998L811,1008L823,984C823,984 835.764,987.089 835,1002C834.236,1016.91 835,1020 835,1020L849,1026C852.602,1005.11 854.295,999.556 850,993C850,993 870.342,1004.38 879,985C889.072,962.45 840.998,942.002 836,939ZM838,956L829,970C840.84,975.292 852.652,981.498 862,979C867.613,973.439 857.257,964.799 838,956Z" style="fill:rgb(187,179,150);"/>
            <path d="M922.312,719.414C897.535,736.939 930.725,766.641 949.592,740.296C962.554,722.195 934.84,710.553 922.312,719.414Z" style="fill:rgb(79,134,156);"/>
            <path d="M999.276,760.712C998.649,745.399 967.565,754.555 973.744,769.422C975.205,772.937 979.811,772.837 983.209,773.106C992.801,773.867 999.276,770.634 999.276,760.712Z" style="fill:rgb(79,134,156);"/>
            <path d="M908,724C904.702,720.752 898.802,719.241 891,719C883.583,733.004 879.333,745.084 877,756C877,756 855.683,743.167 847,754C835.845,767.916 850.38,776.931 851,776C840.003,780.794 836.218,785.45 838,790C840.924,794.195 848.064,795.654 860,794L847,844C847,844 823.034,883.825 875,912C925.027,939.124 964,950 964,950C965.618,920.943 977.181,885.944 992,849C992,849 961.966,836.816 940,831C922.119,826.265 891,803 891,803C891,803 929.5,818.5 942,822C949.091,823.985 966,824 966,824L977,795L1041,810L999,776C982.663,790.395 949.479,774.583 967,757L953,748C937.049,774.333 891.52,754.643 908,724Z" style="fill:rgb(209,156,95);"/>
            <clipPath id="_clip8">
                <path d="M908,724C904.702,720.752 898.802,719.241 891,719C883.583,733.004 879.333,745.084 877,756C877,756 855.683,743.167 847,754C835.845,767.916 850.38,776.931 851,776C840.003,780.794 836.218,785.45 838,790C840.924,794.195 848.064,795.654 860,794L847,844C847,844 823.034,883.825 875,912C925.027,939.124 964,950 964,950C965.618,920.943 977.181,885.944 992,849C992,849 961.966,836.816 940,831C922.119,826.265 891,803 891,803C891,803 929.5,818.5 942,822C949.091,823.985 966,824 966,824L977,795L1041,810L999,776C982.663,790.395 949.479,774.583 967,757L953,748C937.049,774.333 891.52,754.643 908,724Z"/>
            </clipPath>
            <g clip-path="url(#_clip8)">
                <path d="M953,748L929.491,817.82L891,803L885,815L925,848L906,931C906,931 829.928,905.662 838,864C846.072,822.338 853,801 853,801C853,801 836.446,803.225 835,791C833.554,778.775 843,775 843,775C843,775 826.147,751.596 849,746C871.853,740.404 874,746 874,746L888,712L916,720C916,720 899.075,740.116 920,751C940.925,761.884 953,748 953,748Z" style="fill:rgb(189,126,54);"/>
            </g>
            <path d="M1064,987L1105,968L1094,993L1144,1003L1106,1014L1133,1037L1093,1036L1118,1064L1053,1035L1048,1024L1064,987Z" style="fill:rgb(209,156,95);"/>
            <path d="M735,1029L610,1000L617,1117L590,1177L624,1163L649,1139C646.616,1112.59 648.515,1083.44 654,1052C683.734,1052.82 727.548,1068.53 784,1086C761.846,1088.27 745.862,1086.6 726,1087L739,1182L691,1241L783,1222C779.452,1191.86 773.362,1163.05 776,1124L852,1130L876,1097C796.504,1061.49 759.999,1045.4 735,1029Z" style="fill:rgb(164,91,0);"/>
            <clipPath id="_clip9">
                <path d="M735,1029L610,1000L617,1117L590,1177L624,1163L649,1139C646.616,1112.59 648.515,1083.44 654,1052C683.734,1052.82 727.548,1068.53 784,1086C761.846,1088.27 745.862,1086.6 726,1087L739,1182L691,1241L783,1222C779.452,1191.86 773.362,1163.05 776,1124L852,1130L876,1097C796.504,1061.49 759.999,1045.4 735,1029Z"/>
            </clipPath>
            <g clip-path="url(#_clip9)">
                <path d="M635,1124L585,1187L658,1148L661,1062L758,1082C758,1082 751.411,1059.75 728,1046C704.589,1032.25 638,1031 638,1031L635,1124Z" style="fill:rgb(193,108,0);"/>
                <path d="M756,1195L696,1246L793,1229L786,1132L857,1137L887,1097L755,1104L756,1195Z" style="fill:rgb(193,108,0);"/>
            </g>
            <path d="M658,839L651,790L645,784L630,818L597,816L626,829L593,843L622,850L606,879L647,868L658,839Z" style="fill:rgb(209,156,95);"/>
        </g>
        <g id="Ruby" transform="matrix(1,0,0,1,20,-7)">
            <g transform="matrix(1,0,0,1,-17,0)">
                <path d="M892,1447C892,1447 870.821,1590.13 929,1614C976.541,1633.51 1011.45,1598.15 1033,1585C1046.67,1659.64 975.83,1675.84 944,1682L943,1730C943,1730 1056.65,1725.88 1072,1648C1087.35,1570.12 1079,1425 1079,1425L1026,1435C1015.86,1449.1 1037.91,1555.47 989,1570C926.397,1588.59 936.484,1542.83 937,1516C937.644,1482.52 941,1443 941,1443L892,1447Z" style="fill:rgb(178,40,0);"/>
                <path d="M956.989,1427.06L955.531,1444.23C955.531,1444.23 952.216,1483.24 951.581,1516.28C951.431,1524.08 950.413,1533.54 950.746,1542.47C950.952,1548.01 951.159,1553.46 954.342,1556.99C956.296,1559.16 959.552,1559.76 964.15,1559.74C969.689,1559.72 976.482,1558.51 984.848,1556.02C992.734,1553.68 997.272,1547.16 1000.48,1539.27C1004.91,1528.37 1006.65,1514.88 1007.48,1501.44C1008.8,1480.25 1007.74,1459.08 1008.72,1445.87C1009.41,1436.6 1011.66,1429.96 1014.16,1426.49L1017.57,1421.75L1092.61,1407.59L1093.56,1424.16C1093.56,1424.16 1101.9,1571.66 1086.31,1650.82C1079.2,1686.89 1054.31,1709.65 1026.48,1723.56C987.627,1742.97 943.528,1744.57 943.528,1744.57L928.098,1745.13L929.665,1669.92L941.23,1667.68C964.262,1663.23 1013,1654.02 1019.38,1611.94C1012.58,1616.53 1005.07,1621.18 996.875,1624.98C976.233,1634.54 951.724,1639.09 923.464,1627.49C902.115,1618.73 888.48,1597.6 881.283,1571.24C866.872,1518.48 877.574,1444.87 877.574,1444.87L879.269,1433.41L956.989,1427.06ZM892,1447C892,1447 870.821,1590.13 929,1614C976.541,1633.51 1011.45,1598.15 1033,1585C1046.67,1659.64 975.83,1675.84 944,1682L943,1730C943,1730 1056.65,1725.88 1072,1648C1087.35,1570.12 1079,1425 1079,1425L1026,1435C1015.86,1449.1 1037.91,1555.47 989,1570C926.397,1588.59 936.484,1542.83 937,1516C937.644,1482.52 941,1443 941,1443L892,1447Z" style="fill:rgb(255,204,204);fill-opacity:0.73;"/>
            </g>
            <path d="M669,1448C667.729,1533.17 665.984,1648.88 679,1693C679,1693 785.761,1737.2 804,1720C847.833,1678.67 833,1641 796,1600C840,1584 845.483,1540.37 837,1508C822.453,1452.5 736.588,1445.43 669,1448ZM712,1609L709,1673C729.669,1678.39 750.113,1682.17 770,1682C805.23,1659.28 767.958,1611.53 712,1609ZM711,1478L713,1578C713,1578 797.918,1597.6 794,1532C790.676,1476.34 711,1478 711,1478Z" style="fill:rgb(178,40,0);"/>
            <path d="M668.446,1433.43C711,1431.81 760.418,1434.17 796.472,1448.63C824.001,1459.66 844.114,1477.62 851.107,1504.3C859.94,1538.01 855.235,1581.54 819.084,1604.82C836.896,1627.82 846.876,1650.35 845.324,1672.72C844.018,1691.57 834.905,1710.9 814.005,1730.61C809.924,1734.46 803.728,1737.33 795.522,1738.22C787.795,1739.06 777.587,1738.22 766.255,1736.08C727.415,1728.76 673.422,1706.47 673.422,1706.47L666.984,1703.81L665.013,1697.13C651.765,1652.22 653.124,1534.47 654.418,1447.78L654.625,1433.95L668.446,1433.43ZM669,1448C667.729,1533.17 665.984,1648.88 679,1693C679,1693 785.761,1737.2 804,1720C847.833,1678.67 833,1641 796,1600C840,1584 845.483,1540.37 837,1508C822.453,1452.5 736.588,1445.43 669,1448ZM711,1478C711,1478 790.676,1476.34 794,1532C797.918,1597.6 713,1578 713,1578L711,1478ZM725.896,1493.48C725.896,1493.48 727.337,1565.53 727.337,1565.53C734.231,1566.26 743.51,1566.66 752.678,1565.2C761.234,1563.84 769.993,1561.06 775.081,1553.69C778.492,1548.75 779.984,1541.94 779.443,1532.87C778.483,1516.8 768.342,1507.61 756.954,1502.06C746.445,1496.93 734.796,1494.57 725.896,1493.48ZM712,1609C767.958,1611.53 805.23,1659.28 770,1682C750.113,1682.17 729.669,1678.39 709,1673L712,1609ZM725.829,1625.44C725.829,1625.44 724.129,1661.7 724.129,1661.7C738.01,1664.86 751.745,1667.05 765.229,1667.38C767.03,1665.75 768.27,1663.98 768.825,1661.99C770.2,1657.09 767.652,1651.91 763.747,1646.96C756.05,1637.21 742.452,1629.03 725.829,1625.44Z" style="fill:rgb(255,204,204);fill-opacity:0.73;"/>
            <path d="M450,1459C446.302,1718.56 483.666,1739.07 539,1733C599.967,1726.31 626.123,1658.73 614,1458L567,1460C569.238,1505.14 565.794,1564.43 565.115,1608.95C564.495,1649.59 555.892,1668.36 538,1670C519.266,1671.72 502.598,1648.06 500.502,1613.82C497.957,1572.24 498.144,1525.06 498,1460L450,1459Z" style="fill:rgb(178,40,0);"/>
            <path d="M512.552,1445.72L512.583,1459.97C512.727,1524.66 512.528,1571.58 515.058,1612.92C515.92,1627.01 519.51,1639 525.08,1647.21C528.41,1652.12 532.061,1655.9 536.669,1655.48C540.479,1655.13 542.821,1652.39 544.723,1648.14C548.615,1639.44 550.263,1626.44 550.534,1608.73C551.208,1564.49 554.658,1505.58 552.435,1460.72L551.707,1446.05L627.693,1442.82L628.557,1457.12C634.763,1559.89 630.842,1628.55 617.895,1672.39C603.029,1722.74 576.431,1743.56 540.591,1747.5C523.939,1749.32 508.688,1748.69 495.174,1742.52C481.29,1736.18 468.728,1724.13 458.961,1701.36C442.764,1663.61 433.522,1591.87 435.418,1458.79L435.627,1444.11L512.552,1445.72ZM450,1459C446.302,1718.56 483.666,1739.07 539,1733C599.967,1726.31 626.123,1658.73 614,1458L567,1460C569.238,1505.14 565.794,1564.43 565.115,1608.95C564.495,1649.59 555.892,1668.36 538,1670C519.266,1671.72 502.598,1648.06 500.502,1613.82C497.957,1572.24 498.144,1525.06 498,1460L450,1459Z" style="fill:rgb(255,204,204);fill-opacity:0.73;"/>
            <path d="M242,1425L246,1724L285,1723L287,1578C319.761,1576.24 346.096,1592.91 358,1651L359,1742L401,1754L401,1643C397.437,1600.45 377.887,1576.54 346,1567C377.72,1568.8 401.257,1555.68 402,1501C401.074,1434.96 322.194,1429.47 242,1425ZM281,1466L284,1539C284,1539 354.18,1557 354,1507C353.82,1457 281,1466 281,1466Z" style="fill:rgb(178,40,0);"/>
            <path d="M229.031,1545.77L227.209,1409.57L242.811,1410.44C284.344,1412.75 325.505,1415.56 356.434,1426.11C392.627,1438.45 416.021,1460.77 416.585,1501L416.582,1501.2C416.138,1533.83 407.769,1553.71 395.901,1565.52C392.967,1568.43 389.784,1570.92 386.375,1573C402.741,1588.2 412.925,1610.64 415.532,1641.78L415.583,1642.39L415.583,1773.33L344.537,1753.04C344.537,1753.04 343.433,1652.58 343.433,1652.58C337.38,1623.9 328.088,1606.86 314.919,1598.53C310.719,1595.87 306.179,1594.21 301.374,1593.31L299.389,1737.22L231.615,1738.96L229.051,1547.24L222.994,1545.43L229.031,1545.77ZM242,1425L246,1724L285,1723L287,1578C319.761,1576.24 346.096,1592.91 358,1651L359,1742L401,1754L401,1643C397.437,1600.45 377.887,1576.54 346,1567C377.72,1568.8 401.257,1555.68 402,1501C401.074,1434.96 322.194,1429.47 242,1425ZM281,1466C281,1466 353.82,1457 354,1507C354.18,1557 284,1539 284,1539L281,1466ZM296.169,1479.96C296.169,1479.96 298.093,1526.76 298.093,1526.76C303.577,1527.47 310.599,1527.94 317.618,1527.24C324.363,1526.57 331.385,1525.12 335.685,1520.07C338.244,1517.07 339.437,1512.78 339.417,1507.05C339.357,1490.52 326.36,1484.64 314.307,1481.99C307.907,1480.59 301.511,1480.08 296.169,1479.96Z" style="fill:rgb(255,204,204);fill-opacity:0.73;"/>
        </g>
        <g id="motion">
            <path d="M162,1821L88,1936L122,1926L168,1878C168,1878 187.691,1925.29 193,1941C200.439,1963.01 224.052,1971.02 243,1946C251.805,1934.37 288,1865 288,1865C288,1865 313.672,1917.6 323,1939C333.365,1962.78 347.137,1958.89 359,1941C369.59,1925.03 390,1889 390,1889C390,1889 416.374,1926.11 426,1945C434.296,1961.28 447.582,1955.05 458,1945C474.092,1929.47 517,1887 517,1887C521.762,1943.89 555.436,1976.58 607,1954C670.805,1926.06 642.308,1834.64 572,1832C535.228,1830.62 474.619,1885.25 451,1907L429,1841L392,1834L351,1887L322,1825L286,1825L241,1880L227,1810L162,1821ZM544,1895C544.115,1909.09 552.873,1923.78 573,1925C593.127,1926.22 606.803,1908.98 606,1891C605.197,1873.03 594.553,1866.34 576,1866C557.447,1865.66 543.885,1880.91 544,1895Z" style="fill:rgb(178,40,0);"/>
            <path d="M958.907,1874.29L959,1874C959.161,1873.99 959.125,1874.09 958.907,1874.29C941.218,1928.66 966.737,1957.09 1013,1956C1053.86,1955.04 1078.49,1930.24 1080,1890C1081.3,1855.54 1047.55,1831.66 1020,1833C985.833,1834.67 950.405,1853.96 875,1900L878,1823L830,1829L747,1916L733,1913L727,1836L770,1831L771,1804L728,1798L719,1762L686,1759L681,1794L640,1796L636,1843L683,1840C683,1840 691.357,1904.48 694,1924C698.031,1953.78 723.373,1960.77 746,1940C762.512,1924.84 822,1876 822,1876C822,1876 828.229,1928.38 834,1940C845.706,1963.57 858.473,1948.47 873,1934C892.741,1914.34 955.005,1877.88 958.907,1874.29ZM992,1886C992.059,1898.46 995.285,1918.69 1017,1918C1038.71,1917.31 1043.58,1904.58 1046,1895C1048.42,1885.42 1040.38,1865.49 1025,1865C1009.62,1864.52 991.941,1873.54 992,1886Z" style="fill:rgb(178,40,0);"/>
            <path d="M821,1768C815.692,1776.02 813.984,1792.83 822,1798C829.5,1802.83 864.667,1793.67 881,1775C884.833,1770.62 890.055,1760.89 885,1758C873.606,1751.49 830.012,1754.38 821,1768Z" style="fill:rgb(178,40,0);"/>
            <path d="M1154,1810L1099,1836C1095.33,1839.32 1107.32,1922.39 1113,1936C1120.62,1954.26 1130.35,1958.25 1153,1935C1178.07,1909.27 1200.37,1886.93 1214,1876C1234.96,1859.2 1239.02,1868.93 1246,1877C1256.67,1889.33 1265.83,1948.33 1278,1950C1290.23,1951.68 1365,1892 1365,1892L1370,1874L1300,1903C1291.35,1908.93 1286.85,1844.06 1286,1823C1285.51,1810.89 1255,1804 1255,1804L1157,1881L1154,1810Z" style="fill:rgb(178,40,0);"/>
            <path d="M172,1833L114,1915L176,1861L207,1939L222,1944L250,1896L228,1905L215,1826L172,1833Z" style="fill:rgb(228,145,0);"/>
            <path d="M299,1838L289,1853L332,1934L343,1940L364,1903L361,1893L344,1906L318,1838L299,1838Z" style="fill:rgb(228,145,0);"/>
            <path d="M399,1850L389,1869L439,1944L467,1918L442,1920L422,1850L399,1850Z" style="fill:rgb(228,145,0);"/>
            <path d="M946,1870C946,1870 973.089,1842.93 1013,1842C1055.91,1841.01 1057.98,1862.2 1065,1879C1077.72,1909.43 1035.13,1952.11 1006,1945C953.961,1932.3 951.421,1899.32 983,1860L946,1870ZM982,1891C980.672,1912.51 996.36,1932.22 1022,1928C1038.67,1925.26 1061.52,1908.56 1053,1881C1047.28,1862.5 1038.9,1856.6 1028,1855C1012.21,1852.68 998.596,1857.74 994,1864C989.404,1870.26 982.898,1876.46 982,1891Z" style="fill:rgb(228,145,0);"/>
            <path d="M653,1808L651,1827L691,1827C697.783,1870.29 691.335,1940.92 731,1936C713.943,1918.47 709.55,1877.1 713,1827L757,1823L757,1810L715,1807L708,1783L697,1773L690,1803L653,1808Z" style="fill:rgb(228,145,0);"/>
            <path d="M847.901,1767.41C848.474,1767.22 846.319,1767.85 845.805,1768.1C844.065,1768.97 842.311,1769.92 840.732,1771.06C837.916,1773.08 823.416,1784.07 827.458,1788.73C829.196,1790.73 834.344,1789.05 836.099,1788.47C843.282,1786.1 850.125,1783.17 856.797,1779.62C857.895,1779.04 864.078,1775.76 864.078,1774.44" style="fill:rgb(228,145,0);"/>
            <path d="M830,1853L839,1839L862,1837C858.08,1865.59 854.862,1893.48 862,1911L882,1908L847,1937C836.811,1919.99 831.952,1890.03 830,1853Z" style="fill:rgb(228,145,0);"/>
            <path d="M1115,1843L1140,1830C1140.55,1865.51 1141.63,1897.41 1147,1901L1179,1888C1163.21,1911.04 1147.27,1928.68 1131,1935C1118.18,1904.95 1114.77,1874.12 1115,1843Z" style="fill:rgb(228,145,0);"/>
            <path d="M1257,1822L1226,1857L1243,1858C1251.48,1867.04 1262.95,1885.72 1283,1932L1315,1915L1290,1917C1280.42,1898.14 1275.9,1866.17 1273,1830C1270.6,1823.76 1266.27,1819.88 1257,1822Z" style="fill:rgb(228,145,0);"/>
            <path d="M507,1879C507,1879 533.087,1843.83 573,1843C620.909,1842.01 627.182,1875.67 627,1894C626.748,1919.44 605.131,1947.11 577,1946C523.476,1943.89 520.421,1890.32 535,1862L507,1879ZM537,1889C536.107,1902.8 537.342,1930.47 574,1931C603.816,1931.43 612.335,1904.66 613,1892C614.018,1872.61 602.507,1857 577,1855C553.168,1853.13 537.985,1873.77 537,1889Z" style="fill:rgb(228,145,0);"/>
        </g>
    </g>
    <defs>
        <linearGradient id="_Linear1" x1="0" y1="0" x2="1" y2="0" gradientUnits="userSpaceOnUse" gradientTransform="matrix(6,1094,-1094,6,766,303)"><stop offset="0" style="stop-color:rgb(0,182,200);stop-opacity:1"/><stop offset="1" style="stop-color:rgb(0,164,181);stop-opacity:1"/></linearGradient>
        <linearGradient id="_Linear3" x1="0" y1="0" x2="1" y2="0" gradientUnits="userSpaceOnUse" gradientTransform="matrix(-13,1322,-1322,-13,583,358)"><stop offset="0" style="stop-color:rgb(16,147,199);stop-opacity:1"/><stop offset="1" style="stop-color:rgb(8,108,149);stop-opacity:1"/></linearGradient>
        <linearGradient id="_Linear6" x1="0" y1="0" x2="1" y2="0" gradientUnits="userSpaceOnUse" gradientTransform="matrix(547,370,-370,547,449,626)"><stop offset="0" style="stop-color:rgb(209,47,0);stop-opacity:1"/><stop offset="1" style="stop-color:rgb(166,37,0);stop-opacity:1"/></linearGradient>
    </defs>
</svg>
