<?xml version="1.0" encoding="UTF-8" standalone="no"?>
<!DOCTYPE svg PUBLIC "-//W3C//DTD SVG 1.1//EN" "http://www.w3.org/Graphics/SVG/1.1/DTD/svg11.dtd">
<svg width="100%" height="100%" viewBox="0 0 1377 1419" version="1.1" xmlns="http://www.w3.org/2000/svg" xmlns:xlink="http://www.w3.org/1999/xlink" xml:space="preserve" xmlns:serif="http://www.serif.com/" style="fill-rule:evenodd;clip-rule:evenodd;stroke-linejoin:round;stroke-miterlimit:2;">
    <g id="Outline">
        <path d="M27,300C67.676,153.774 173.509,51.903 388,24C526.229,31.351 649.574,74.804 752,169C779.311,130.799 809.786,123.407 854,145C885.826,121.998 934.347,110.606 1007,116C1070.03,76.698 1150.48,56.325 1265,73L1220,108C1263.32,129.935 1303.41,154.458 1336,185L1195,193C1230.72,213.963 1266.16,236.64 1301,263L1329,345C1299.81,318.217 1256.78,291.908 1202,266C1211.23,383.614 1210.31,502.124 1160,625C1147.87,657.924 1138.09,690.009 1137,719C1194.66,726.699 1269.45,751.089 1353,784L1356,800C1298.01,808.16 1279.05,828.007 1314,864L1253,883L1274,945L1230,961C1185.04,912.297 1141.61,862.453 1099,812C1068.21,858.952 1034.14,903.173 996,944C1001.1,954.259 1004.43,965.98 1005,980L1044,963C1060.34,955.548 1083.06,966.719 1094,976C1104.23,984.679 1111.91,995.636 1118,1007C1124.17,1018.5 1122.17,1041.17 1113,1051C1104.5,1060.12 1075,1077 1075,1077C1104.31,1083.07 1130.93,1100.18 1123,1145C1120.99,1170.44 1110.2,1186.78 1081,1184L1084,1344L1061,1344L1027,1340L987,1403C944.671,1387.66 909.08,1361.79 876,1332L849,1319C815.479,1347.22 780.921,1372.83 745,1395L736,1393C695.074,1249.86 703.05,1111.95 748,978L700,955L645,1016C669.867,1073.55 681.377,1119.81 668,1145L617,1168C607.333,1170.32 596.99,1166.22 586,1156C555.514,1124.37 528.194,1088.21 503,1049L403,1035C375.143,1029.41 358.471,1012.39 349,988L347,934C354.11,915.051 372.213,904.938 398,901L450,903L450,863L400,878C400.136,854.607 407.989,827.674 424,797L372,808C378.129,757.147 402.358,724.142 466,730L593,720C501.816,696.717 453.591,650.194 414,599C495.753,583.584 576.799,567.737 640,541C520.033,492.516 402.404,430.297 287,355C225.315,298.68 140.831,275.986 24,301L27,300ZM600,802L561,862L578,902L624,877L600,802Z" style="fill:rgb(4,61,92);"/>
    </g>
    <g id="feet-beak" serif:id="feet+beak">
        <path d="M398.224,295.956C453.362,268.992 478.324,219.977 465,143C600.771,173.159 732.556,218.532 852,311L910,236L928,248C880.579,300.543 880.208,399.494 973,429L1016,513C969.949,631.583 866.048,704.769 673,708C551.729,696.782 496.711,654.879 453,606C638.181,675.553 819.068,722.833 963,526C816.863,556.551 695.858,548.503 601.134,500.104C624.14,495.298 648.062,488.977 673,481C619.943,474.772 577.072,465.399 544,453C559.877,447.951 577.247,441.585 596,434C546.687,428.615 509.738,421.507 490,412C512.065,403.136 531.982,392.036 551,380C497.463,387.605 457.645,388.662 434,382C473.479,366.029 499.144,351.227 518,337C477.287,344.529 442.209,346.934 413,344L487,282L398.224,295.956Z" style="fill:rgb(250,179,0);"/>
        <path d="M380,49C418.58,73.116 449.019,102.966 465,143C613.962,177.483 745.37,228.767 852,311L786,230C769.004,221.235 756.832,207.373 750,188C639.166,100.297 519.289,42.524 380,49Z" style="fill:rgb(255,222,113);"/>
        <path d="M682,554L453,606C629.369,676.228 793.416,705.989 918,582L850,601C755.844,657.807 654.173,658.275 546,610C610.867,601.243 671.928,586.404 727,562L682,554Z" style="fill:rgb(255,222,113);"/>
        <path d="M850.431,1222.07C827.111,1236.98 805.105,1238.93 784,1232C762.728,1205.24 765.281,1181.39 785,1159.67L789,1189C816.188,1163.17 847.885,1139.54 890,1121C920.836,1102.86 934.237,1082.86 930,1061L925,985C923.965,967.047 929.678,959.1 938,955C946.322,950.9 962.006,952.91 974.93,960.398C975.93,963.603 976.619,967.134 977,971L981,1016L1023,991C1044.39,978.216 1064.77,977.849 1076,988C1081.84,991.926 1086.86,996.818 1090.98,1002.77L1079,1010C1097.8,1033.25 1041.41,1070.11 1025,1079L954,1124L868,1185L811,1227L850.431,1222.07Z" style="fill:rgb(250,179,0);"/>
        <path d="M785,1159.67L789,1189C816.188,1163.17 847.885,1139.54 890,1121C920.836,1102.86 934.237,1082.86 930,1061L925,985C923.965,967.047 931.972,957.137 941,955C958.322,950.9 974.93,960.398 974.93,960.398C970.478,945.899 959.904,938.049 944,936C916.207,935.559 898.509,945.968 900,977L892,1077C861.222,1098.5 829.515,1121.69 795,1150C791.292,1153.17 787.947,1156.39 785,1159.67Z" style="fill:rgb(255,223,118);"/>
        <path d="M510.402,1029.93L521,1031L586,1124C592.012,1130.82 598.152,1135.71 604.465,1138.12C599.866,1115.51 589.446,1090.83 573,1064L549,1029L509,1028L510.402,1029.93Z" style="fill:rgb(255,222,113);"/>
        <path d="M420.543,1020.79L422,1021L510.402,1029.93L509,1028L549,1029L573,1064C589.446,1090.83 599.866,1115.51 604.465,1138.12C611.506,1140.88 618.758,1140.53 626.257,1136.39C626.26,1126.69 624.178,1118.84 621,1112L594,1049C581.001,1023.43 582.648,1009.23 592,1001L620,974C634.571,964.308 636.813,953.442 633,942C627.439,928.837 611.932,927.651 591,933L548,942C535.957,894.045 522.397,879.352 508,883C495.958,883.581 491.068,891.696 493,907L495,930C495.139,943.124 488.7,947.543 477,945C430.898,941.754 408.425,951.757 406,973C402.108,994.534 407.439,1010.16 420.543,1020.79Z" style="fill:rgb(250,179,0);"/>
        <path d="M624.321,932.679L649.75,907.25L646,903C641.531,896.283 633.447,896.161 621,904C616.454,906.481 611.92,908.836 607.394,911.059L590.813,933.039L591,933C604.981,929.428 616.541,928.77 624.321,932.679Z" style="fill:rgb(255,222,113);"/>
        <path d="M649.75,907.25L624.321,932.679C628.209,934.578 631.153,937.628 633,942C636.813,953.442 634.571,964.308 620,974L592,1001C582.648,1009.23 581.001,1023.43 594,1049L621,1112C624.178,1118.84 626.26,1126.69 626.257,1136.39L627,1136C643.068,1126.1 650.033,1112.55 647,1095C644.94,1081.46 635.17,1052.25 618,1008L651,977C666.065,960.013 669.444,941.021 661,920L649.75,907.25Z" style="fill:rgb(207,135,0);"/>
        <path d="M508,883C508,883 545.375,875.813 545.375,875.813L539,862C518.193,860.848 497.937,863.443 479,875L480,929L413,929C383.402,927.515 366.469,935.897 371,961C374.007,990.863 382.901,1016.4 420.543,1020.79C407.439,1010.16 402.108,994.534 406,973C408.425,951.757 430.898,941.754 477,945C488.7,947.543 495.139,943.124 495,930L493,907C491.068,891.696 495.958,883.581 508,883Z" style="fill:rgb(255,222,113);"/>
        <path d="M545.375,875.813L508,883C522.397,879.352 535.957,894.045 548,942L590.813,933.039L607.394,911.059C594.504,917.414 581.705,922.732 569,927L545.375,875.813Z" style="fill:rgb(207,135,0);"/>
        <path d="M1006,1001C1006,1001 1026.78,1019.51 1042,1009C1054.52,1000.36 1069.46,998.792 1079,1010L1091,1003C1076.33,982.778 1055.9,973.162 1028,988L1006,1001Z" style="fill:rgb(255,223,118);"/>
        <path d="M1090.98,1002.77L1094,1008C1104.58,1024.5 1100.97,1039.04 1086,1052L1040,1082C1040,1082 1059.36,1088.71 1070,1092C1081.26,1095.48 1099.5,1102.86 1102,1116L1102,1134C1099.19,1162.48 1078.81,1169.5 1049,1165L971,1147L855,1219L850.431,1222.07C833.845,1228.18 820.675,1229.86 811,1227L868,1185L954,1124L1027,1077C1027,1077 1060,1055.5 1070,1043C1077.93,1033.09 1087.42,1022.07 1079,1010L1090.98,1002.77Z" style="fill:rgb(207,135,0);"/>
        <path d="M1017,1084C993.828,1085.76 976.859,1096.9 967,1116C981.7,1125.32 1002.97,1134.41 1030,1139C1062.97,1144.6 1074.24,1139.52 1073,1118C1072.16,1105.62 1062.16,1096.95 1043,1092L1017,1084Z" style="fill:rgb(255,223,118);"/>
        <path d="M673,708C823.792,710.823 957.781,663.986 1016,513C915.319,608.091 885.125,675.241 673,708Z" style="fill:rgb(207,135,0);"/>
        <path d="M848,396C844.112,419.086 844.766,439.038 857,451L848,396Z" style="fill:rgb(207,135,0);"/>
        <path d="M865,362C866.803,396.133 870.157,428.027 879,452L891,455C884.12,422.083 875.084,391.479 865,362Z" style="fill:rgb(207,135,0);"/>
        <path d="M886,338L876,338C885.041,370.235 893.983,402.311 907,441L964,461L955,446C913.892,438.283 897.216,392.405 886,338Z" style="fill:rgb(207,135,0);"/>
        <path d="M398.224,295.956L487,282L413,344C442.209,346.934 477.287,344.529 518,337C499.144,351.227 473.479,366.029 434,382C457.645,388.662 497.463,387.605 551,380C531.982,392.036 512.065,403.136 490,412C509.738,421.507 546.687,428.615 596,434C577.247,441.585 559.877,447.951 544,453C577.072,465.399 619.943,474.772 673,481C648.062,488.977 624.14,495.298 601.134,500.104L597,498C479.208,448.408 376.6,389.372 289,321C332.794,318.05 369.583,309.983 398.224,295.956Z" style="fill:rgb(207,135,0);"/>
        <path d="M910,535C896.845,554.14 875.265,578.505 850,601C871.943,595.449 893.65,590.372 917,582C933.838,565.082 951.438,546.362 964,526L910,535Z" style="fill:rgb(207,135,0);"/>
        <path d="M785,229L852,311L910,236L866,207C859.277,227.58 819.673,246.923 785,229Z" style="fill:rgb(207,135,0);"/>
    </g>
    <g id="lights">
        <path d="M94,212C189.146,143.17 303.97,121.341 437,143C434.567,121.23 407.046,90.73 353,51C222.653,71.706 144.575,131.555 94,212Z" style="fill:rgb(0,109,167);"/>
        <path d="M210,285C234.377,292.184 255.996,299.727 272,308C302.328,310.907 323.464,308.03 338,301L210,285Z" style="fill:rgb(0,109,167);"/>
        <path d="M1046,119C1085.74,93.885 1140.85,83.636 1209,86L1120,121L1225,138C1193.04,141.542 1161.9,149.75 1132,165L1046,119Z" style="fill:rgb(0,109,167);"/>
        <path d="M1073,192L1127,201L1165,274C1128.03,242.824 1095.69,214.472 1073,192Z" style="fill:rgb(0,109,167);"/>
        <path d="M1186,761C1213.74,774.22 1239.13,790.841 1260,814L1296,791C1259.33,765.107 1222.67,756.818 1186,761Z" style="fill:rgb(0,109,167);"/>
        <path d="M1188,805L1267,841L1240,861C1218.67,860.151 1202.99,834.138 1188,805Z" style="fill:rgb(0,109,167);"/>
        <path d="M439,747C414.422,753.746 404.18,765.096 405,780C445.015,764.225 498.853,752.916 557,743L439,747Z" style="fill:rgb(0,109,167);"/>
        <path d="M542,769L450,793L426,852L542,769Z" style="fill:rgb(0,109,167);"/>
        <path d="M780,981L825,985C797.218,1021.25 781.581,1062.05 777,1107L855,1070C788.805,1113.23 742.081,1156.31 744,1199C747.978,1244.34 764.257,1276.82 821,1267C859.934,1255.71 908.577,1226.41 974,1166L1038,1183L1054,1289L987,1296L963,1349C929.175,1324.74 889.446,1306.14 843,1294C810.403,1320.39 782.436,1339.21 760,1349C706.204,1190.09 753.309,1091.66 780,981Z" style="fill:rgb(0,109,167);"/>
        <path d="M759,851L864,863C864,863 931.103,835.412 959,813C988.667,789.167 1019.49,754.924 1042,720C1064.67,684.833 1095,602 1095,602C1096.07,657.563 1091.72,715.936 1061,788C1035.34,841.576 1008.15,889.754 977,924C963.858,915.759 947.143,914.182 927,919C902.645,920.86 886.524,933.241 884,963C817.732,961.165 762.832,938.218 714,904L776,910C808.912,911.701 838.77,907.4 864,894C818.148,887.205 783.295,872.769 759,851Z" style="fill:rgb(0,109,167);"/>
    </g>
    <g id="whites">
        <path d="M869.159,189.702C915.356,200.785 951.939,213.081 979.066,226.507C1003.93,224.296 1032.34,228.984 1064,240C1057.52,211.374 1031.45,182.705 989,154C953.84,145.095 914.405,146.856 866,171C867.732,177.571 868.939,183.874 869.159,189.702Z" style="fill:rgb(195,207,210);"/>
        <path d="M801,157C789.122,163.26 774.264,183.08 777,193C782.333,212.333 793.06,224.635 822,218C839.11,214.077 840.464,206.345 844,192C842.804,169.88 830.347,152.399 801,157Z" style="fill:rgb(135,157,163);"/>
        <path d="M807.072,167.166C789.016,168.906 779.149,191.764 796.639,199.241C804.207,202.476 821.824,196.024 822.749,186.464C823.318,180.58 824.711,173.23 819.758,169.323C816.069,166.414 802.991,167.359 807.072,167.166Z" style="fill:rgb(195,207,210);"/>
        <path d="M977.572,409.47C953.707,404.175 933.077,381.639 927,361C914.905,319.922 924.167,291.167 941,271C957.833,250.833 998.667,249.667 1024,254C1049.33,258.333 1082.11,280.49 1091,305C1093.92,313.419 1095.78,321.397 1096.61,328.956C1064.78,312.875 1036.77,304.648 1015.92,311.011C990.794,318.682 976.069,347.557 977.572,409.47Z" style="fill:rgb(195,207,210);"/>
        <path d="M977.572,409.47C976.069,347.557 990.794,318.682 1015.92,311.011C1036.77,304.648 1064.78,312.875 1096.61,328.956C1100.14,360.738 1085.61,385.007 1056,403C1022.82,412.832 997.625,413.961 977.572,409.47Z" style="fill:rgb(135,157,163);"/>
        <path d="M869.159,189.702C868.557,198.028 867.424,202.6 865,209L928,248C936.531,238.657 958.601,228.241 979.066,226.507C951.94,213.085 915.357,200.801 869.159,189.702Z" style="fill:rgb(135,157,163);"/>
        <path d="M1006.71,302.636C1006.71,301.625 1003.25,302.827 1002.56,303.081C998.081,304.725 993.901,307.24 989.665,309.396C976.906,315.892 964.52,325.38 960.744,340.046C957.865,351.226 957.689,364.494 963.496,374.847C970.182,386.769 989.161,392.12 1001.72,392.397C1018.99,392.777 1042.74,387.924 1054.93,374.669C1070.05,358.216 1071.75,326.646 1053.79,312.004C1039.89,300.677 1015.7,298.409 999.057,302.665" style="fill:rgb(4,61,92);"/>
        <path d="M996.607,301.604C978.677,307.05 983.282,329.385 1003,333.985C1010.69,335.78 1022.37,333.335 1024.51,324.365C1025.63,319.659 1027.34,315.169 1025.54,310.841C1022.39,303.286 1006.26,298.672 996.607,301.604Z" style="fill:rgb(195,207,210);"/>
        <path d="M982,361C986.484,397.618 1068.06,375.617 1045,333C1039.76,358.183 1018.02,379.652 982,361Z" style="fill:rgb(0,109,167);"/>
        <path d="M873.43,686.818C889.784,679.802 905.98,670.97 922,660C964.812,628.364 1003.4,582.047 1034,508L1002,432C1036.82,432.103 1068.9,423.785 1094,394C1094.42,460.996 1091.06,521.746 1071,555L1024,670C1012.53,696.16 999.573,719.225 984.923,738.78L979,722L944,759L891,774L959,717L850,754C877.757,733.848 898.42,715.36 910,699C853.267,725.185 799.199,731.358 746,731L834.668,700.276C847.566,696.823 860.388,692.445 873.11,686.956L873.507,686.818L873.43,686.818Z" style="fill:rgb(135,157,163);"/>
        <path d="M834.668,700.276L746,731C799.199,731.358 853.267,725.185 910,699C898.42,715.36 877.757,733.848 850,754L959,717L891,774L944,759L979,722L984.923,738.78C961.043,770.746 932.675,793.389 899,805C841.327,832.316 789.5,819.167 752,803C714.5,786.833 673.803,758.866 674,708C728.201,713.279 782.062,714.438 834.668,700.276Z" style="fill:rgb(195,207,210);"/>
        <path d="M873.11,686.956L873.43,686.818L873.507,686.818L873.11,686.956Z" style="fill:rgb(195,207,210);"/>
        <path d="M727,562C675.002,586.029 618.938,597.332 543,610C618.647,640.455 699.38,659.796 788,630L859,562C817.667,568.608 764.333,567.332 727,562Z" style="fill:rgb(125,5,5);"/>
        <path d="M748.351,565.639C703.898,590.137 663.475,606.536 627,615C704.306,627.654 766.512,627.26 793,596C777.38,599.217 754.248,601.898 723,604C750.919,584.687 783.605,571.162 824,567C799.073,568.931 773.955,569.283 748.351,565.639Z" style="fill:rgb(196,0,0);"/>
    </g>
</svg>
