<?xml version="1.0" encoding="UTF-8" standalone="no"?>
<!DOCTYPE svg PUBLIC "-//W3C//DTD SVG 1.1//EN" "http://www.w3.org/Graphics/SVG/1.1/DTD/svg11.dtd">
<svg width="100%" height="100%" viewBox="0 0 2481 3508" version="1.1" xmlns="http://www.w3.org/2000/svg" xmlns:xlink="http://www.w3.org/1999/xlink" xml:space="preserve" xmlns:serif="http://www.serif.com/" style="fill-rule:evenodd;clip-rule:evenodd;stroke-linejoin:round;stroke-miterlimit:2;">
    <g id="Layer-2" serif:id="Layer 2" transform="matrix(4.16667,0,0,4.16667,0,0)">
        <rect x="0" y="0" width="595.281" height="841.89" style="fill:rgb(135,157,163);"/>
    </g>
    <g id="Layer-1" serif:id="Layer 1" transform="matrix(4.16667,0,0,4.16667,0,0)">
        <g transform="matrix(1,0,0,1,243.428,670.891)">
            <path d="M0,-515.86C1.039,-516.566 3.645,-515.006 4.199,-516.911C4.917,-519.386 1.597,-518.974 0.468,-520.347C0.091,-520.805 -0.822,-520.889 -1.513,-521.013C-3.794,-521.425 -6.449,-521.323 -6.703,-518.683C-6.944,-516.165 -4.188,-516.117 -2.226,-515.871C-1.658,-515.8 -1.074,-515.86 0,-515.86M33.084,-125.558C33.146,-126.021 33.21,-126.483 33.272,-126.945C28.823,-128.585 24.264,-129.417 19.567,-127.212C18.312,-126.622 15.535,-127.69 15.99,-125.295C16.391,-123.192 18.812,-123.174 20.789,-123.503C24.887,-124.186 28.986,-124.872 33.084,-125.558M108.587,-151.357C108.586,-151.424 108.584,-151.49 108.583,-151.558C105.398,-151.379 102.211,-151.23 99.03,-151.006C98.091,-150.94 97.4,-150.316 97.149,-149.42C96.947,-148.703 97.574,-148.358 98.139,-148.3C104.499,-147.65 110.871,-147.483 117.237,-148.152C118.272,-148.261 119.117,-149.22 118.982,-150.294C118.851,-151.336 117.711,-151.332 116.859,-151.344C114.101,-151.379 111.345,-151.357 108.587,-151.357M12.7,-155.33C17.107,-154.877 20.404,-154.402 23.714,-154.242C26.316,-154.116 28.975,-154.201 31.438,-155.242C32.376,-155.64 33.24,-156.475 33.149,-157.537C33.051,-158.693 31.816,-158.339 31.038,-158.587C25.873,-160.232 20.899,-158.291 15.864,-157.717C15.042,-157.622 14.327,-156.596 12.7,-155.33M114.216,-118.943C115.665,-120.225 118.625,-118.743 119.398,-120.991C120.004,-122.747 118.288,-124.306 116.483,-124.686C112.303,-125.565 108.077,-124.932 103.875,-124.607C103.141,-124.549 102.472,-124.134 102.414,-123.249C102.359,-122.406 102.938,-122.094 103.587,-121.66C106.768,-119.541 110.712,-120.584 114.216,-118.943M108.153,-51.495C112.198,-50.953 115.407,-53.467 118.75,-55.317C119.785,-55.888 122.03,-56.631 120.989,-58.759C120.155,-60.462 119.594,-62.22 116.823,-62.321C112.865,-62.467 109.345,-61.552 106.022,-59.712C103.568,-58.353 99.647,-56.919 100.319,-54.15C100.786,-52.229 104.958,-51.287 108.153,-51.495M-25.093,50.06C-25.33,54.059 -24.246,57.104 -24.246,57.104C-22.331,57.808 -14.664,39.324 -16.285,31.557C-16.786,29.156 -16.783,29.02 -18.431,29.225C-21.878,29.652 -26.24,34.452 -26.24,34.452C-26.24,34.452 -25.142,45.913 -25.093,50.06M93.197,75.493C96.132,66.162 99.069,56.832 102.003,47.501C103.023,44.261 99.817,40.366 96.292,40.558C91.735,40.808 87.107,44.732 84.875,49.071C83.87,51.025 81.558,60.657 81.558,60.657L91.552,58.413C91.552,58.413 91.572,71.307 93.197,75.493M-33.365,-194.135C-32.024,-190.536 -32.817,-186.986 -30.914,-184.032C-30.116,-182.794 -29.212,-182.582 -28.086,-182.63C-27.48,-182.656 -26.86,-182.825 -26.563,-183.77C-24.614,-189.96 -23.021,-196.139 -22.833,-202.738C-22.51,-214.093 -18.675,-225.073 -18.884,-236.541C-18.917,-238.385 -18.161,-239.106 -20.815,-238.36C-22.915,-237.772 -24.877,-236.985 -26.782,-236.079C-33.357,-232.953 -39.592,-229.199 -45.523,-224.991C-52.178,-220.271 -59.779,-216.691 -63.765,-208.732C-64.56,-207.143 -66.317,-205.109 -67.043,-203.583C-68.399,-200.733 -68.017,-197.005 -68.096,-193.637C-68.113,-192.928 -66.994,-193.26 -66.276,-193.497C-61.303,-195.136 -56.707,-197.495 -52.546,-200.66C-51.515,-201.444 -47.108,-204.848 -47.108,-204.848C-47.108,-204.848 -48.775,-199.506 -49.051,-198.338C-50.438,-192.48 -49.214,-186.745 -48.09,-181.045C-47.752,-179.33 -46.432,-177.299 -44.707,-177.323C-43.18,-177.344 -42.286,-179.349 -41.38,-180.909C-38.898,-185.185 -37.65,-190.222 -33.365,-194.135M42.476,-596.917C38.822,-602.159 32.887,-604.902 28.873,-609.713C28.621,-610.014 28.127,-610.139 27.725,-610.284C22.877,-612.018 18.096,-613.983 13.158,-615.406C6.235,-617.403 -0.464,-616.681 -7.74,-615.436C-19.023,-613.506 -27.612,-607.723 -34.558,-600.073C-41.823,-592.071 -45.924,-582.008 -45.517,-570.38C-45.272,-563.379 -43.556,-557.037 -40.949,-550.8C-38.188,-544.193 -33.303,-538.959 -28.028,-534.44C-20.716,-528.176 -11.39,-527.053 -2.121,-526.44C-0.188,-526.312 11.776,-526.527 16.002,-527.05C21.71,-527.758 26.618,-530.636 31.927,-532.411C35.557,-533.626 35.492,-538.133 38.646,-539.721C41.443,-541.131 42.692,-544.018 44.774,-546.104C48.548,-549.887 47.918,-555.311 49.974,-559.787C52.979,-566.337 51.962,-573.232 50.448,-580.203M153.146,-229.648C153.162,-229.446 154.78,-228.682 155.558,-226.694L155.483,-226.754C155.648,-226.275 155.814,-225.797 155.979,-225.318C160.664,-220.985 163.734,-215.373 167.729,-210.495C172.915,-204.166 177.834,-197.668 184.582,-192.689C187.409,-190.604 190.251,-189.326 192.881,-190.636C195.367,-191.872 195.02,-195.037 193.834,-197.708C193.41,-198.668 192.684,-199.346 192.265,-200.151C191.233,-202.136 189.412,-203.863 189.409,-206.557C192.424,-204.702 195.231,-203.091 197.912,-201.293C200.287,-199.701 202.716,-198.411 205.623,-198.133C206.915,-198.009 207.937,-198.182 208.439,-199.503C208.89,-200.689 209.018,-201.521 208.104,-202.93C203.909,-209.408 200.089,-216.134 196.18,-222.796C195.294,-224.305 195.711,-225.353 197.603,-225.34C202.179,-225.309 206.768,-225.381 211.329,-225.07C213.751,-224.905 214.54,-226.658 215.867,-227.874C214.277,-229.167 217.749,-231.489 213.939,-233.176C208.231,-235.703 202.366,-237.455 196.487,-239.243C189.433,-241.389 182.324,-243.54 175.083,-244.776C172.757,-245.173 165.774,-245.6 164.156,-245.994C161.915,-248.023 159.277,-248.992 156.265,-249.224C154.251,-249.378 152.165,-249.182 150.247,-250.092C145.976,-252.119 141.419,-252.808 136.75,-253.269C132.479,-253.691 128.454,-251.643 127.703,-247.07C127.059,-243.152 130.513,-240.414 133.75,-239.511C140.927,-237.507 145.963,-231.581 153.096,-229.715L153.146,-229.648ZM152.993,-378.5C150.884,-374.953 150.884,-373.891 150.134,-371.924C150.253,-367.748 147.833,-365.603 145.302,-363.304C144.332,-362.423 143.626,-361.365 142.765,-360.449C136.008,-353.268 128.648,-347.333 117.754,-349.825C117.589,-349.992 117.421,-350.156 117.252,-350.318C112.321,-352.091 107.037,-352.311 102.069,-354.163C88.762,-359.124 78.671,-367.461 72.812,-380.546C70.059,-386.694 68.722,-393.155 68.607,-399.928C68.519,-405.031 68.035,-410.117 70.89,-414.734C72.793,-420.95 89.869,-435.7 99.358,-427.903C106.292,-422.205 114.998,-420.992 119.058,-412.445C121.029,-408.296 123.998,-404.62 126.514,-400.73C128.035,-396.161 129.966,-391.681 130.982,-387.002C132.614,-379.491 133.792,-371.863 129.853,-364.513C129.558,-363.961 128.696,-362.266 130.607,-361.392C131.471,-362.136 132.473,-362.919 133.546,-363.576C137.733,-366.143 140.527,-369.778 142.009,-374.608C144.119,-381.483 143.61,-388.558 143.998,-395.543C144.174,-398.707 144.073,-402.279 141.258,-404.787C142.986,-408.429 140.23,-411.153 139.178,-414.143C135.198,-425.456 129.484,-435.839 121.743,-445.055C119.543,-448.843 116.363,-451.766 113.217,-454.718C111.823,-456.027 108.918,-458.254 108.317,-458.721C105.803,-460.679 102.724,-461.389 99.938,-462.731C90.578,-467.239 80.707,-469.584 70.366,-470.047C62.208,-470.414 54.376,-467.98 46.366,-467.047C33.967,-465.603 22.356,-461.141 10.991,-456.13C8.834,-455.18 7,-453.639 5.704,-451.59C5.628,-451.621 5.551,-451.652 5.474,-451.683C5.525,-451.617 5.576,-451.551 5.626,-451.484C5.861,-452.04 6.063,-437.825 7.528,-431.152C8.07,-428.681 8.822,-428.559 10.943,-429.957C19.791,-435.79 29.043,-440.524 40.144,-440.148C43.439,-440.036 46.239,-438.066 49.491,-438.257C50.778,-438.332 56.91,-428.111 57.5,-429.226C58.581,-431.269 53.736,-444.943 51.899,-445.719C57.781,-438.355 57.867,-429.5 57.386,-420.901C56.988,-413.785 55.971,-406.557 53.231,-399.789C52.135,-396.239 45.728,-382.825 41.497,-381.845C40.688,-379.03 37.871,-378.07 36.107,-376.131C30.67,-370.152 23.844,-365.89 16.574,-362.614C10.07,-359.683 3.618,-356.615 -3.354,-354.622C-8.94,-353.025 -17.266,-353.889 -23.317,-354.671C-31.252,-355.696 -38.825,-359.485 -43.712,-369.561C-38.653,-364.761 -33.331,-361.866 -29.156,-361.881C-28.827,-364.973 -28.206,-369.175 -27.849,-372.658C-27.227,-378.736 -26.086,-385.011 -23.118,-390.077C-18.912,-397.252 -15.642,-403.629 -10.725,-410.638C-6.975,-415.983 -1.737,-420.359 -1.737,-420.359L-2.513,-447.568C-2.513,-447.568 -3.817,-445.554 -8.639,-441.711C-12.37,-438.738 -14.622,-436.665 -17.762,-433.335C-26.108,-424.479 -35.934,-416.68 -39.411,-404.195C-39.965,-404.194 -40.479,-404.318 -40.893,-403.668C-46.402,-395.022 -49.048,-385.219 -50.358,-375.369C-51.651,-365.642 -48.858,-355.816 -47.694,-346.094C-46.907,-339.526 -43.606,-333.22 -41.155,-326.904C-39.516,-322.681 -38.436,-316.833 -35.224,-314.987C-31.295,-312.729 -29.348,-309.25 -26.351,-306.559C-23.249,-303.775 -19.612,-302.764 -17.751,-305.24C-11.159,-314.019 -4.743,-322.935 2.009,-331.59C8,-339.271 13.974,-346.977 20.95,-353.853C25.481,-358.32 31.17,-359.578 36.943,-361.456C44.73,-363.988 51.931,-363.787 58.548,-359.518C61.388,-357.686 61.919,-355.89 63.239,-353.926C64.856,-351.52 66.425,-349.226 67.559,-347.222C69.076,-344.539 71.483,-341.772 72.077,-339.697C75.057,-333.901 75.986,-330.188 79.105,-324.426C84.32,-314.792 90.316,-305.57 94.153,-295.177C94.905,-293.141 97.349,-289.596 97.349,-289.596C97.349,-289.596 119.016,-288.792 128.384,-291.888C134.245,-293.825 140.7,-294.8 145.818,-297.946C153.269,-302.528 156.452,-310.665 158.334,-319.003C160.887,-330.301 160.607,-341.8 160.229,-353.286C160.157,-355.469 159.365,-357.614 159.215,-359.646M52.067,-353.228C51.113,-356.269 43.407,-356.888 40.285,-357.483C39.786,-357.279 28.118,-355.559 22.385,-346.914C20.202,-343.624 17.485,-340.657 15.06,-337.5C8.741,-329.276 1.799,-321.533 -4.587,-313.358C-14.285,-300.942 -22.165,-287.325 -30.032,-273.717C-31.163,-272.527 -34.602,-265.672 -34.602,-265.672C-34.602,-265.672 -22.534,-272.023 -19.893,-275.281C-12.489,-284.421 -2.624,-290.903 6.088,-298.638C11.285,-303.251 17.367,-306.682 22.599,-311.173C28.937,-316.615 34.542,-322.849 41.948,-327.082C46.157,-329.488 49.826,-333.176 52.873,-336.719C57.123,-341.66 52.067,-353.228 52.067,-353.228M-8.004,-4.445C-16.136,0.265 -34.439,4.961 -34.439,4.961C-35.307,4.87 -55.248,7.929 -63.197,13.446C-68.898,17.404 -78,21.302 -80.74,28.557C-76.955,27.745 -74.157,27.293 -72.737,26.788C-68.313,25.216 -53.925,20.001 -50.296,20.459C-53.998,26.947 -57.308,33.613 -59.566,40.761C-60.159,42.636 -61.732,46.315 -61.454,47.381C-56.918,43.467 -50.115,37.606 -49.118,36.549C-44.882,32.056 -40.161,29.78 -35.238,26.383C-24.919,19.261 -13.335,14.182 -3.164,6.699C2.839,2.283 3.243,1.994 -2.029,-3.155C-3.847,-4.932 -5.366,-5.975 -8.004,-4.445ZM52.057,31.447C51.972,31.402 46.239,35.33 45.463,35.934C42.201,38.48 38.72,40.774 35.648,43.528C32.542,46.312 28.22,48.375 28.151,53.942C32.391,52.799 35.725,50.599 38.814,48.055C41.111,46.162 43.641,44.854 46.414,43.853C47.397,43.5 50.726,40.468 51.427,41.069C52.152,41.69 49.465,45.651 49.01,46.333C47.227,49 46.789,52.169 45.814,55.097C43.723,61.387 44.337,68.533 39.76,74.062C39.42,74.473 39.346,75.391 40.054,75.473C40.602,75.535 41.072,75.983 42.032,75.168C47.96,70.136 53.26,64.525 58.386,58.722C64.499,50.808 71.63,43.686 78.555,36.637C87.306,27.727 94.319,17.509 102.792,8.48C104.071,7.117 105.238,5.647 106.541,4.308C107.361,3.465 107.959,2.22 106.886,1.742C102.333,-0.286 99.228,-4.458 94.604,-6.317C95.172,-7.422 85.987,-6.619 83.085,-2.371C80.438,1.508 76.688,4.227 73.851,7.969C69.097,14.237 63.717,20.181 58.641,26.302M58.447,-309.352C56.471,-314.013 48.228,-322.883 48.228,-322.883C48.228,-322.883 24.11,-306.645 15.349,-296.923C13.734,-295.13 14.148,-294.595 16.204,-293.653C19.453,-292.164 32.829,-290.383 35.946,-290.073C43.742,-289.298 53.356,-288.437 58.451,-287.824C64.53,-287.093 80.399,-287.584 80.399,-287.584C80.399,-287.584 77.656,-290.411 75.847,-292.599C70.683,-298.846 64.15,-303.667 58.447,-309.352M-6.871,-235.582C-8.371,-228.697 -7.241,-221.73 -7.476,-214.802C-7.557,-212.408 -0.701,-200.426 4.194,-200.322C12.727,-200.14 20.912,-196.846 29.257,-195.041C40.792,-192.546 52.576,-191.284 64.213,-192.292C70.622,-192.847 77.04,-193.176 83.455,-193.616C87.175,-193.871 90.716,-195.481 94.562,-195.086C104.842,-194.03 112.829,-198.614 119.47,-205.834C121.552,-208.098 123.91,-210.143 125.098,-213.389C128.392,-222.387 126.121,-230.683 122.512,-238.768C119.509,-245.495 122.277,-251.402 124.302,-257.469C124.588,-258.33 125.475,-258.988 127,-259.055C133.664,-259.341 133.94,-259.781 133.954,-266.238C133.965,-271.342 133.747,-276.454 133.983,-281.547C134.168,-285.561 132.546,-286.572 129.01,-285.373C123.977,-283.668 118.529,-283.847 113.548,-284.007C110.198,-284.116 101.861,-283.217 101.861,-283.217C101.861,-283.217 103.595,-279.979 105.051,-274.852C105.27,-274.081 105.622,-268.97 105.622,-268.97C105.622,-268.97 101.409,-270.526 100.791,-271.824C99.192,-275.186 88.834,-282.604 88.834,-282.604C88.834,-282.604 85.241,-282.314 80.942,-282.548C73.525,-282.952 66.077,-282.81 58.641,-282.897C42.69,-284.433 28.856,-286.834 10.721,-286.814C4.525,-286.807 -2.186,-282.699 -2.707,-279.187C-3.732,-272.281 -5.454,-263.125 -5.965,-256.224C-6.476,-249.336 -6.663,-242.467 -6.871,-235.582M20.012,-17.644C16.526,-17.318 12.283,-15.603 10.127,-14.31C7.954,-13.008 8.153,-11.279 6.975,-9.828C6.103,-8.755 8.108,-8.312 9.012,-7.684C10.77,-6.463 12.741,-6.271 14.76,-5.934C22.658,-4.617 28.946,-8.939 35.633,-11.788C37.692,-12.666 37.727,-14.822 37.396,-16.75C37.027,-18.908 35.527,-19.922 33.4,-20.064C28.736,-20.375 24.206,-19.939 20.012,-17.644M-6.142,-512.13C-10.759,-509.24 -13.14,-503.057 -19.971,-503.268C-21.986,-503.329 -20.518,-501.461 -19.911,-500.771C-17.187,-497.674 -14.284,-494.763 -10.415,-496.169C-6.514,-493.95 -2.3,-494.822 0.367,-497.105C3.511,-499.796 8.72,-496.19 12.929,-495.987C14.922,-495.89 15.229,-497.577 15.196,-499.056C15.152,-501.044 13.697,-500.36 12.632,-500.111C10.433,-499.596 2.064,-501.133 2.064,-501.133C2.064,-501.133 5.521,-504.481 5.272,-505.135C3.99,-508.5 -2.206,-512.347 -6.142,-512.13M118.417,-17.984C116.415,-18.535 113.431,-18.405 110.033,-17.987C106.195,-17.735 100.047,-17.611 98.517,-16.608C99.814,-13.63 116.866,-1.528 124.278,-7.505C125.92,-8.829 127.189,-9.456 128.156,-11.497C130.055,-15.506 122.647,-18.219 118.417,-17.984M84.554,66.492C79.601,68.835 75.073,70.975 70.544,73.117C70.283,73.241 53.369,83.19 46.114,89.474C41.663,93.329 37.164,97.235 32.213,100.373C27.911,103.1 28.481,102.704 23.022,104.562C24.426,93.186 25.361,88.528 29.88,78.153C31.809,73.723 36.294,62.425 36.294,62.425C36.294,62.425 34.088,63.927 32.809,64.277C28.583,65.435 25.247,68.248 21.537,70.358C16.993,72.943 8.02,78.311 8.02,78.311L5.466,75.932C5.466,75.932 14.148,56.921 19.28,47.863C22.514,42.157 28.727,38.89 33.618,34.562C40.989,28.04 49.225,22.61 57.201,16.848C62.883,12.744 66.51,6.504 71.017,1.178C75.321,-3.906 78.207,-10.14 83.638,-14.301C86.362,-16.387 85.456,-19.023 84.308,-21.394C80.268,-29.744 80.001,-38.124 84.28,-46.357C86.145,-49.945 86.474,-52.361 83.414,-55.832C79.737,-60.004 76.562,-65.361 76.812,-71.074C77.095,-77.536 79.072,-84.001 84.105,-88.673C86.888,-91.255 87.56,-93.093 85.416,-96.754C82.824,-101.179 82.176,-106.86 83.744,-111.604C85.846,-117.968 82.546,-122.475 80.259,-127.36C78.043,-132.098 76.443,-136.85 76.347,-142.095C76.296,-144.818 75.803,-146.407 72.185,-147.136C69.609,-147.654 67.458,-151.535 67.562,-155.022C67.775,-162.13 70.328,-168.434 74.957,-173.847C76.347,-175.471 77.901,-176.957 79.878,-179.027C74.724,-180.441 69.919,-179.064 65.3,-179.779C59.478,-180.68 53.627,-181.218 47.804,-182.378C41.285,-183.676 34.615,-185.044 27.571,-183.52C21.126,-182.126 14.346,-182.646 8.045,-179.769C2.639,-177.301 -1.76,-170.257 -1.01,-164.322C-0.619,-161.233 1.363,-161.381 3.446,-161.781C8.394,-162.734 13.062,-164.931 18.202,-165.07C25.555,-165.27 32.853,-166.226 40.114,-163.424C44.831,-161.603 45.513,-157.758 45.272,-154.234C45.107,-151.837 42.52,-149.403 39.667,-148.152C36.136,-146.605 32.586,-145.978 28.694,-146.101C20.015,-146.376 11.26,-145.447 2.913,-148.962C0.832,-149.839 -7.27,-145.11 -8.021,-142.97C-9.102,-139.897 -6.482,-134.503 -2.999,-132.153C2.003,-128.777 6.787,-131.051 11.368,-132.845C20.818,-136.548 30.573,-136.184 40.351,-135.566C43.126,-135.39 45.183,-129.463 43.99,-126.036C42.22,-120.956 35.506,-116.134 29.962,-116.108C23.613,-116.079 17.228,-115.632 11.002,-117.441C9.391,-117.908 8.143,-116.807 6.987,-116.096C4.356,-114.48 1.907,-105.153 3.042,-101.959C4.544,-97.727 8.666,-95.11 13.501,-95.055C21.58,-94.961 29.655,-96.325 37.733,-95.127C39.019,-94.937 40.845,-95.939 41.273,-93.674C41.68,-91.522 39.58,-91.253 38.545,-90.854C33.95,-89.075 29.229,-87.612 24.343,-86.77C17.529,-85.593 10.488,-85.22 4.431,-81.293C-0.641,-78.007 -5.138,-74.175 -7.238,-68.256C-8.32,-65.209 -8.298,-62.046 -6.026,-59.61C-3.571,-56.978 -0.126,-56.669 3.037,-57.904C6.647,-59.314 10.207,-61.061 13.438,-63.191C21,-68.174 28.942,-65.856 36.823,-64.85C38.903,-64.584 39.497,-62.859 39.414,-60.897C39.311,-58.46 39.713,-55.987 36.71,-54.624C31.21,-52.127 25.298,-51.281 19.523,-49.855C15.145,-48.773 10.727,-47.742 6.491,-46.228C3.078,-45.008 3.312,-41.256 2.657,-38.498C1.299,-32.768 1.414,-26.934 2.714,-21.111C3.628,-17.027 5.211,-15.803 8.933,-18.006C15.427,-21.852 22.497,-23.598 29.775,-24.64C34.262,-25.282 38.696,-23.894 43.016,-22.831C45.214,-22.291 44.71,-19.356 45.63,-17.592C49.807,-9.591 46.007,1.135 38.383,6.058C28.037,12.74 17.823,19.681 9.148,28.586C7.648,30.125 5.858,31.39 4.161,32.727C2.71,33.87 -1.563,42.836 -2.942,46.11C-6.028,53.436 -8.28,61.409 -13.278,67.623C-17.558,72.943 -24.871,84.511 -24.871,84.511L-30.675,83.538C-30.675,83.538 -32.125,77.129 -32.82,69.762C-33.343,64.216 -31.38,42.568 -31.38,42.568C-31.38,42.568 -33.749,44.042 -34.63,44.844C-41.562,51.158 -45.018,53.135 -51.56,56.975C-57.938,60.719 -76.407,69.478 -76.407,69.478C-76.407,69.478 -75.865,61.153 -74.561,56.104C-72.688,48.852 -64.75,33.09 -64.75,33.09C-64.75,33.09 -69.339,34.649 -71.124,35.103C-79.027,37.112 -86.927,39.142 -94.861,41.029C-96.822,41.496 -98.149,41.691 -97.541,38.32C-95.88,29.111 -89.491,23.881 -82.427,19.42C-76.945,15.959 -71.714,12.116 -65.891,9.091C-56.644,4.287 -47.008,1.072 -36.787,-0.48C-27.161,-1.942 -17.781,-3.841 -10.083,-10.491C-7.833,-12.436 -6.927,-13.946 -7.55,-17.381C-8.448,-22.321 -8.77,-27.501 -6.771,-32.708C-5.563,-35.857 -5.899,-39.66 -4.678,-43.103C-3.914,-45.259 -4.731,-47.116 -7.697,-47.83C-12.351,-48.952 -15.946,-54.485 -15.854,-59.411C-15.709,-67.152 -14.951,-74.638 -9.792,-81.08C-8.203,-83.065 -6.612,-84.738 -4.441,-85.965C-2.064,-87.309 -0.957,-88.344 -3.039,-91.539C-8.31,-99.622 -9.614,-108.459 -5.121,-117.496C-4.087,-119.576 -4.019,-120.516 -6.536,-121.757C-14.106,-125.488 -17.005,-132.612 -18.087,-140.373C-18.886,-146.105 -15.608,-150.729 -11.888,-154.667C-9.667,-157.019 -8.944,-159.174 -10.251,-162.065C-13.559,-169.373 -7.585,-180.717 -1.646,-184.425C1.734,-186.535 4.941,-189.062 8.916,-190.584C1.769,-192.059 -4.452,-195.47 -10.745,-198.753C-12.908,-199.881 -17.024,-196.092 -17.427,-192.319C-18.01,-186.869 -18.883,-181.504 -20.151,-176.168C-21.077,-172.272 -24.123,-170.875 -27.399,-173.254C-29.024,-174.434 -34.342,-179.556 -34.342,-179.556C-34.342,-179.556 -35.822,-177.799 -37.593,-175.243C-38.495,-173.942 -40.458,-172.624 -41.228,-171.225C-42.685,-168.574 -44.943,-167.144 -47.985,-167.349C-51.213,-167.566 -53.824,-168.896 -55.291,-172.003C-57.449,-176.575 -56.526,-181.466 -56.861,-186.229C-56.947,-187.444 -56.509,-190.612 -56.509,-190.612C-56.509,-190.612 -63.402,-184.745 -64.731,-183.396C-69.428,-178.625 -71.535,-178.37 -77.174,-181.953C-79.323,-183.318 -80.463,-184.764 -80.026,-187.933C-79.328,-193.009 -79.036,-198.14 -77.938,-203.189C-76.479,-209.893 -72,-214.673 -67.625,-219.406C-58.472,-229.312 -45.308,-233.066 -34.488,-240.452C-30.896,-242.904 -27.064,-245.04 -22.948,-246.442C-19.336,-247.671 -18.056,-250.086 -18.13,-253.616C-18.153,-254.636 -18.435,-255.733 -18.062,-256.679C-15.701,-262.663 -20.067,-262.385 -24.273,-260.808C-30.643,-258.42 -51.029,-250.96 -50.858,-251.426C-48.434,-258.013 -47.706,-259.915 -44.379,-265.608C-40.302,-272.587 -37.455,-278.463 -32.413,-284.748C-30.68,-286.907 -29.508,-289.658 -27.868,-292.038C-26.545,-293.96 -27.075,-295.778 -29.163,-297.258C-41.204,-305.789 -46.724,-318.41 -52.047,-331.651C-55.222,-339.546 -54.933,-347.911 -57.981,-355.686C-59.271,-358.975 -58.846,-363.085 -57.616,-366.823C-56.229,-371.038 -56.698,-375.527 -55.643,-379.943C-52.835,-391.702 -47.996,-402.372 -41.702,-412.545C-37.118,-419.954 -33.322,-428.052 -26.801,-433.922C-19.916,-440.121 -2.457,-455.564 -2.457,-455.564C-2.457,-455.564 -2.881,-478.451 -2.656,-486.763C-2.608,-488.532 -3.272,-489.338 -5.132,-489.588C-8.033,-489.979 -10.84,-490.15 -13.797,-489.743C-22.162,-488.59 -28.505,-495.568 -27.086,-504.002C-26.846,-505.433 -26.263,-506.36 -24.915,-506.99C-22.559,-508.093 -20.203,-509.238 -17.99,-510.597C-14.318,-512.853 -14.391,-516.15 -17.418,-518.804C-22.399,-523.172 -29.137,-525.191 -33.413,-530.234C-38.989,-536.81 -46.118,-542.728 -48.807,-550.959C-52.206,-561.366 -54.556,-572.445 -51.376,-583.466C-48.5,-593.439 -42.722,-601.673 -35.165,-608.954C-29.989,-613.94 -23.757,-616.778 -17.631,-619.851C-14.833,-621.254 -11.159,-621.448 -7.922,-621.299C-4.115,-621.125 -0.304,-624.05 3.455,-621.297C8.968,-624.262 14.402,-621.327 19.6,-620.449C27.521,-619.111 34.88,-615.908 40.999,-609.973C45.968,-605.151 51.797,-601.254 54.43,-594.446C57.513,-586.475 61.619,-578.725 60.937,-569.828C59.909,-556.386 55.095,-544.235 46.957,-533.589C45.099,-531.157 41.433,-530.101 38.582,-528.439C34.109,-525.829 29.589,-523.344 25.4,-520.22C23.35,-518.691 20.376,-518.138 17.732,-517.748C15.6,-517.434 13.904,-516.388 12.071,-515.581C9.853,-514.605 9.426,-512.558 9.931,-510.409C10.393,-508.44 11.596,-507.101 13.813,-506.899C16.589,-506.647 19.632,-507.404 21.083,-503.596C22.58,-499.667 19.521,-496.598 19.718,-492.993C19.727,-492.816 14.915,-491.456 12.863,-491.336C4.017,-490.816 3.833,-490.693 4.501,-481.744C4.873,-476.78 5.564,-460.649 5.564,-460.649C5.564,-460.649 25.557,-471.234 33.926,-472.709C42.449,-474.21 50.849,-476.942 59.343,-477.76C69.27,-478.718 79.665,-478.532 89.397,-476.566C96.433,-475.143 103.742,-472.406 109.804,-467.417C114.541,-463.52 119.021,-459.158 123.991,-455.807C127.023,-453.761 127.396,-450.484 130.169,-448.601C132.842,-446.786 134.887,-443.879 136.823,-441.175C140.306,-436.308 143.396,-431.161 146.845,-426.269C150.818,-420.632 152.812,-414.152 154.974,-407.767C157.2,-401.193 159.208,-394.535 160.996,-387.83C162.772,-381.165 163.726,-374.257 165.819,-367.705C168.304,-359.923 168.22,-351.783 168.261,-344.019C168.35,-327.39 166.291,-311.845 157.546,-299.373C153.107,-293.042 147.908,-288.641 143.357,-283.185C141.201,-280.599 142.522,-275.054 142.409,-270.847C142.353,-268.817 142.79,-266.769 142.703,-264.742C142.597,-262.267 143.84,-260.823 145.94,-260.151C152.443,-258.064 158.42,-254.713 164.719,-252.28C170.485,-250.053 176.971,-249.553 183.193,-248.674C187.709,-248.036 192.155,-247.151 196.507,-245.966C201.601,-244.579 206.565,-242.781 211.357,-240.485C216.639,-237.952 221.999,-235.161 221.794,-227.556C221.663,-222.685 219.135,-219.325 214.197,-219.496C212.892,-219.541 211.439,-219.864 210.318,-219.409C208.989,-218.868 207.192,-217.979 208.891,-215.87C213.441,-210.229 213.687,-202.994 215.837,-196.478C216.539,-194.353 214.81,-192.297 212.645,-191.982C210.243,-191.631 208.178,-190.162 205.471,-190.585C202.885,-190.99 201.548,-188.665 200.405,-186.527C197.589,-181.266 195.647,-180.758 189.81,-181.252C179.662,-182.111 175.336,-190.381 169.295,-196.496C164.907,-200.94 160.867,-205.686 157.294,-210.832C154.944,-214.219 152.321,-217.415 149.917,-220.767C148.415,-222.862 146.597,-224.118 143.983,-223.338C141.437,-222.578 141.201,-220.421 140.889,-218.131C140.366,-214.273 139.477,-210.517 136.436,-207.611C135.326,-206.551 134.38,-205.039 133.992,-203.567C133.441,-201.483 132.36,-200.866 130.336,-200.629C126.91,-200.227 124.193,-197.925 121.726,-195.893C117.92,-192.759 112.358,-191.331 110.906,-185.664C110.828,-185.356 110.266,-185.015 109.891,-184.961C99.317,-183.446 93.527,-174.907 86.025,-168.851C82.658,-166.132 82.59,-162.21 81.931,-158.651C81.253,-154.987 85.117,-153.22 89.521,-155.191C96.343,-158.241 103.468,-159.615 110.883,-160.058C116.856,-160.415 122.308,-158.637 126.372,-154.742C128.676,-152.532 128.931,-148.259 128.255,-144.692C127.722,-141.88 125.738,-141.217 122.915,-140.756C116.708,-139.745 110.408,-141.177 104.248,-139.524C101.351,-138.747 98.508,-140.252 95.729,-141.004C92.645,-141.839 89.481,-142.162 87.269,-139.861C85.478,-137.998 86.57,-135.402 88.081,-133.452C90.367,-130.504 93.285,-128.789 97.141,-129.832C103.04,-131.428 108.956,-132.61 115.122,-131.897C119.352,-131.407 123.392,-130.484 126.87,-127.833C129.657,-125.708 131.408,-122.87 130.15,-119.537C128.857,-116.112 127.29,-112.822 122.255,-112.793C116.462,-112.76 110.688,-111.61 104.866,-112.8C103.448,-113.09 102.1,-113.275 100.722,-113.909C96.513,-115.848 93.559,-114.328 92.698,-109.865C92.342,-108.023 92.237,-106.075 92.382,-104.203C92.675,-100.402 96.647,-98.397 100.454,-100.034C108.56,-103.522 116.81,-104.753 125.413,-101.943C128.477,-100.943 131.947,-96.536 132.001,-92.934C132.049,-89.745 129.317,-88.889 127.22,-87.333C123.224,-84.368 118.77,-84.902 114.652,-85.842C109.347,-87.051 103.931,-86.117 98.641,-87.535C96.407,-88.135 94.476,-85.731 93.639,-83.514C92.703,-81.035 91.328,-78.82 90.188,-76.47C88.258,-72.49 89.696,-68.401 91.076,-64.752C91.952,-62.435 94.706,-63.624 96.464,-64.684C100.485,-67.108 104.642,-69.025 109.305,-69.958C112.637,-70.625 115.905,-70.894 119.282,-70.614C126.621,-70.01 128.036,-66.243 130.766,-58.846C132.516,-54.104 130.435,-50.001 124.496,-47.326C118.687,-44.71 112.794,-41.44 105.991,-42.318C102.65,-42.749 98.967,-42.088 96.236,-44.939C95.05,-46.177 94.324,-46.017 93.329,-44.385C89.391,-37.927 90.175,-28.792 95.177,-22.962C96.46,-21.468 97.917,-21.282 99.46,-21.508C103.298,-22.069 107.195,-22.234 111.034,-22.781C116.007,-23.491 121.345,-21.89 126.481,-21.016C127.418,-20.857 128.298,-20.662 129.291,-20.594C135.516,-20.167 137.5,-18.348 139.514,-12.071C140.791,-8.095 142.248,-4.176 143.693,-0.255C144.266,1.302 144.828,2.848 143.546,4.241C137.027,11.338 133.068,20.259 127.092,27.66C119.225,37.404 116.229,49.015 112.465,60.451C110.433,66.627 107.673,72.561 105.589,78.723C104.176,82.898 102.393,91.582 102.393,91.582C102.393,91.582 87.327,106.004 87.122,104.821C85.817,97.302 84.474,86.585 84.772,78.973C84.93,74.911 85.26,70.844 84.554,66.492" style="fill:rgb(65,77,83);"/>
        </g>
        <g transform="matrix(1,0,0,1,395.688,270.854)">
            <path d="M0,26.646C-0.521,29.714 -1.338,32.892 -2.71,35.643C-5.919,42.083 -10.996,47.237 -17.161,50.602C-22.307,53.41 -27.762,55.723 -34.362,55.333C-39.169,55.048 -56.677,52.707 -60.484,51.483C-63.595,50.484 -66.637,50.671 -69.897,50.472C-66.257,54.115 -61.929,59.192 -58.71,64.076C-62.499,63.687 -68.532,60.712 -74.616,58.511C-76.747,57.74 -82.744,55.853 -82.744,55.853C-82.744,55.853 -91.361,41.746 -93.961,40.394C-100.948,36.762 -107.779,35.923 -115.566,38.456C-121.339,40.334 -127.028,41.591 -131.559,46.059C-138.535,52.935 -144.509,60.641 -150.5,68.322C-157.252,76.977 -172.901,97.791 -172.901,97.791C-172.901,97.791 -175.758,96.137 -178.86,93.353C-181.857,90.662 -183.805,87.183 -187.733,84.925C-190.945,83.079 -192.025,77.231 -193.665,73.007C-196.115,66.691 -199.417,60.386 -200.204,53.818C-201.368,44.096 -204.16,34.27 -202.868,24.543C-201.558,14.692 -198.911,4.89 -193.402,-3.756C-192.988,-4.406 -189.115,-11.243 -188.561,-11.244C-190.753,-5.801 -196.412,6.646 -196.854,12.53C-198.768,37.991 -186.242,43.042 -175.576,45.366C-168.902,46.82 -161.45,46.887 -155.863,45.29C-148.892,43.296 -142.439,40.229 -135.936,37.298C-128.665,34.021 -121.839,29.76 -116.402,23.781C-114.638,21.841 -111.821,20.882 -111.014,18.068C-109.924,17.202 -108.704,16.667 -107.7,15.487C-103.814,10.913 -102.163,5.193 -99.278,0.123C-96.538,-6.646 -95.521,-13.873 -95.123,-20.989C-94.643,-29.588 -94.729,-38.443 -100.611,-45.808C-103.97,-51.897 -108.261,-57.07 -115.477,-58.403C-126.429,-60.426 -144.295,-54.239 -144.105,-54.345C-133.463,-60.275 -121.169,-64.284 -106.143,-67.135C-98.22,-68.638 -90.302,-70.502 -82.144,-70.136C-71.803,-69.672 -62.187,-66.755 -52.571,-62.819C-49.412,-61.526 -40.293,-56.168 -39.292,-54.806C-36.736,-51.33 -32.966,-48.932 -30.768,-45.143C-31.779,-45.653 -32.863,-46.058 -33.788,-46.694C-41.129,-51.75 -48.923,-52.322 -57.002,-48.889C-68.685,-43.924 -74.715,-34 -79.146,-22.867C-80.171,-20.29 -82.274,-17.946 -81.619,-14.822C-84.475,-10.205 -83.99,-5.119 -83.902,-0.016C-83.787,6.756 -82.45,13.218 -79.697,19.366C-73.838,32.451 -63.747,40.788 -50.44,45.749C-45.473,47.601 -33.379,49.699 -33.075,49.606C-21.461,50.419 -16.501,46.644 -9.744,39.462C-8.883,38.547 -8.178,37.489 -7.207,36.607C-4.677,34.309 -3.5,31.208 -2.375,27.987C-0.981,25.762 -1.134,24.821 0.483,21.412" style="fill:rgb(238,247,239);"/>
        </g>
        <g transform="matrix(1,0,0,1,220.855,114.366)">
            <path d="M0,-30.415C-0.782,-27.908 -1.345,-25.344 -2.366,-22.977C-4.991,-16.889 -4.176,-10.518 -3.59,-4.334C-3.347,-1.776 -1.336,0.642 2.063,1.956C9.074,4.665 14.907,2.311 20.559,-0.998C25.826,-4.082 27.304,-9.84 29.046,-15.236C31.015,-21.332 32.503,-27.428 29.305,-33.638C27.347,-37.44 25.197,-40.55 20.1,-40.107C18.495,-39.969 18.412,-40.089 18.555,-38.476C19.048,-32.871 16.697,-28.126 12.621,-24.636C10.485,-22.807 7.285,-22.531 4.163,-23.096C0.956,-23.675 1.82,-26.163 1.251,-28.039C1.01,-28.836 1.16,-29.837 0,-30.415M20.203,30.21C10.934,29.597 1.607,28.474 -5.705,22.21C-10.979,17.691 -15.864,12.457 -18.625,5.85C-21.232,-0.387 -22.949,-6.729 -23.193,-13.729C-23.601,-25.358 -19.5,-35.421 -12.234,-43.423C-5.289,-51.073 3.3,-56.855 14.583,-58.786C21.859,-60.031 28.306,-59.4 35.481,-58.756C40.899,-58.27 50.223,-55.136 51.196,-54.502C57.798,-50.201 65.05,-40.392 65.05,-40.392C65.05,-40.392 62.723,-42.862 58.693,-44.314C41.821,-50.391 39.39,-16.348 35.045,-8.451C28.059,4.247 23.231,6.954 17.754,12.816C14.011,16.822 14.728,28.063 20.203,30.21Z" style="fill:rgb(238,247,239);"/>
        </g>
        <g transform="matrix(1,0,0,1,398.661,460.612)">
            <path d="M0,-16.35C0,-16.35 -1.672,-19.279 -2.337,-19.244C-2.337,-19.244 -2.387,-19.311 -2.388,-19.313C-3.7,-22.679 0.846,-31.282 4.332,-33.974C5.767,-35.082 10.477,-36.495 13.403,-36.105C15.399,-35.839 17.274,-34.769 19.6,-34.371C26.841,-33.136 33.95,-30.985 41.004,-28.839C46.883,-27.051 52.748,-25.299 58.456,-22.772C62.266,-21.085 58.794,-18.763 60.384,-17.47C59.057,-16.254 58.269,-14.501 55.846,-14.666C51.285,-14.977 46.696,-14.905 42.12,-14.936C40.229,-14.949 39.812,-13.901 40.697,-12.392C44.606,-5.73 48.426,0.996 52.621,7.474C53.535,8.883 53.407,9.715 52.956,10.901C52.454,12.222 51.432,12.395 50.14,12.271C47.233,11.993 44.804,10.703 42.429,9.111C39.748,7.313 36.941,5.702 33.926,3.847C33.929,6.541 35.75,8.268 36.782,10.254C37.201,11.058 37.927,11.736 38.352,12.696C39.537,15.367 39.884,18.532 37.398,19.768C34.769,21.078 31.926,19.8 29.099,17.715C22.352,12.736 17.432,6.238 12.246,-0.091C8.251,-4.969 0.487,-15.879 0,-16.35" style="fill:rgb(238,247,239);"/>
        </g>
        <g transform="matrix(1,0,0,1,209.813,448.746)">
            <path d="M0,28.135C-4.285,32.048 -5.533,37.085 -8.015,41.361C-8.921,42.921 -9.815,44.926 -11.342,44.947C-13.066,44.971 -14.387,42.94 -14.725,41.225C-15.849,35.525 -17.073,29.79 -15.686,23.932C-15.41,22.764 -14.462,18.622 -14.462,18.622C-14.462,18.622 -18.149,20.825 -19.181,21.61C-23.341,24.775 -27.938,27.134 -32.911,28.773C-33.629,29.01 -34.748,29.342 -34.731,28.633C-34.651,25.265 -35.034,21.537 -33.678,18.687C-32.952,17.161 -31.194,15.127 -30.4,13.538C-26.414,5.579 -18.812,1.999 -12.158,-2.721C-6.227,-6.929 0.008,-10.683 6.583,-13.809C8.488,-14.716 10.45,-15.502 12.55,-16.091C15.205,-16.836 14.448,-16.115 14.481,-14.271C14.69,-2.803 10.855,8.177 10.532,19.531C10.345,26.131 8.751,32.31 6.802,38.5C6.505,39.445 5.885,39.614 5.279,39.64C4.153,39.688 3.25,39.476 2.452,38.238C0.548,35.283 1.341,31.734 0,28.135" style="fill:rgb(238,247,239);"/>
        </g>
        <g transform="matrix(1,0,0,1,213.146,313.458)">
            <path d="M-4.32,91.761C3.547,78.153 15.747,56.616 25.445,44.2C31.831,36.025 38.773,28.282 45.091,20.058C47.517,16.901 50.517,14.106 52.417,10.644C59.676,-2.578 79.521,-2.141 82.349,4.205C79.97,5.87 76.852,7.251 75.05,9.398C68.145,17.623 60.767,25.393 53.317,33.111C47.548,39.088 42.087,45.391 36.015,51.04C28.627,57.912 20.694,64.209 13.668,71.469C11.14,74.082 7.843,78.082 4.484,81.611C2.14,84.074 -2.155,90.388 -4.32,91.761Z" style="fill:rgb(238,247,239);"/>
        </g>
        <g transform="matrix(1,0,0,1,301.565,678.488)">
            <path d="M-5.28,57.25C-10.406,63.054 -10.426,62.664 -16.354,67.696C-17.314,68.512 -19.773,71.121 -19.773,71.121C-19.773,71.121 -18.839,67.08 -18.626,66.591C-16.151,60.92 -14.717,54.656 -12.572,47.625C-11.671,44.674 -7.919,34.558 -7.919,34.558C-7.919,34.558 -10.989,36.028 -11.972,36.382C-14.746,37.383 -17.275,38.69 -19.572,40.583C-22.661,43.128 -28.875,47.487 -33.115,48.631C-31.846,44.023 -26.804,38.121 -23.698,35.337C-20.627,32.583 -17.146,30.049 -13.883,27.503C-13.107,26.898 -10.258,24.966 -7.304,22.4C-7.304,22.4 -2.732,19.844 0.495,16.91C6.379,11.561 10.711,6.766 15.465,0.497C18.302,-3.244 22.052,-5.964 24.699,-9.843C27.601,-14.091 36.786,-14.894 36.218,-13.788C34.149,-12.427 31.619,-11.454 30.093,-9.639C21.703,0.339 10.818,12.057 5.494,23.998" style="fill:rgb(238,247,239);"/>
        </g>
        <g transform="matrix(1,0,0,1,301.625,364.222)">
            <path d="M0,-2.558C-3.861,-3.451 -7.704,-4.572 -12.17,-3.552C-10.388,-1.585 -8.457,-0.523 -6.572,0.629C-5.712,1.154 -2.716,4.557 -2.716,4.557C-2.716,4.557 -6.788,4.363 -7.636,4.086C-12.996,2.336 -23.619,1.131 -23.619,1.131C-23.619,1.131 -19.111,7.339 -12.052,13.938C-17.368,13.938 -31.916,10.111 -31.916,10.111C-31.916,10.111 -31.906,11.781 -32.202,15.006C-35.127,14.204 -38.034,13.91 -42.243,13.141C-44.468,12.735 -44.713,11.664 -43.098,9.871C-34.336,0.15 -9.969,-16.214 -9.969,-16.214C-9.969,-16.214 -2.772,-7.786 0,-2.558" style="fill:rgb(238,247,239);"/>
        </g>
        <g transform="matrix(1,0,0,1,369.692,305.565)">
            <path d="M0,-35.279C6.052,-38.076 10.403,-40.305 15.224,-43.897C16.839,-38.028 17.66,-33.257 17.483,-30.092C17.096,-23.108 17.604,-16.032 15.495,-9.157C14.013,-4.328 11.219,-0.692 7.032,1.874C5.959,2.532 4.957,3.314 4.093,4.058C2.182,3.185 3.044,1.49 3.339,0.938C7.277,-6.412 6.1,-14.041 4.468,-21.551C3.452,-26.23 2.241,-29.27 0,-35.279" style="fill:rgb(238,247,239);"/>
        </g>
        <g transform="matrix(0.24,0,0,0.24,0,0)">
            <path d="M1000.96,1643.62C1002.13,1615.5 1033.36,1601.05 1047.91,1599.84C1086.23,1596.66 1202.84,1607.97 1257.58,1617.16C1244.73,1619.22 1234.6,1618.03 1221.45,1618.05C1206.87,1618.07 1189.26,1619.12 1175,1617.8C1162.23,1616.63 1127.01,1618.2 1110.27,1616.83C1090.69,1615.23 1051.66,1615.38 1034.83,1631.09C1018,1646.79 1013.05,1687.03 1009.28,1711.04C1007.35,1723.38 998.21,1872.7 1004.43,1897.69C1007.27,1909.08 1003.22,1931.62 1013.69,1950.26C1009.92,1950.28 994.08,1932.53 993.505,1927.39C978.327,1895.21 979.461,1854.86 984.613,1814.31C985.48,1785.62 986.259,1757 988.388,1728.3C990.518,1699.54 999.783,1672.17 1000.96,1643.62Z" style="fill:rgb(238,247,239);"/>
        </g>
        <g transform="matrix(1,0,0,1,208.99,697.772)">
            <path d="M0,-21.92C-5.365,-18.635 -11.046,-15.978 -16.74,-13.322C-24.079,-9.899 -33.054,-1.941 -33.054,-1.941C-33.054,-1.941 -42.258,0.909 -46.301,1.676C-43.56,-5.578 -34.709,-9.352 -29.008,-13.31C-21.06,-18.827 -0.867,-22.011 0,-21.92" style="fill:rgb(238,247,239);"/>
        </g>
        <g transform="matrix(1,0,0,1,192.882,719.658)">
            <path d="M-10.908,-1.386C-10.132,-8.454 0,-28.183 0,-28.183C0,-28.183 4.921,-30.673 4.218,-25.299C3.434,-19.307 1.427,-12.218 1.427,-12.218C2.022,-13.376 -5.725,-5.574 -10.908,-1.386Z" style="fill:rgb(238,247,239);"/>
        </g>
        <g transform="matrix(1,0,0,1,237.036,174.094)">
            <path d="M0,-15.208C0.405,-13.388 -0.293,-11.645 -1.219,-10.35C-3.182,-7.605 -3.888,-2.559 -4.023,0.628C-7.892,2.035 -11.045,-0.752 -13.769,-3.849C-14.376,-4.539 -15.844,-6.407 -13.829,-6.346C-6.998,-6.135 -4.617,-12.318 0,-15.208" style="fill:rgb(238,247,239);"/>
        </g>
        <g transform="matrix(1,0,0,1,356.223,658.496)">
            <path d="M0.24,-5.812C-1.887,-3.799 -7.74,-0.042 -7.671,1.451C-7.671,1.451 -14.783,-3.131 -14.277,-4.213C-11.994,-5.606 -4.115,-6.789 0.24,-5.812Z" style="fill:rgb(238,247,239);"/>
        </g>
        <g transform="matrix(1,0,0,1,263.19,659.456)">
            <path d="M0,-6.084C-1.653,-2.949 -9.927,0.302 -12.787,1.607C-14.822,2.536 -10.291,-1.346 -10.672,-2.19C-7.644,-3.824 -3.486,-5.758 0,-6.084" style="fill:rgb(238,247,239);"/>
        </g>
        <g transform="matrix(1,0,0,1,289.22,704.667)">
            <path d="M0,-0.179C0.084,-0.133 0.17,-0.088 0.255,-0.043C0.192,-0.026 0.129,-0.009 0.058,0C0.049,-0.006 0,-0.179 0,-0.179" style="fill:rgb(238,247,239);"/>
        </g>
        <g transform="matrix(1,0,0,1,248.805,219.333)">
            <path d="M0,0.199C-0.05,0.132 -0.102,0.066 -0.152,0C-0.075,0.031 0.002,0.062 0.077,0.097C0.075,0.1 0,0.199 0,0.199" style="fill:rgb(238,247,239);"/>
        </g>
        <g transform="matrix(1,0,0,1,238.075,92.9319)">
            <path d="M-9.213,5.523C-18.423,6.454 -17.702,15.624 -14.701,17.883C-11.889,20 -4.629,19.247 -1.042,16.59C13.241,6.012 1.701,4.42 -9.213,5.523ZM-17.22,-8.981C-16.061,-8.403 -16.21,-7.402 -15.969,-6.604C-15.4,-4.728 -16.264,-2.241 -13.057,-1.662C-9.936,-1.097 -6.735,-1.372 -4.599,-3.202C-0.523,-6.692 1.828,-11.437 1.334,-17.042C1.191,-18.655 1.274,-18.535 2.879,-18.673C7.977,-19.116 10.127,-16.006 12.085,-12.204C15.283,-5.994 13.795,0.102 11.826,6.198C10.083,11.594 8.606,17.353 3.339,20.436C-2.313,23.745 -8.146,26.099 -15.158,23.39C-18.557,22.076 -20.567,19.658 -20.81,17.1C-21.396,10.916 -22.211,4.545 -19.586,-1.542C-18.565,-3.91 -18.002,-6.474 -17.22,-8.981" style="fill:rgb(65,77,83);"/>
        </g>
    </g>
</svg>
