<?xml version="1.0" encoding="UTF-8" standalone="no"?>
<!DOCTYPE svg PUBLIC "-//W3C//DTD SVG 1.1//EN" "http://www.w3.org/Graphics/SVG/1.1/DTD/svg11.dtd">
<svg width="100%" height="100%" viewBox="0 0 2341 2052" version="1.1" xmlns="http://www.w3.org/2000/svg" xmlns:xlink="http://www.w3.org/1999/xlink" xml:space="preserve" xmlns:serif="http://www.serif.com/" style="fill-rule:evenodd;clip-rule:evenodd;stroke-linejoin:round;stroke-miterlimit:2;">
    <g id="Layer1">
        <rect x="-29" y="-25" width="2395" height="2099" style="fill:rgb(82,78,73);"/>
    </g>
    <g transform="matrix(1,0,0,1,33,-26)">
        <ellipse cx="884" cy="1866" rx="453" ry="148" style="fill:rgb(115,112,90);"/>
    </g>
    <g transform="matrix(1,0,0,1,40,72)">
        <path d="M1434.35,1026C1430.1,1025 1409,1045 1409,1045L1405.14,1106.34L1456,1215C1456,1215 1483.89,1285.93 1468,1327C1453.3,1365 1363.14,1460.34 1363.14,1460.34C1363.14,1460.34 1346.6,1474.14 1332.14,1475.34C1317.68,1476.54 1302,1469 1302,1469C1274.37,1482.77 1258.86,1484.54 1246,1483L1225,1531C1225,1531 1172.47,1524.12 1150.49,1521.24C1144.68,1520.48 1138.95,1523.1 1135.72,1527.99C1124.06,1545.62 1097.14,1586.34 1097.14,1586.34L1088.14,1629.34L1117,1626L1079.14,1732.34L1131,1785C1060.79,1778.9 1001.69,1772.66 976,1766L964.141,1655.34L982.141,1648.34L978,1633C914.759,1647.12 822.392,1632.75 765,1626C768.07,1640.28 765,1644 765,1644L779,1647L767,1774C724.003,1778.92 663.516,1782.33 601,1775C601,1775 632.547,1753.7 665.415,1733.34C654.249,1698.92 645.839,1667.66 632.239,1631.53C639.526,1630.25 648.347,1632.22 659.005,1638.5C661.407,1626.71 662.428,1615.72 661.415,1606.34C641.787,1599.87 614.127,1578.84 608,1570C593.065,1548.46 580.415,1492.34 580.415,1492.34L445.415,1482.34C445.415,1482.34 415.279,1484.3 407.415,1434.34C398.906,1380.29 391.141,1329.34 391.141,1329.34C390.462,1330.51 312.755,1271.48 303.415,1214.34C298.122,1181.97 308.186,1163.26 325.141,1157.34C352.497,1147.79 368.141,1175.34 368.141,1175.34C368.141,1175.34 353.574,1108.71 404,1095C439.341,1085.39 442.208,1140.94 441.4,1147.72C441.229,1148.13 441.141,1148.34 441.141,1148.34C441.242,1148.51 441.334,1148.29 441.4,1147.72C443.903,1141.87 464.232,1096.77 490.415,1111.34C550.213,1144.64 520.662,1256.95 471.415,1290.34L485.141,1405.34L576.141,1426.34L558,1383L522.141,1378.34L550.141,1364.34L566.141,1311.34L561,1215C561,1215 509.763,1163.96 539,1112C559.209,1076.08 587.631,1079.37 586.141,1073.34L591,1048C591,1048 565.085,1029.39 587.141,990.343C598.895,969.535 618.141,966.343 618.141,966.343C659.798,938.93 697.02,922.722 731.141,914.343C731.141,914.343 756.899,868.865 817,856C876.283,843.311 911.869,890.359 915,899L934,900C934,900 969.886,880.947 1000,877C1052.91,870.066 1116.37,916.987 1121,977C1122.12,991.481 1123.67,1026.14 1122,1026L1135.14,1043.34L1291.04,897.611L1315.06,877C1338.24,944.838 1377.34,995.233 1434.35,1026ZM1159,1324L1149,1408L1170.5,1428L1190,1340L1159,1324Z" style="fill:url(#_Linear1);"/>
    </g>
    <g transform="matrix(0.996996,0.275111,-0.306426,1.11048,356.942,-350.377)">
        <circle cx="765.297" cy="1160.62" r="77.711" style="fill:rgb(111,53,121);"/>
    </g>
    <path d="M869.529,1202.18L834.053,1219.77L861.486,1285.97L927.654,1309.93L1006.45,1294.04L1048.4,1219.77L1015.36,1202.18L977.506,1262.72L903.459,1262.72L869.529,1202.18Z" style="fill:rgb(111,53,121);"/>
    <g transform="matrix(1,0,0,1,40,72)">
        <path d="M1098.78,1265.51C1108.78,1284.47 1122.91,1301.95 1141,1318C1134.35,1363.85 1131.17,1400.57 1132,1416C1150.75,1433.36 1168.4,1439.26 1185,1444C1192.82,1411.33 1201.58,1371.26 1211,1326C1200.63,1301.28 1214.05,1275.98 1227.92,1255.93C1238.52,1240.61 1251.02,1225.72 1268.69,1218.49C1272.55,1216.91 1276.69,1215.95 1280.83,1215.49C1284.2,1215.12 1287.67,1215.33 1291,1216C1319.55,1221.74 1313.11,1256.54 1306,1276.5L1258,1336C1270.47,1380.37 1284.7,1421.77 1302,1458C1280.31,1473.53 1256.08,1472.45 1237,1462L1217,1514C1193.24,1512.59 1165.01,1508.32 1132,1501C1114.58,1531.3 1096.94,1557.8 1079,1579L1069,1634C1048.44,1641.53 1024.04,1646.98 997,1651L997,1628C1010.52,1621.39 1025.84,1612.74 1043,1602C941.548,1626.94 840.99,1628.75 752,1609L752,1644C723.624,1643.61 699.893,1642.16 684,1636L683,1595C646.674,1581.7 620.057,1560.84 617,1540C610.329,1520.87 608.926,1501.74 606,1476C532.063,1470.95 460.155,1466.81 442,1457C429.037,1447.98 418.625,1380.26 409,1317C373.862,1289.19 347.098,1256.73 328,1220C326.859,1215.94 325.863,1211.79 325.659,1207.58C325.028,1194.56 335.322,1178.28 349.808,1185.56C362.792,1192.08 371.583,1203.02 380.664,1214.05C383.437,1217.42 387.017,1222.61 388,1227L383,1149C386.328,1110.73 402.22,1107.38 426,1125C433.215,1143.17 442.798,1177.84 446.453,1205.15C451.382,1160.92 461.881,1131.81 483,1137C502.106,1135.62 509.427,1161.81 505,1209C497.559,1245.43 482.297,1272.37 461,1292L470,1416L596,1445L619,1442C645.905,1400.92 644.392,1352.11 616,1296C600.593,1292.57 594.072,1296.6 588,1301C582.316,1277.79 580.214,1250.25 582,1218C595.183,1215.21 606.903,1210.38 616.451,1200.37C627.596,1188.7 633.3,1171.99 636.915,1156.65C642.629,1132.4 646.45,1099.3 619.62,1086.08C613.942,1083.28 608.154,1080.48 602,1079L609,1040C630.346,1045.38 642.743,1022.28 640.558,1003.98C639.559,995.617 635.53,990.022 630,984C672.347,951.663 717.504,936.217 761,925C764.05,912.287 769.513,900.471 779.233,891.33C801.92,869.996 842.567,870.607 869.662,881.848C885.904,888.586 899.353,901.567 909,916L931.5,921C958.02,910.658 975.881,903.924 987,900C997.902,896.606 1010.91,895.764 1022.22,896.308C1030.21,896.692 1038.88,898.835 1046.28,901.836C1100.28,923.754 1107.21,986.159 1106,1037L1123,1057C1102.03,1094.13 1089.09,1128.36 1083.77,1159.85C1075.56,1148.83 1058.93,1144.67 1046,1148C1026.59,1153 1010.54,1166.84 1004,1186C973.248,1262.4 1050.24,1316.21 1098.78,1265.51M708,1484C710.474,1489.6 713.502,1494.97 716.94,1500.03C736.193,1528.38 775.883,1529.96 806.356,1532.53C822.454,1533.88 838.543,1535.49 854.684,1536.19C895.602,1537.96 937.647,1537.05 978.005,1529.29C1003.81,1524.33 1030.7,1517.18 1052.04,1501.01C1058.66,1496 1065.07,1490.2 1069.54,1483.08C1081.41,1464.16 1077.88,1439.51 1074.11,1418.83C1067.69,1383.67 1056.51,1343.54 1026.98,1320.56C1017.34,1313.05 1006.15,1307.73 994.675,1303.72C965.459,1293.49 933.593,1292.27 903,1291C871.572,1290.6 840.225,1294.67 809.82,1302.56C775.27,1311.52 741.617,1324.8 720.986,1355.68C709.207,1373.31 705.035,1395.66 703.357,1416.41C701.515,1439.18 703.676,1461.54 708,1484M644,1215C644,1219.74 640.35,1230.18 639.885,1234.81C638.824,1245.39 639.439,1254.87 641.998,1265.18C643.765,1272.3 647.591,1279.96 651.863,1285.89C655.83,1291.4 661.131,1296.39 666.953,1299.91C720.25,1332.08 793.535,1254.53 750.8,1205.5C745.478,1199.39 738.901,1194.47 731.865,1190.54C717.421,1182.45 699.95,1177.61 683.473,1181.67C679.219,1182.73 675.091,1184.35 671.167,1186.3C668.079,1187.84 662.33,1194.93 657.574,1193.13L644,1215M861.309,1045.44C833.36,1058.2 804.333,1099.29 805.345,1135.02C806.464,1174.53 839.329,1213.85 878.237,1222.04C892.576,1225.05 900.289,1224.25 914.697,1222.56C925.369,1221.31 936.069,1219.69 945.871,1214.9C967.968,1204.1 985.893,1183.59 993.912,1160.41C1007.24,1121.87 992.892,1073.48 960.841,1048.35C937.271,1029.87 896.096,1025.38 861.309,1045.44ZM710,1007C694.15,1009.67 679.461,1021.96 671.469,1035.57C655.369,1062.99 644.545,1107 669.192,1133.82C686.78,1152.95 717.331,1152.13 740.589,1148.16C788.042,1140.05 811.973,1077.65 788.321,1037.4C772.319,1010.17 739.547,1002.02 710,1007" style="fill:url(#_Radial2);"/>
    </g>
    <g transform="matrix(1,0,0,1,40,72)">
        <path d="M573,1381C574.441,1380.69 590,1383 590,1383C590.29,1388.11 593.561,1398.01 597.202,1402.09C599.514,1404.67 604.305,1404.43 605.865,1401.12C606.9,1398.92 607.788,1396.63 608.315,1394.26C608.842,1391.89 608.985,1389.43 609,1387L623,1388C623.15,1395.7 622.917,1401.86 620.893,1409.34C620.196,1411.92 619.262,1414.48 617.888,1416.78C616.584,1418.95 613.081,1422.99 610.224,1424.36C602.955,1427.84 592.673,1427.19 588,1422C578.939,1411.94 573,1381 573,1381Z" style="fill:url(#_Linear3);"/>
        <path d="M561,1101C555.235,1110.19 546.794,1123.24 545,1142C543.603,1156.61 547.353,1188.36 570,1194C589.452,1198.85 603.786,1187.35 618,1166C627.932,1151.08 638.95,1089.17 593.092,1086.8C577.948,1086.02 561,1101 561,1101Z" style="fill:url(#_Linear4);"/>
        <path d="M607,996C599.096,1007.97 597.174,1016.11 599,1029C605.536,1042.05 613.789,1044.09 623,1040C634.951,1034.95 638.549,1030.96 641,1020C644.437,1004.63 643.1,989.748 632,985C621.372,980.454 607,996 607,996Z" style="fill:url(#_Linear5);"/>
        <path d="M676,1046C669.048,1062.07 668.09,1081.78 670,1095C676.539,1120.04 689.122,1134.19 709,1133C738.401,1136.46 762.789,1127.64 775,1089C785.352,1067.8 777.868,1048.02 761,1029C744.343,1010.9 717.544,1013.78 697.859,1025.36C689.409,1030.33 682.127,1038.6 676,1046" style="fill:url(#_Linear6);"/>
        <path d="M771.122,896.721C758.976,911.676 755.423,930.439 757,941C764.786,967.653 781.637,980.179 806,981C833.905,980.693 852.267,974.564 865,965C886.31,956.586 896.705,938.342 897,911C889.063,891.887 879.854,880.896 859.339,875.008C809.23,860.626 781.83,883.538 771.122,896.721Z" style="fill:url(#_Linear7);"/>
        <path d="M980,939C972.845,962.323 977.109,979.281 987.854,999.561C1004.17,1030.35 1022.08,1040.03 1045,1045C1063.2,1051.19 1078.64,1048.21 1091,1035C1104.41,1017.72 1101.67,990.904 1092,960C1084.69,933.797 1065.48,916.288 1035,907C988.432,900.444 980,939 980,939Z" style="fill:url(#_Linear8);"/>
        <path d="M849,1075C831.942,1091.24 822.173,1109.21 820,1129C822.166,1161.84 832.017,1181.02 851.078,1194.06C872.346,1208.6 891.609,1213.63 918,1207C944.441,1198.91 962.938,1187.58 971,1172C985.868,1138.77 983.495,1113.24 976,1090C966.339,1068.94 949.467,1054.34 922.393,1052.13C901.395,1049.74 880.681,1051.45 849,1075" style="fill:url(#_Linear9);"/>
        <path d="M1082.73,1174C1060.85,1141.27 1019.27,1160.3 1009.32,1196.46C1001.39,1225.3 1007.76,1242.22 1017.14,1253.01C1030.04,1266.96 1040.02,1275.03 1055.86,1274C1075.27,1272.74 1080.67,1265.27 1093.06,1253.63C1086.63,1228.91 1081.6,1202.21 1082.73,1174Z" style="fill:url(#_Linear10);"/>
        <path d="M658,1207C648,1223.09 644.806,1233.6 647,1249C649.944,1269.66 663.427,1285.82 683,1291C698.417,1296.14 714.384,1290.71 731,1275C745.195,1265.48 752.467,1249.4 752,1226C744.64,1212.58 734.303,1194.41 708,1189C674.922,1182.2 663.289,1198.49 658,1207Z" style="fill:url(#_Linear11);"/>
    </g>
    <g transform="matrix(1,0,0,1,40,72)">
        <path d="M606.521,1052.07C606.521,1058.53 602.523,1070.11 601,1078C609.171,1081.13 622.724,1088.72 627,1093C633.09,1099.1 640.868,1121.27 642,1124C642.656,1125.58 657.022,1120.75 661.81,1118.95C663.717,1118.24 654.729,1079.55 658,1065C664.473,1036.21 684.077,1018.35 711,1009C722.865,1004.88 741.388,1004.01 756.357,1009.56C778.377,1017.73 794.216,1043.59 794.474,1046.12C789.322,1028.86 785.123,1021.06 770,1007C789.843,1010.15 815.33,1010.35 833,1003C849.106,996.297 863.662,983.691 863.068,983.924C856.224,986.604 849.603,989.896 842.595,992.112C821.939,998.643 776.622,1002.48 749.844,971.997C741.566,962.575 736.966,945.39 737.641,930.573C720.704,930.541 650.334,962.414 635.284,978.378C644.567,982.285 656.533,988.921 655.938,1002.95C654.878,1027.93 646.17,1041.75 621.447,1051.33" style="fill:url(#_Linear12);"/>
    </g>
    <g transform="matrix(1,0,0,1,40,72)">
        <path d="M750,1343L763,1358L793,1343L810,1366L838,1343L862,1375L907,1341L924,1374L968,1338L990,1374L1020,1336L1038,1365L1047,1352C1044.92,1345.3 1029.79,1325.06 1006,1319C921.234,1297.39 864.296,1301.56 797,1316C777.19,1323.71 759.435,1332.51 750,1343Z" style="fill:url(#_Radial13);"/>
    </g>
    <g transform="matrix(1,0,0,1,40,72)">
        <path d="M579.759,1118.12C577.824,1122.47 575.723,1126.77 573.994,1131.21C573.281,1133.04 572.746,1134.95 572.449,1136.9C571.902,1140.48 571.14,1148.48 577.137,1148.29C578.438,1148.25 579.755,1147.96 580.951,1147.44C582.021,1146.98 582.959,1146.22 583.801,1145.42C589.247,1140.2 593.267,1132.21 595.14,1124.99C596.174,1121.01 597.234,1114.36 592.806,1111.8C587.463,1108.7 585.646,1118.41 580.865,1118.41" style="fill:rgb(62,40,73);"/>
        <path d="M733.736,1043.19C727.591,1044.01 724.266,1049.11 723.372,1054.93C721.91,1064.46 725.929,1076.86 735.509,1080.64C736.947,1081.21 738.514,1081.42 740.052,1081.58C749.286,1082.56 754.32,1075.49 754.788,1066.88C755.302,1057.45 751.148,1045.47 742.267,1040.87" style="fill:rgb(62,40,73);"/>
        <path d="M794.81,907.53C786.491,911.215 779.285,913.901 775.052,922.248C770.14,931.936 774.202,946.553 786.405,947.544C788.182,947.689 790.013,947.646 791.744,947.217C802.864,944.461 813.381,935.466 818.386,925.206C819.472,922.98 820.101,920.537 820.586,918.107C822.525,908.387 809.827,906.155 803.169,906.155" style="fill:rgb(62,40,73);"/>
        <path d="M924.469,1106.79C899.588,1086.74 884.926,1135.01 887.131,1150.01C889.447,1165.77 901.765,1175.48 917.556,1171.64C921.698,1170.63 924.201,1165.81 925.716,1162.39C932.323,1147.49 938.743,1118.29 924.469,1106.79Z" style="fill:rgb(62,40,73);"/>
        <path d="M1043.77,942.002C1042.18,946.053 1039.65,951.391 1039.2,956.118C1038.14,967.413 1046.36,978.784 1054.26,986.004C1060.99,992.161 1071.62,997.812 1079.82,990.908C1082.41,988.723 1081.57,984.033 1081,981.433C1078.79,971.187 1072.38,960.335 1066.66,952.031C1064.46,948.85 1062.06,945.739 1059.15,943.205C1057.23,941.542 1054.74,940.683 1052.42,939.657C1050.54,938.826 1046.26,937.517 1046.26,939.569" style="fill:rgb(62,40,73);"/>
        <path d="M1054.74,1191.94C1048.5,1193.59 1045.28,1197.5 1043.53,1201.36C1040.86,1207.24 1040.01,1213.31 1039.15,1220.72C1038.73,1224.41 1041.46,1234.33 1048.87,1232.72C1055.15,1231.36 1059.3,1222.19 1061.79,1216.41C1066.98,1204.39 1063.08,1189.74 1054.74,1191.94Z" style="fill:rgb(62,40,73);"/>
        <path d="M678.759,1209.09C669.175,1213.99 663.458,1228.81 664.697,1239.02C665.534,1245.92 670.426,1251.6 677.701,1251.73C689.477,1251.93 695.73,1238.28 697.11,1228.26C697.562,1224.97 697.942,1221.65 697.83,1218.34C697.675,1213.8 691.927,1207.76 687.951,1206.14C686.702,1205.63 684.402,1206.45 683.381,1206.87C682.748,1207.12 681.198,1208.26 681.88,1208.26" style="fill:rgb(62,40,73);"/>
    </g>
    <g transform="matrix(1,0,0,1,40,72)">
        <path d="M711,1377C725.76,1345.15 741.754,1322.99 784.187,1309.58C843.842,1290.71 910.336,1284.94 980,1299C1003.06,1301.94 1028.9,1311.44 1059,1331C1034.53,1298.45 994.456,1271.52 931,1253C886.861,1249.55 841.888,1249.61 787,1270C732.413,1294.52 719.147,1337.93 711,1377" style="fill:url(#_Linear14);"/>
    </g>
    <g transform="matrix(1,0,0,1,40,72)">
        <path d="M717,1529C741.141,1537.7 753.798,1542.21 781.523,1547.29C862.288,1562.08 971.687,1552.4 1003.96,1542.58C1027.57,1535.4 1056.39,1522.9 1076.87,1495.83L1070.9,1519.61C1056.37,1535.56 1046.74,1555.39 1011,1568C935.022,1594.8 869.414,1587.64 803.659,1581.5C774.673,1578.8 738.596,1548.76 717,1529Z" style="fill:url(#_Linear15);"/>
    </g>
    <g transform="matrix(1,0,0,1,40,72)">
        <path d="M802.004,1123.56C797.345,1101.2 799.814,1074.45 817.962,1038.05C834.836,1024.26 851.107,1008.14 872.899,1002.68C880.43,1000.79 890.857,999.565 898.514,999.984C914.385,1000.85 924.962,1002.34 939.378,1008.88C970.302,1022.9 988.873,1053.43 1000.49,1083.93L1001.74,1121.31C993.531,1095.86 984.555,1071.75 966.085,1051.92C959.079,1044.41 947.934,1039.53 938.421,1036.42C901.708,1024.44 861.441,1037.72 834.388,1064.28C817.883,1080.49 808.943,1101.95 802.004,1123.56" style="fill:url(#_Linear16);"/>
    </g>
    <g transform="matrix(1,0,0,1,40,72)">
        <path d="M939.556,918.703C929.833,929.664 922.039,938.784 925.725,960.119C930.39,987.121 933.882,989.191 940.615,1003.35C952.162,1008.16 975.637,1022.9 986.528,1033.6C971.81,1019.13 961.918,999.15 955.373,967.179C954.621,952.327 957.474,936.189 970.134,918.744C974.186,911.796 985.531,904.26 1005.03,896.067C986.549,898.479 966.232,903.709 939.556,918.703" style="fill:url(#_Linear17);"/>
    </g>
    <g transform="matrix(1,0,0,1,40,72)">
        <path d="M708.585,1151.32L724.197,1161.28C752.322,1160 769.407,1152.34 786.6,1130.78L787.343,1111.5C774.711,1143.53 731.858,1152.33 708.585,1151.32Z" style="fill:url(#_Linear18);"/>
    </g>
    <g transform="matrix(1,0,0,1,40,72)">
        <path d="M648.749,1283.21C639.421,1264.24 638.343,1240.49 643.789,1219.01C649.184,1197.74 669.22,1183.02 694.668,1180.73C730.678,1177.49 744.245,1193.92 757.936,1214.48L751.827,1192.61C735.28,1172.31 705.74,1161.59 677.489,1165.66C653.216,1169.16 633.867,1189.61 629.587,1202.27C613.338,1250.34 648.749,1283.21 648.749,1283.21Z" style="fill:url(#_Linear19);"/>
    </g>
    <g transform="matrix(1,0,0,1,40,72)">
        <path d="M840.135,1446.45C826.915,1448.63 819.842,1453.67 819.52,1461.86C815.548,1469.65 819.54,1479.48 827.442,1490.3L848.992,1500.66L875.486,1476.44L910.038,1507.23L942.908,1476.57L968.525,1497.97C982.163,1486.89 982.153,1473.53 970.148,1458.15C940.552,1433.62 910.889,1431.4 881.213,1433.91C905.105,1442.44 919.619,1453.56 924.755,1467.28C900.797,1450.9 873.157,1442.7 840.135,1446.45" style="fill:url(#_Radial20);"/>
    </g>
    <g transform="matrix(1,0,0,1,40,72)">
        <path d="M738.564,1512.63L755.497,1488.87L777.915,1521.04C768.764,1519.12 754.036,1516.02 738.564,1512.63L790.085,1522.33C795.109,1513.08 802.849,1501.81 811.426,1489.91L833.455,1524.54C820.473,1523.84 806.178,1523.11 790.085,1522.33" style="fill:url(#_Radial21);"/>
        <path d="M848.744,1527.44C856.888,1512.21 866.803,1501.87 876.88,1491.98L907.098,1524.05C918.118,1510.76 932.36,1498.61 944.091,1489.04L972.742,1525C923.617,1533.16 888.885,1530.84 848.744,1527.44" style="fill:url(#_Radial22);"/>
        <path d="M984.749,1520.21L1018.76,1471.19L1030.47,1507.17C1015.3,1513.5 1000.05,1517.54 984.749,1520.21Z" style="fill:url(#_Radial23);"/>
        <path d="M1042.76,1502.46L1063.43,1452.03L1066.12,1482.93L1042.76,1502.46" style="fill:url(#_Radial24);"/>
    </g>
    <g transform="matrix(1,0,0,1,40,72)">
        <path d="M1132.64,1421.4L1188.53,1468.79L1217.71,1334.19C1230.63,1292.94 1255.9,1246.29 1286.6,1245.26C1295.13,1245.06 1304.38,1248.51 1311.05,1256.04C1313.15,1239.97 1311.38,1225.29 1297.71,1218.49C1290.81,1215.05 1283.99,1213.24 1273.17,1217.15C1248.35,1226.14 1227.66,1246.99 1210.86,1286.83C1204.92,1300.93 1207.08,1319.86 1208.74,1333.41L1184.58,1442.45L1132.64,1421.4" style="fill:url(#_Linear25);"/>
    </g>
    <g transform="matrix(1,0,0,1,40,72)">
        <path d="M1375.62,1205.26C1363.35,1202.72 1355.06,1206.62 1347.87,1212.3C1330.04,1224.18 1335.13,1240.93 1348.73,1259.49L1375.9,1281.02C1341.24,1271.87 1326.31,1274.54 1320.99,1293.47C1310.67,1313.32 1313.08,1324.38 1327.77,1338.03C1348.88,1320.2 1374.19,1303.24 1398.52,1276.55C1402.73,1272.43 1393.22,1245.56 1375.62,1205.26" style="fill:url(#_Radial26);"/>
    </g>
    <g transform="matrix(1,0,0,1,40,72)">
        <path d="M1351.35,1209.04C1340.72,1213.71 1339.7,1218.93 1337.76,1226.41C1334.29,1239.86 1341.7,1252.72 1355.16,1265.03C1339.3,1239.07 1355.27,1212.3 1377.59,1211.56L1374.46,1205.01C1369.49,1203.3 1358.62,1205.85 1351.35,1209.04Z" style="fill:url(#_Linear27);"/>
    </g>
    <g transform="matrix(1,0,0,1,40,72)">
        <path d="M383.801,1295.84C366.618,1279.35 346.594,1260.93 331.73,1228.43C324.137,1211.84 320.469,1195.13 335.278,1185.59C343.77,1180.12 358.979,1188.57 366.09,1196.43C374.761,1206.03 381.159,1211.68 389.183,1222.94C386.003,1192.83 380.159,1157.84 383.827,1133.79C387.49,1122.16 390.29,1117.29 399.111,1114.39C410.804,1110.55 424.847,1120.05 430.146,1132.87L447.426,1203.06C450.284,1180.31 453.542,1157.85 466.035,1142.36C476.549,1129.91 491.902,1137.14 499.129,1145.55C497.374,1155.8 500.069,1150.95 498.169,1162.75C494.335,1159.19 489.763,1150.5 477.189,1154.72C467.295,1158.04 460.108,1194.52 457.491,1211.37C449.862,1216.69 448.435,1215.29 442.638,1218.96C437.388,1195.77 432.222,1171.35 418.345,1147.83C410.734,1134.93 399.987,1138.32 395.739,1152.42C393.726,1159.1 393.902,1168.81 394.504,1175.65C395.991,1192.54 399.059,1205.34 399.902,1222.27L391.933,1240.99C371.115,1216.45 362.326,1203.05 353.299,1200.34C339.904,1196.3 338.211,1212.46 341.483,1225.74C351.474,1249.83 370.091,1273.89 383.801,1295.84" style="fill:url(#_Linear28);"/>
    </g>
    <g transform="matrix(1,0,0,1,40,72)">
        <path d="M472.719,1418.95L470.656,1439.47L583.699,1445.4L472.719,1418.95" style="fill:url(#_Linear29);"/>
    </g>
    <g transform="matrix(1,0,0,1,40,72)">
        <path d="M604.769,1309.16C579.726,1307.27 566.46,1341.1 567.554,1364.86C584.991,1370.38 605.919,1374.8 625.16,1374.59C626.743,1350.06 617.825,1321.42 604.769,1309.16Z" style="fill:url(#_Linear30);"/>
    </g>
    <g transform="matrix(1,0,0,1,40,72)">
        <path d="M696.449,1730.9L632.886,1768.09L712.914,1743.18L696.449,1730.9Z" style="fill:rgb(104,32,107);"/>
    </g>
    <g transform="matrix(1,0,0,1,40,72)">
        <path d="M1066.93,1741.49L1044.48,1748.91L1104.58,1775.85L1066.93,1741.49" style="fill:rgb(104,32,107);"/>
    </g>
    <g transform="matrix(1,0,0,1,40,72)">
        <path d="M655.047,1648.61L702.949,1661.52L742.98,1659.17L655.047,1648.61" style="fill:rgb(104,32,107);"/>
    </g>
    <g transform="matrix(1,0,0,1,40,72)">
        <path d="M990.996,1659.23L991.914,1674.75L1095.93,1642.19C1095.93,1642.19 990.082,1660.57 990.996,1659.23Z" style="fill:rgb(104,32,107);"/>
    </g>
    <g transform="matrix(1,0,0,1,40,72)">
        <path d="M993.973,1210.49C996.264,1190.61 1000.26,1171.55 1014.33,1158.19C1023.79,1149.22 1042.34,1132.05 1074.66,1147.25C1069.33,1137.12 1056.29,1125.66 1044.54,1123.71C1029.81,1121.25 1017.78,1129.34 1006.21,1138.1C1003.1,1156.58 996.504,1171.67 988.016,1184.9L993.973,1210.49Z" style="fill:url(#_Linear31);"/>
    </g>
    <g transform="matrix(1,0,0,1,40,72)">
        <path d="M1143.57,1063.18C1126.61,1079.44 1114.83,1104.38 1106.54,1135.65C1093.9,1183.34 1106.38,1243.01 1121.23,1266.3C1138.66,1293.64 1160.39,1311.8 1187.82,1317.79C1190.53,1304.79 1193.14,1275.79 1209.08,1254.6C1229.52,1227.45 1255.83,1206.3 1284.93,1203.78C1298.37,1202.62 1305.27,1210.96 1314.6,1222.75L1370.5,1160.84C1386.67,1194.47 1401.47,1231.95 1412.83,1279.07C1391.98,1301.29 1370.96,1321.83 1350.13,1344.18C1339.18,1355.92 1324.15,1351.77 1314.6,1347.59C1301.94,1342.04 1299.52,1333.79 1299.87,1307.13L1277.11,1337.28C1287.32,1379.9 1307.71,1437.31 1317.4,1444.48C1326.64,1451.33 1342.27,1452.82 1349.34,1445.92C1386.15,1409.97 1447.07,1343.74 1451.88,1326.73C1459.69,1299.05 1460.72,1271.75 1443.72,1228.68C1426.54,1185.17 1408.84,1145.88 1391.22,1105.91C1394.85,1086.65 1395.37,1063.77 1393.37,1037.95C1347.48,1015.52 1300.25,954.18 1295.5,916.002C1289.56,920.603 1291.71,923.395 1286.86,931.473C1280.91,941.366 1279.97,948.043 1277.67,957.586C1270.25,1006.51 1282.48,1039.17 1301.28,1069.79L1282.39,1089.33C1269,1075.99 1256.89,1053.24 1251.09,1021.7C1245.82,993.016 1253.15,968.603 1277.38,931.443L1240.58,963.661C1225.03,987.814 1215.16,1012.96 1216.52,1040.05C1220.09,1074.32 1230.05,1100.18 1248.58,1122.31L1225.38,1141.93C1216.24,1131.22 1205.66,1117.94 1201.16,1100.14C1194.79,1074.93 1190.17,1050.52 1200.14,1018.97C1203.18,1011.11 1210.29,995.26 1219.54,982.697C1198.51,1000.15 1183.95,1013.42 1169.27,1042.89C1160.4,1065.43 1161.73,1095.53 1166.99,1114.76L1194.72,1166.55L1166.33,1192.93C1158.6,1181.49 1148.12,1165.13 1143.79,1143.58C1139.55,1122.45 1136.1,1095.66 1143.57,1063.18" style="fill:url(#_Linear32);"/>
    </g>
    <path d="M1434.88,1182.96C1436.58,1183.24 1437.74,1184.85 1437.45,1186.55C1437.17,1188.25 1435.57,1189.41 1433.87,1189.13C1429.53,1188.41 1427.13,1188.93 1423.95,1188.98C1413.09,1192.67 1411.06,1200.37 1408.33,1210.26C1407.63,1219.58 1408.56,1225.66 1411.71,1231.74C1412.51,1233.28 1411.91,1235.16 1410.38,1235.96C1408.85,1236.75 1406.96,1236.15 1406.16,1234.62C1402.48,1227.52 1401.27,1220.44 1402.12,1209.48C1402.13,1209.28 1402.17,1209.08 1402.22,1208.89C1405.65,1196.5 1408.64,1187.34 1422.48,1182.88C1422.79,1182.79 1423.12,1182.73 1423.44,1182.74C1427.23,1182.74 1429.87,1182.13 1434.88,1182.96Z" style="fill:rgb(43,76,161);"/>
    <path d="M1477.49,1279.31C1478.52,1280.69 1478.23,1282.65 1476.84,1283.68C1475.45,1284.7 1473.5,1284.41 1472.47,1283.03C1471.29,1281.44 1469.19,1280.39 1466.77,1279.79C1463.55,1279 1459.74,1279.06 1456.19,1280.18C1467.49,1301.69 1474.95,1332.86 1477.54,1346.98C1488.38,1346.08 1496.3,1352.55 1498.68,1359.33C1499.25,1360.96 1498.39,1362.74 1496.76,1363.31C1495.14,1363.88 1493.35,1363.03 1492.78,1361.4C1490.96,1356.22 1484.31,1351.75 1475.62,1353.57C1474.78,1353.74 1473.91,1353.57 1473.21,1353.09C1472.51,1352.6 1472.03,1351.85 1471.89,1351.01C1469.91,1338.69 1461.86,1302.65 1449.07,1280.18C1448.65,1279.44 1448.55,1278.57 1448.78,1277.76C1449.02,1276.94 1449.58,1276.26 1450.33,1275.87C1456,1272.9 1462.78,1272.37 1468.27,1273.72C1472.26,1274.7 1475.55,1276.69 1477.49,1279.31Z" style="fill:rgb(43,76,161);"/>
    <path d="M1429.54,1265.51C1430.06,1267.15 1429.15,1268.91 1427.51,1269.43C1425.86,1269.96 1424.1,1269.05 1423.58,1267.4C1419.05,1253.2 1428.62,1241.03 1439.39,1236.24C1447.11,1232.81 1455.27,1233.35 1459.72,1238.53C1460.85,1239.83 1460.7,1241.81 1459.39,1242.93C1458.09,1244.06 1456.11,1243.91 1454.99,1242.6C1453.41,1240.78 1451,1240.16 1448.38,1240.3C1443.59,1240.55 1438.14,1243.25 1434.16,1247.43C1429.84,1251.99 1427.26,1258.38 1429.54,1265.51Z" style="fill:rgb(43,76,161);"/>
    <g transform="matrix(1,0,0,1,40,72)">
        <path d="M1158.94,1109.31L1156.56,1132.37C1158.97,1151.01 1161.87,1167.01 1170.93,1178.56L1185.94,1164.97C1176.51,1147.07 1167.55,1128.47 1158.94,1109.31Z" style="fill:rgb(152,26,149);"/>
    </g>
    <g transform="matrix(1,0,0,1,40,72)">
        <path d="M1271.49,1002.72C1266.78,1015.29 1264.3,1027.47 1266.14,1038.91C1269.73,1056.11 1276.97,1067.54 1282.33,1077.83L1292.98,1068C1288.55,1060.75 1284.03,1055.8 1279.32,1040.97C1276.08,1030.81 1272.42,1018.84 1271.49,1002.72Z" style="fill:rgb(152,26,149);"/>
    </g>
    <g transform="matrix(1,0,0,1,40,72)">
        <path d="M1212.66,1053.07L1208.98,1096.15C1211.52,1110.25 1217.88,1122.09 1226.17,1132.8L1237.82,1122.82C1225.06,1099.03 1218.44,1076 1212.66,1053.07Z" style="fill:rgb(152,26,149);"/>
    </g>
    <g transform="matrix(1,0,0,1,40,72)">
        <path d="M1138.72,1111.99C1143.17,1150.76 1152.47,1173.38 1167.28,1193.78L1195.09,1165.38L1203.16,1169.92L1165.22,1208.13C1156.45,1197.5 1151,1185.01 1143.6,1165.18C1138.44,1149.13 1136.23,1129.88 1138.72,1111.99Z" style="fill:rgb(57,205,255);"/>
        <path d="M1194.46,1053.68C1191.96,1066.76 1191.59,1082.14 1193.72,1100.49C1201.88,1125.37 1210.81,1141.46 1224.47,1154.07L1256.82,1126.94L1247.34,1122.21L1227.24,1141.74C1216.36,1132.43 1207.09,1118.51 1201.58,1103.86C1196.28,1088.04 1195.91,1071.66 1194.46,1053.68" style="fill:rgb(57,205,255);"/>
        <path d="M1248.69,1001.3C1251.06,1022.43 1256.96,1046.99 1262.93,1058.13C1270.54,1072.31 1276.42,1081.33 1282.59,1089.83L1302.79,1068.65L1314.6,1076.57L1284.12,1104.28C1276.62,1095.52 1269.17,1088.16 1261.04,1071.45C1251.02,1046.59 1246.13,1023.26 1248.69,1001.3Z" style="fill:rgb(57,205,255);"/>
    </g>
    <g transform="matrix(1,0,0,1,40,72)">
        <path d="M1104.89,1224C1111.41,1255.86 1137.37,1308.06 1188.12,1318.69C1194.01,1287.23 1199.88,1256.87 1239.66,1222.56C1262.82,1208.88 1274.52,1202.47 1291.2,1205.12C1302.97,1207 1309.54,1213.74 1314.52,1224.26L1371.65,1160.88L1362.08,1137.35C1364.07,1124 1375.37,1112.21 1391.62,1106.1C1394.64,1092.06 1393.91,1074.24 1394.88,1059.64L1350.6,1068.94L1150.34,1269.23C1134.28,1261.88 1117.9,1247.71 1104.89,1224Z" style="fill:rgb(100,84,176);"/>
    </g>
    <g transform="matrix(1,0,0,1,40,72)">
        <path d="M1316.84,1365.64L1326.16,1384.89C1351.71,1360.73 1372.39,1341.07 1399.76,1312.31C1408.26,1303.37 1412.37,1293.67 1413.75,1278.88C1392.91,1300.94 1373.33,1320.96 1351.86,1342.6C1335.89,1358.7 1320.64,1351.09 1308.79,1344.18" style="fill:rgb(57,205,255);"/>
    </g>
    <g transform="matrix(1,0,0,1,40,72)">
        <path d="M596.227,1147.75C592.706,1153.57 582.604,1157.89 581.529,1164.7C579.279,1178.95 589.592,1190.75 599.93,1176.95C606.14,1168.67 630.268,1118.73 601.915,1144.5" style="fill:rgb(229,221,161);"/>
        <path d="M619.972,1020.62C616.182,1025.18 607.419,1034.49 612.831,1036.92C639.072,1048.7 632.538,1004.91 624.284,1016.95C623.713,1017.79 622.451,1019.05 622.451,1020.12" style="fill:rgb(229,221,161);"/>
        <path d="M816.279,948.043C809.318,953.58 798.664,959.468 799.555,961.637C800.644,964.287 808.155,966.887 810.665,967.746C835.083,976.102 892.24,962.698 886.331,929.262C884.108,916.68 856.305,923.57 849.607,926.361C845.963,927.879 835.633,935.99 835.633,933.996" style="fill:rgb(243,235,176);"/>
        <path d="M1082.9,1001.11C1073.24,1008.09 1071.9,1000.97 1062.25,1003.59C1059.37,1004.37 1038.96,1018.19 1033.85,1021.38C1032.7,1022.1 1028.76,1023.35 1029.84,1025.54C1037.7,1041.54 1071.99,1041.78 1081.99,1029.4C1087.71,1022.32 1090.76,1008.17 1091.88,999.241C1092.49,994.358 1093.4,989.298 1093.4,984.387C1093.4,984.197 1093.46,983.639 1093.4,983.819C1092.84,985.599 1089.9,993.272 1089.01,993.934" style="fill:rgb(229,221,161);"/>
        <path d="M933.608,1164.32C918.847,1187.85 897.685,1188.43 905.383,1195.2C915.488,1204.09 947.808,1185.62 956.036,1175.14C963.711,1165.37 973.494,1149.42 972.202,1136.98C971.828,1133.37 965.135,1125.13 958.848,1127.83C942.624,1134.81 933.608,1164.32 933.608,1164.32Z" style="fill:rgb(214,206,141);"/>
        <path d="M753.743,1087.46C741.308,1092.53 732.414,1092.63 724.461,1104.34C716.59,1115.93 714.105,1131.21 733.55,1123.43C741.096,1120.41 746.987,1117.13 753.326,1111.98C759.884,1106.64 767.426,1083.17 761.836,1084.03" style="fill:rgb(229,221,161);"/>
        <path d="M690.597,1276.43C711.486,1297 756.256,1254.49 738.665,1227.16C732.482,1217.56 720.905,1241.21 707.993,1255.55C698.9,1265.64 677.758,1263.78 690.597,1276.43Z" style="fill:rgb(229,221,161);"/>
        <path d="M609.514,1402.81C606.819,1405.67 596.986,1424.84 611.113,1419.49C622.244,1415.27 614.779,1390.11 614.779,1395.94" style="fill:rgb(229,221,161);"/>
        <path d="M1070.27,1227.31C1065.28,1231.63 1052.45,1239.28 1052.13,1247.58C1051.68,1259.45 1066.61,1272.13 1077.45,1263.24C1081.27,1260.1 1082.67,1253.36 1082.67,1248.73L1082.67,1245.14C1082.67,1235.3 1082.51,1224.82 1080.35,1216.16C1080.24,1215.74 1080.35,1212.84 1079.77,1212.84" style="fill:rgb(224,216,154);"/>
        <path d="M694.951,1041.5C690.705,1045.2 667.739,1069.15 687.43,1074.6C696.457,1077.1 716.409,1038.93 710.873,1034.44C706.769,1031.11 699.764,1039.13 699.764,1042.72" style="fill:white;"/>
        <path d="M796.389,889.215C794.836,893.071 792.964,896.813 791.732,900.782C791.627,901.123 802.612,899.466 803.487,899.178C807.928,897.718 821.952,894.542 823.076,888.564C824.904,878.841 805.577,889.861 804.253,889.861" style="fill:white;"/>
        <path d="M1000.1,930.064C997.531,934.899 994.67,939.591 992.389,944.569C990.339,949.04 1003.2,955.147 1006.28,955.147C1016.61,955.147 1031.19,924.159 1018.35,921.934C1011.77,920.794 1007.16,925.967 1001.06,926.59" style="fill:white;"/>
        <path d="M856.362,1082.51C836.264,1106.94 866.824,1122.79 883.93,1095.87C908.058,1057.89 867.063,1070.3 863.237,1081.78" style="fill:white;"/>
        <path d="M1033.12,1175.43C1029.2,1179.58 1025.14,1183.59 1021.36,1187.87C1017.19,1192.6 1022.91,1203.52 1029.38,1201.92C1036.93,1200.06 1062.17,1172.09 1053.32,1169.09C1047.93,1167.26 1045.23,1173.75 1040.3,1173.75" style="fill:white;"/>
        <path d="M566.258,1111.37C563.038,1115.81 559.703,1120.17 556.597,1124.69C555.766,1125.9 558.896,1126.16 559.269,1126.03C564.776,1124.13 590.365,1097.38 570.878,1106.6" style="fill:white;"/>
    </g>
    <g transform="matrix(1,0,0,1,9.05078,-4.01172)">
        <path d="M739.026,1411.53C726.975,1438.7 707.661,1471.18 701.405,1527.61C696.996,1567.38 701.446,1585.88 712.944,1611.62C724.823,1638.2 741.142,1645.71 752.284,1650.36C740.299,1632.44 729.239,1620.72 721.874,1593.46C715.853,1571.17 716.147,1541.27 717.581,1512.29C719.425,1475.04 739.026,1411.53 739.026,1411.53Z" style="fill:rgb(207,125,171);"/>
    </g>
    <path d="M1071.28,1132.34C1090.83,1138.68 1103.06,1142.75 1119.94,1136.9C1132.52,1132.55 1138.17,1123.13 1146.64,1111.02L1156.73,1123.03C1147.19,1135.88 1127.22,1161.52 1113.34,1165.24C1092.5,1170.82 1075.82,1165.54 1057.53,1153.18C1049.76,1147.93 1040.5,1136.54 1035.57,1127.86L1034.11,1111.42C1043.98,1117.71 1058.63,1128.24 1071.28,1132.34Z" style="fill:url(#_Linear33);"/>
    <path d="M1039.59,1333.96C1054.62,1345.08 1069.66,1356.19 1089.15,1359.27C1108.12,1358.95 1120.03,1354.58 1137.49,1338.86L1165.32,1376.31L1135.48,1364C1144.19,1378.12 1151.17,1395.64 1155.84,1416.28C1161.35,1440.69 1160.05,1458.34 1157.59,1475.04C1150.06,1433.5 1136,1400.81 1118.67,1372.56C1125.29,1403.03 1132.25,1423.88 1129.3,1440.64C1121.7,1419.98 1110.92,1400.98 1098.6,1387.07L1039.59,1333.96" style="fill:url(#_Linear34);"/>
    <path d="M669.9,1255.73C661.649,1268.69 654.952,1275.17 643.653,1282.45C636.317,1287.18 629.685,1288.6 621.358,1290.38C620.967,1318.13 623.028,1341.59 627.39,1361C629.126,1342.49 633.531,1327.51 641.363,1317.06C648.836,1338.02 659.351,1352.52 672.554,1361.33C666.939,1347 659.849,1328.07 659.306,1300.17C659.044,1286.72 664.128,1273.67 669.9,1255.73" style="fill:url(#_Linear35);"/>
    <path d="M949.042,989.572C947.42,1010.85 944.711,1037.16 921.444,1053.49L898.905,1070.26C910.502,1069.38 928.064,1062.17 941.597,1050.16C961.287,1032.68 959.138,1004.31 949.042,989.572" style="fill:url(#_Linear36);"/>
    <path d="M1189.15,1558.59L1174.01,1575.22L1257.67,1586.25L1278.66,1535.22C1302.2,1545.85 1321.91,1543.68 1341.98,1530.82L1331.4,1505.07C1317.74,1521.53 1303.74,1523.59 1273.79,1515.52L1249.71,1568.98L1189.15,1558.59Z" style="fill:url(#_Linear37);"/>
    <path d="M1299.02,1410.18C1311.5,1392.65 1318.49,1384.88 1336.73,1361.56C1337.17,1355.12 1340.31,1349.69 1332.8,1347.06C1321.61,1343.13 1306.49,1359.66 1294.23,1385.09C1283.95,1406.42 1292.07,1433.05 1310.81,1451.3C1305.25,1435.2 1304.06,1424.89 1299.02,1410.18Z" style="fill:url(#_Linear38);"/>
    <g transform="matrix(0.893702,-0.795735,0.811451,0.911353,-1110.41,1151.27)">
        <g>
            <path d="M1787.78,1359C1776.7,1380.07 1759.55,1393.51 1740.51,1393.21C1733.1,1393.09 1726.04,1390.91 1719.56,1387.02C1705.73,1404.97 1687.75,1415.72 1668.27,1415.42C1625.85,1414.76 1592.22,1361.93 1593.22,1297.53C1594.23,1233.12 1629.49,1181.37 1671.91,1182.03C1693.75,1182.37 1713.25,1196.53 1726.9,1218.97C1732.12,1216.79 1737.61,1215.67 1743.28,1215.76C1760.28,1216.02 1775.44,1227.19 1785.9,1244.82C1791.89,1242.84 1798.29,1241.78 1804.94,1241.78C1838.27,1241.78 1865.33,1268.59 1865.33,1301.62C1865.33,1334.64 1838.27,1361.46 1804.94,1361.46C1798.98,1361.46 1793.22,1360.6 1787.78,1359Z" style="fill:rgb(0,30,61);"/>
            <path d="M1763.04,1343.35C1766.14,1346.61 1769.77,1349.83 1774,1352.95C1767.31,1363.41 1758.17,1370.25 1748.1,1370.25C1727.6,1370.25 1710.96,1335.39 1710.96,1302.5C1710.96,1269.6 1727.6,1238.88 1748.1,1238.88C1759.6,1238.88 1764.93,1238.69 1774,1250.96C1769.52,1254.43 1765.12,1258.09 1761.18,1262.2C1758.76,1260.69 1756.17,1259.87 1753.47,1259.87C1740.32,1259.87 1729.64,1279.39 1729.64,1303.44C1729.64,1327.49 1740.32,1347.02 1753.47,1347.02C1756.87,1347.02 1760.11,1345.71 1763.04,1343.35Z" style="fill:rgb(168,97,153);"/>
            <g transform="matrix(1.06503,0,0,1.06503,-96.0909,-94.5387)">
                <circle cx="1786.97" cy="1308.71" r="40.505" style="fill:url(#_Radial39);"/>
            </g>
            <g transform="matrix(0.257958,0.955362,-0.973199,0.272303,2596.34,-783.567)">
                <ellipse cx="1789.53" cy="1290.87" rx="16.703" ry="20.596" style="fill:rgb(123,255,231);"/>
            </g>
        </g>
        <path d="M1699.05,1344.59C1701.42,1351.28 1704.36,1357.39 1707.76,1362.73C1697.61,1378.6 1683.74,1388.38 1668.46,1388.38C1637.36,1388.38 1612.11,1347.86 1612.11,1297.95C1612.11,1248.04 1637.36,1207.52 1668.46,1207.52C1685.91,1207.52 1699.33,1216.28 1712.09,1237.21C1708.24,1242.09 1704.6,1250.91 1701.76,1257.35C1694.42,1241.7 1682.98,1231.64 1670.14,1231.64C1648.01,1231.64 1630.04,1261.54 1630.04,1298.36C1630.04,1335.19 1648.01,1365.09 1670.14,1365.09C1681.5,1365.09 1691.75,1357.22 1699.05,1344.59Z" style="fill:rgb(168,97,153);"/>
        <path d="M1695.18,1330.33C1689.82,1344.1 1680.98,1353.09 1670.99,1353.09C1654.66,1353.09 1641.4,1329.04 1641.4,1299.41C1641.4,1269.78 1654.66,1245.72 1670.99,1245.72C1681.75,1245.72 1691.16,1256.14 1696.35,1271.72C1693.84,1281.53 1692.46,1292.28 1692.46,1303.54C1692.46,1312.9 1693.42,1321.91 1695.18,1330.33Z" style="fill:rgb(79,0,96);"/>
        <path d="M1755.91,1332.47C1755.65,1332.49 1755.4,1332.5 1755.15,1332.5C1746.05,1332.5 1738.66,1318.8 1738.66,1301.92C1738.66,1285.04 1746.05,1271.34 1755.15,1271.34C1755.31,1271.34 1755.47,1271.34 1755.63,1271.35C1750.23,1280.19 1747.12,1290.58 1747.12,1301.68C1747.12,1312.98 1750.34,1323.53 1755.91,1332.47Z" style="fill:rgb(79,0,96);"/>
    </g>
    <g transform="matrix(1,0,0,1,40,72)">
        <g>
            <path d="M1896.1,672.051L1987.83,765.794L1966.59,899.911L1938.76,857.934L1831.38,902.09L1868.55,726.801L1764.38,758.184L1658.38,691.926L1522.49,812.012L1669.27,793.911L1705.4,817.911L1655.98,864.122L1760.83,864.005L1735.12,1031.96L1891.23,970.294L1932.45,1010.04L1920.83,1143.12L2008.22,1056.02L2060.73,1114.94L2061.02,1019.83L2162.72,1027.5L2056.03,918.122L2109.87,773.872L2200.69,767.403L2142.22,717.809L2234.76,674.856L2126.07,664.036L2166.73,557.692L2066.45,624.005L2065.89,474.083L1998.66,606.028L1903.82,505.981L1910.75,367.34L2004.73,351.192L1945.28,293.872L2052.49,224.176L1906.97,203.848L2014.81,86.051L1816.78,174.817L1680.6,192.458L1736.78,139.77L1635.08,150.536L1757.97,56.676L1574.03,90.637L1632.05,-12.675L1472.05,58.45L1335.81,16.13L1342.06,105.176L1204.04,103.919L1282.04,7.083L1130.74,66.7L1089.92,-5.574L1054.12,64.919L944.627,34.747L967.08,142.973L830.846,149.505L715.627,87.716L743.119,251.778L601.33,247.887L568.916,171.153L667.986,93.786L361.096,94.817L365.221,9.38L274.455,81.7L274.572,5.88L205.103,93.387L65.721,59.887L129.111,185.294L46.885,252.012L109.127,271.598L101.111,451.809L172.119,459.77L139.822,505.872L21.338,571.895L137.361,606.997L182.314,805.426L72.361,933.239L189.127,895.387L176.471,1065.98L281.385,941.426L366.939,1009.23L349.705,851.239L456.213,818.426L644.502,833.426L584.322,779.426L609.916,739.286L683.158,737.333L725.596,827.473L794.314,752.051L984.26,747.989L981.682,687.512L1060.31,675.833L1107.04,775.473L1343.72,719.583L1358.15,631.622L1410.72,718.09L1686.8,660.255L1782.09,723.762L1896.1,672.051" style="fill:url(#_Radial40);"/>
            <path d="M80.523,568.786C78.533,567.218 160.08,587.833 160.08,587.833L212.116,802.426L142.288,882.333L205.934,857.057C205.934,857.057 205.241,998.583 204.747,997.057C204.252,995.531 276.752,906.843 276.752,906.843L340.773,962.239C340.773,962.239 320.84,835.676 320.997,834.801C321.153,833.926 455.346,790.52 455.346,790.52L590.033,805.406L559.184,780.171L594.268,716.036L704.867,711.374L733.731,788.301L784.393,729.395L960.507,726.27L953.215,669.921L1083.28,648.505L1118.98,747.265L1322.73,698.135L1343.04,578.525L1425.01,686.031L1625.36,644.38L1616.54,602.005L1782.57,697.218L1901.38,643.275L2009.34,753.301L1972.69,934.218L1925.39,887.604L1810.17,930.286L1838.24,759.52L1753.86,781.854L1668.23,720.885L1567.02,791.551L1671.13,774.104L1740.31,812.854L1701.52,848.859L1783.64,843.551L1760.66,1000.8L1898.44,946.208L1952.5,999.541L1945.66,1085.48L2006.98,1020.23L2039.27,1059.52L2035.04,996.718L2102.61,1006.14L2028.36,932.348L2085.59,745.322L2145.67,747.609L2101.58,712.676L2150.98,686.984L2096.16,680.114L2113.87,623.421L2038.47,654.27L2040.69,568.827L2001.67,651.671L1880.08,516.755C1880.08,516.755 1885.06,357.176 1884.43,355.874C1883.8,354.572 1954.48,342.395 1954.48,342.395L1906,285.208L1985.25,235.958L1859.73,222.52L1931.73,152.505L1807.8,206.525L1639.29,215.916L1679.23,166.593L1537.78,183.124L1666.59,100.583L1509.88,133.911L1571.11,44.083L1481.7,79.093L1364.42,60.385L1371.52,136.468L1163.95,125.895L1214.8,60.572L1115.24,91.156L1088.44,48.666L1072.48,94.781L974.788,69.89L998.153,165.942L820.663,180.567L742.976,131.317L773.783,282.343L593.512,275.926L536.439,167.01L596.335,114.781L337.533,113.906L337.726,58.432L263.054,111.156L255.262,67.447L205.825,126.083L113.934,106.119L167.497,192.781L94.768,241.343L127.445,252.64L124.163,430.088L217.585,436.275L158.903,524.463L80.523,568.786" style="fill:url(#_Radial41);"/>
            <path d="M1412.33,531.59L1427.94,645.434L1581.22,628.523L1579.88,541.096L1738.85,638.294L1870.64,601.262L1769.13,492.955L1811.2,487.533L1806.62,276.45L1467.34,258.929L1460.05,220.981L1073.62,184.669L1073.58,246.33L810.239,242.205L808.442,334.783L521.046,326.382L480.161,179.596L230.713,188.335L181.505,374.299L322.76,383.46L211.968,555.064L252.822,754.653L559.229,743.658L564.307,654.934L694.755,651.08L694.338,607.825L765.077,612.403L783.364,697.309L922.827,698.226L919.354,627.294L1016.67,612.215L1010.06,518.372L1123.3,514.898L1148.64,682.382L1266.23,665.049L1286.96,534.372C1286.96,534.372 1420.03,532.669 1412.33,531.59" style="fill:rgb(79,0,96);"/>
            <g>
                <path d="M257.291,218.273L218.812,349.867L382.13,360.861L245.458,564.153L281.609,723.544L533.505,719.46L525.369,533.653L361.4,544.992L489.676,347.617L447.145,208.84L257.291,218.273" style="fill:rgb(217,113,215);"/>
                <path d="M550.76,367.695L564.426,623.559L668.114,625.465L668.614,578.205L789.442,587.445L807.807,662.08L885.494,664.445L860.869,368.84L550.76,367.695ZM664.718,444.507L669.26,509.715L757.223,512.919C757.223,512.919 761.265,456.684 759.854,457.335C758.442,457.986 664.718,444.507 664.718,444.507Z" style="fill:rgb(217,113,215);"/>
                <path d="M848.312,271.45L852.202,335.663L888.473,342.195L914.473,599.585L986.932,591.986L983.458,488.679L1151.97,477.684L1120.21,278.283L848.312,271.45ZM992.812,335.778L1000.1,392.398L1043.43,403.773L1042.33,349.788L992.812,335.778Z" style="fill:rgb(217,113,215);"/>
                <path d="M1106.58,211.018L1107.04,242.205L1151.17,249.231L1177.74,509.981L1157.74,512.044L1174.08,648.408L1248.64,644.288L1264.52,501.429L1446.32,495.205L1436.85,305.887L1413.79,244.268L1106.58,211.018ZM1227.03,333.643L1233.56,411.028L1337.89,409.08L1339.08,336.351L1227.03,333.643Z" style="fill:rgb(217,113,215);"/>
                <path d="M1469.38,292.257L1481.71,528.038L1447.16,531.742L1459.37,620.387L1559.86,608.288L1554.97,498.413L1753.14,609.814L1816.63,589.773L1719.13,477.721L1769.76,467.908L1767.08,305.502L1469.38,292.257ZM1539.32,357.653L1539.32,418.585L1680.42,418.585L1680.42,356.393L1539.32,357.653Z" style="fill:rgb(217,113,215);"/>
            </g>
        </g>
        <g>
            <path d="M514.835,378.317L414.562,512.262L516.617,499.09L514.835,378.317" style="fill:rgb(209,140,0);"/>
            <path d="M686.632,467.426L685.773,490.27L736.687,491.075L740.062,470.169L686.632,467.426" style="fill:rgb(209,140,0);"/>
            <path d="M1251.1,354.744L1252.33,381.505L1321.5,382.765L1316.73,356.192L1251.1,354.744" style="fill:rgb(209,140,0);"/>
            <path d="M1561.02,373.833L1562.7,401.702L1655.47,400.364L1653.33,375.13L1561.02,373.833" style="fill:rgb(209,140,0);"/>
        </g>
        <g>
            <path d="M366.207,544.503C365.019,545.498 339.863,569.243 339.863,569.243L508.03,572.566L525.556,535.342L366.207,544.503" style="fill:url(#_Linear42);"/>
            <path d="M549.394,366.771L563.009,624.675L577.973,619.711L575.493,399.925L549.394,366.771L570.907,366.81L865.634,368.696L883.96,660.826L855.025,387.368L588.129,382.935C593.636,376.24 577.807,390.857 575.493,399.925" style="fill:url(#_Linear43);"/>
            <path d="M670.607,511.149L773.302,523.688L761.849,459.266L757.956,513.115L670.607,511.149" style="fill:url(#_Linear44);"/>
            <path d="M850.863,270.704L850.863,300.48L1123.06,304.068L1121.19,280.745C1121.19,280.745 844.217,272.646 850.863,270.704" style="fill:url(#_Linear45);"/>
            <path d="M1001.47,393.407C1000.18,392.761 1018.95,417.912 1018.95,417.912L1063.24,427.459L1059.08,359.349L1042.93,351.87L1043.81,403.407C1043.81,403.407 996.092,395.386 1001.47,393.407" style="fill:url(#_Linear46);"/>
            <path d="M1109.24,211.412L1107.53,243.287L1149.75,251.308L1164.9,363.511C1164.9,363.511 1174.97,250.068 1173.69,248.75C1172.4,247.433 1402.11,269.882 1424.37,272.61C1420.46,261.106 1414.58,243.959 1414.58,243.959L1109.24,211.412" style="fill:url(#_Linear47);"/>
            <path d="M1234.46,411.594C1232.67,411.367 1264.62,431.428 1264.62,431.428L1358.96,429.745L1356.9,348.506C1356.9,348.506 1338.95,336.935 1338.88,335.696C1338.8,334.456 1338.04,408.75 1338.04,408.75C1340.25,410.21 1237.25,411.947 1234.46,411.594Z" style="fill:url(#_Linear48);"/>
            <path d="M450.372,207.968L259.023,215.681L275.674,250.197L449.914,237.9L487.44,347.51L450.372,207.968Z" style="fill:url(#_Linear49);"/>
            <path d="M219.247,348.577L259.023,215.681L277.008,251.609L238.45,350.333L219.247,348.577" style="fill:url(#_Linear50);"/>
            <path d="M384.083,358.55C378.336,366.642 242.433,568.351 242.433,568.351L279.65,719.816L288.016,726.12L255.134,577.173L409.289,372.744C400.485,362.659 391.033,358.302 384.083,358.55Z" style="fill:url(#_Linear51);"/>
            <path d="M1471.16,293.549L1472.22,316.396L1767.86,327.619L1767.74,306.517L1471.16,293.549" style="fill:url(#_Linear52);"/>
            <path d="M1540.97,419.619L1559.78,434.564L1695.76,433.533L1697.71,374.58C1697.71,374.58 1683.62,358.744 1682.19,358.486C1680.75,358.228 1681.41,418.556 1681.41,418.556L1540.97,419.619" style="fill:url(#_Linear53);"/>
        </g>
        <g transform="matrix(1,0,0,1,-40,-72)">
            <path d="M1343.15,278.1L1459.12,288.116L1531.68,236.007L1470.8,253.241L1486.38,197.929L1416.86,236.233L1374.37,256.046L1376.94,224.327L1334.97,254.335L1271.58,252.1L1272.32,218.022L1240.08,265.897L1343.15,278.1" style="fill:rgb(248,233,0);"/>
        </g>
    </g>
    <path d="M1427.99,976.027L1393.8,970.264C1393.8,970.264 1389.16,988.837 1393.8,988.455C1398.44,988.072 1427.99,976.027 1427.99,976.027Z" style="fill:rgb(154,69,117);"/>
    <path d="M1425.79,986.259L1397.1,998.095L1404.41,1008.86L1425.79,986.259Z" style="fill:rgb(134,45,111);"/>
    <path d="M1437.13,1001.8L1417.51,1022.72L1428.94,1034.71L1437.13,1001.8Z" style="fill:rgb(97,26,110);"/>
    <path d="M1453.16,1014.66L1448.68,1050.09L1467.73,1055.4L1453.16,1014.66Z" style="fill:rgb(97,26,110);"/>
    <path d="M1469.88,1017.36L1483.74,1045.01L1483.76,1028.69L1469.88,1017.36Z" style="fill:rgb(97,26,110);"/>
    <path d="M1413.74,957.343L1404.69,960.034L1434.76,968.655L1413.74,957.343Z" style="fill:rgb(154,69,117);"/>
    <path d="M1422.71,915.363L1427.33,933.032C1390.28,916.201 1347.55,926.712 1371.29,1002.72L1359.4,1014.58C1323.87,949.291 1353.45,891.265 1422.71,915.363Z" style="fill:rgb(241,254,183);"/>
    <g transform="matrix(0.768214,0,0,0.768214,413.709,170.236)">
        <path d="M1402,920.309L1399.59,934.517C1360.2,935.344 1358.63,971.156 1380.58,1008.61L1365.32,1027.81C1307.95,930.208 1364.89,915.068 1402,920.309Z" style="fill:rgb(241,254,183);"/>
    </g>
    <g>
        <path d="M1175.81,1172.11L1145.93,1208.62C1141.87,1232.71 1140.78,1249.32 1140.55,1263.77L1178.3,1211.04C1176.04,1198.2 1175.42,1185.2 1175.81,1172.11Z" style="fill:rgb(172,253,255);"/>
        <path d="M1203.99,1136.74C1201.1,1147.8 1201.64,1169.68 1204.7,1176.58L1231.1,1149.58C1230.43,1137.47 1230.74,1123.37 1233.92,1103.44L1203.99,1136.74Z" style="fill:rgb(172,253,255);"/>
        <path d="M1261.44,1073.41C1257.45,1085.03 1256.03,1107.27 1257.59,1123.7L1286.06,1098.42C1284.18,1088.15 1284.45,1064.13 1288.09,1052.67L1261.44,1073.41Z" style="fill:rgb(172,253,255);"/>
        <path d="M1316.19,1037.57C1314.46,1054.15 1314.32,1066.34 1315.79,1074.02C1328.98,1061.6 1340.37,1052.18 1350.31,1045.16L1340.93,1030.91C1335.19,1034 1328.5,1033.24 1316.19,1037.57Z" style="fill:rgb(172,253,255);"/>
    </g>
    <path d="M1340.54,1379C1333.23,1386.87 1325.24,1397.32 1316.67,1409.62C1327.11,1446.52 1333.06,1475.82 1354.33,1514.89C1362.87,1530.57 1381.08,1527.6 1392.45,1516.84C1420.59,1490.22 1446.04,1459.89 1474.91,1426.42C1488.23,1410.97 1494.08,1402.34 1496.14,1382.93L1478.73,1375.68C1474.58,1394.32 1463.25,1407.75 1452.01,1421.59C1431.82,1446.45 1392.83,1488.62 1379.71,1497.31C1374.56,1500.72 1364.15,1494.19 1358.67,1485.76C1351.91,1475.35 1340.24,1443.74 1335.83,1428.78C1339.24,1424.09 1342.9,1420.2 1348.28,1415.24C1342.26,1407.02 1340.27,1399.44 1340.54,1379Z" style="fill:url(#_Linear54);"/>
    <defs>
        <linearGradient id="_Linear1" x1="0" y1="0" x2="1" y2="0" gradientUnits="userSpaceOnUse" gradientTransform="matrix(625,-161,161,625,777,1331)"><stop offset="0" style="stop-color:rgb(52,17,59);stop-opacity:1"/><stop offset="0.51" style="stop-color:rgb(39,20,59);stop-opacity:1"/><stop offset="1" style="stop-color:rgb(0,30,61);stop-opacity:1"/></linearGradient>
        <radialGradient id="_Radial2" cx="0" cy="0" r="1" gradientUnits="userSpaceOnUse" gradientTransform="matrix(883.428,0,0,883.428,1119,1752)"><stop offset="0" style="stop-color:rgb(214,80,190);stop-opacity:1"/><stop offset="0.26" style="stop-color:rgb(200,80,178);stop-opacity:1"/><stop offset="0.6" style="stop-color:rgb(168,80,150);stop-opacity:1"/><stop offset="0.8" style="stop-color:rgb(187,94,166);stop-opacity:1"/><stop offset="1" style="stop-color:rgb(241,135,214);stop-opacity:1"/></radialGradient>
        <linearGradient id="_Linear3" x1="0" y1="0" x2="1" y2="0" gradientUnits="userSpaceOnUse" gradientTransform="matrix(26,26,-26,26,583,1389)"><stop offset="0" style="stop-color:rgb(255,255,220);stop-opacity:1"/><stop offset="1" style="stop-color:rgb(252,255,237);stop-opacity:1"/></linearGradient>
        <linearGradient id="_Linear4" x1="0" y1="0" x2="1" y2="0" gradientUnits="userSpaceOnUse" gradientTransform="matrix(18.8385,69.5573,-69.5573,18.8385,580.161,1108.44)"><stop offset="0" style="stop-color:white;stop-opacity:1"/><stop offset="1" style="stop-color:rgb(239,239,194);stop-opacity:1"/></linearGradient>
        <linearGradient id="_Linear5" x1="0" y1="0" x2="1" y2="0" gradientUnits="userSpaceOnUse" gradientTransform="matrix(27,42,-42,27,607,995)"><stop offset="0" style="stop-color:rgb(255,255,234);stop-opacity:1"/><stop offset="0.52" style="stop-color:rgb(250,250,216);stop-opacity:1"/><stop offset="1" style="stop-color:rgb(232,232,158);stop-opacity:1"/></linearGradient>
        <linearGradient id="_Linear6" x1="0" y1="0" x2="1" y2="0" gradientUnits="userSpaceOnUse" gradientTransform="matrix(51,86,-86,51,697,1038)"><stop offset="0" style="stop-color:rgb(255,255,227);stop-opacity:1"/><stop offset="0.56" style="stop-color:rgb(250,250,219);stop-opacity:1"/><stop offset="1" style="stop-color:rgb(232,229,189);stop-opacity:1"/></linearGradient>
        <linearGradient id="_Linear7" x1="0" y1="0" x2="1" y2="0" gradientUnits="userSpaceOnUse" gradientTransform="matrix(65,74,-74,65,799,899)"><stop offset="0" style="stop-color:rgb(255,253,229);stop-opacity:1"/><stop offset="0.57" style="stop-color:rgb(252,251,220);stop-opacity:1"/><stop offset="0.8" style="stop-color:rgb(246,246,201);stop-opacity:1"/><stop offset="1" style="stop-color:rgb(241,242,182);stop-opacity:1"/></linearGradient>
        <linearGradient id="_Linear8" x1="0" y1="0" x2="1" y2="0" gradientUnits="userSpaceOnUse" gradientTransform="matrix(118,51,-51,118,995,968)"><stop offset="0" style="stop-color:rgb(255,255,222);stop-opacity:1"/><stop offset="0.52" style="stop-color:rgb(248,248,207);stop-opacity:1"/><stop offset="1" style="stop-color:rgb(226,227,160);stop-opacity:1"/></linearGradient>
        <linearGradient id="_Linear9" x1="0" y1="0" x2="1" y2="0" gradientUnits="userSpaceOnUse" gradientTransform="matrix(144,67,-67,144,836,1125)"><stop offset="0" style="stop-color:rgb(255,254,229);stop-opacity:1"/><stop offset="0.51" style="stop-color:rgb(244,244,211);stop-opacity:1"/><stop offset="1" style="stop-color:rgb(209,211,153);stop-opacity:1"/></linearGradient>
        <linearGradient id="_Linear10" x1="0" y1="0" x2="1" y2="0" gradientUnits="userSpaceOnUse" gradientTransform="matrix(88,27,-27,88,1001,1210)"><stop offset="0" style="stop-color:rgb(250,249,230);stop-opacity:1"/><stop offset="0.52" style="stop-color:rgb(244,244,218);stop-opacity:1"/><stop offset="1" style="stop-color:rgb(224,228,177);stop-opacity:1"/></linearGradient>
        <linearGradient id="_Linear11" x1="0" y1="0" x2="1" y2="0" gradientUnits="userSpaceOnUse" gradientTransform="matrix(86,89,-89,86,658,1198)"><stop offset="0" style="stop-color:rgb(255,255,234);stop-opacity:1"/><stop offset="0.52" style="stop-color:rgb(250,250,216);stop-opacity:1"/><stop offset="1" style="stop-color:rgb(232,232,158);stop-opacity:1"/></linearGradient>
        <linearGradient id="_Linear12" x1="0" y1="0" x2="1" y2="0" gradientUnits="userSpaceOnUse" gradientTransform="matrix(50,113,-113,50,675,956)"><stop offset="0" style="stop-color:rgb(255,254,217);stop-opacity:1"/><stop offset="0.26" style="stop-color:rgb(255,249,161);stop-opacity:1"/><stop offset="0.54" style="stop-color:rgb(255,248,145);stop-opacity:1"/><stop offset="1" style="stop-color:rgb(255,207,104);stop-opacity:0.14"/></linearGradient>
        <radialGradient id="_Radial13" cx="0" cy="0" r="1" gradientUnits="userSpaceOnUse" gradientTransform="matrix(275.089,0,0,275.089,895,1565)"><stop offset="0" style="stop-color:white;stop-opacity:1"/><stop offset="0.54" style="stop-color:rgb(252,252,251);stop-opacity:1"/><stop offset="0.73" style="stop-color:rgb(245,245,242);stop-opacity:1"/><stop offset="0.89" style="stop-color:rgb(238,238,233);stop-opacity:1"/><stop offset="1" style="stop-color:rgb(192,192,138);stop-opacity:1"/></radialGradient>
        <linearGradient id="_Linear14" x1="0" y1="0" x2="1" y2="0" gradientUnits="userSpaceOnUse" gradientTransform="matrix(241,-34,34,241,750,1321)"><stop offset="0" style="stop-color:white;stop-opacity:0.39"/><stop offset="0.33" style="stop-color:rgb(255,235,154);stop-opacity:0.75"/><stop offset="0.75" style="stop-color:rgb(255,229,138);stop-opacity:0.75"/><stop offset="1" style="stop-color:rgb(255,252,213);stop-opacity:0.3"/></linearGradient>
        <linearGradient id="_Linear15" x1="0" y1="0" x2="1" y2="0" gradientUnits="userSpaceOnUse" gradientTransform="matrix(303,-44,44,303,755,1557)"><stop offset="0" style="stop-color:white;stop-opacity:0.4"/><stop offset="0.26" style="stop-color:rgb(255,235,154);stop-opacity:0.78"/><stop offset="0.6" style="stop-color:rgb(255,229,138);stop-opacity:0.78"/><stop offset="1" style="stop-color:rgb(255,252,213);stop-opacity:0.31"/></linearGradient>
        <linearGradient id="_Linear16" x1="0" y1="0" x2="1" y2="0" gradientUnits="userSpaceOnUse" gradientTransform="matrix(142.69,-79.6771,79.6771,142.69,789.496,1072.2)"><stop offset="0" style="stop-color:white;stop-opacity:0.51"/><stop offset="0.33" style="stop-color:rgb(255,235,154);stop-opacity:1"/><stop offset="0.75" style="stop-color:rgb(255,229,138);stop-opacity:1"/><stop offset="1" style="stop-color:rgb(255,252,213);stop-opacity:0.4"/></linearGradient>
        <linearGradient id="_Linear17" x1="0" y1="0" x2="1" y2="0" gradientUnits="userSpaceOnUse" gradientTransform="matrix(47.0594,302.438,-302.438,47.0594,932.273,712.742)"><stop offset="0" style="stop-color:white;stop-opacity:0.51"/><stop offset="0.33" style="stop-color:rgb(255,235,154);stop-opacity:1"/><stop offset="0.57" style="stop-color:rgb(255,229,138);stop-opacity:1"/><stop offset="1" style="stop-color:rgb(255,252,213);stop-opacity:0.4"/></linearGradient>
        <linearGradient id="_Linear18" x1="0" y1="0" x2="1" y2="0" gradientUnits="userSpaceOnUse" gradientTransform="matrix(61.9635,-34.3958,34.3958,61.9635,724.504,1156.93)"><stop offset="0" style="stop-color:rgb(225,112,228);stop-opacity:0.75"/><stop offset="0.28" style="stop-color:rgb(247,202,171);stop-opacity:0.75"/><stop offset="0.51" style="stop-color:rgb(255,238,148);stop-opacity:0.75"/><stop offset="0.73" style="stop-color:rgb(249,208,168);stop-opacity:0.75"/><stop offset="1" style="stop-color:rgb(236,136,216);stop-opacity:0.75"/></linearGradient>
        <linearGradient id="_Linear19" x1="0" y1="0" x2="1" y2="0" gradientUnits="userSpaceOnUse" gradientTransform="matrix(98.1161,-81.9906,81.9906,98.1161,629.664,1254.75)"><stop offset="0" style="stop-color:rgb(225,112,228);stop-opacity:0.5"/><stop offset="0.28" style="stop-color:rgb(247,202,171);stop-opacity:0.5"/><stop offset="0.51" style="stop-color:rgb(255,238,148);stop-opacity:0.5"/><stop offset="0.78" style="stop-color:rgb(251,216,163);stop-opacity:0.5"/><stop offset="1" style="stop-color:rgb(236,136,216);stop-opacity:0.5"/></linearGradient>
        <radialGradient id="_Radial20" cx="0" cy="0" r="1" gradientUnits="userSpaceOnUse" gradientTransform="matrix(106.23,0,0,106.23,895.309,1544.76)"><stop offset="0" style="stop-color:rgb(230,126,228);stop-opacity:1"/><stop offset="0.53" style="stop-color:rgb(205,110,204);stop-opacity:1"/><stop offset="1" style="stop-color:rgb(120,53,122);stop-opacity:1"/></radialGradient>
        <radialGradient id="_Radial21" cx="0" cy="0" r="1" gradientUnits="userSpaceOnUse" gradientTransform="matrix(211.413,0,0,211.413,887.571,1360.15)"><stop offset="0" style="stop-color:white;stop-opacity:1"/><stop offset="0.63" style="stop-color:rgb(236,236,229);stop-opacity:1"/><stop offset="0.83" style="stop-color:rgb(186,186,163);stop-opacity:1"/><stop offset="1" style="stop-color:rgb(129,130,89);stop-opacity:1"/></radialGradient>
        <radialGradient id="_Radial22" cx="0" cy="0" r="1" gradientUnits="userSpaceOnUse" gradientTransform="matrix(211.413,0,0,211.413,887.571,1360.15)"><stop offset="0" style="stop-color:white;stop-opacity:1"/><stop offset="0.63" style="stop-color:rgb(236,236,229);stop-opacity:1"/><stop offset="0.83" style="stop-color:rgb(186,186,163);stop-opacity:1"/><stop offset="1" style="stop-color:rgb(129,130,89);stop-opacity:1"/></radialGradient>
        <radialGradient id="_Radial23" cx="0" cy="0" r="1" gradientUnits="userSpaceOnUse" gradientTransform="matrix(211.413,0,0,211.413,887.571,1360.15)"><stop offset="0" style="stop-color:white;stop-opacity:1"/><stop offset="0.63" style="stop-color:rgb(236,236,229);stop-opacity:1"/><stop offset="0.83" style="stop-color:rgb(186,186,163);stop-opacity:1"/><stop offset="1" style="stop-color:rgb(129,130,89);stop-opacity:1"/></radialGradient>
        <radialGradient id="_Radial24" cx="0" cy="0" r="1" gradientUnits="userSpaceOnUse" gradientTransform="matrix(211.413,0,0,211.413,887.571,1360.15)"><stop offset="0" style="stop-color:white;stop-opacity:1"/><stop offset="0.63" style="stop-color:rgb(236,236,229);stop-opacity:1"/><stop offset="0.83" style="stop-color:rgb(186,186,163);stop-opacity:1"/><stop offset="1" style="stop-color:rgb(129,130,89);stop-opacity:1"/></radialGradient>
        <linearGradient id="_Linear25" x1="0" y1="0" x2="1" y2="0" gradientUnits="userSpaceOnUse" gradientTransform="matrix(169.997,-408.703,408.703,169.997,1100.8,1565.28)"><stop offset="0" style="stop-color:rgb(225,112,228);stop-opacity:0.66"/><stop offset="0.4" style="stop-color:rgb(247,202,171);stop-opacity:0.66"/><stop offset="0.74" style="stop-color:rgb(255,238,148);stop-opacity:0.66"/><stop offset="0.86" style="stop-color:rgb(249,208,168);stop-opacity:0.66"/><stop offset="1" style="stop-color:rgb(236,136,216);stop-opacity:0.66"/></linearGradient>
        <radialGradient id="_Radial26" cx="0" cy="0" r="1" gradientUnits="userSpaceOnUse" gradientTransform="matrix(70.1636,0,0,70.1636,1341.15,1256.04)"><stop offset="0" style="stop-color:rgb(230,126,228);stop-opacity:1"/><stop offset="1" style="stop-color:rgb(120,53,122);stop-opacity:1"/></radialGradient>
        <linearGradient id="_Linear27" x1="0" y1="0" x2="1" y2="0" gradientUnits="userSpaceOnUse" gradientTransform="matrix(44.048,-62.1906,62.1906,44.048,1334,1260.61)"><stop offset="0" style="stop-color:rgb(225,112,228);stop-opacity:0.25"/><stop offset="0.28" style="stop-color:rgb(247,202,171);stop-opacity:0.25"/><stop offset="0.51" style="stop-color:rgb(255,238,148);stop-opacity:0.25"/><stop offset="0.73" style="stop-color:rgb(249,208,168);stop-opacity:0.25"/><stop offset="1" style="stop-color:rgb(236,136,216);stop-opacity:0.25"/></linearGradient>
        <linearGradient id="_Linear28" x1="0" y1="0" x2="1" y2="0" gradientUnits="userSpaceOnUse" gradientTransform="matrix(198.997,-194.815,194.815,198.997,306.064,1307.5)"><stop offset="0" style="stop-color:rgb(225,112,228);stop-opacity:0.86"/><stop offset="0.28" style="stop-color:rgb(247,202,171);stop-opacity:0.86"/><stop offset="0.51" style="stop-color:rgb(255,238,148);stop-opacity:0.86"/><stop offset="0.73" style="stop-color:rgb(249,208,168);stop-opacity:0.86"/><stop offset="1" style="stop-color:rgb(236,136,216);stop-opacity:0.86"/></linearGradient>
        <linearGradient id="_Linear29" x1="0" y1="0" x2="1" y2="0" gradientUnits="userSpaceOnUse" gradientTransform="matrix(181.48,26.4023,-26.4023,181.48,454.16,1431.83)"><stop offset="0" style="stop-color:rgb(225,112,228);stop-opacity:0.5"/><stop offset="0.28" style="stop-color:rgb(247,202,171);stop-opacity:0.5"/><stop offset="0.51" style="stop-color:rgb(255,238,148);stop-opacity:0.5"/><stop offset="0.73" style="stop-color:rgb(249,208,168);stop-opacity:0.5"/><stop offset="1" style="stop-color:rgb(236,136,216);stop-opacity:0.5"/></linearGradient>
        <linearGradient id="_Linear30" x1="0" y1="0" x2="1" y2="0" gradientUnits="userSpaceOnUse" gradientTransform="matrix(84.8225,71.5547,-71.5547,84.8225,524.171,1287.75)"><stop offset="0" style="stop-color:rgb(225,112,228);stop-opacity:0.91"/><stop offset="0.21" style="stop-color:rgb(247,202,171);stop-opacity:0.91"/><stop offset="0.39" style="stop-color:rgb(255,238,148);stop-opacity:0.91"/><stop offset="0.66" style="stop-color:rgb(249,208,168);stop-opacity:0.91"/><stop offset="1" style="stop-color:rgb(236,136,216);stop-opacity:0.91"/></linearGradient>
        <linearGradient id="_Linear31" x1="0" y1="0" x2="1" y2="0" gradientUnits="userSpaceOnUse" gradientTransform="matrix(77.9805,-49.3203,49.3203,77.9805,987.957,1180.54)"><stop offset="0" style="stop-color:rgb(225,112,228);stop-opacity:0.59"/><stop offset="0.28" style="stop-color:rgb(247,202,171);stop-opacity:0.59"/><stop offset="0.51" style="stop-color:rgb(255,238,148);stop-opacity:0.59"/><stop offset="0.73" style="stop-color:rgb(249,208,168);stop-opacity:0.59"/><stop offset="1" style="stop-color:rgb(236,136,216);stop-opacity:0.59"/></linearGradient>
        <linearGradient id="_Linear32" x1="0" y1="0" x2="1" y2="0" gradientUnits="userSpaceOnUse" gradientTransform="matrix(88.3653,88.8984,-88.8984,88.3653,1204.6,1040.17)"><stop offset="0" style="stop-color:rgb(58,215,255);stop-opacity:1"/><stop offset="0.18" style="stop-color:rgb(45,173,226);stop-opacity:1"/><stop offset="0.39" style="stop-color:rgb(32,134,198);stop-opacity:1"/><stop offset="1" style="stop-color:rgb(27,117,186);stop-opacity:1"/></linearGradient>
        <linearGradient id="_Linear33" x1="0" y1="0" x2="1" y2="0" gradientUnits="userSpaceOnUse" gradientTransform="matrix(105.059,66.8099,-66.8099,105.059,1026.57,1091.67)"><stop offset="0" style="stop-color:rgb(176,104,153);stop-opacity:1"/><stop offset="1" style="stop-color:rgb(119,48,116);stop-opacity:1"/></linearGradient>
        <linearGradient id="_Linear34" x1="0" y1="0" x2="1" y2="0" gradientUnits="userSpaceOnUse" gradientTransform="matrix(125.727,0,0,119.145,1039.59,1393.53)"><stop offset="0" style="stop-color:rgb(176,104,153);stop-opacity:1"/><stop offset="1" style="stop-color:rgb(119,48,116);stop-opacity:1"/></linearGradient>
        <linearGradient id="_Linear35" x1="0" y1="0" x2="1" y2="0" gradientUnits="userSpaceOnUse" gradientTransform="matrix(-15.8229,-130.661,130.661,-15.8229,651.936,1375.5)"><stop offset="0" style="stop-color:rgb(176,104,153);stop-opacity:1"/><stop offset="1" style="stop-color:rgb(119,48,116);stop-opacity:1"/></linearGradient>
        <linearGradient id="_Linear36" x1="0" y1="0" x2="1" y2="0" gradientUnits="userSpaceOnUse" gradientTransform="matrix(-89.9006,-144.312,144.312,-89.9006,962.815,1081.34)"><stop offset="0" style="stop-color:rgb(176,104,153);stop-opacity:1"/><stop offset="1" style="stop-color:rgb(119,48,116);stop-opacity:1"/></linearGradient>
        <linearGradient id="_Linear37" x1="0" y1="0" x2="1" y2="0" gradientUnits="userSpaceOnUse" gradientTransform="matrix(176.836,0,0,89.1055,1167.56,1541.69)"><stop offset="0" style="stop-color:rgb(176,104,153);stop-opacity:1"/><stop offset="1" style="stop-color:rgb(119,48,116);stop-opacity:1"/></linearGradient>
        <linearGradient id="_Linear38" x1="0" y1="0" x2="1" y2="0" gradientUnits="userSpaceOnUse" gradientTransform="matrix(66.1719,189.207,-189.207,66.1719,1272.73,1259.48)"><stop offset="0" style="stop-color:rgb(176,104,153);stop-opacity:1"/><stop offset="1" style="stop-color:rgb(119,48,116);stop-opacity:1"/></linearGradient>
        <radialGradient id="_Radial39" cx="0" cy="0" r="1" gradientUnits="userSpaceOnUse" gradientTransform="matrix(41.9233,36.6048,-37.3277,41.1114,1773.42,1287.35)"><stop offset="0" style="stop-color:rgb(79,203,244);stop-opacity:1"/><stop offset="0.31" style="stop-color:rgb(75,187,228);stop-opacity:1"/><stop offset="1" style="stop-color:rgb(47,94,130);stop-opacity:1"/></radialGradient>
        <radialGradient id="_Radial40" cx="0" cy="0" r="1" gradientUnits="userSpaceOnUse" gradientTransform="matrix(1630.91,0,0,1630.91,1414.03,1217.75)"><stop offset="0" style="stop-color:rgb(207,149,0);stop-opacity:1"/><stop offset="0.55" style="stop-color:rgb(217,166,20);stop-opacity:1"/><stop offset="1" style="stop-color:rgb(255,228,94);stop-opacity:1"/></radialGradient>
        <radialGradient id="_Radial41" cx="0" cy="0" r="1" gradientUnits="userSpaceOnUse" gradientTransform="matrix(1165.86,0,0,1165.86,990.935,670.229)"><stop offset="0" style="stop-color:rgb(255,241,0);stop-opacity:1"/><stop offset="1" style="stop-color:rgb(255,254,209);stop-opacity:1"/></radialGradient>
        <linearGradient id="_Linear42" x1="0" y1="0" x2="1" y2="0" gradientUnits="userSpaceOnUse" gradientTransform="matrix(-250.333,18.75,-18.75,-250.333,578.436,544.027)"><stop offset="0" style="stop-color:rgb(255,223,162);stop-opacity:1"/><stop offset="0.28" style="stop-color:rgb(255,162,206);stop-opacity:1"/><stop offset="1" style="stop-color:rgb(255,148,216);stop-opacity:1"/></linearGradient>
        <linearGradient id="_Linear43" x1="0" y1="0" x2="1" y2="0" gradientUnits="userSpaceOnUse" gradientTransform="matrix(34.6641,207.565,-207.565,34.6641,561.918,380.782)"><stop offset="0" style="stop-color:rgb(255,223,162);stop-opacity:1"/><stop offset="0.16" style="stop-color:rgb(255,162,206);stop-opacity:1"/><stop offset="1" style="stop-color:rgb(255,148,216);stop-opacity:1"/></linearGradient>
        <linearGradient id="_Linear44" x1="0" y1="0" x2="1" y2="0" gradientUnits="userSpaceOnUse" gradientTransform="matrix(102.695,0,0,64.4219,670.607,491.477)"><stop offset="0" style="stop-color:rgb(255,223,162);stop-opacity:1"/><stop offset="0.28" style="stop-color:rgb(255,162,206);stop-opacity:1"/><stop offset="1" style="stop-color:rgb(255,148,216);stop-opacity:1"/></linearGradient>
        <linearGradient id="_Linear45" x1="0" y1="0" x2="1" y2="0" gradientUnits="userSpaceOnUse" gradientTransform="matrix(272.316,0,0,33.3646,850.745,287.386)"><stop offset="0" style="stop-color:rgb(255,223,162);stop-opacity:1"/><stop offset="0.21" style="stop-color:rgb(255,162,206);stop-opacity:1"/><stop offset="1" style="stop-color:rgb(255,148,216);stop-opacity:1"/></linearGradient>
        <linearGradient id="_Linear46" x1="0" y1="0" x2="1" y2="0" gradientUnits="userSpaceOnUse" gradientTransform="matrix(64.0681,6.64062,-6.64062,64.0681,1001.05,389.665)"><stop offset="0" style="stop-color:rgb(255,223,162);stop-opacity:1"/><stop offset="0.5" style="stop-color:rgb(255,162,206);stop-opacity:1"/><stop offset="1" style="stop-color:rgb(255,148,216);stop-opacity:1"/></linearGradient>
        <linearGradient id="_Linear47" x1="0" y1="0" x2="1" y2="0" gradientUnits="userSpaceOnUse" gradientTransform="matrix(319.578,0,0,152.099,1107.52,287.461)"><stop offset="0" style="stop-color:rgb(255,223,162);stop-opacity:1"/><stop offset="0.28" style="stop-color:rgb(255,162,206);stop-opacity:1"/><stop offset="1" style="stop-color:rgb(255,148,216);stop-opacity:1"/></linearGradient>
        <linearGradient id="_Linear48" x1="0" y1="0" x2="1" y2="0" gradientUnits="userSpaceOnUse" gradientTransform="matrix(-20.5861,-153.583,153.583,-20.5861,1321.86,446.709)"><stop offset="0" style="stop-color:rgb(255,223,162);stop-opacity:1"/><stop offset="0.25" style="stop-color:rgb(255,162,206);stop-opacity:1"/><stop offset="1" style="stop-color:rgb(255,148,216);stop-opacity:1"/></linearGradient>
        <linearGradient id="_Linear49" x1="0" y1="0" x2="1" y2="0" gradientUnits="userSpaceOnUse" gradientTransform="matrix(200.432,-13.4323,13.4323,200.432,263.987,237.958)"><stop offset="0" style="stop-color:rgb(255,223,162);stop-opacity:1"/><stop offset="0.28" style="stop-color:rgb(255,162,206);stop-opacity:1"/><stop offset="1" style="stop-color:rgb(255,148,216);stop-opacity:1"/></linearGradient>
        <linearGradient id="_Linear50" x1="0" y1="0" x2="1" y2="0" gradientUnits="userSpaceOnUse" gradientTransform="matrix(-49.0156,195.24,-195.24,-49.0156,270.633,191.684)"><stop offset="0" style="stop-color:rgb(255,223,162);stop-opacity:1"/><stop offset="0.41" style="stop-color:rgb(255,162,206);stop-opacity:1"/><stop offset="1" style="stop-color:rgb(255,148,216);stop-opacity:1"/></linearGradient>
        <linearGradient id="_Linear51" x1="0" y1="0" x2="1" y2="0" gradientUnits="userSpaceOnUse" gradientTransform="matrix(262.564,-282.547,282.547,262.564,242.433,542.33)"><stop offset="0" style="stop-color:rgb(255,223,162);stop-opacity:1"/><stop offset="0.28" style="stop-color:rgb(255,162,206);stop-opacity:1"/><stop offset="1" style="stop-color:rgb(255,148,216);stop-opacity:1"/></linearGradient>
        <linearGradient id="_Linear52" x1="0" y1="0" x2="1" y2="0" gradientUnits="userSpaceOnUse" gradientTransform="matrix(-343.621,-12.9102,12.9102,-343.621,1811.75,315.049)"><stop offset="0" style="stop-color:rgb(255,223,162);stop-opacity:1"/><stop offset="0.53" style="stop-color:rgb(255,162,206);stop-opacity:1"/><stop offset="1" style="stop-color:rgb(255,148,216);stop-opacity:1"/></linearGradient>
        <linearGradient id="_Linear53" x1="0" y1="0" x2="1" y2="0" gradientUnits="userSpaceOnUse" gradientTransform="matrix(-101.645,-147.711,147.711,-101.645,1684.93,429.763)"><stop offset="0" style="stop-color:rgb(255,223,162);stop-opacity:1"/><stop offset="0.11" style="stop-color:rgb(255,162,206);stop-opacity:1"/><stop offset="0.52" style="stop-color:rgb(255,151,214);stop-opacity:1"/><stop offset="1" style="stop-color:rgb(255,148,216);stop-opacity:1"/></linearGradient>
        <linearGradient id="_Linear54" x1="0" y1="0" x2="1" y2="0" gradientUnits="userSpaceOnUse" gradientTransform="matrix(122.063,-23.25,23.25,122.063,1345.57,1444.5)"><stop offset="0" style="stop-color:rgb(0,63,145);stop-opacity:1"/><stop offset="1" style="stop-color:rgb(0,110,179);stop-opacity:1"/></linearGradient>
    </defs>
</svg>
